<svg width="650" height="540" viewBox="0 0 650 540" fill="none" xmlns="http://www.w3.org/2000/svg">
<g filter="url(#filter0_d_1171_8728)">
<g clip-path="url(#clip0_1171_8728)">
<rect x="75" y="75.5" width="500" height="389" rx="15" fill="white"/>
<path d="M100.458 101.224L101.934 102.394C100.854 103.816 99.144 104.68 97.11 104.68C93.6 104.68 90.846 101.854 90.846 98.326C90.846 94.816 93.6 91.954 97.11 91.954C99.108 91.954 100.8 92.818 101.898 94.186L100.422 95.338C99.612 94.42 98.478 93.79 97.11 93.79C94.644 93.79 92.754 95.824 92.754 98.326C92.754 100.846 94.644 102.844 97.11 102.844C98.478 102.844 99.684 102.232 100.458 101.224ZM110.153 104.5V103.294C109.577 104.212 108.407 104.68 107.327 104.68C105.077 104.68 103.061 102.97 103.061 100.288C103.061 97.606 105.077 95.914 107.327 95.914C108.335 95.914 109.577 96.328 110.153 97.282V96.094H111.989V104.5H110.153ZM104.969 100.27C104.969 101.818 106.157 102.88 107.543 102.88C108.911 102.88 110.135 101.926 110.135 100.27C110.135 98.632 108.803 97.714 107.543 97.714C106.157 97.714 104.969 98.722 104.969 100.27ZM114.587 104.5V91.522H116.441V104.5H114.587ZM127.026 100.27C127.026 100.468 127.026 100.756 127.008 100.954H120.33C120.528 102.25 121.536 103.06 122.904 103.06C123.84 103.06 124.758 102.628 125.19 101.854L126.702 102.52C125.982 104.014 124.38 104.68 122.814 104.68C120.438 104.68 118.494 102.934 118.494 100.27C118.494 97.606 120.438 95.914 122.814 95.914C125.19 95.914 127.026 97.606 127.026 100.27ZM120.33 99.604H125.208C125.01 98.29 124.092 97.534 122.814 97.534C121.518 97.534 120.528 98.308 120.33 99.604ZM130.838 99.982V104.5H128.984V96.094H130.838V97.354C131.324 96.4 132.494 95.914 133.412 95.914C135.446 95.914 136.616 97.21 136.616 99.604V104.5H134.762V99.82C134.762 98.47 134.078 97.732 132.998 97.732C131.9 97.732 130.838 98.326 130.838 99.982ZM145.642 104.5V103.276C145.12 104.194 143.95 104.68 142.798 104.68C140.53 104.68 138.604 102.952 138.604 100.306C138.604 97.606 140.53 95.914 142.798 95.914C144.004 95.914 145.12 96.382 145.642 97.3V91.522H147.478V104.5H145.642ZM145.606 100.27C145.606 98.632 144.274 97.714 143.032 97.714C141.646 97.714 140.512 98.722 140.512 100.27C140.512 101.818 141.646 102.88 143.032 102.88C144.4 102.88 145.606 101.908 145.606 100.27ZM156.629 104.5V103.294C156.053 104.212 154.883 104.68 153.803 104.68C151.553 104.68 149.537 102.97 149.537 100.288C149.537 97.606 151.553 95.914 153.803 95.914C154.811 95.914 156.053 96.328 156.629 97.282V96.094H158.465V104.5H156.629ZM151.445 100.27C151.445 101.818 152.633 102.88 154.019 102.88C155.387 102.88 156.611 101.926 156.611 100.27C156.611 98.632 155.279 97.714 154.019 97.714C152.633 97.714 151.445 98.722 151.445 100.27ZM162.918 101.476V104.5H161.064V96.094H162.918V98.02C163.35 96.508 164.16 95.914 165.222 95.914C165.816 95.914 166.446 96.04 166.716 96.238L166.41 97.948C165.924 97.714 165.528 97.66 165.168 97.66C163.584 97.66 162.918 99.244 162.918 101.476Z" fill="black"/>
<path d="M185.904 95.1L184.812 96.066C184.21 95.506 183.44 95.156 182.544 95.156C180.626 95.156 179.142 96.752 179.142 98.698C179.142 100.644 180.626 102.24 182.544 102.24C184.112 102.24 185.372 101.316 185.442 99.874H182.74V98.6H187.15C187.15 102.044 185.302 103.64 182.544 103.64C179.8 103.64 177.658 101.442 177.658 98.698C177.658 95.968 179.8 93.742 182.544 93.742C183.888 93.742 185.064 94.26 185.904 95.1ZM194.05 100.728L197.326 93.854H198.656L199.832 103.5H198.348L197.522 96.612L194.694 102.422H193.434L190.592 96.612L189.766 103.5H188.282L189.458 93.854H190.774L194.05 100.728ZM200.771 95.24V93.854H207.967V95.24H205.125V103.5H203.613V95.24H200.771ZM215.763 100.476V102.73H214.489V100.476H212.249V99.202H214.489V96.962H215.763V99.202H218.003V100.476H215.763ZM219.609 98.95C219.609 96.346 220.323 94.232 222.955 94.232C225.601 94.232 226.287 96.346 226.287 98.95C226.287 101.526 225.601 103.64 222.955 103.64C220.323 103.64 219.609 101.526 219.609 98.95ZM221.037 98.95C221.037 100.756 221.429 102.24 222.955 102.24C224.467 102.24 224.859 100.756 224.859 98.95C224.859 97.144 224.467 95.66 222.955 95.66C221.429 95.66 221.037 97.144 221.037 98.95ZM233.014 100.49C233.014 99.356 232.174 98.796 231.18 98.796C230.438 98.796 229.808 98.992 228.968 99.622L228.114 98.992L228.898 94.358H233.896V95.716H230.06L229.626 98.026C230.032 97.704 230.774 97.508 231.334 97.508C233.028 97.508 234.428 98.53 234.428 100.49C234.428 102.394 233.028 103.64 230.914 103.64C229.64 103.64 228.422 102.842 227.82 101.61C228.072 101.456 228.786 101.05 229.038 100.91C229.416 101.736 230.116 102.24 230.914 102.24C232.328 102.24 233.014 101.442 233.014 100.49ZM236.07 102.702C236.07 102.156 236.518 101.75 237.064 101.75C237.61 101.75 238.044 102.156 238.044 102.702C238.044 103.248 237.61 103.64 237.064 103.64C236.518 103.64 236.07 103.248 236.07 102.702ZM236.07 97.774C236.07 97.214 236.518 96.822 237.064 96.822C237.61 96.822 238.044 97.214 238.044 97.774C238.044 98.32 237.61 98.726 237.064 98.726C236.518 98.726 236.07 98.32 236.07 97.774ZM239.857 98.95C239.857 96.346 240.571 94.232 243.203 94.232C245.849 94.232 246.535 96.346 246.535 98.95C246.535 101.526 245.849 103.64 243.203 103.64C240.571 103.64 239.857 101.526 239.857 98.95ZM241.285 98.95C241.285 100.756 241.677 102.24 243.203 102.24C244.715 102.24 245.107 100.756 245.107 98.95C245.107 97.144 244.715 95.66 243.203 95.66C241.677 95.66 241.285 97.144 241.285 98.95ZM248.306 98.95C248.306 96.346 249.02 94.232 251.652 94.232C254.298 94.232 254.984 96.346 254.984 98.95C254.984 101.526 254.298 103.64 251.652 103.64C249.02 103.64 248.306 101.526 248.306 98.95ZM249.734 98.95C249.734 100.756 250.126 102.24 251.652 102.24C253.164 102.24 253.556 100.756 253.556 98.95C253.556 97.144 253.164 95.66 251.652 95.66C250.126 95.66 249.734 97.144 249.734 98.95Z" fill="#6B7280"/>
<mask id="path-4-inside-1_1171_8728" fill="white">
<path d="M75 123.5H575V464.5H75V123.5Z"/>
</mask>
<path d="M75 124.5H575V122.5H75V124.5Z" fill="#E5E7EB" mask="url(#path-4-inside-1_1171_8728)"/>
<rect x="85" y="133.5" width="80" height="8" rx="4" fill="#F0F0F0"/>
<rect x="107.5" y="146.5" width="35" height="8" rx="4" fill="#F0F0F0"/>
<mask id="path-8-inside-2_1171_8728" fill="white">
<path d="M75 164.5H175V214.5H75V164.5Z"/>
</mask>
<path d="M75 165.5H175V163.5H75V165.5Z" fill="#E5E7EB" mask="url(#path-8-inside-2_1171_8728)"/>
<mask id="path-10-inside-3_1171_8728" fill="white">
<path d="M75 214.5H175V264.5H75V214.5Z"/>
</mask>
<path d="M75 215.5H175V213.5H75V215.5Z" fill="#E5E7EB" mask="url(#path-10-inside-3_1171_8728)"/>
<path d="M80.5 223.5C80.5 221.567 82.067 220 84 220H166C167.933 220 169.5 221.567 169.5 223.5V237.5C169.5 239.433 167.933 241 166 241H84C82.067 241 80.5 239.433 80.5 237.5V223.5Z" fill="#E8F0FD"/>
<path d="M80.5 223.5C80.5 221.567 82.067 220 84 220H166C167.933 220 169.5 221.567 169.5 223.5V237.5C169.5 239.433 167.933 241 166 241H84C82.067 241 80.5 239.433 80.5 237.5V223.5Z" stroke="#8FB6F5"/>
<path d="M148 230.5C148 227.186 150.686 224.5 154 224.5C157.314 224.5 160 227.186 160 230.5C160 233.814 157.314 236.5 154 236.5C150.686 236.5 148 233.814 148 230.5Z" fill="#8FB6F5"/>
<mask id="path-14-inside-4_1171_8728" fill="white">
<path d="M75 264.5H175V314.5H75V264.5Z"/>
</mask>
<path d="M75 265.5H175V263.5H75V265.5Z" fill="#E5E7EB" mask="url(#path-14-inside-4_1171_8728)"/>
<mask id="path-16-inside-5_1171_8728" fill="white">
<path d="M75 314.5H175V364.5H75V314.5Z"/>
</mask>
<path d="M75 315.5H175V313.5H75V315.5Z" fill="#E5E7EB" mask="url(#path-16-inside-5_1171_8728)"/>
<mask id="path-18-inside-6_1171_8728" fill="white">
<path d="M75 364.5H175V414.5H75V364.5Z"/>
</mask>
<path d="M75 365.5H175V363.5H75V365.5Z" fill="#E5E7EB" mask="url(#path-18-inside-6_1171_8728)"/>
<mask id="path-20-inside-7_1171_8728" fill="white">
<path d="M75 414.5H175V464.5H75V414.5Z"/>
</mask>
<path d="M75 415.5H175V413.5H75V415.5Z" fill="#E5E7EB" mask="url(#path-20-inside-7_1171_8728)"/>
<path d="M80.5 423.5C80.5 421.567 82.067 420 84 420H166C167.933 420 169.5 421.567 169.5 423.5V437.5C169.5 439.433 167.933 441 166 441H84C82.067 441 80.5 439.433 80.5 437.5V423.5Z" fill="#E8F0FD"/>
<path d="M80.5 423.5C80.5 421.567 82.067 420 84 420H166C167.933 420 169.5 421.567 169.5 423.5V437.5C169.5 439.433 167.933 441 166 441H84C82.067 441 80.5 439.433 80.5 437.5V423.5Z" stroke="#8FB6F5"/>
<path d="M148 430.5C148 427.186 150.686 424.5 154 424.5C157.314 424.5 160 427.186 160 430.5C160 433.814 157.314 436.5 154 436.5C150.686 436.5 148 433.814 148 430.5Z" fill="#8FB6F5"/>
<mask id="path-24-inside-8_1171_8728" fill="white">
<path d="M175 123.5H275V464.5H175V123.5Z"/>
</mask>
<path d="M274 123.5V464.5H276V123.5H274ZM176 464.5V123.5H174V464.5H176Z" fill="#E5E7EB" mask="url(#path-24-inside-8_1171_8728)"/>
<rect x="185" y="133.5" width="80" height="8" rx="4" fill="#F0F0F0"/>
<rect x="207.5" y="146.5" width="35" height="8" rx="4" fill="#F0F0F0"/>
<mask id="path-28-inside-9_1171_8728" fill="white">
<path d="M175 164.5H275V214.5H175V164.5Z"/>
</mask>
<path d="M175 165.5H275V163.5H175V165.5Z" fill="#E5E7EB" mask="url(#path-28-inside-9_1171_8728)"/>
<mask id="path-30-inside-10_1171_8728" fill="white">
<path d="M175 214.5H275V264.5H175V214.5Z"/>
</mask>
<path d="M175 215.5H275V213.5H175V215.5Z" fill="#E5E7EB" mask="url(#path-30-inside-10_1171_8728)"/>
<mask id="path-32-inside-11_1171_8728" fill="white">
<path d="M175 264.5H275V314.5H175V264.5Z"/>
</mask>
<path d="M175 265.5H275V263.5H175V265.5Z" fill="#E5E7EB" mask="url(#path-32-inside-11_1171_8728)"/>
<mask id="path-34-inside-12_1171_8728" fill="white">
<path d="M175 314.5H275V364.5H175V314.5Z"/>
</mask>
<path d="M175 315.5H275V313.5H175V315.5Z" fill="#E5E7EB" mask="url(#path-34-inside-12_1171_8728)"/>
<path d="M180.5 323.5C180.5 321.567 182.067 320 184 320H266C267.933 320 269.5 321.567 269.5 323.5V337.5C269.5 339.433 267.933 341 266 341H184C182.067 341 180.5 339.433 180.5 337.5V323.5Z" fill="#E8F0FD"/>
<path d="M180.5 323.5C180.5 321.567 182.067 320 184 320H266C267.933 320 269.5 321.567 269.5 323.5V337.5C269.5 339.433 267.933 341 266 341H184C182.067 341 180.5 339.433 180.5 337.5V323.5Z" stroke="#8FB6F5"/>
<path d="M248 330.5C248 327.186 250.686 324.5 254 324.5C257.314 324.5 260 327.186 260 330.5C260 333.814 257.314 336.5 254 336.5C250.686 336.5 248 333.814 248 330.5Z" fill="#8FB6F5"/>
<mask id="path-38-inside-13_1171_8728" fill="white">
<path d="M175 364.5H275V414.5H175V364.5Z"/>
</mask>
<path d="M175 365.5H275V363.5H175V365.5Z" fill="#E5E7EB" mask="url(#path-38-inside-13_1171_8728)"/>
<mask id="path-40-inside-14_1171_8728" fill="white">
<path d="M175 414.5H275V464.5H175V414.5Z"/>
</mask>
<path d="M175 415.5H275V413.5H175V415.5Z" fill="#E5E7EB" mask="url(#path-40-inside-14_1171_8728)"/>
<rect x="285" y="133.5" width="80" height="8" rx="4" fill="#F0F0F0"/>
<rect x="307.5" y="146.5" width="35" height="8" rx="4" fill="#F0F0F0"/>
<mask id="path-44-inside-15_1171_8728" fill="white">
<path d="M275 164.5H375V214.5H275V164.5Z"/>
</mask>
<path d="M275 165.5H375V163.5H275V165.5Z" fill="#E5E7EB" mask="url(#path-44-inside-15_1171_8728)"/>
<mask id="path-46-inside-16_1171_8728" fill="white">
<path d="M275 214.5H375V264.5H275V214.5Z"/>
</mask>
<path d="M275 215.5H375V213.5H275V215.5Z" fill="#E5E7EB" mask="url(#path-46-inside-16_1171_8728)"/>
<mask id="path-48-inside-17_1171_8728" fill="white">
<path d="M275 264.5H375V314.5H275V264.5Z"/>
</mask>
<path d="M275 265.5H375V263.5H275V265.5Z" fill="#E5E7EB" mask="url(#path-48-inside-17_1171_8728)"/>
<mask id="path-50-inside-18_1171_8728" fill="white">
<path d="M275 314.5H375V364.5H275V314.5Z"/>
</mask>
<path d="M275 315.5H375V313.5H275V315.5Z" fill="#E5E7EB" mask="url(#path-50-inside-18_1171_8728)"/>
<mask id="path-52-inside-19_1171_8728" fill="white">
<path d="M275 364.5H375V414.5H275V364.5Z"/>
</mask>
<path d="M275 365.5H375V363.5H275V365.5Z" fill="#E5E7EB" mask="url(#path-52-inside-19_1171_8728)"/>
<mask id="path-54-inside-20_1171_8728" fill="white">
<path d="M275 414.5H375V464.5H275V414.5Z"/>
</mask>
<path d="M275 415.5H375V413.5H275V415.5Z" fill="#E5E7EB" mask="url(#path-54-inside-20_1171_8728)"/>
<path d="M280.5 423.5C280.5 421.567 282.067 420 284 420H366C367.933 420 369.5 421.567 369.5 423.5V437.5C369.5 439.433 367.933 441 366 441H284C282.067 441 280.5 439.433 280.5 437.5V423.5Z" fill="#E8F0FD"/>
<path d="M280.5 423.5C280.5 421.567 282.067 420 284 420H366C367.933 420 369.5 421.567 369.5 423.5V437.5C369.5 439.433 367.933 441 366 441H284C282.067 441 280.5 439.433 280.5 437.5V423.5Z" stroke="#8FB6F5"/>
<path d="M348 430.5C348 427.186 350.686 424.5 354 424.5C357.314 424.5 360 427.186 360 430.5C360 433.814 357.314 436.5 354 436.5C350.686 436.5 348 433.814 348 430.5Z" fill="#8FB6F5"/>
<mask id="path-58-inside-21_1171_8728" fill="white">
<path d="M375 123.5H475V464.5H375V123.5Z"/>
</mask>
<path d="M474 123.5V464.5H476V123.5H474ZM376 464.5V123.5H374V464.5H376Z" fill="#E5E7EB" mask="url(#path-58-inside-21_1171_8728)"/>
<rect x="385" y="133.5" width="80" height="8" rx="4" fill="#F0F0F0"/>
<rect x="407.5" y="146.5" width="35" height="8" rx="4" fill="#F0F0F0"/>
<mask id="path-62-inside-22_1171_8728" fill="white">
<path d="M375 164.5H475V214.5H375V164.5Z"/>
</mask>
<path d="M375 165.5H475V163.5H375V165.5Z" fill="#E5E7EB" mask="url(#path-62-inside-22_1171_8728)"/>
<path d="M380.5 173.5C380.5 171.567 382.067 170 384 170H466C467.933 170 469.5 171.567 469.5 173.5V187.5C469.5 189.433 467.933 191 466 191H384C382.067 191 380.5 189.433 380.5 187.5V173.5Z" fill="#E8F0FD"/>
<path d="M380.5 173.5C380.5 171.567 382.067 170 384 170H466C467.933 170 469.5 171.567 469.5 173.5V187.5C469.5 189.433 467.933 191 466 191H384C382.067 191 380.5 189.433 380.5 187.5V173.5Z" stroke="#8FB6F5"/>
<path d="M448 180.5C448 177.186 450.686 174.5 454 174.5C457.314 174.5 460 177.186 460 180.5C460 183.814 457.314 186.5 454 186.5C450.686 186.5 448 183.814 448 180.5Z" fill="#8FB6F5"/>
<mask id="path-66-inside-23_1171_8728" fill="white">
<path d="M375 214.5H475V264.5H375V214.5Z"/>
</mask>
<path d="M375 215.5H475V213.5H375V215.5Z" fill="#E5E7EB" mask="url(#path-66-inside-23_1171_8728)"/>
<mask id="path-68-inside-24_1171_8728" fill="white">
<path d="M375 264.5H475V314.5H375V264.5Z"/>
</mask>
<path d="M375 265.5H475V263.5H375V265.5Z" fill="#E5E7EB" mask="url(#path-68-inside-24_1171_8728)"/>
<mask id="path-70-inside-25_1171_8728" fill="white">
<path d="M375 314.5H475V364.5H375V314.5Z"/>
</mask>
<path d="M375 315.5H475V313.5H375V315.5Z" fill="#E5E7EB" mask="url(#path-70-inside-25_1171_8728)"/>
<mask id="path-72-inside-26_1171_8728" fill="white">
<path d="M375 364.5H475V414.5H375V364.5Z"/>
</mask>
<path d="M375 365.5H475V363.5H375V365.5Z" fill="#E5E7EB" mask="url(#path-72-inside-26_1171_8728)"/>
<mask id="path-74-inside-27_1171_8728" fill="white">
<path d="M375 414.5H475V464.5H375V414.5Z"/>
</mask>
<path d="M375 415.5H475V413.5H375V415.5Z" fill="#E5E7EB" mask="url(#path-74-inside-27_1171_8728)"/>
<rect x="485" y="133.5" width="80" height="8" rx="4" fill="#F0F0F0"/>
<rect x="507.5" y="146.5" width="35" height="8" rx="4" fill="#F0F0F0"/>
<mask id="path-78-inside-28_1171_8728" fill="white">
<path d="M475 164.5H575V214.5H475V164.5Z"/>
</mask>
<path d="M475 165.5H575V163.5H475V165.5Z" fill="#E5E7EB" mask="url(#path-78-inside-28_1171_8728)"/>
<mask id="path-80-inside-29_1171_8728" fill="white">
<path d="M475 214.5H575V264.5H475V214.5Z"/>
</mask>
<path d="M475 215.5H575V213.5H475V215.5Z" fill="#E5E7EB" mask="url(#path-80-inside-29_1171_8728)"/>
<mask id="path-82-inside-30_1171_8728" fill="white">
<path d="M475 264.5H575V314.5H475V264.5Z"/>
</mask>
<path d="M475 265.5H575V263.5H475V265.5Z" fill="#E5E7EB" mask="url(#path-82-inside-30_1171_8728)"/>
<mask id="path-84-inside-31_1171_8728" fill="white">
<path d="M475 314.5H575V364.5H475V314.5Z"/>
</mask>
<path d="M475 315.5H575V313.5H475V315.5Z" fill="#E5E7EB" mask="url(#path-84-inside-31_1171_8728)"/>
<path d="M480.5 323.5C480.5 321.567 482.067 320 484 320H566C567.933 320 569.5 321.567 569.5 323.5V337.5C569.5 339.433 567.933 341 566 341H484C482.067 341 480.5 339.433 480.5 337.5V323.5Z" fill="#E8F0FD"/>
<path d="M480.5 323.5C480.5 321.567 482.067 320 484 320H566C567.933 320 569.5 321.567 569.5 323.5V337.5C569.5 339.433 567.933 341 566 341H484C482.067 341 480.5 339.433 480.5 337.5V323.5Z" stroke="#8FB6F5"/>
<path d="M548 330.5C548 327.186 550.686 324.5 554 324.5C557.314 324.5 560 327.186 560 330.5C560 333.814 557.314 336.5 554 336.5C550.686 336.5 548 333.814 548 330.5Z" fill="#8FB6F5"/>
<mask id="path-88-inside-32_1171_8728" fill="white">
<path d="M475 364.5H575V414.5H475V364.5Z"/>
</mask>
<path d="M475 365.5H575V363.5H475V365.5Z" fill="#E5E7EB" mask="url(#path-88-inside-32_1171_8728)"/>
<mask id="path-90-inside-33_1171_8728" fill="white">
<path d="M475 414.5H575V464.5H475V414.5Z"/>
</mask>
<path d="M475 415.5H575V413.5H475V415.5Z" fill="#E5E7EB" mask="url(#path-90-inside-33_1171_8728)"/>
</g>
</g>
<g filter="url(#filter1_d_1171_8728)">
<g clip-path="url(#clip1_1171_8728)">
<path d="M405 210.5C405 206.082 408.582 202.5 413 202.5H597C601.418 202.5 605 206.082 605 210.5V356.5C605 360.918 601.418 364.5 597 364.5H413C408.582 364.5 405 360.918 405 356.5V210.5Z" fill="white"/>
<path d="M421.648 215.476C421.648 216.088 421.384 216.76 420.556 217.084C421.576 217.336 422.092 218.284 422.092 219.016C422.092 220.36 421.132 221.5 419.524 221.5H416.032V213.232H419.272C420.724 213.232 421.648 214.084 421.648 215.476ZM417.568 216.556H419.164C419.728 216.556 420.052 216.124 420.052 215.56C420.052 214.972 419.728 214.6 419.116 214.6H417.568V216.556ZM419.404 217.84H417.568V220.132H419.44C420.112 220.132 420.484 219.568 420.484 218.992C420.484 218.452 420.112 217.84 419.404 217.84ZM426.001 220.18C426.817 220.18 427.465 219.592 427.465 218.68C427.465 217.78 426.817 217.216 426.001 217.216C425.185 217.216 424.537 217.78 424.537 218.68C424.537 219.592 425.185 220.18 426.001 220.18ZM426.001 221.608C424.417 221.608 423.085 220.444 423.085 218.68C423.085 216.904 424.417 215.776 426.001 215.776C427.585 215.776 428.917 216.904 428.917 218.68C428.917 220.444 427.585 221.608 426.001 221.608ZM432.798 220.18C433.614 220.18 434.262 219.592 434.262 218.68C434.262 217.78 433.614 217.216 432.798 217.216C431.982 217.216 431.334 217.78 431.334 218.68C431.334 219.592 431.982 220.18 432.798 220.18ZM432.798 221.608C431.214 221.608 429.882 220.444 429.882 218.68C429.882 216.904 431.214 215.776 432.798 215.776C434.382 215.776 435.714 216.904 435.714 218.68C435.714 220.444 434.382 221.608 432.798 221.608ZM440.591 221.5L438.479 219.1V221.5H437.027V212.848H438.479V217.576L440.027 215.896H441.923L439.571 218.356L442.427 221.5H440.591ZM444.702 215.896V221.5H443.25V215.896H444.702ZM443.034 213.724C443.034 213.232 443.466 212.848 443.982 212.848C444.498 212.848 444.906 213.232 444.906 213.724C444.906 214.24 444.498 214.612 443.982 214.612C443.466 214.612 443.034 214.24 443.034 213.724ZM447.819 218.512V221.5H446.355V215.896H447.819V216.724C448.143 216.112 448.827 215.776 449.487 215.776C450.795 215.776 451.575 216.592 451.575 218.188V221.5H450.111V218.452C450.111 217.636 449.679 217.204 449.043 217.204C448.371 217.204 447.819 217.54 447.819 218.512ZM457.376 218.692C457.376 217.732 456.656 217.18 455.852 217.18C455.036 217.18 454.34 217.78 454.34 218.692C454.34 219.628 455.036 220.228 455.852 220.228C456.608 220.228 457.376 219.64 457.376 218.692ZM454.22 222.04C454.46 222.604 455.12 222.964 455.708 222.964C457.124 222.964 457.508 221.908 457.412 220.732C457.124 221.296 456.344 221.62 455.624 221.62C454.16 221.62 452.816 220.492 452.816 218.716C452.816 216.916 454.16 215.776 455.624 215.776C456.356 215.776 457.088 216.088 457.412 216.652V215.896H458.84V220.696C458.84 223.192 457.652 224.296 455.708 224.296C454.544 224.296 453.524 223.66 453.032 222.64C453.356 222.484 453.896 222.196 454.22 222.04ZM465.216 214.636V220.096H466.908C468.372 220.096 469.104 218.872 469.104 217.384C469.104 215.884 468.372 214.636 466.908 214.636H465.216ZM466.908 221.5H463.68V213.232H466.908C469.272 213.232 470.64 215.032 470.64 217.384C470.64 219.736 469.272 221.5 466.908 221.5ZM477.384 218.68C477.384 218.824 477.372 219.052 477.36 219.184H473.088C473.184 219.94 473.808 220.384 474.636 220.384C475.2 220.384 475.764 220.144 476.04 219.664C476.388 219.856 476.784 220.072 477.156 220.264C476.64 221.224 475.572 221.62 474.54 221.62C472.944 221.62 471.636 220.444 471.636 218.68C471.636 216.904 472.944 215.776 474.54 215.776C476.124 215.776 477.384 216.904 477.384 218.68ZM473.076 218.188H475.956C475.848 217.42 475.272 217 474.552 217C473.784 217 473.184 217.42 473.076 218.188ZM480.537 213.76V215.896H481.725V217.072H480.537V221.5H479.085V217.072H478.065V215.896H479.085V213.76H480.537ZM487.002 221.5V220.78C486.654 221.356 485.802 221.608 485.262 221.608C483.786 221.608 482.406 220.48 482.406 218.692C482.406 216.904 483.786 215.776 485.262 215.776C485.778 215.776 486.582 215.98 487.002 216.592V215.896H488.466V221.5H487.002ZM483.918 218.692C483.918 219.604 484.65 220.204 485.466 220.204C486.27 220.204 487.002 219.652 487.002 218.692C487.002 217.732 486.234 217.18 485.466 217.18C484.65 217.18 483.918 217.78 483.918 218.692ZM491.577 215.896V221.5H490.125V215.896H491.577ZM489.909 213.724C489.909 213.232 490.341 212.848 490.857 212.848C491.373 212.848 491.781 213.232 491.781 213.724C491.781 214.24 491.373 214.612 490.857 214.612C490.341 214.612 489.909 214.24 489.909 213.724ZM493.23 221.5V212.848H494.694V221.5H493.23ZM498.472 219.352L497.704 219.16C496.252 218.776 496.12 218.092 496.12 217.444C496.12 216.532 497.08 215.776 498.184 215.776C499.252 215.776 500.308 216.256 500.368 217.54H498.976C498.94 217.12 498.556 216.964 498.22 216.964C497.848 216.964 497.512 217.096 497.512 217.516C497.512 217.744 497.776 217.9 498.1 217.984L499.036 218.212C500.332 218.572 500.5 219.436 500.5 219.892C500.5 221.044 499.372 221.62 498.208 221.62C497.104 221.62 495.988 220.936 495.952 219.736H497.32C497.356 220.132 497.812 220.48 498.352 220.444C498.772 220.432 499.084 220.204 499.084 219.88C499.096 219.592 498.892 219.448 498.472 219.352Z" fill="black"/>
<mask id="path-95-inside-34_1171_8728" fill="white">
<path d="M405 234.5H605V364.5H405V234.5Z"/>
</mask>
<path d="M405 235.5H605V233.5H405V235.5Z" fill="#F3F4F6" mask="url(#path-95-inside-34_1171_8728)"/>
<rect x="415" y="244.5" width="20" height="20" rx="10" fill="#F0F0F0"/>
<rect x="440" y="244.5" width="50" height="8" rx="4" fill="#F0F0F0"/>
<rect x="440" y="258.5" width="35" height="8" rx="4" fill="#F0F0F0"/>
<rect x="415" y="286.5" width="75" height="8" rx="4" fill="#F9D867"/>
<rect x="415" y="300.5" width="50" height="8" rx="4" fill="#F9D867"/>
<rect x="415" y="328.5" width="75" height="8" rx="4" fill="#F0F0F0"/>
<rect x="520" y="244.5" width="75" height="8" rx="4" fill="#F0F0F0"/>
<rect x="520" y="258.5" width="50" height="8" rx="4" fill="#F0F0F0"/>
<rect x="520" y="286.5" width="75" height="8" rx="4" fill="#F0F0F0"/>
<rect x="520" y="300.5" width="50" height="8" rx="4" fill="#F0F0F0"/>
<path d="M520 332.5C520 330.291 521.791 328.5 524 328.5H591C593.209 328.5 595 330.291 595 332.5V350.5C595 352.709 593.209 354.5 591 354.5H524C521.791 354.5 520 352.709 520 350.5V332.5Z" fill="#407CEE"/>
<path d="M529.75 337.61H530.86L532.33 342.73L533.81 337.61H534.91L532.83 344.5H531.84L529.75 337.61ZM536.904 339.83V344.5H535.884V339.83H536.904ZM535.704 337.94C535.704 337.57 536.024 337.29 536.394 337.29C536.784 337.29 537.074 337.57 537.074 337.94C537.074 338.31 536.784 338.59 536.394 338.59C536.024 338.59 535.704 338.31 535.704 337.94ZM542.785 342.15C542.785 342.26 542.785 342.42 542.775 342.53H539.065C539.175 343.25 539.735 343.7 540.495 343.7C541.015 343.7 541.525 343.46 541.765 343.03L542.605 343.4C542.205 344.23 541.315 344.6 540.445 344.6C539.125 344.6 538.045 343.63 538.045 342.15C538.045 340.67 539.125 339.73 540.445 339.73C541.765 339.73 542.785 340.67 542.785 342.15ZM539.065 341.78H541.775C541.665 341.05 541.155 340.63 540.445 340.63C539.725 340.63 539.175 341.06 539.065 341.78ZM550.724 339.83L549.014 344.5H548.164L546.974 341.19L545.834 344.5H544.994L543.234 339.83H544.334L545.414 342.98L546.494 339.83H547.454L548.534 342.98L549.624 339.83H550.724ZM555.161 338.6V343.52H556.781C558.131 343.52 558.821 342.44 558.821 341.07C558.821 339.71 558.131 338.6 556.781 338.6H555.161ZM556.781 344.5H554.101V337.61H556.781C558.741 337.61 559.881 339.11 559.881 341.07C559.881 343.03 558.741 344.5 556.781 344.5ZM565.5 342.15C565.5 342.26 565.5 342.42 565.49 342.53H561.78C561.89 343.25 562.45 343.7 563.21 343.7C563.73 343.7 564.24 343.46 564.48 343.03L565.32 343.4C564.92 344.23 564.03 344.6 563.16 344.6C561.84 344.6 560.76 343.63 560.76 342.15C560.76 340.67 561.84 339.73 563.16 339.73C564.48 339.73 565.5 340.67 565.5 342.15ZM561.78 341.78H564.49C564.38 341.05 563.87 340.63 563.16 340.63C562.44 340.63 561.89 341.06 561.78 341.78ZM567.987 338.06V339.83H568.977V340.68H567.987V344.5H566.957V340.68H566.117V339.83H566.957V338.06H567.987ZM573.518 344.5V343.83C573.198 344.34 572.548 344.6 571.948 344.6C570.698 344.6 569.578 343.65 569.578 342.16C569.578 340.67 570.698 339.73 571.948 339.73C572.508 339.73 573.198 339.96 573.518 340.49V339.83H574.538V344.5H573.518ZM570.638 342.15C570.638 343.01 571.298 343.6 572.068 343.6C572.828 343.6 573.508 343.07 573.508 342.15C573.508 341.24 572.768 340.73 572.068 340.73C571.298 340.73 570.638 341.29 570.638 342.15ZM577.002 339.83V344.5H575.982V339.83H577.002ZM575.802 337.94C575.802 337.57 576.122 337.29 576.492 337.29C576.882 337.29 577.172 337.57 577.172 337.94C577.172 338.31 576.882 338.59 576.492 338.59C576.122 338.59 575.802 338.31 575.802 337.94ZM578.443 344.5V337.29H579.473V344.5H578.443ZM582.633 342.63L582.003 342.48C581.003 342.21 580.643 341.72 580.713 340.96C580.763 340.27 581.533 339.73 582.383 339.73C583.203 339.73 584.033 340.11 584.083 341.11H583.103C583.063 340.76 582.743 340.61 582.423 340.61C582.153 340.61 581.873 340.71 581.763 340.87C581.683 341 581.673 341.14 581.723 341.29C581.793 341.48 582.043 341.58 582.293 341.65L583.013 341.83C584.013 342.07 584.233 342.73 584.233 343.19C584.233 344.09 583.443 344.6 582.373 344.6C581.493 344.6 580.613 344.06 580.583 343.07H581.533C581.583 343.47 581.903 343.74 582.453 343.74C582.923 343.74 583.283 343.53 583.283 343.18C583.283 342.87 582.983 342.71 582.633 342.63Z" fill="white"/>
</g>
<path d="M413 201C407.753 201 403.5 205.253 403.5 210.5V356.5C403.5 361.747 407.753 366 413 366H597C602.247 366 606.5 361.747 606.5 356.5V210.5C606.5 205.253 602.247 201 597 201H413Z" stroke="#F3F4F6" stroke-width="3"/>
</g>
<defs>
<filter id="filter0_d_1171_8728" x="0" y="0.5" width="650" height="539" filterUnits="userSpaceOnUse" color-interpolation-filters="sRGB">
<feFlood flood-opacity="0" result="BackgroundImageFix"/>
<feColorMatrix in="SourceAlpha" type="matrix" values="0 0 0 0 0 0 0 0 0 0 0 0 0 0 0 0 0 0 127 0" result="hardAlpha"/>
<feOffset/>
<feGaussianBlur stdDeviation="37.5"/>
<feComposite in2="hardAlpha" operator="out"/>
<feColorMatrix type="matrix" values="0 0 0 0 0 0 0 0 0 0 0 0 0 0 0 0 0 0 0.1 0"/>
<feBlend mode="normal" in2="BackgroundImageFix" result="effect1_dropShadow_1171_8728"/>
<feBlend mode="normal" in="SourceGraphic" in2="effect1_dropShadow_1171_8728" result="shape"/>
</filter>
<filter id="filter1_d_1171_8728" x="357" y="184.5" width="266" height="228" filterUnits="userSpaceOnUse" color-interpolation-filters="sRGB">
<feFlood flood-opacity="0" result="BackgroundImageFix"/>
<feColorMatrix in="SourceAlpha" type="matrix" values="0 0 0 0 0 0 0 0 0 0 0 0 0 0 0 0 0 0 127 0" result="hardAlpha"/>
<feOffset dx="-15" dy="15"/>
<feGaussianBlur stdDeviation="15"/>
<feComposite in2="hardAlpha" operator="out"/>
<feColorMatrix type="matrix" values="0 0 0 0 0 0 0 0 0 0 0 0 0 0 0 0 0 0 0.15 0"/>
<feBlend mode="normal" in2="BackgroundImageFix" result="effect1_dropShadow_1171_8728"/>
<feBlend mode="normal" in="SourceGraphic" in2="effect1_dropShadow_1171_8728" result="shape"/>
</filter>
<clipPath id="clip0_1171_8728">
<rect x="75" y="75.5" width="500" height="389" rx="15" fill="white"/>
</clipPath>
<clipPath id="clip1_1171_8728">
<path d="M405 210.5C405 206.082 408.582 202.5 413 202.5H597C601.418 202.5 605 206.082 605 210.5V356.5C605 360.918 601.418 364.5 597 364.5H413C408.582 364.5 405 360.918 405 356.5V210.5Z" fill="white"/>
</clipPath>
</defs>
</svg>
