<svg width="566" height="495" viewBox="0 0 566 495" fill="none" xmlns="http://www.w3.org/2000/svg">
<g filter="url(#filter0_d_1237_1160)">
<g clip-path="url(#clip0_1237_1160)">
<path d="M48 26.5C48 22.0817 51.5817 18.5 56 18.5H490C494.418 18.5 498 22.0817 498 26.5V353.5C498 357.918 494.418 361.5 490 361.5H56C51.5817 361.5 48 357.918 48 353.5V26.5Z" fill="white"/>
<mask id="path-3-inside-1_1237_1160" fill="white">
<path d="M48 18.5H498V61.5H48V18.5Z"/>
</mask>
<path d="M498 60.5H48V62.5H498V60.5Z" fill="#F3F4F6" mask="url(#path-3-inside-1_1237_1160)"/>
<path d="M69.84 35.052L71.052 35.94C70.332 36.96 69.132 37.62 67.692 37.62C65.34 37.62 63.528 35.712 63.528 33.384C63.528 31.044 65.34 29.136 67.692 29.136C69.096 29.136 70.296 29.76 71.016 30.768L69.792 31.644C69.312 31.02 68.568 30.588 67.692 30.588C66.192 30.588 65.064 31.848 65.064 33.384C65.064 34.932 66.192 36.168 67.692 36.168C68.592 36.168 69.36 35.724 69.84 35.052ZM73.6123 35.52V37.5H72.1483V31.896H73.6123V33.216C73.9003 32.196 74.5603 31.776 75.1963 31.776C75.5923 31.776 75.8923 31.848 76.1203 31.98L75.8683 33.3C75.5203 33.144 75.1603 33.144 75.0163 33.144C74.0203 33.144 73.6123 34.032 73.6123 35.52ZM82.3647 34.68C82.3647 34.824 82.3527 35.052 82.3407 35.184H78.0687C78.1647 35.94 78.7887 36.384 79.6167 36.384C80.1807 36.384 80.7447 36.144 81.0207 35.664C81.3687 35.856 81.7647 36.072 82.1367 36.264C81.6207 37.224 80.5527 37.62 79.5207 37.62C77.9247 37.62 76.6167 36.444 76.6167 34.68C76.6167 32.904 77.9247 31.776 79.5207 31.776C81.1047 31.776 82.3647 32.904 82.3647 34.68ZM78.0567 34.188H80.9367C80.8287 33.42 80.2527 33 79.5327 33C78.7647 33 78.1647 33.42 78.0567 34.188ZM87.8455 37.5V36.78C87.4975 37.356 86.6455 37.608 86.1055 37.608C84.6295 37.608 83.2495 36.48 83.2495 34.692C83.2495 32.904 84.6295 31.776 86.1055 31.776C86.6215 31.776 87.4255 31.98 87.8455 32.592V31.896H89.3095V37.5H87.8455ZM84.7615 34.692C84.7615 35.604 85.4935 36.204 86.3095 36.204C87.1135 36.204 87.8455 35.652 87.8455 34.692C87.8455 33.732 87.0775 33.18 86.3095 33.18C85.4935 33.18 84.7615 33.78 84.7615 34.692ZM92.8886 29.76V31.896H94.0766V33.072H92.8886V37.5H91.4366V33.072H90.4166V31.896H91.4366V29.76H92.8886ZM100.505 34.68C100.505 34.824 100.493 35.052 100.481 35.184H96.2093C96.3053 35.94 96.9293 36.384 97.7573 36.384C98.3213 36.384 98.8853 36.144 99.1613 35.664C99.5093 35.856 99.9053 36.072 100.277 36.264C99.7613 37.224 98.6933 37.62 97.6613 37.62C96.0653 37.62 94.7573 36.444 94.7573 34.68C94.7573 32.904 96.0653 31.776 97.6613 31.776C99.2453 31.776 100.505 32.904 100.505 34.68ZM96.1973 34.188H99.0773C98.9693 33.42 98.3933 33 97.6733 33C96.9053 33 96.3053 33.42 96.1973 34.188ZM104.919 37.5V29.232H110.031V30.6H106.443V32.748H109.587V34.104H106.443V36.132H110.151V37.5H104.919ZM113.624 35.352L112.856 35.16C111.404 34.776 111.272 34.092 111.272 33.444C111.272 32.532 112.232 31.776 113.336 31.776C114.404 31.776 115.46 32.256 115.52 33.54H114.128C114.092 33.12 113.708 32.964 113.372 32.964C113 32.964 112.664 33.096 112.664 33.516C112.664 33.744 112.928 33.9 113.252 33.984L114.188 34.212C115.484 34.572 115.652 35.436 115.652 35.892C115.652 37.044 114.524 37.62 113.36 37.62C112.256 37.62 111.14 36.936 111.104 35.736H112.472C112.508 36.132 112.964 36.48 113.504 36.444C113.924 36.432 114.236 36.204 114.236 35.88C114.248 35.592 114.044 35.448 113.624 35.352ZM118.869 29.76V31.896H120.057V33.072H118.869V37.5H117.417V33.072H116.397V31.896H117.417V29.76H118.869ZM122.608 31.896V37.5H121.156V31.896H122.608ZM120.94 29.724C120.94 29.232 121.372 28.848 121.888 28.848C122.404 28.848 122.812 29.232 122.812 29.724C122.812 30.24 122.404 30.612 121.888 30.612C121.372 30.612 120.94 30.24 120.94 29.724ZM130.538 33.204C129.866 33.204 129.398 33.648 129.398 34.512V37.5H127.934V34.416C127.922 33.636 127.478 33.204 126.902 33.204C126.302 33.204 125.726 33.552 125.726 34.512V37.5H124.262V31.896H125.726V32.724C126.05 32.04 126.794 31.788 127.334 31.788C128.234 31.836 128.798 32.148 129.122 32.832C129.638 31.896 130.454 31.776 130.886 31.776C132.242 31.776 133.046 32.652 133.046 34.296V37.5H131.594V34.452C131.594 33.636 131.15 33.204 130.538 33.204ZM138.881 37.5V36.78C138.533 37.356 137.681 37.608 137.141 37.608C135.665 37.608 134.285 36.48 134.285 34.692C134.285 32.904 135.665 31.776 137.141 31.776C137.657 31.776 138.461 31.98 138.881 32.592V31.896H140.345V37.5H138.881ZM135.797 34.692C135.797 35.604 136.529 36.204 137.345 36.204C138.149 36.204 138.881 35.652 138.881 34.692C138.881 33.732 138.113 33.18 137.345 33.18C136.529 33.18 135.797 33.78 135.797 34.692ZM143.924 29.76V31.896H145.112V33.072H143.924V37.5H142.472V33.072H141.452V31.896H142.472V29.76H143.924ZM151.541 34.68C151.541 34.824 151.529 35.052 151.517 35.184H147.245C147.341 35.94 147.965 36.384 148.793 36.384C149.357 36.384 149.921 36.144 150.197 35.664C150.545 35.856 150.941 36.072 151.312 36.264C150.797 37.224 149.729 37.62 148.697 37.62C147.101 37.62 145.793 36.444 145.793 34.68C145.793 32.904 147.101 31.776 148.697 31.776C150.281 31.776 151.541 32.904 151.541 34.68ZM147.233 34.188H150.113C150.005 33.42 149.429 33 148.709 33C147.941 33 147.341 33.42 147.233 34.188Z" fill="black"/>
<path d="M64.568 44.78V48.716H65.864C66.944 48.716 67.496 47.852 67.496 46.756C67.496 45.668 66.944 44.78 65.864 44.78H64.568ZM65.864 49.5H63.72V43.988H65.864C67.432 43.988 68.344 45.188 68.344 46.756C68.344 48.324 67.432 49.5 65.864 49.5ZM72.1989 49.5V48.964C71.9429 49.372 71.4229 49.58 70.9429 49.58C69.9429 49.58 69.0469 48.82 69.0469 47.628C69.0469 46.436 69.9429 45.684 70.9429 45.684C71.3909 45.684 71.9429 45.868 72.1989 46.292V45.764H73.0149V49.5H72.1989ZM69.8949 47.62C69.8949 48.308 70.4229 48.78 71.0389 48.78C71.6469 48.78 72.1909 48.356 72.1909 47.62C72.1909 46.892 71.5989 46.484 71.0389 46.484C70.4229 46.484 69.8949 46.932 69.8949 47.62ZM75.5458 48.004L75.0418 47.884C74.2418 47.668 73.9538 47.276 74.0098 46.668C74.0498 46.116 74.6658 45.684 75.3458 45.684C76.0018 45.684 76.6658 45.988 76.7058 46.788H75.9218C75.8898 46.508 75.6338 46.388 75.3778 46.388C75.1618 46.388 74.9378 46.468 74.8498 46.596C74.7858 46.7 74.7778 46.812 74.8178 46.932C74.8738 47.084 75.0738 47.164 75.2738 47.22L75.8498 47.364C76.6498 47.556 76.8258 48.084 76.8258 48.452C76.8258 49.172 76.1938 49.58 75.3378 49.58C74.6338 49.58 73.9298 49.148 73.9058 48.356H74.6658C74.7058 48.676 74.9618 48.892 75.4018 48.892C75.7778 48.892 76.0658 48.724 76.0658 48.444C76.0658 48.196 75.8258 48.068 75.5458 48.004ZM78.5484 47.492V49.5H77.7244V43.732H78.5484V46.332C78.7644 45.876 79.3404 45.684 79.7324 45.684C80.6924 45.684 81.2444 46.308 81.2444 47.372V49.5H80.4204V47.42C80.4204 46.836 80.0604 46.492 79.5884 46.492C79.1164 46.492 78.5484 46.756 78.5484 47.492ZM83.1814 47.62C83.1814 48.348 83.7174 48.78 84.3254 48.78C84.9494 48.78 85.4534 48.308 85.4534 47.62C85.4534 46.932 84.9494 46.484 84.3254 46.484C83.7654 46.484 83.1814 46.892 83.1814 47.62ZM83.1734 49.5H82.3494V43.732H83.1734V46.3C83.4054 45.892 83.8934 45.684 84.4294 45.684C85.4454 45.684 86.2934 46.436 86.2934 47.636C86.2934 48.812 85.4214 49.58 84.4214 49.58C83.9094 49.58 83.4054 49.364 83.1734 48.956V49.5ZM88.9206 48.78C89.5446 48.78 90.0566 48.324 90.0566 47.62C90.0566 46.94 89.5446 46.492 88.9206 46.492C88.3046 46.492 87.7926 46.94 87.7926 47.62C87.7926 48.324 88.3046 48.78 88.9206 48.78ZM88.9206 49.58C87.8646 49.58 86.9766 48.804 86.9766 47.62C86.9766 46.436 87.8646 45.684 88.9206 45.684C89.9846 45.684 90.8806 46.436 90.8806 47.62C90.8806 48.804 89.9846 49.58 88.9206 49.58ZM94.7068 49.5V48.964C94.4508 49.372 93.9308 49.58 93.4508 49.58C92.4508 49.58 91.5548 48.82 91.5548 47.628C91.5548 46.436 92.4508 45.684 93.4508 45.684C93.8988 45.684 94.4508 45.868 94.7068 46.292V45.764H95.5228V49.5H94.7068ZM92.4028 47.62C92.4028 48.308 92.9308 48.78 93.5468 48.78C94.1548 48.78 94.6988 48.356 94.6988 47.62C94.6988 46.892 94.1068 46.484 93.5468 46.484C92.9308 46.484 92.4028 46.932 92.4028 47.62ZM97.5016 48.156V49.5H96.6776V45.764H97.5016V46.62C97.6936 45.948 98.0536 45.684 98.5256 45.684C98.7896 45.684 99.0696 45.74 99.1896 45.828L99.0536 46.588C98.8376 46.484 98.6616 46.46 98.5016 46.46C97.7976 46.46 97.5016 47.164 97.5016 48.156ZM102.691 49.5V48.956C102.459 49.364 101.939 49.58 101.427 49.58C100.419 49.58 99.5628 48.812 99.5628 47.636C99.5628 46.436 100.419 45.684 101.427 45.684C101.963 45.684 102.459 45.892 102.691 46.3V43.732H103.507V49.5H102.691ZM102.675 47.62C102.675 46.892 102.083 46.484 101.531 46.484C100.915 46.484 100.411 46.932 100.411 47.62C100.411 48.308 100.915 48.78 101.531 48.78C102.139 48.78 102.675 48.348 102.675 47.62Z" fill="#407CEE"/>
<path d="M112.952 43.988H113.768L111.064 49.5H110.248L112.952 43.988Z" fill="#6B7280"/>
<path d="M120.72 49.5V43.988H124.04V44.772H121.568V46.404H123.728V47.18H121.568V48.724H124.12V49.5H120.72ZM126.436 48.004L125.932 47.884C125.132 47.668 124.844 47.276 124.9 46.668C124.94 46.116 125.556 45.684 126.236 45.684C126.892 45.684 127.556 45.988 127.596 46.788H126.812C126.78 46.508 126.524 46.388 126.268 46.388C126.052 46.388 125.828 46.468 125.74 46.596C125.676 46.7 125.668 46.812 125.708 46.932C125.764 47.084 125.964 47.164 126.164 47.22L126.74 47.364C127.54 47.556 127.716 48.084 127.716 48.452C127.716 49.172 127.084 49.58 126.228 49.58C125.524 49.58 124.82 49.148 124.796 48.356H125.556C125.596 48.676 125.852 48.892 126.292 48.892C126.668 48.892 126.956 48.724 126.956 48.444C126.956 48.196 126.716 48.068 126.436 48.004ZM129.735 44.348V45.764H130.527V46.444H129.735V49.5H128.911V46.444H128.239V45.764H128.911V44.348H129.735ZM132.119 45.764V49.5H131.303V45.764H132.119ZM131.159 44.252C131.159 43.956 131.415 43.732 131.711 43.732C132.023 43.732 132.255 43.956 132.255 44.252C132.255 44.548 132.023 44.772 131.711 44.772C131.415 44.772 131.159 44.548 131.159 44.252ZM137.527 46.492C136.983 46.492 136.623 46.884 136.623 47.492V49.5H135.799V47.404C135.791 46.828 135.487 46.492 135.039 46.492C134.559 46.492 134.095 46.756 134.095 47.492V49.5H133.271V45.764H134.095V46.324C134.351 45.812 134.967 45.684 135.271 45.684C135.871 45.684 136.231 45.948 136.447 46.428C136.791 45.78 137.367 45.684 137.703 45.684C138.631 45.684 139.143 46.284 139.143 47.348V49.5H138.319V47.42C138.319 46.836 138.007 46.492 137.527 46.492ZM143.168 49.5V48.964C142.912 49.372 142.392 49.58 141.912 49.58C140.912 49.58 140.016 48.82 140.016 47.628C140.016 46.436 140.912 45.684 141.912 45.684C142.36 45.684 142.912 45.868 143.168 46.292V45.764H143.984V49.5H143.168ZM140.864 47.62C140.864 48.308 141.392 48.78 142.008 48.78C142.616 48.78 143.16 48.356 143.16 47.62C143.16 46.892 142.568 46.484 142.008 46.484C141.392 46.484 140.864 46.932 140.864 47.62ZM146.259 44.348V45.764H147.051V46.444H146.259V49.5H145.435V46.444H144.763V45.764H145.435V44.348H146.259ZM151.323 47.62C151.323 47.708 151.323 47.836 151.315 47.924H148.347C148.435 48.5 148.883 48.86 149.491 48.86C149.907 48.86 150.315 48.668 150.507 48.324L151.179 48.62C150.859 49.284 150.147 49.58 149.451 49.58C148.395 49.58 147.531 48.804 147.531 47.62C147.531 46.436 148.395 45.684 149.451 45.684C150.507 45.684 151.323 46.436 151.323 47.62ZM148.347 47.324H150.515C150.427 46.74 150.019 46.404 149.451 46.404C148.875 46.404 148.435 46.748 148.347 47.324Z" fill="#407CEE"/>
<path d="M159.952 43.988H160.768L158.064 49.5H157.248L159.952 43.988Z" fill="#6B7280"/>
<path d="M171.648 48.044L172.304 48.564C171.824 49.196 171.064 49.58 170.16 49.58C168.6 49.58 167.376 48.324 167.376 46.756C167.376 45.196 168.6 43.924 170.16 43.924C171.048 43.924 171.8 44.308 172.288 44.916L171.632 45.428C171.272 45.02 170.768 44.74 170.16 44.74C169.064 44.74 168.224 45.644 168.224 46.756C168.224 47.876 169.064 48.764 170.16 48.764C170.768 48.764 171.304 48.492 171.648 48.044ZM173.869 48.156V49.5H173.045V45.764H173.869V46.62C174.061 45.948 174.421 45.684 174.893 45.684C175.157 45.684 175.437 45.74 175.557 45.828L175.421 46.588C175.205 46.484 175.029 46.46 174.869 46.46C174.165 46.46 173.869 47.164 173.869 48.156ZM179.714 47.62C179.714 47.708 179.714 47.836 179.706 47.924H176.738C176.826 48.5 177.274 48.86 177.882 48.86C178.298 48.86 178.706 48.668 178.898 48.324L179.57 48.62C179.25 49.284 178.538 49.58 177.842 49.58C176.786 49.58 175.922 48.804 175.922 47.62C175.922 46.436 176.786 45.684 177.842 45.684C178.898 45.684 179.714 46.436 179.714 47.62ZM176.738 47.324H178.906C178.818 46.74 178.41 46.404 177.842 46.404C177.266 46.404 176.826 46.748 176.738 47.324ZM183.496 49.5V48.964C183.24 49.372 182.72 49.58 182.24 49.58C181.24 49.58 180.344 48.82 180.344 47.628C180.344 46.436 181.24 45.684 182.24 45.684C182.688 45.684 183.24 45.868 183.496 46.292V45.764H184.312V49.5H183.496ZM181.192 47.62C181.192 48.308 181.72 48.78 182.336 48.78C182.944 48.78 183.488 48.356 183.488 47.62C183.488 46.892 182.896 46.484 182.336 46.484C181.72 46.484 181.192 46.932 181.192 47.62ZM186.587 44.348V45.764H187.379V46.444H186.587V49.5H185.763V46.444H185.091V45.764H185.763V44.348H186.587ZM191.651 47.62C191.651 47.708 191.651 47.836 191.643 47.924H188.675C188.763 48.5 189.211 48.86 189.819 48.86C190.235 48.86 190.643 48.668 190.835 48.324L191.507 48.62C191.187 49.284 190.475 49.58 189.779 49.58C188.723 49.58 187.859 48.804 187.859 47.62C187.859 46.436 188.723 45.684 189.779 45.684C190.835 45.684 191.651 46.436 191.651 47.62ZM188.675 47.324H190.843C190.755 46.74 190.347 46.404 189.779 46.404C189.203 46.404 188.763 46.748 188.675 47.324ZM194.697 49.5V43.988H198.017V44.772H195.545V46.404H197.705V47.18H195.545V48.724H198.097V49.5H194.697ZM200.413 48.004L199.909 47.884C199.109 47.668 198.821 47.276 198.877 46.668C198.917 46.116 199.533 45.684 200.213 45.684C200.869 45.684 201.533 45.988 201.573 46.788H200.789C200.757 46.508 200.501 46.388 200.245 46.388C200.029 46.388 199.805 46.468 199.717 46.596C199.653 46.7 199.645 46.812 199.685 46.932C199.741 47.084 199.941 47.164 200.141 47.22L200.717 47.364C201.517 47.556 201.693 48.084 201.693 48.452C201.693 49.172 201.061 49.58 200.205 49.58C199.501 49.58 198.797 49.148 198.773 48.356H199.533C199.573 48.676 199.829 48.892 200.269 48.892C200.645 48.892 200.933 48.724 200.933 48.444C200.933 48.196 200.693 48.068 200.413 48.004ZM203.712 44.348V45.764H204.504V46.444H203.712V49.5H202.888V46.444H202.216V45.764H202.888V44.348H203.712ZM206.095 45.764V49.5H205.279V45.764H206.095ZM205.135 44.252C205.135 43.956 205.391 43.732 205.687 43.732C205.999 43.732 206.231 43.956 206.231 44.252C206.231 44.548 205.999 44.772 205.687 44.772C205.391 44.772 205.135 44.548 205.135 44.252ZM211.504 46.492C210.96 46.492 210.6 46.884 210.6 47.492V49.5H209.776V47.404C209.768 46.828 209.464 46.492 209.016 46.492C208.536 46.492 208.072 46.756 208.072 47.492V49.5H207.248V45.764H208.072V46.324C208.328 45.812 208.944 45.684 209.248 45.684C209.848 45.684 210.208 45.948 210.424 46.428C210.768 45.78 211.344 45.684 211.68 45.684C212.608 45.684 213.12 46.284 213.12 47.348V49.5H212.296V47.42C212.296 46.836 211.984 46.492 211.504 46.492ZM217.144 49.5V48.964C216.888 49.372 216.368 49.58 215.888 49.58C214.888 49.58 213.992 48.82 213.992 47.628C213.992 46.436 214.888 45.684 215.888 45.684C216.336 45.684 216.888 45.868 217.144 46.292V45.764H217.96V49.5H217.144ZM214.84 47.62C214.84 48.308 215.368 48.78 215.984 48.78C216.592 48.78 217.136 48.356 217.136 47.62C217.136 46.892 216.544 46.484 215.984 46.484C215.368 46.484 214.84 46.932 214.84 47.62ZM220.235 44.348V45.764H221.027V46.444H220.235V49.5H219.411V46.444H218.739V45.764H219.411V44.348H220.235ZM225.3 47.62C225.3 47.708 225.3 47.836 225.292 47.924H222.324C222.412 48.5 222.86 48.86 223.468 48.86C223.884 48.86 224.292 48.668 224.484 48.324L225.156 48.62C224.836 49.284 224.124 49.58 223.428 49.58C222.372 49.58 221.508 48.804 221.508 47.62C221.508 46.436 222.372 45.684 223.428 45.684C224.484 45.684 225.3 46.436 225.3 47.62ZM222.324 47.324H224.492C224.404 46.74 223.996 46.404 223.428 46.404C222.852 46.404 222.412 46.748 222.324 47.324Z" fill="#6B7280"/>
<path d="M68.81 87.68L69.63 88.33C69.03 89.12 68.08 89.6 66.95 89.6C65 89.6 63.47 88.03 63.47 86.07C63.47 84.12 65 82.53 66.95 82.53C68.06 82.53 69 83.01 69.61 83.77L68.79 84.41C68.34 83.9 67.71 83.55 66.95 83.55C65.58 83.55 64.53 84.68 64.53 86.07C64.53 87.47 65.58 88.58 66.95 88.58C67.71 88.58 68.38 88.24 68.81 87.68ZM73.7059 87.34V84.83H74.7359V89.5H73.7059V88.82C73.4359 89.35 72.8059 89.6 72.3159 89.6C71.1659 89.6 70.4959 88.88 70.5059 87.55V84.83H71.5359V87.43C71.5359 88.2 71.9459 88.6 72.5059 88.6C73.1059 88.6 73.7059 88.27 73.7059 87.34ZM77.8912 87.63L77.2612 87.48C76.2612 87.21 75.9012 86.72 75.9712 85.96C76.0212 85.27 76.7912 84.73 77.6412 84.73C78.4612 84.73 79.2912 85.11 79.3412 86.11H78.3612C78.3212 85.76 78.0012 85.61 77.6812 85.61C77.4112 85.61 77.1312 85.71 77.0212 85.87C76.9412 86 76.9312 86.14 76.9812 86.29C77.0512 86.48 77.3012 86.58 77.5512 86.65L78.2712 86.83C79.2712 87.07 79.4912 87.73 79.4912 88.19C79.4912 89.09 78.7012 89.6 77.6312 89.6C76.7512 89.6 75.8712 89.06 75.8412 88.07H76.7912C76.8412 88.47 77.1612 88.74 77.7112 88.74C78.1812 88.74 78.5412 88.53 78.5412 88.18C78.5412 87.87 78.2412 87.71 77.8912 87.63ZM82.0145 83.06V84.83H83.0045V85.68H82.0145V89.5H80.9845V85.68H80.1445V84.83H80.9845V83.06H82.0145ZM86.0355 88.6C86.8155 88.6 87.4555 88.03 87.4555 87.15C87.4555 86.3 86.8155 85.74 86.0355 85.74C85.2655 85.74 84.6255 86.3 84.6255 87.15C84.6255 88.03 85.2655 88.6 86.0355 88.6ZM86.0355 89.6C84.7155 89.6 83.6055 88.63 83.6055 87.15C83.6055 85.67 84.7155 84.73 86.0355 84.73C87.3655 84.73 88.4855 85.67 88.4855 87.15C88.4855 88.63 87.3655 89.6 86.0355 89.6ZM94.9482 85.74C94.2682 85.74 93.8182 86.23 93.8182 86.99V89.5H92.7882V86.88C92.7782 86.16 92.3982 85.74 91.8382 85.74C91.2382 85.74 90.6582 86.07 90.6582 86.99V89.5H89.6282V84.83H90.6582V85.53C90.9782 84.89 91.7482 84.73 92.1282 84.73C92.8782 84.73 93.3282 85.06 93.5982 85.66C94.0282 84.85 94.7482 84.73 95.1682 84.73C96.3282 84.73 96.9682 85.48 96.9682 86.81V89.5H95.9382V86.9C95.9382 86.17 95.5482 85.74 94.9482 85.74ZM102.799 87.15C102.799 87.26 102.799 87.42 102.789 87.53H99.0787C99.1887 88.25 99.7487 88.7 100.509 88.7C101.029 88.7 101.539 88.46 101.779 88.03L102.619 88.4C102.219 89.23 101.329 89.6 100.459 89.6C99.1387 89.6 98.0587 88.63 98.0587 87.15C98.0587 85.67 99.1387 84.73 100.459 84.73C101.779 84.73 102.799 85.67 102.799 87.15ZM99.0787 86.78H101.789C101.679 86.05 101.169 85.63 100.459 85.63C99.7387 85.63 99.1887 86.06 99.0787 86.78ZM104.916 87.82V89.5H103.886V84.83H104.916V85.9C105.156 85.06 105.606 84.73 106.196 84.73C106.526 84.73 106.876 84.8 107.026 84.91L106.856 85.86C106.586 85.73 106.366 85.7 106.166 85.7C105.286 85.7 104.916 86.58 104.916 87.82ZM115.375 82.61V89.5H114.385L111.425 84.57V89.5H110.365V82.61H111.385L114.315 87.5V82.61H115.375ZM120.524 89.5V88.83C120.204 89.34 119.554 89.6 118.954 89.6C117.704 89.6 116.584 88.65 116.584 87.16C116.584 85.67 117.704 84.73 118.954 84.73C119.514 84.73 120.204 84.96 120.524 85.49V84.83H121.544V89.5H120.524ZM117.644 87.15C117.644 88.01 118.304 88.6 119.074 88.6C119.834 88.6 120.514 88.07 120.514 87.15C120.514 86.24 119.774 85.73 119.074 85.73C118.304 85.73 117.644 86.29 117.644 87.15ZM128.308 85.74C127.628 85.74 127.178 86.23 127.178 86.99V89.5H126.148V86.88C126.138 86.16 125.758 85.74 125.198 85.74C124.598 85.74 124.018 86.07 124.018 86.99V89.5H122.988V84.83H124.018V85.53C124.338 84.89 125.108 84.73 125.488 84.73C126.238 84.73 126.688 85.06 126.958 85.66C127.388 84.85 128.108 84.73 128.528 84.73C129.688 84.73 130.328 85.48 130.328 86.81V89.5H129.298V86.9C129.298 86.17 128.908 85.74 128.308 85.74ZM136.158 87.15C136.158 87.26 136.158 87.42 136.148 87.53H132.438C132.548 88.25 133.108 88.7 133.868 88.7C134.388 88.7 134.898 88.46 135.138 88.03L135.978 88.4C135.578 89.23 134.688 89.6 133.818 89.6C132.498 89.6 131.418 88.63 131.418 87.15C131.418 85.67 132.498 84.73 133.818 84.73C135.138 84.73 136.158 85.67 136.158 87.15ZM132.438 86.78H135.148C135.038 86.05 134.528 85.63 133.818 85.63C133.098 85.63 132.548 86.06 132.438 86.78Z" fill="black"/>
<path d="M63.5 100.5C63.5 98.567 65.067 97 67 97H179C180.933 97 182.5 98.567 182.5 100.5V112.5C182.5 114.433 180.933 116 179 116H67C65.067 116 63.5 114.433 63.5 112.5V100.5Z" stroke="#E5E7EB"/>
<path d="M218.81 87.68L219.63 88.33C219.03 89.12 218.08 89.6 216.95 89.6C215 89.6 213.47 88.03 213.47 86.07C213.47 84.12 215 82.53 216.95 82.53C218.06 82.53 219 83.01 219.61 83.77L218.79 84.41C218.34 83.9 217.71 83.55 216.95 83.55C215.58 83.55 214.53 84.68 214.53 86.07C214.53 87.47 215.58 88.58 216.95 88.58C217.71 88.58 218.38 88.24 218.81 87.68ZM221.586 87.82V89.5H220.556V84.83H221.586V85.9C221.826 85.06 222.276 84.73 222.866 84.73C223.196 84.73 223.546 84.8 223.696 84.91L223.526 85.86C223.256 85.73 223.036 85.7 222.836 85.7C221.956 85.7 221.586 86.58 221.586 87.82ZM228.892 87.15C228.892 87.26 228.892 87.42 228.882 87.53H225.172C225.282 88.25 225.842 88.7 226.602 88.7C227.122 88.7 227.632 88.46 227.872 88.03L228.712 88.4C228.312 89.23 227.422 89.6 226.552 89.6C225.232 89.6 224.152 88.63 224.152 87.15C224.152 85.67 225.232 84.73 226.552 84.73C227.872 84.73 228.892 85.67 228.892 87.15ZM225.172 86.78H227.882C227.772 86.05 227.262 85.63 226.552 85.63C225.832 85.63 225.282 86.06 225.172 86.78ZM233.62 89.5V88.83C233.3 89.34 232.65 89.6 232.05 89.6C230.8 89.6 229.68 88.65 229.68 87.16C229.68 85.67 230.8 84.73 232.05 84.73C232.61 84.73 233.3 84.96 233.62 85.49V84.83H234.64V89.5H233.62ZM230.74 87.15C230.74 88.01 231.4 88.6 232.17 88.6C232.93 88.6 233.61 88.07 233.61 87.15C233.61 86.24 232.87 85.73 232.17 85.73C231.4 85.73 230.74 86.29 230.74 87.15ZM237.483 83.06V84.83H238.473V85.68H237.483V89.5H236.453V85.68H235.613V84.83H236.453V83.06H237.483ZM243.814 87.15C243.814 87.26 243.814 87.42 243.804 87.53H240.094C240.204 88.25 240.764 88.7 241.524 88.7C242.044 88.7 242.554 88.46 242.794 88.03L243.634 88.4C243.234 89.23 242.344 89.6 241.474 89.6C240.154 89.6 239.074 88.63 239.074 87.15C239.074 85.67 240.154 84.73 241.474 84.73C242.794 84.73 243.814 85.67 243.814 87.15ZM240.094 86.78H242.804C242.694 86.05 242.184 85.63 241.474 85.63C240.754 85.63 240.204 86.06 240.094 86.78ZM248.681 83.6V88.52H250.301C251.651 88.52 252.341 87.44 252.341 86.07C252.341 84.71 251.651 83.6 250.301 83.6H248.681ZM250.301 89.5H247.621V82.61H250.301C252.261 82.61 253.401 84.11 253.401 86.07C253.401 88.03 252.261 89.5 250.301 89.5ZM258.219 89.5V88.83C257.899 89.34 257.249 89.6 256.649 89.6C255.399 89.6 254.279 88.65 254.279 87.16C254.279 85.67 255.399 84.73 256.649 84.73C257.209 84.73 257.899 84.96 258.219 85.49V84.83H259.239V89.5H258.219ZM255.339 87.15C255.339 88.01 255.999 88.6 256.769 88.6C257.529 88.6 258.209 88.07 258.209 87.15C258.209 86.24 257.469 85.73 256.769 85.73C255.999 85.73 255.339 86.29 255.339 87.15ZM262.083 83.06V84.83H263.073V85.68H262.083V89.5H261.053V85.68H260.213V84.83H261.053V83.06H262.083ZM268.414 87.15C268.414 87.26 268.414 87.42 268.404 87.53H264.694C264.804 88.25 265.364 88.7 266.124 88.7C266.644 88.7 267.154 88.46 267.394 88.03L268.234 88.4C267.834 89.23 266.944 89.6 266.074 89.6C264.754 89.6 263.674 88.63 263.674 87.15C263.674 85.67 264.754 84.73 266.074 84.73C267.394 84.73 268.414 85.67 268.414 87.15ZM264.694 86.78H267.404C267.294 86.05 266.784 85.63 266.074 85.63C265.354 85.63 264.804 86.06 264.694 86.78Z" fill="black"/>
<path d="M213.5 100.5C213.5 98.567 215.067 97 217 97H329C330.933 97 332.5 98.567 332.5 100.5V112.5C332.5 114.433 330.933 116 329 116H217C215.067 116 213.5 114.433 213.5 112.5V100.5Z" stroke="#E5E7EB"/>
<g clip-path="url(#clip1_1237_1160)">
<path d="M325.917 102.333H325.5V101.917C325.5 101.806 325.456 101.7 325.378 101.622C325.3 101.544 325.194 101.5 325.083 101.5C324.973 101.5 324.867 101.544 324.789 101.622C324.711 101.7 324.667 101.806 324.667 101.917V102.333H321.333V101.917C321.333 101.806 321.289 101.7 321.211 101.622C321.133 101.544 321.027 101.5 320.917 101.5C320.806 101.5 320.7 101.544 320.622 101.622C320.544 101.7 320.5 101.806 320.5 101.917V102.333H320.083C319.531 102.334 319.001 102.554 318.611 102.944C318.22 103.335 318.001 103.864 318 104.417V109.417C318.001 109.969 318.22 110.499 318.611 110.889C319.001 111.28 319.531 111.499 320.083 111.5H325.917C326.469 111.499 326.999 111.28 327.389 110.889C327.78 110.499 327.999 109.969 328 109.417V104.417C327.999 103.864 327.78 103.335 327.389 102.944C326.999 102.554 326.469 102.334 325.917 102.333ZM318.833 104.417C318.833 104.085 318.965 103.767 319.199 103.533C319.434 103.298 319.752 103.167 320.083 103.167H325.917C326.248 103.167 326.566 103.298 326.801 103.533C327.035 103.767 327.167 104.085 327.167 104.417V104.833H318.833V104.417ZM325.917 110.667H320.083C319.752 110.667 319.434 110.535 319.199 110.301C318.965 110.066 318.833 109.748 318.833 109.417V105.667H327.167V109.417C327.167 109.748 327.035 110.066 326.801 110.301C326.566 110.535 326.248 110.667 325.917 110.667Z" fill="#9CA3AF"/>
<path d="M323 108.375C323.345 108.375 323.625 108.095 323.625 107.75C323.625 107.405 323.345 107.125 323 107.125C322.655 107.125 322.375 107.405 322.375 107.75C322.375 108.095 322.655 108.375 323 108.375Z" fill="#9CA3AF"/>
<path d="M320.917 108.375C321.262 108.375 321.542 108.095 321.542 107.75C321.542 107.405 321.262 107.125 320.917 107.125C320.571 107.125 320.292 107.405 320.292 107.75C320.292 108.095 320.571 108.375 320.917 108.375Z" fill="#9CA3AF"/>
<path d="M325.083 108.375C325.429 108.375 325.708 108.095 325.708 107.75C325.708 107.405 325.429 107.125 325.083 107.125C324.738 107.125 324.458 107.405 324.458 107.75C324.458 108.095 324.738 108.375 325.083 108.375Z" fill="#9CA3AF"/>
</g>
<path d="M364.96 83.6V88.52H366.58C367.93 88.52 368.62 87.44 368.62 86.07C368.62 84.71 367.93 83.6 366.58 83.6H364.96ZM366.58 89.5H363.9V82.61H366.58C368.54 82.61 369.68 84.11 369.68 86.07C369.68 88.03 368.54 89.5 366.58 89.5ZM374.009 87.34V84.83H375.039V89.5H374.009V88.82C373.739 89.35 373.109 89.6 372.619 89.6C371.469 89.6 370.799 88.88 370.809 87.55V84.83H371.839V87.43C371.839 88.2 372.249 88.6 372.809 88.6C373.409 88.6 374.009 88.27 374.009 87.34ZM380.914 87.15C380.914 87.26 380.914 87.42 380.904 87.53H377.194C377.304 88.25 377.864 88.7 378.624 88.7C379.144 88.7 379.654 88.46 379.894 88.03L380.734 88.4C380.334 89.23 379.444 89.6 378.574 89.6C377.254 89.6 376.174 88.63 376.174 87.15C376.174 85.67 377.254 84.73 378.574 84.73C379.894 84.73 380.914 85.67 380.914 87.15ZM377.194 86.78H379.904C379.794 86.05 379.284 85.63 378.574 85.63C377.854 85.63 377.304 86.06 377.194 86.78ZM385.78 83.6V88.52H387.4C388.75 88.52 389.44 87.44 389.44 86.07C389.44 84.71 388.75 83.6 387.4 83.6H385.78ZM387.4 89.5H384.72V82.61H387.4C389.36 82.61 390.5 84.11 390.5 86.07C390.5 88.03 389.36 89.5 387.4 89.5ZM395.319 89.5V88.83C394.999 89.34 394.349 89.6 393.749 89.6C392.499 89.6 391.379 88.65 391.379 87.16C391.379 85.67 392.499 84.73 393.749 84.73C394.309 84.73 394.999 84.96 395.319 85.49V84.83H396.339V89.5H395.319ZM392.439 87.15C392.439 88.01 393.099 88.6 393.869 88.6C394.629 88.6 395.309 88.07 395.309 87.15C395.309 86.24 394.569 85.73 393.869 85.73C393.099 85.73 392.439 86.29 392.439 87.15ZM399.183 83.06V84.83H400.173V85.68H399.183V89.5H398.153V85.68H397.313V84.83H398.153V83.06H399.183ZM405.514 87.15C405.514 87.26 405.514 87.42 405.504 87.53H401.794C401.904 88.25 402.464 88.7 403.224 88.7C403.744 88.7 404.254 88.46 404.494 88.03L405.334 88.4C404.934 89.23 404.044 89.6 403.174 89.6C401.854 89.6 400.774 88.63 400.774 87.15C400.774 85.67 401.854 84.73 403.174 84.73C404.494 84.73 405.514 85.67 405.514 87.15ZM401.794 86.78H404.504C404.394 86.05 403.884 85.63 403.174 85.63C402.454 85.63 401.904 86.06 401.794 86.78Z" fill="black"/>
<path d="M363.5 100.5C363.5 98.567 365.067 97 367 97H479C480.933 97 482.5 98.567 482.5 100.5V112.5C482.5 114.433 480.933 116 479 116H367C365.067 116 363.5 114.433 363.5 112.5V100.5Z" stroke="#E5E7EB"/>
<g clip-path="url(#clip2_1237_1160)">
<path d="M475.917 102.333H475.5V101.917C475.5 101.806 475.456 101.7 475.378 101.622C475.3 101.544 475.194 101.5 475.083 101.5C474.973 101.5 474.867 101.544 474.789 101.622C474.711 101.7 474.667 101.806 474.667 101.917V102.333H471.333V101.917C471.333 101.806 471.289 101.7 471.211 101.622C471.133 101.544 471.027 101.5 470.917 101.5C470.806 101.5 470.7 101.544 470.622 101.622C470.544 101.7 470.5 101.806 470.5 101.917V102.333H470.083C469.531 102.334 469.001 102.554 468.611 102.944C468.22 103.335 468.001 103.864 468 104.417V109.417C468.001 109.969 468.22 110.499 468.611 110.889C469.001 111.28 469.531 111.499 470.083 111.5H475.917C476.469 111.499 476.999 111.28 477.389 110.889C477.78 110.499 477.999 109.969 478 109.417V104.417C477.999 103.864 477.78 103.335 477.389 102.944C476.999 102.554 476.469 102.334 475.917 102.333ZM468.833 104.417C468.833 104.085 468.965 103.767 469.199 103.533C469.434 103.298 469.752 103.167 470.083 103.167H475.917C476.248 103.167 476.566 103.298 476.801 103.533C477.035 103.767 477.167 104.085 477.167 104.417V104.833H468.833V104.417ZM475.917 110.667H470.083C469.752 110.667 469.434 110.535 469.199 110.301C468.965 110.066 468.833 109.748 468.833 109.417V105.667H477.167V109.417C477.167 109.748 477.035 110.066 476.801 110.301C476.566 110.535 476.248 110.667 475.917 110.667Z" fill="#9CA3AF"/>
<path d="M473 108.375C473.345 108.375 473.625 108.095 473.625 107.75C473.625 107.405 473.345 107.125 473 107.125C472.655 107.125 472.375 107.405 472.375 107.75C472.375 108.095 472.655 108.375 473 108.375Z" fill="#9CA3AF"/>
<path d="M470.917 108.375C471.262 108.375 471.542 108.095 471.542 107.75C471.542 107.405 471.262 107.125 470.917 107.125C470.571 107.125 470.292 107.405 470.292 107.75C470.292 108.095 470.571 108.375 470.917 108.375Z" fill="#9CA3AF"/>
<path d="M475.083 108.375C475.429 108.375 475.708 108.095 475.708 107.75C475.708 107.405 475.429 107.125 475.083 107.125C474.738 107.125 474.458 107.405 474.458 107.75C474.458 108.095 474.738 108.375 475.083 108.375Z" fill="#9CA3AF"/>
</g>
<path d="M68.81 142.68L69.63 143.33C69.03 144.12 68.08 144.6 66.95 144.6C65 144.6 63.47 143.03 63.47 141.07C63.47 139.12 65 137.53 66.95 137.53C68.06 137.53 69 138.01 69.61 138.77L68.79 139.41C68.34 138.9 67.71 138.55 66.95 138.55C65.58 138.55 64.53 139.68 64.53 141.07C64.53 142.47 65.58 143.58 66.95 143.58C67.71 143.58 68.38 143.24 68.81 142.68ZM73.7059 142.34V139.83H74.7359V144.5H73.7059V143.82C73.4359 144.35 72.8059 144.6 72.3159 144.6C71.1659 144.6 70.4959 143.88 70.5059 142.55V139.83H71.5359V142.43C71.5359 143.2 71.9459 143.6 72.5059 143.6C73.1059 143.6 73.7059 143.27 73.7059 142.34ZM77.8912 142.63L77.2612 142.48C76.2612 142.21 75.9012 141.72 75.9712 140.96C76.0212 140.27 76.7912 139.73 77.6412 139.73C78.4612 139.73 79.2912 140.11 79.3412 141.11H78.3612C78.3212 140.76 78.0012 140.61 77.6812 140.61C77.4112 140.61 77.1312 140.71 77.0212 140.87C76.9412 141 76.9312 141.14 76.9812 141.29C77.0512 141.48 77.3012 141.58 77.5512 141.65L78.2712 141.83C79.2712 142.07 79.4912 142.73 79.4912 143.19C79.4912 144.09 78.7012 144.6 77.6312 144.6C76.7512 144.6 75.8712 144.06 75.8412 143.07H76.7912C76.8412 143.47 77.1612 143.74 77.7112 143.74C78.1812 143.74 78.5412 143.53 78.5412 143.18C78.5412 142.87 78.2412 142.71 77.8912 142.63ZM82.0145 138.06V139.83H83.0045V140.68H82.0145V144.5H80.9845V140.68H80.1445V139.83H80.9845V138.06H82.0145ZM86.0355 143.6C86.8155 143.6 87.4555 143.03 87.4555 142.15C87.4555 141.3 86.8155 140.74 86.0355 140.74C85.2655 140.74 84.6255 141.3 84.6255 142.15C84.6255 143.03 85.2655 143.6 86.0355 143.6ZM86.0355 144.6C84.7155 144.6 83.6055 143.63 83.6055 142.15C83.6055 140.67 84.7155 139.73 86.0355 139.73C87.3655 139.73 88.4855 140.67 88.4855 142.15C88.4855 143.63 87.3655 144.6 86.0355 144.6ZM94.9482 140.74C94.2682 140.74 93.8182 141.23 93.8182 141.99V144.5H92.7882V141.88C92.7782 141.16 92.3982 140.74 91.8382 140.74C91.2382 140.74 90.6582 141.07 90.6582 141.99V144.5H89.6282V139.83H90.6582V140.53C90.9782 139.89 91.7482 139.73 92.1282 139.73C92.8782 139.73 93.3282 140.06 93.5982 140.66C94.0282 139.85 94.7482 139.73 95.1682 139.73C96.3282 139.73 96.9682 140.48 96.9682 141.81V144.5H95.9382V141.9C95.9382 141.17 95.5482 140.74 94.9482 140.74ZM102.799 142.15C102.799 142.26 102.799 142.42 102.789 142.53H99.0787C99.1887 143.25 99.7487 143.7 100.509 143.7C101.029 143.7 101.539 143.46 101.779 143.03L102.619 143.4C102.219 144.23 101.329 144.6 100.459 144.6C99.1387 144.6 98.0587 143.63 98.0587 142.15C98.0587 140.67 99.1387 139.73 100.459 139.73C101.779 139.73 102.799 140.67 102.799 142.15ZM99.0787 141.78H101.789C101.679 141.05 101.169 140.63 100.459 140.63C99.7387 140.63 99.1887 141.06 99.0787 141.78ZM104.916 142.82V144.5H103.886V139.83H104.916V140.9C105.156 140.06 105.606 139.73 106.196 139.73C106.526 139.73 106.876 139.8 107.026 139.91L106.856 140.86C106.586 140.73 106.366 140.7 106.166 140.7C105.286 140.7 104.916 141.58 104.916 142.82ZM111.425 138.6V143.52H113.045C114.395 143.52 115.085 142.44 115.085 141.07C115.085 139.71 114.395 138.6 113.045 138.6H111.425ZM113.045 144.5H110.365V137.61H113.045C115.005 137.61 116.145 139.11 116.145 141.07C116.145 143.03 115.005 144.5 113.045 144.5ZM121.764 142.15C121.764 142.26 121.764 142.42 121.754 142.53H118.044C118.154 143.25 118.714 143.7 119.474 143.7C119.994 143.7 120.504 143.46 120.744 143.03L121.584 143.4C121.184 144.23 120.294 144.6 119.424 144.6C118.104 144.6 117.024 143.63 117.024 142.15C117.024 140.67 118.104 139.73 119.424 139.73C120.744 139.73 121.764 140.67 121.764 142.15ZM118.044 141.78H120.754C120.644 141.05 120.134 140.63 119.424 140.63C118.704 140.63 118.154 141.06 118.044 141.78ZM124.251 138.06V139.83H125.241V140.68H124.251V144.5H123.221V140.68H122.381V139.83H123.221V138.06H124.251ZM129.782 144.5V143.83C129.462 144.34 128.812 144.6 128.212 144.6C126.962 144.6 125.842 143.65 125.842 142.16C125.842 140.67 126.962 139.73 128.212 139.73C128.772 139.73 129.462 139.96 129.782 140.49V139.83H130.802V144.5H129.782ZM126.902 142.15C126.902 143.01 127.562 143.6 128.332 143.6C129.092 143.6 129.772 143.07 129.772 142.15C129.772 141.24 129.032 140.73 128.332 140.73C127.562 140.73 126.902 141.29 126.902 142.15ZM133.265 139.83V144.5H132.245V139.83H133.265ZM132.065 137.94C132.065 137.57 132.385 137.29 132.755 137.29C133.145 137.29 133.435 137.57 133.435 137.94C133.435 138.31 133.145 138.59 132.755 138.59C132.385 138.59 132.065 138.31 132.065 137.94ZM134.706 144.5V137.29H135.736V144.5H134.706ZM138.897 142.63L138.267 142.48C137.267 142.21 136.907 141.72 136.977 140.96C137.027 140.27 137.797 139.73 138.647 139.73C139.467 139.73 140.297 140.11 140.347 141.11H139.367C139.327 140.76 139.007 140.61 138.687 140.61C138.417 140.61 138.137 140.71 138.027 140.87C137.947 141 137.937 141.14 137.987 141.29C138.057 141.48 138.307 141.58 138.557 141.65L139.277 141.83C140.277 142.07 140.497 142.73 140.497 143.19C140.497 144.09 139.707 144.6 138.637 144.6C137.757 144.6 136.877 144.06 136.847 143.07H137.797C137.847 143.47 138.167 143.74 138.717 143.74C139.187 143.74 139.547 143.53 139.547 143.18C139.547 142.87 139.247 142.71 138.897 142.63Z" fill="black"/>
<path d="M63 155.5C63 153.291 64.7909 151.5 67 151.5H159C161.209 151.5 163 153.291 163 155.5V157.5C163 159.709 161.209 161.5 159 161.5H67C64.7909 161.5 63 159.709 63 157.5V155.5Z" fill="#E5E7EB"/>
<path d="M63 169.5C63 167.291 64.7909 165.5 67 165.5H254C256.209 165.5 258 167.291 258 169.5V171.5C258 173.709 256.209 175.5 254 175.5H67C64.7909 175.5 63 173.709 63 171.5V169.5Z" fill="#E5E7EB"/>
<path d="M63 183.5C63 181.291 64.7909 179.5 67 179.5H209C211.209 179.5 213 181.291 213 183.5V185.5C213 187.709 211.209 189.5 209 189.5H67C64.7909 189.5 63 187.709 63 185.5V183.5Z" fill="#E5E7EB"/>
<path d="M293.45 139.43C293.45 139.97 293.23 140.56 292.56 140.83C293.36 141.02 293.82 141.82 293.82 142.48C293.82 143.57 293.06 144.5 291.75 144.5H288.9V137.61H291.54C292.71 137.61 293.45 138.3 293.45 139.43ZM289.97 140.44H291.5C292.06 140.44 292.35 139.99 292.35 139.47C292.35 138.91 292 138.58 291.43 138.58H289.97V140.44ZM291.67 141.35H289.97V143.53H291.7C292.34 143.53 292.71 143 292.71 142.47C292.71 141.96 292.33 141.35 291.67 141.35ZM296.029 139.83V144.5H295.009V139.83H296.029ZM294.829 137.94C294.829 137.57 295.149 137.29 295.519 137.29C295.909 137.29 296.199 137.57 296.199 137.94C296.199 138.31 295.909 138.59 295.519 138.59C295.149 138.59 294.829 138.31 294.829 137.94ZM297.47 144.5V137.29H298.5V144.5H297.47ZM299.941 144.5V137.29H300.971V144.5H299.941ZM303.431 139.83V144.5H302.411V139.83H303.431ZM302.231 137.94C302.231 137.57 302.551 137.29 302.921 137.29C303.311 137.29 303.601 137.57 303.601 137.94C303.601 138.31 303.311 138.59 302.921 138.59C302.551 138.59 302.231 138.31 302.231 137.94ZM305.902 141.99V144.5H304.872V139.83H305.902V140.53C306.172 140 306.822 139.73 307.332 139.73C308.462 139.73 309.112 140.45 309.112 141.78V144.5H308.082V141.9C308.082 141.15 307.702 140.74 307.102 140.74C306.492 140.74 305.902 141.07 305.902 141.99ZM314.137 142.17C314.137 141.24 313.467 140.73 312.697 140.73C311.917 140.73 311.277 141.32 311.277 142.17C311.277 143.05 311.917 143.61 312.697 143.61C313.397 143.61 314.137 143.09 314.137 142.17ZM311.287 145.09C311.537 145.58 312.087 145.87 312.597 145.87C313.547 145.87 314.157 145.34 314.157 144.03V143.79C313.897 144.32 313.207 144.6 312.577 144.6C311.317 144.6 310.217 143.66 310.217 142.18C310.217 140.7 311.317 139.73 312.577 139.73C313.217 139.73 313.867 140.01 314.157 140.52V139.83H315.167V143.81C315.167 145.96 314.167 146.83 312.597 146.83C311.687 146.83 310.877 146.36 310.437 145.52C310.627 145.44 311.097 145.17 311.287 145.09ZM320.39 138.6V143.52H322.01C323.36 143.52 324.05 142.44 324.05 141.07C324.05 139.71 323.36 138.6 322.01 138.6H320.39ZM322.01 144.5H319.33V137.61H322.01C323.97 137.61 325.11 139.11 325.11 141.07C325.11 143.03 323.97 144.5 322.01 144.5ZM330.728 142.15C330.728 142.26 330.728 142.42 330.718 142.53H327.008C327.118 143.25 327.678 143.7 328.438 143.7C328.958 143.7 329.468 143.46 329.708 143.03L330.548 143.4C330.148 144.23 329.258 144.6 328.388 144.6C327.068 144.6 325.988 143.63 325.988 142.15C325.988 140.67 327.068 139.73 328.388 139.73C329.708 139.73 330.728 140.67 330.728 142.15ZM327.008 141.78H329.718C329.608 141.05 329.098 140.63 328.388 140.63C327.668 140.63 327.118 141.06 327.008 141.78ZM333.216 138.06V139.83H334.206V140.68H333.216V144.5H332.186V140.68H331.346V139.83H332.186V138.06H333.216ZM338.747 144.5V143.83C338.427 144.34 337.777 144.6 337.177 144.6C335.927 144.6 334.807 143.65 334.807 142.16C334.807 140.67 335.927 139.73 337.177 139.73C337.737 139.73 338.427 139.96 338.747 140.49V139.83H339.767V144.5H338.747ZM335.867 142.15C335.867 143.01 336.527 143.6 337.297 143.6C338.057 143.6 338.737 143.07 338.737 142.15C338.737 141.24 337.997 140.73 337.297 140.73C336.527 140.73 335.867 141.29 335.867 142.15ZM342.23 139.83V144.5H341.21V139.83H342.23ZM341.03 137.94C341.03 137.57 341.35 137.29 341.72 137.29C342.11 137.29 342.4 137.57 342.4 137.94C342.4 138.31 342.11 138.59 341.72 138.59C341.35 138.59 341.03 138.31 341.03 137.94ZM343.671 144.5V137.29H344.701V144.5H343.671ZM347.862 142.63L347.232 142.48C346.232 142.21 345.872 141.72 345.942 140.96C345.992 140.27 346.762 139.73 347.612 139.73C348.432 139.73 349.262 140.11 349.312 141.11H348.332C348.292 140.76 347.972 140.61 347.652 140.61C347.382 140.61 347.102 140.71 346.992 140.87C346.912 141 346.902 141.14 346.952 141.29C347.022 141.48 347.272 141.58 347.522 141.65L348.242 141.83C349.242 142.07 349.462 142.73 349.462 143.19C349.462 144.09 348.672 144.6 347.602 144.6C346.722 144.6 345.842 144.06 345.812 143.07H346.762C346.812 143.47 347.132 143.74 347.682 143.74C348.152 143.74 348.512 143.53 348.512 143.18C348.512 142.87 348.212 142.71 347.862 142.63Z" fill="black"/>
<path d="M288 155.5C288 153.291 289.791 151.5 292 151.5H384C386.209 151.5 388 153.291 388 155.5V157.5C388 159.709 386.209 161.5 384 161.5H292C289.791 161.5 288 159.709 288 157.5V155.5Z" fill="#E5E7EB"/>
<path d="M288 169.5C288 167.291 289.791 165.5 292 165.5H479C481.209 165.5 483 167.291 483 169.5V171.5C483 173.709 481.209 175.5 479 175.5H292C289.791 175.5 288 173.709 288 171.5V169.5Z" fill="#E5E7EB"/>
<path d="M63.9 217.5V210.61H64.96V217.5H63.9ZM67.9325 211.06V212.83H68.9225V213.68H67.9325V217.5H66.9025V213.68H66.0625V212.83H66.9025V211.06H67.9325ZM74.2635 215.15C74.2635 215.26 74.2635 215.42 74.2535 215.53H70.5435C70.6535 216.25 71.2135 216.7 71.9735 216.7C72.4935 216.7 73.0035 216.46 73.2435 216.03L74.0835 216.4C73.6835 217.23 72.7935 217.6 71.9235 217.6C70.6035 217.6 69.5235 216.63 69.5235 215.15C69.5235 213.67 70.6035 212.73 71.9235 212.73C73.2435 212.73 74.2635 213.67 74.2635 215.15ZM70.5435 214.78H73.2535C73.1435 214.05 72.6335 213.63 71.9235 213.63C71.2035 213.63 70.6535 214.06 70.5435 214.78ZM80.6709 213.74C79.9909 213.74 79.5409 214.23 79.5409 214.99V217.5H78.5109V214.88C78.5009 214.16 78.1209 213.74 77.5609 213.74C76.9609 213.74 76.3809 214.07 76.3809 214.99V217.5H75.3509V212.83H76.3809V213.53C76.7009 212.89 77.4709 212.73 77.8509 212.73C78.6009 212.73 79.0509 213.06 79.3209 213.66C79.7509 212.85 80.4709 212.73 80.8909 212.73C82.0509 212.73 82.6909 213.48 82.6909 214.81V217.5H81.6609V214.9C81.6609 214.17 81.2709 213.74 80.6709 213.74ZM87.8604 211.6V216.52H89.4804C90.8304 216.52 91.5204 215.44 91.5204 214.07C91.5204 212.71 90.8304 211.6 89.4804 211.6H87.8604ZM89.4804 217.5H86.8004V210.61H89.4804C91.4404 210.61 92.5804 212.11 92.5804 214.07C92.5804 216.03 91.4404 217.5 89.4804 217.5ZM98.1991 215.15C98.1991 215.26 98.1991 215.42 98.1891 215.53H94.4791C94.5891 216.25 95.1491 216.7 95.9091 216.7C96.4291 216.7 96.9391 216.46 97.1791 216.03L98.0191 216.4C97.6191 217.23 96.7291 217.6 95.8591 217.6C94.5391 217.6 93.4591 216.63 93.4591 215.15C93.4591 213.67 94.5391 212.73 95.8591 212.73C97.1791 212.73 98.1991 213.67 98.1991 215.15ZM94.4791 214.78H97.1891C97.0791 214.05 96.5691 213.63 95.8591 213.63C95.1391 213.63 94.5891 214.06 94.4791 214.78ZM100.686 211.06V212.83H101.676V213.68H100.686V217.5H99.6564V213.68H98.8164V212.83H99.6564V211.06H100.686ZM106.217 217.5V216.83C105.897 217.34 105.247 217.6 104.647 217.6C103.397 217.6 102.277 216.65 102.277 215.16C102.277 213.67 103.397 212.73 104.647 212.73C105.207 212.73 105.897 212.96 106.217 213.49V212.83H107.237V217.5H106.217ZM103.337 215.15C103.337 216.01 103.997 216.6 104.767 216.6C105.527 216.6 106.207 216.07 106.207 215.15C106.207 214.24 105.467 213.73 104.767 213.73C103.997 213.73 103.337 214.29 103.337 215.15ZM109.701 212.83V217.5H108.681V212.83H109.701ZM108.501 210.94C108.501 210.57 108.821 210.29 109.191 210.29C109.581 210.29 109.871 210.57 109.871 210.94C109.871 211.31 109.581 211.59 109.191 211.59C108.821 211.59 108.501 211.31 108.501 210.94ZM111.142 217.5V210.29H112.172V217.5H111.142ZM115.333 215.63L114.703 215.48C113.703 215.21 113.343 214.72 113.413 213.96C113.463 213.27 114.233 212.73 115.083 212.73C115.903 212.73 116.733 213.11 116.783 214.11H115.803C115.763 213.76 115.443 213.61 115.123 213.61C114.853 213.61 114.573 213.71 114.463 213.87C114.383 214 114.373 214.14 114.423 214.29C114.493 214.48 114.743 214.58 114.993 214.65L115.713 214.83C116.713 215.07 116.933 215.73 116.933 216.19C116.933 217.09 116.143 217.6 115.073 217.6C114.193 217.6 113.313 217.06 113.283 216.07H114.233C114.283 216.47 114.603 216.74 115.153 216.74C115.623 216.74 115.983 216.53 115.983 216.18C115.983 215.87 115.683 215.71 115.333 215.63Z" fill="black"/>
<rect width="420" height="22" transform="translate(63 229.5)" fill="#F3F4F6"/>
<path d="M71.65 237.59H69.97V240H71.61C72.37 240 72.71 239.39 72.71 238.8C72.71 238.22 72.4 237.59 71.65 237.59ZM68.9 243.5V236.61H71.67C73.15 236.61 73.77 237.71 73.77 238.8C73.77 239.89 73.15 240.97 71.67 240.97H69.97V243.5H68.9ZM75.7656 241.82V243.5H74.7356V238.83H75.7656V239.9C76.0056 239.06 76.4556 238.73 77.0456 238.73C77.3756 238.73 77.7256 238.8 77.8756 238.91L77.7056 239.86C77.4356 239.73 77.2156 239.7 77.0156 239.7C76.1356 239.7 75.7656 240.58 75.7656 241.82ZM80.7621 242.6C81.5421 242.6 82.1821 242.03 82.1821 241.15C82.1821 240.3 81.5421 239.74 80.7621 239.74C79.9921 239.74 79.3521 240.3 79.3521 241.15C79.3521 242.03 79.9921 242.6 80.7621 242.6ZM80.7621 243.6C79.4421 243.6 78.3321 242.63 78.3321 241.15C78.3321 239.67 79.4421 238.73 80.7621 238.73C82.0921 238.73 83.2121 239.67 83.2121 241.15C83.2121 242.63 82.0921 243.6 80.7621 243.6ZM87.9748 243.5V242.82C87.6848 243.33 87.0348 243.6 86.3948 243.6C85.1348 243.6 84.0648 242.64 84.0648 241.17C84.0648 239.67 85.1348 238.73 86.3948 238.73C87.0648 238.73 87.6848 238.99 87.9748 239.5V236.29H88.9948V243.5H87.9748ZM87.9548 241.15C87.9548 240.24 87.2148 239.73 86.5248 239.73C85.7548 239.73 85.1248 240.29 85.1248 241.15C85.1248 242.01 85.7548 242.6 86.5248 242.6C87.2848 242.6 87.9548 242.06 87.9548 241.15ZM93.5888 241.34V238.83H94.6188V243.5H93.5888V242.82C93.3188 243.35 92.6888 243.6 92.1988 243.6C91.0488 243.6 90.3787 242.88 90.3888 241.55V238.83H91.4188V241.43C91.4188 242.2 91.8288 242.6 92.3888 242.6C92.9888 242.6 93.5888 242.27 93.5888 241.34ZM95.754 241.15C95.754 239.67 96.904 238.73 98.244 238.73C98.994 238.73 99.654 239.02 100.094 239.54L99.294 240.18C99.044 239.89 98.654 239.73 98.244 239.73C97.464 239.73 96.774 240.28 96.774 241.15C96.774 242.02 97.464 242.61 98.244 242.61C98.654 242.61 99.044 242.44 99.294 242.15L100.104 242.78C99.664 243.3 99.004 243.6 98.244 243.6C96.904 243.6 95.754 242.63 95.754 241.15ZM102.591 237.06V238.83H103.581V239.68H102.591V243.5H101.561V239.68H100.721V238.83H101.561V237.06H102.591ZM107.52 236.61H108.54L105.16 243.5H104.14L107.52 236.61ZM109.35 241.5H110.41C110.44 242.06 110.95 242.63 111.78 242.63C112.59 242.63 113.01 242.2 113.08 241.69C113.12 241.05 112.63 240.72 111.99 240.57L111.12 240.35C109.64 239.95 109.41 239.11 109.41 238.5C109.41 237.32 110.47 236.53 111.68 236.53C112.96 236.53 113.92 237.31 113.92 238.57H112.86C112.86 237.93 112.38 237.53 111.66 237.53C111.02 237.53 110.47 237.92 110.47 238.48C110.47 238.75 110.57 239.17 111.39 239.38L112.27 239.61C113.67 239.98 114.24 240.75 114.13 241.75C114.02 242.83 113.09 243.6 111.78 243.6C110.35 243.6 109.35 242.62 109.35 241.5ZM119.752 241.15C119.752 241.26 119.752 241.42 119.742 241.53H116.032C116.142 242.25 116.702 242.7 117.462 242.7C117.982 242.7 118.492 242.46 118.732 242.03L119.572 242.4C119.172 243.23 118.282 243.6 117.412 243.6C116.092 243.6 115.012 242.63 115.012 241.15C115.012 239.67 116.092 238.73 117.412 238.73C118.732 238.73 119.752 239.67 119.752 241.15ZM116.032 240.78H118.742C118.632 240.05 118.122 239.63 117.412 239.63C116.692 239.63 116.142 240.06 116.032 240.78ZM121.869 241.82V243.5H120.839V238.83H121.869V239.9C122.109 239.06 122.559 238.73 123.149 238.73C123.479 238.73 123.829 238.8 123.979 238.91L123.809 239.86C123.539 239.73 123.319 239.7 123.119 239.7C122.239 239.7 121.869 240.58 121.869 241.82ZM126.193 243.5L124.243 238.83H125.333L126.673 242.19L127.993 238.83H129.093L127.143 243.5H126.193ZM130.961 238.83V243.5H129.941V238.83H130.961ZM129.761 236.94C129.761 236.57 130.081 236.29 130.451 236.29C130.841 236.29 131.131 236.57 131.131 236.94C131.131 237.31 130.841 237.59 130.451 237.59C130.081 237.59 129.761 237.31 129.761 236.94ZM132.102 241.15C132.102 239.67 133.252 238.73 134.592 238.73C135.342 238.73 136.002 239.02 136.442 239.54L135.642 240.18C135.392 239.89 135.002 239.73 134.592 239.73C133.812 239.73 133.122 240.28 133.122 241.15C133.122 242.02 133.812 242.61 134.592 242.61C135.002 242.61 135.392 242.44 135.642 242.15L136.452 242.78C136.012 243.3 135.352 243.6 134.592 243.6C133.252 243.6 132.102 242.63 132.102 241.15ZM141.881 241.15C141.881 241.26 141.881 241.42 141.871 241.53H138.161C138.271 242.25 138.831 242.7 139.591 242.7C140.111 242.7 140.621 242.46 140.861 242.03L141.701 242.4C141.301 243.23 140.411 243.6 139.541 243.6C138.221 243.6 137.141 242.63 137.141 241.15C137.141 239.67 138.221 238.73 139.541 238.73C140.861 238.73 141.881 239.67 141.881 241.15ZM138.161 240.78H140.871C140.761 240.05 140.251 239.63 139.541 239.63C138.821 239.63 138.271 240.06 138.161 240.78ZM144.688 241.63L144.058 241.48C143.058 241.21 142.698 240.72 142.768 239.96C142.818 239.27 143.588 238.73 144.438 238.73C145.258 238.73 146.088 239.11 146.138 240.11H145.158C145.118 239.76 144.798 239.61 144.478 239.61C144.208 239.61 143.928 239.71 143.818 239.87C143.738 240 143.728 240.14 143.778 240.29C143.848 240.48 144.098 240.58 144.348 240.65L145.068 240.83C146.068 241.07 146.288 241.73 146.288 242.19C146.288 243.09 145.498 243.6 144.428 243.6C143.548 243.6 142.668 243.06 142.638 242.07H143.588C143.638 242.47 143.958 242.74 144.508 242.74C144.978 242.74 145.338 242.53 145.338 242.18C145.338 241.87 145.038 241.71 144.688 241.63Z" fill="black"/>
<path d="M293.87 243.04L294.57 244.17L293.77 244.66L293.01 243.44C292.69 243.55 292.34 243.6 291.96 243.6C290 243.6 288.47 242.03 288.47 240.07C288.47 238.12 290 236.53 291.96 236.53C293.93 236.53 295.47 238.12 295.47 240.07C295.47 241.32 294.84 242.4 293.87 243.04ZM292.56 240.94L293.31 242.15C293.99 241.71 294.4 240.95 294.4 240.07C294.4 238.68 293.35 237.55 291.96 237.55C290.59 237.55 289.53 238.68 289.53 240.07C289.53 241.38 290.46 242.42 291.72 242.53C291.95 242.56 292.19 242.55 292.43 242.51L291.77 241.43L292.56 240.94ZM298.059 237.06V238.83H299.049V239.68H298.059V243.5H297.029V239.68H296.189V238.83H297.029V237.06H298.059ZM304.239 238.83L301.349 245.78H300.269L301.279 243.28L299.429 238.83H300.529L301.829 242.03L303.139 238.83H304.239Z" fill="black"/>
<path d="M361.39 242.58C362.18 242.58 362.87 242 362.87 241.11V236.61H363.94V241.11C363.94 242.63 362.76 243.6 361.39 243.6C360 243.6 358.83 242.63 358.83 241.11V236.61H359.91V241.11C359.91 242 360.6 242.58 361.39 242.58ZM366.449 240.99V243.5H365.419V238.83H366.449V239.53C366.719 239 367.369 238.73 367.879 238.73C369.009 238.73 369.659 239.45 369.659 240.78V243.5H368.629V240.9C368.629 240.15 368.249 239.74 367.649 239.74C367.039 239.74 366.449 240.07 366.449 240.99ZM372.074 238.83V243.5H371.054V238.83H372.074ZM370.874 236.94C370.874 236.57 371.194 236.29 371.564 236.29C371.954 236.29 372.244 236.57 372.244 236.94C372.244 237.31 371.954 237.59 371.564 237.59C371.194 237.59 370.874 237.31 370.874 236.94ZM374.915 237.06V238.83H375.905V239.68H374.915V243.5H373.885V239.68H373.045V238.83H373.885V237.06H374.915ZM382.148 237.59H380.468V240H382.108C382.868 240 383.208 239.39 383.208 238.8C383.208 238.22 382.898 237.59 382.148 237.59ZM379.398 243.5V236.61H382.168C383.648 236.61 384.268 237.71 384.268 238.8C384.268 239.89 383.648 240.97 382.168 240.97H380.468V243.5H379.398ZM386.264 241.82V243.5H385.234V238.83H386.264V239.9C386.504 239.06 386.954 238.73 387.544 238.73C387.874 238.73 388.224 238.8 388.374 238.91L388.204 239.86C387.934 239.73 387.714 239.7 387.514 239.7C386.634 239.7 386.264 240.58 386.264 241.82ZM390.248 238.83V243.5H389.228V238.83H390.248ZM389.048 236.94C389.048 236.57 389.368 236.29 389.738 236.29C390.128 236.29 390.418 236.57 390.418 236.94C390.418 237.31 390.128 237.59 389.738 237.59C389.368 237.59 389.048 237.31 389.048 236.94ZM391.389 241.15C391.389 239.67 392.539 238.73 393.879 238.73C394.629 238.73 395.289 239.02 395.729 239.54L394.929 240.18C394.679 239.89 394.289 239.73 393.879 239.73C393.099 239.73 392.409 240.28 392.409 241.15C392.409 242.02 393.099 242.61 393.879 242.61C394.289 242.61 394.679 242.44 394.929 242.15L395.739 242.78C395.299 243.3 394.639 243.6 393.879 243.6C392.539 243.6 391.389 242.63 391.389 241.15ZM401.168 241.15C401.168 241.26 401.168 241.42 401.158 241.53H397.448C397.558 242.25 398.118 242.7 398.878 242.7C399.398 242.7 399.908 242.46 400.148 242.03L400.988 242.4C400.588 243.23 399.698 243.6 398.828 243.6C397.508 243.6 396.428 242.63 396.428 241.15C396.428 239.67 397.508 238.73 398.828 238.73C400.148 238.73 401.168 239.67 401.168 241.15ZM397.448 240.78H400.158C400.048 240.05 399.538 239.63 398.828 239.63C398.108 239.63 397.558 240.06 397.448 240.78Z" fill="black"/>
<path d="M433.29 243.5L432.63 241.78H429.85L429.19 243.5H428.06L430.66 236.61H431.81L434.41 243.5H433.29ZM431.24 237.94L430.21 240.83H432.27L431.24 237.94ZM440.515 239.74C439.835 239.74 439.385 240.23 439.385 240.99V243.5H438.355V240.88C438.345 240.16 437.965 239.74 437.405 239.74C436.805 239.74 436.225 240.07 436.225 240.99V243.5H435.195V238.83H436.225V239.53C436.545 238.89 437.315 238.73 437.695 238.73C438.445 238.73 438.895 239.06 439.165 239.66C439.595 238.85 440.315 238.73 440.735 238.73C441.895 238.73 442.535 239.48 442.535 240.81V243.5H441.505V240.9C441.505 240.17 441.115 239.74 440.515 239.74ZM446.055 242.6C446.835 242.6 447.475 242.03 447.475 241.15C447.475 240.3 446.835 239.74 446.055 239.74C445.285 239.74 444.645 240.3 444.645 241.15C444.645 242.03 445.285 242.6 446.055 242.6ZM446.055 243.6C444.735 243.6 443.625 242.63 443.625 241.15C443.625 239.67 444.735 238.73 446.055 238.73C447.385 238.73 448.505 239.67 448.505 241.15C448.505 242.63 447.385 243.6 446.055 243.6ZM452.798 241.34V238.83H453.828V243.5H452.798V242.82C452.528 243.35 451.898 243.6 451.408 243.6C450.258 243.6 449.588 242.88 449.598 241.55V238.83H450.628V241.43C450.628 242.2 451.038 242.6 451.598 242.6C452.198 242.6 452.798 242.27 452.798 241.34ZM456.293 240.99V243.5H455.263V238.83H456.293V239.53C456.563 239 457.213 238.73 457.723 238.73C458.853 238.73 459.503 239.45 459.503 240.78V243.5H458.473V240.9C458.473 240.15 458.093 239.74 457.493 239.74C456.883 239.74 456.293 240.07 456.293 240.99ZM462.298 237.06V238.83H463.288V239.68H462.298V243.5H461.268V239.68H460.428V238.83H461.268V237.06H462.298Z" fill="black"/>
<path d="M63 265.5C63 263.291 64.7909 261.5 67 261.5H259C261.209 261.5 263 263.291 263 265.5C263 267.709 261.209 269.5 259 269.5H67C64.7909 269.5 63 267.709 63 265.5Z" fill="#E5E7EB"/>
<path d="M63 281.5C63 279.291 64.7909 277.5 67 277.5H209C211.209 277.5 213 279.291 213 281.5C213 283.709 211.209 285.5 209 285.5H67C64.7909 285.5 63 283.709 63 281.5Z" fill="#E5E7EB"/>
<path d="M283 265.5C283 263.291 284.791 261.5 287 261.5H332.333C334.542 261.5 336.333 263.291 336.333 265.5C336.333 267.709 334.542 269.5 332.333 269.5H287C284.791 269.5 283 267.709 283 265.5Z" fill="#E5E7EB"/>
<path d="M356.333 265.5C356.333 263.291 358.124 261.5 360.333 261.5H405.667C407.876 261.5 409.667 263.291 409.667 265.5C409.667 267.709 407.876 269.5 405.667 269.5H360.333C358.124 269.5 356.333 267.709 356.333 265.5Z" fill="#E5E7EB"/>
<path d="M429.667 265.5C429.667 263.291 431.457 261.5 433.667 261.5H479C481.209 261.5 483 263.291 483 265.5C483 267.709 481.209 269.5 479 269.5H433.667C431.457 269.5 429.667 267.709 429.667 265.5Z" fill="#E5E7EB"/>
<path d="M63 319.5C63 317.291 64.7909 315.5 67 315.5H261.5C263.709 315.5 265.5 317.291 265.5 319.5V337.5C265.5 339.709 263.709 341.5 261.5 341.5H67C64.7909 341.5 63 339.709 63 337.5V319.5Z" fill="#407CEE"/>
<path d="M148.75 329.5H149.81C149.84 330.06 150.35 330.63 151.18 330.63C151.99 330.63 152.41 330.2 152.48 329.69C152.52 329.05 152.03 328.72 151.39 328.57L150.52 328.35C149.04 327.95 148.81 327.11 148.81 326.5C148.81 325.32 149.87 324.53 151.08 324.53C152.36 324.53 153.32 325.31 153.32 326.57H152.26C152.26 325.93 151.78 325.53 151.06 325.53C150.42 325.53 149.87 325.92 149.87 326.48C149.87 326.75 149.97 327.17 150.79 327.38L151.67 327.61C153.07 327.98 153.64 328.75 153.53 329.75C153.42 330.83 152.49 331.6 151.18 331.6C149.75 331.6 148.75 330.62 148.75 329.5ZM157.813 329.34V326.83H158.843V331.5H157.813V330.82C157.543 331.35 156.913 331.6 156.423 331.6C155.273 331.6 154.603 330.88 154.613 329.55V326.83H155.643V329.43C155.643 330.2 156.053 330.6 156.613 330.6C157.213 330.6 157.813 330.27 157.813 329.34ZM161.319 329.15C161.319 330.06 161.989 330.6 162.749 330.6C163.529 330.6 164.159 330.01 164.159 329.15C164.159 328.29 163.529 327.73 162.749 327.73C162.049 327.73 161.319 328.24 161.319 329.15ZM161.309 331.5H160.279V324.29H161.309V327.5C161.599 326.99 162.209 326.73 162.879 326.73C164.149 326.73 165.209 327.67 165.209 329.17C165.209 330.64 164.119 331.6 162.869 331.6C162.229 331.6 161.599 331.33 161.309 330.82V331.5ZM171.683 327.74C171.003 327.74 170.553 328.23 170.553 328.99V331.5H169.523V328.88C169.513 328.16 169.133 327.74 168.573 327.74C167.973 327.74 167.393 328.07 167.393 328.99V331.5H166.363V326.83H167.393V327.53C167.713 326.89 168.483 326.73 168.863 326.73C169.613 326.73 170.063 327.06 170.333 327.66C170.763 326.85 171.483 326.73 171.903 326.73C173.063 326.73 173.703 327.48 173.703 328.81V331.5H172.673V328.9C172.673 328.17 172.283 327.74 171.683 327.74ZM176.113 326.83V331.5H175.093V326.83H176.113ZM174.913 324.94C174.913 324.57 175.233 324.29 175.603 324.29C175.993 324.29 176.283 324.57 176.283 324.94C176.283 325.31 175.993 325.59 175.603 325.59C175.233 325.59 174.913 325.31 174.913 324.94ZM178.954 325.06V326.83H179.944V327.68H178.954V331.5H177.924V327.68H177.084V326.83H177.924V325.06H178.954Z" fill="white"/>
<path d="M281 319.5C281 317.567 282.567 316 284.5 316H479C480.933 316 482.5 317.567 482.5 319.5V337.5C482.5 339.433 480.933 341 479 341H284.5C282.567 341 281 339.433 281 337.5V319.5Z" fill="#F9FAFB"/>
<path d="M281 319.5C281 317.567 282.567 316 284.5 316H479C480.933 316 482.5 317.567 482.5 319.5V337.5C482.5 339.433 480.933 341 479 341H284.5C282.567 341 281 339.433 281 337.5V319.5Z" stroke="#E5E7EB"/>
<path d="M352.538 329.5H353.598C353.628 330.06 354.138 330.63 354.968 330.63C355.778 330.63 356.198 330.2 356.268 329.69C356.308 329.05 355.818 328.72 355.178 328.57L354.308 328.35C352.828 327.95 352.598 327.11 352.598 326.5C352.598 325.32 353.658 324.53 354.868 324.53C356.148 324.53 357.108 325.31 357.108 326.57H356.048C356.048 325.93 355.568 325.53 354.848 325.53C354.208 325.53 353.658 325.92 353.658 326.48C353.658 326.75 353.758 327.17 354.578 327.38L355.458 327.61C356.858 327.98 357.428 328.75 357.318 329.75C357.208 330.83 356.278 331.6 354.968 331.6C353.538 331.6 352.538 330.62 352.538 329.5ZM362.14 331.5V330.83C361.82 331.34 361.17 331.6 360.57 331.6C359.32 331.6 358.2 330.65 358.2 329.16C358.2 327.67 359.32 326.73 360.57 326.73C361.13 326.73 361.82 326.96 362.14 327.49V326.83H363.16V331.5H362.14ZM359.26 329.15C359.26 330.01 359.92 330.6 360.69 330.6C361.45 330.6 362.13 330.07 362.13 329.15C362.13 328.24 361.39 327.73 360.69 327.73C359.92 327.73 359.26 328.29 359.26 329.15ZM365.964 331.5L364.014 326.83H365.104L366.444 330.19L367.764 326.83H368.864L366.914 331.5H365.964ZM374.054 329.15C374.054 329.26 374.054 329.42 374.044 329.53H370.334C370.444 330.25 371.004 330.7 371.764 330.7C372.284 330.7 372.794 330.46 373.034 330.03L373.874 330.4C373.474 331.23 372.584 331.6 371.714 331.6C370.394 331.6 369.314 330.63 369.314 329.15C369.314 327.67 370.394 326.73 371.714 326.73C373.034 326.73 374.054 327.67 374.054 329.15ZM370.334 328.78H373.044C372.934 328.05 372.424 327.63 371.714 327.63C370.994 327.63 370.444 328.06 370.334 328.78ZM381.32 331.5V330.83C381 331.34 380.35 331.6 379.75 331.6C378.5 331.6 377.38 330.65 377.38 329.16C377.38 327.67 378.5 326.73 379.75 326.73C380.31 326.73 381 326.96 381.32 327.49V326.83H382.34V331.5H381.32ZM378.44 329.15C378.44 330.01 379.1 330.6 379.87 330.6C380.63 330.6 381.31 330.07 381.31 329.15C381.31 328.24 380.57 327.73 379.87 327.73C379.1 327.73 378.44 328.29 378.44 329.15ZM385.503 329.63L384.873 329.48C383.873 329.21 383.513 328.72 383.583 327.96C383.633 327.27 384.403 326.73 385.253 326.73C386.073 326.73 386.903 327.11 386.953 328.11H385.973C385.933 327.76 385.613 327.61 385.293 327.61C385.023 327.61 384.743 327.71 384.633 327.87C384.553 328 384.543 328.14 384.593 328.29C384.663 328.48 384.913 328.58 385.163 328.65L385.883 328.83C386.883 329.07 387.103 329.73 387.103 330.19C387.103 331.09 386.313 331.6 385.243 331.6C384.363 331.6 383.483 331.06 383.453 330.07H384.403C384.453 330.47 384.773 330.74 385.323 330.74C385.793 330.74 386.153 330.53 386.153 330.18C386.153 329.87 385.853 329.71 385.503 329.63ZM392.006 325.6V330.52H393.626C394.976 330.52 395.666 329.44 395.666 328.07C395.666 326.71 394.976 325.6 393.626 325.6H392.006ZM393.626 331.5H390.946V324.61H393.626C395.586 324.61 396.726 326.11 396.726 328.07C396.726 330.03 395.586 331.5 393.626 331.5ZM398.925 329.82V331.5H397.895V326.83H398.925V327.9C399.165 327.06 399.615 326.73 400.205 326.73C400.535 326.73 400.885 326.8 401.035 326.91L400.865 327.86C400.595 327.73 400.375 327.7 400.175 327.7C399.295 327.7 398.925 328.58 398.925 329.82ZM405.431 331.5V330.83C405.111 331.34 404.461 331.6 403.861 331.6C402.611 331.6 401.491 330.65 401.491 329.16C401.491 327.67 402.611 326.73 403.861 326.73C404.421 326.73 405.111 326.96 405.431 327.49V326.83H406.451V331.5H405.431ZM402.551 329.15C402.551 330.01 403.211 330.6 403.981 330.6C404.741 330.6 405.421 330.07 405.421 329.15C405.421 328.24 404.681 327.73 403.981 327.73C403.211 327.73 402.551 328.29 402.551 329.15ZM410.695 324.29V325.28H410.185C409.505 325.28 409.355 325.8 409.355 326.4V326.83H410.405V327.68H409.355V331.5H408.315V327.68H407.425V326.83H408.315V326.4C408.315 325.12 408.905 324.29 410.185 324.29H410.695ZM412.762 325.06V326.83H413.752V327.68H412.762V331.5H411.732V327.68H410.892V326.83H411.732V325.06H412.762Z" fill="#6B7280"/>
</g>
<path d="M56 17C50.7533 17 46.5 21.2533 46.5 26.5V353.5C46.5 358.747 50.7533 363 56 363H490C495.247 363 499.5 358.747 499.5 353.5V26.5C499.5 21.2533 495.247 17 490 17H56Z" stroke="#F3F4F6" stroke-width="3"/>
</g>
<g filter="url(#filter1_d_1237_1160)">
<path d="M348 226.5C348 222.082 351.582 218.5 356 218.5H540C544.418 218.5 548 222.082 548 226.5V453.5C548 457.918 544.418 461.5 540 461.5H356C351.582 461.5 348 457.918 348 453.5V226.5Z" fill="white" shape-rendering="crispEdges"/>
<path d="M356 217C350.753 217 346.5 221.253 346.5 226.5V453.5C346.5 458.747 350.753 463 356 463H540C545.247 463 549.5 458.747 549.5 453.5V226.5C549.5 221.253 545.247 217 540 217H356Z" stroke="#F9FAFB" stroke-width="3" shape-rendering="crispEdges"/>
<path d="M379.408 237.15H376.852V241.038H379.336C380.56 241.038 381.082 240.03 381.082 239.112C381.082 238.212 380.56 237.15 379.408 237.15ZM380.326 243L383.494 247.5H380.722L377.806 243.09H376.852V247.5H374.548V235.098H379.516C382.252 235.098 383.476 237.096 383.476 239.112C383.476 240.876 382.54 242.658 380.326 243ZM393.346 243.27C393.346 243.486 393.328 243.828 393.31 244.026H386.902C387.046 245.16 387.982 245.826 389.224 245.826C390.07 245.826 390.916 245.466 391.33 244.746C391.852 245.034 392.446 245.358 393.004 245.646C392.23 247.086 390.628 247.68 389.08 247.68C386.686 247.68 384.724 245.916 384.724 243.27C384.724 240.606 386.686 238.914 389.08 238.914C391.456 238.914 393.346 240.606 393.346 243.27ZM386.884 242.532H391.204C391.042 241.38 390.178 240.75 389.098 240.75C387.946 240.75 387.046 241.38 386.884 242.532ZM397.503 247.5L393.975 239.094H396.315L398.475 244.692L400.635 239.094H402.993L399.447 247.5H397.503ZM406.549 239.094V247.5H404.371V239.094H406.549ZM404.047 235.836C404.047 235.098 404.695 234.522 405.469 234.522C406.243 234.522 406.855 235.098 406.855 235.836C406.855 236.61 406.243 237.168 405.469 237.168C404.695 237.168 404.047 236.61 404.047 235.836ZM417.129 243.27C417.129 243.486 417.111 243.828 417.093 244.026H410.685C410.829 245.16 411.765 245.826 413.007 245.826C413.853 245.826 414.699 245.466 415.113 244.746C415.635 245.034 416.229 245.358 416.787 245.646C416.013 247.086 414.411 247.68 412.863 247.68C410.469 247.68 408.507 245.916 408.507 243.27C408.507 240.606 410.469 238.914 412.863 238.914C415.239 238.914 417.129 240.606 417.129 243.27ZM410.667 242.532H414.987C414.825 241.38 413.961 240.75 412.881 240.75C411.729 240.75 410.829 241.38 410.667 242.532ZM431.293 239.094L428.287 247.5H426.451L424.579 241.866L422.761 247.5H420.943L417.847 239.094H420.187L421.897 244.404L423.589 239.094H425.533L427.243 244.404L428.953 239.094H431.293ZM443.209 241.758H440.959C439.339 241.758 438.781 243.018 438.871 243.81C438.997 244.872 439.735 245.538 440.959 245.538C442.111 245.538 443.209 244.728 443.209 243V241.758ZM440.707 247.68C438.313 247.68 436.549 246.096 436.549 243.936C436.549 242.424 437.233 241.29 438.529 240.732C437.755 240.354 437.197 239.49 437.197 238.338C437.197 236.574 438.655 235.098 440.671 235.008C442.111 234.954 443.317 235.638 444.037 236.664L442.183 237.798C441.895 237.42 441.499 237.132 440.941 237.132C440.023 237.132 439.537 237.798 439.537 238.464C439.537 238.806 439.771 239.976 441.031 239.976H443.209V238.5H445.261V239.976H446.755V241.758H445.261V243.81C445.261 245.196 445.513 245.736 447.007 245.736V247.68C445.279 247.662 444.181 247.356 443.749 246.204C443.227 247.14 441.805 247.68 440.707 247.68ZM461.69 247.5L460.556 244.494H455.93L454.796 247.5H452.348L456.992 235.098H459.476L464.12 247.5H461.69ZM458.234 237.744L456.704 242.478H459.8L458.234 237.744ZM467.563 239.094V240.228C468.013 239.382 469.093 238.914 470.191 238.914C472.387 238.914 474.295 240.642 474.295 243.288C474.295 245.97 472.387 247.68 470.191 247.68C469.093 247.68 468.013 247.23 467.563 246.384V251.586H465.367V239.094H467.563ZM467.599 243.324C467.599 244.764 468.679 245.592 469.831 245.592C471.037 245.592 472.045 244.692 472.045 243.324C472.045 241.938 471.037 241.02 469.831 241.02C468.625 241.02 467.599 241.92 467.599 243.324ZM478.461 239.094V240.228C478.911 239.382 479.991 238.914 481.089 238.914C483.285 238.914 485.193 240.642 485.193 243.288C485.193 245.97 483.285 247.68 481.089 247.68C479.991 247.68 478.911 247.23 478.461 246.384V251.586H476.265V239.094H478.461ZM478.497 243.324C478.497 244.764 479.577 245.592 480.729 245.592C481.935 245.592 482.943 244.692 482.943 243.324C482.943 241.938 481.935 241.02 480.729 241.02C479.523 241.02 478.497 241.92 478.497 243.324ZM489.36 244.53V247.5H487.164V239.094H489.36V241.074C489.792 239.544 490.782 238.914 491.736 238.914C492.33 238.914 492.78 239.022 493.122 239.22L492.744 241.2C492.222 240.966 491.682 240.966 491.466 240.966C489.972 240.966 489.36 242.298 489.36 244.53ZM498.24 245.52C499.464 245.52 500.436 244.638 500.436 243.27C500.436 241.92 499.464 241.074 498.24 241.074C497.016 241.074 496.044 241.92 496.044 243.27C496.044 244.638 497.016 245.52 498.24 245.52ZM498.24 247.662C495.864 247.662 493.866 245.916 493.866 243.27C493.866 240.606 495.864 238.914 498.24 238.914C500.616 238.914 502.614 240.606 502.614 243.27C502.614 245.916 500.616 247.662 498.24 247.662ZM507.032 247.5L503.504 239.094H505.844L508.004 244.692L510.164 239.094H512.522L508.976 247.5H507.032ZM521.824 243.27C521.824 243.486 521.806 243.828 521.788 244.026H515.38C515.524 245.16 516.46 245.826 517.702 245.826C518.548 245.826 519.394 245.466 519.808 244.746C520.33 245.034 520.924 245.358 521.482 245.646C520.708 247.086 519.106 247.68 517.558 247.68C515.164 247.68 513.202 245.916 513.202 243.27C513.202 240.606 515.164 238.914 517.558 238.914C519.934 238.914 521.824 240.606 521.824 243.27ZM515.362 242.532H519.682C519.52 241.38 518.656 240.75 517.576 240.75C516.424 240.75 515.524 241.38 515.362 242.532Z" fill="black"/>
<rect x="362.5" y="266" width="171" height="181" rx="4.5" stroke="#F3F4F6"/>
<path d="M375 282.5C375 280.291 376.791 278.5 379 278.5H517C519.209 278.5 521 280.291 521 282.5V308.5C521 310.709 519.209 312.5 517 312.5H379C376.791 312.5 375 310.709 375 308.5V282.5Z" fill="#F3F4F6"/>
<path d="M421.26 299.5V289.854H427.07V291.226H422.744V294.082H426.524V295.44H422.744V298.142H427.21V299.5H421.26ZM431.264 296.882L430.382 296.672C428.982 296.294 428.478 295.608 428.576 294.544C428.646 293.578 429.724 292.822 430.914 292.822C432.062 292.822 433.224 293.354 433.294 294.754H431.922C431.866 294.264 431.418 294.054 430.97 294.054C430.592 294.054 430.2 294.194 430.046 294.418C429.934 294.6 429.92 294.796 429.99 295.006C430.088 295.272 430.438 295.412 430.788 295.51L431.796 295.762C433.196 296.098 433.504 297.022 433.504 297.666C433.504 298.926 432.398 299.64 430.9 299.64C429.668 299.64 428.436 298.884 428.394 297.498H429.724C429.794 298.058 430.242 298.436 431.012 298.436C431.67 298.436 432.174 298.142 432.174 297.652C432.174 297.218 431.754 296.994 431.264 296.882ZM437.036 290.484V292.962H438.422V294.152H437.036V299.5H435.594V294.152H434.418V292.962H435.594V290.484H437.036ZM441.207 292.962V299.5H439.779V292.962H441.207ZM439.527 290.316C439.527 289.798 439.975 289.406 440.493 289.406C441.039 289.406 441.445 289.798 441.445 290.316C441.445 290.834 441.039 291.226 440.493 291.226C439.975 291.226 439.527 290.834 439.527 290.316ZM450.673 294.236C449.721 294.236 449.091 294.922 449.091 295.986V299.5H447.649V295.832C447.635 294.824 447.103 294.236 446.319 294.236C445.479 294.236 444.667 294.698 444.667 295.986V299.5H443.225V292.962H444.667V293.942C445.115 293.046 446.193 292.822 446.725 292.822C447.775 292.822 448.405 293.284 448.783 294.124C449.385 292.99 450.393 292.822 450.981 292.822C452.605 292.822 453.501 293.872 453.501 295.734V299.5H452.059V295.86C452.059 294.838 451.513 294.236 450.673 294.236ZM460.543 299.5V298.562C460.095 299.276 459.185 299.64 458.345 299.64C456.595 299.64 455.027 298.31 455.027 296.224C455.027 294.138 456.595 292.822 458.345 292.822C459.129 292.822 460.095 293.144 460.543 293.886V292.962H461.971V299.5H460.543ZM456.511 296.21C456.511 297.414 457.435 298.24 458.513 298.24C459.577 298.24 460.529 297.498 460.529 296.21C460.529 294.936 459.493 294.222 458.513 294.222C457.435 294.222 456.511 295.006 456.511 296.21ZM465.952 290.484V292.962H467.338V294.152H465.952V299.5H464.51V294.152H463.334V292.962H464.51V290.484H465.952ZM474.816 296.21C474.816 296.364 474.816 296.588 474.802 296.742H469.608C469.762 297.75 470.546 298.38 471.61 298.38C472.338 298.38 473.052 298.044 473.388 297.442L474.564 297.96C474.004 299.122 472.758 299.64 471.54 299.64C469.692 299.64 468.18 298.282 468.18 296.21C468.18 294.138 469.692 292.822 471.54 292.822C473.388 292.822 474.816 294.138 474.816 296.21ZM469.608 295.692H473.402C473.248 294.67 472.534 294.082 471.54 294.082C470.532 294.082 469.762 294.684 469.608 295.692Z" fill="#1F2937"/>
<path d="M406.58 336.5V328.232H411.56V329.408H407.852V331.856H411.092V333.02H407.852V335.336H411.68V336.5H406.58ZM415.155 334.256L414.399 334.076C413.199 333.752 412.767 333.164 412.851 332.252C412.911 331.424 413.835 330.776 414.855 330.776C415.839 330.776 416.835 331.232 416.895 332.432H415.719C415.671 332.012 415.287 331.832 414.903 331.832C414.579 331.832 414.243 331.952 414.111 332.144C414.015 332.3 414.003 332.468 414.063 332.648C414.147 332.876 414.447 332.996 414.747 333.08L415.611 333.296C416.811 333.584 417.075 334.376 417.075 334.928C417.075 336.008 416.127 336.62 414.843 336.62C413.787 336.62 412.731 335.972 412.695 334.784H413.835C413.895 335.264 414.279 335.588 414.939 335.588C415.503 335.588 415.935 335.336 415.935 334.916C415.935 334.544 415.575 334.352 415.155 334.256ZM420.103 328.772V330.896H421.291V331.916H420.103V336.5H418.867V331.916H417.859V330.896H418.867V328.772H420.103ZM423.678 330.896V336.5H422.454V330.896H423.678ZM422.238 328.628C422.238 328.184 422.622 327.848 423.066 327.848C423.534 327.848 423.882 328.184 423.882 328.628C423.882 329.072 423.534 329.408 423.066 329.408C422.622 329.408 422.238 329.072 422.238 328.628ZM431.791 331.988C430.975 331.988 430.435 332.576 430.435 333.488V336.5H429.199V333.356C429.187 332.492 428.731 331.988 428.059 331.988C427.339 331.988 426.643 332.384 426.643 333.488V336.5H425.407V330.896H426.643V331.736C427.027 330.968 427.951 330.776 428.407 330.776C429.307 330.776 429.847 331.172 430.171 331.892C430.687 330.92 431.551 330.776 432.055 330.776C433.447 330.776 434.215 331.676 434.215 333.272V336.5H432.979V333.38C432.979 332.504 432.511 331.988 431.791 331.988ZM440.252 336.5V335.696C439.868 336.308 439.088 336.62 438.368 336.62C436.868 336.62 435.524 335.48 435.524 333.692C435.524 331.904 436.868 330.776 438.368 330.776C439.04 330.776 439.868 331.052 440.252 331.688V330.896H441.476V336.5H440.252ZM436.796 333.68C436.796 334.712 437.588 335.42 438.512 335.42C439.424 335.42 440.24 334.784 440.24 333.68C440.24 332.588 439.352 331.976 438.512 331.976C437.588 331.976 436.796 332.648 436.796 333.68ZM444.888 328.772V330.896H446.076V331.916H444.888V336.5H443.652V331.916H442.644V330.896H443.652V328.772H444.888ZM452.485 333.68C452.485 333.812 452.485 334.004 452.473 334.136H448.021C448.153 335 448.825 335.54 449.737 335.54C450.361 335.54 450.973 335.252 451.261 334.736L452.269 335.18C451.789 336.176 450.721 336.62 449.677 336.62C448.093 336.62 446.797 335.456 446.797 333.68C446.797 331.904 448.093 330.776 449.677 330.776C451.261 330.776 452.485 331.904 452.485 333.68ZM448.021 333.236H451.273C451.141 332.36 450.529 331.856 449.677 331.856C448.813 331.856 448.153 332.372 448.021 333.236ZM462.345 330.32H463.629L463.341 331.364H462.045L461.457 333.44H462.753L462.465 334.484H461.169L460.569 336.5H459.477L460.053 334.484H458.793L458.193 336.5H457.101L457.689 334.484H456.417L456.693 333.44H457.977L458.553 331.364H457.293L457.569 330.32H458.841L459.429 328.232H460.545L459.957 330.32H461.229L461.817 328.232H462.933L462.345 330.32ZM459.657 331.364L459.081 333.44H460.341L460.929 331.364H459.657ZM469.663 336.5H464.755V335.912L467.947 332.072C468.271 331.688 468.487 331.304 468.487 330.884C468.487 330.212 467.923 329.756 467.191 329.756C466.519 329.756 465.955 330.224 465.859 330.956L464.683 330.704C464.899 329.372 465.931 328.544 467.215 328.544C468.595 328.544 469.711 329.492 469.711 330.884C469.711 331.652 469.375 332.336 468.859 332.9C467.959 333.956 467.779 334.148 466.819 335.3H469.663V336.5ZM472.653 333.74H474.705V330.68L472.653 333.74ZM477.021 334.856H475.929V336.5H474.705V334.856H470.697L474.873 328.664H475.929V333.74H477.021V334.856ZM480.619 332.9H479.743V331.76H480.619C481.243 331.76 481.567 331.256 481.627 330.872C481.675 330.524 481.591 330.08 481.051 329.852C480.871 329.768 480.691 329.768 480.511 329.768C480.031 329.756 479.683 329.984 479.407 330.38L478.471 329.696C478.903 328.94 479.779 328.484 480.775 328.544C482.083 328.604 482.983 329.612 482.983 330.716C482.983 331.34 482.599 331.928 482.035 332.264C482.839 332.552 483.295 333.488 483.295 334.316C483.295 335.768 482.119 336.62 480.559 336.62C479.335 336.62 478.423 335.936 478.003 335.036L479.083 334.46C479.311 334.976 480.019 335.42 480.559 335.42H480.547C481.555 335.42 482.023 334.892 482.023 334.22C482.023 333.596 481.543 332.9 480.619 332.9ZM487.076 332.9H486.2V331.76H487.076C487.7 331.76 488.024 331.256 488.084 330.872C488.132 330.524 488.048 330.08 487.508 329.852C487.328 329.768 487.148 329.768 486.968 329.768C486.488 329.756 486.14 329.984 485.864 330.38L484.928 329.696C485.36 328.94 486.236 328.484 487.232 328.544C488.54 328.604 489.44 329.612 489.44 330.716C489.44 331.34 489.056 331.928 488.492 332.264C489.296 332.552 489.752 333.488 489.752 334.316C489.752 335.768 488.576 336.62 487.016 336.62C485.792 336.62 484.88 335.936 484.46 335.036L485.54 334.46C485.768 334.976 486.476 335.42 487.016 335.42H487.004C488.012 335.42 488.48 334.892 488.48 334.22C488.48 333.596 488 332.9 487.076 332.9Z" fill="#4B5563"/>
<path d="M385.756 359.272V358.12H386.428C387.256 358.12 387.364 357.436 387.364 356.86V350.896H388.612V356.86C388.612 358.264 388.108 359.272 386.572 359.272H385.756ZM387.16 348.628C387.16 348.184 387.544 347.848 387.988 347.848C388.456 347.848 388.816 348.184 388.816 348.628C388.816 349.072 388.456 349.408 387.988 349.408C387.544 349.408 387.16 349.072 387.16 348.628ZM392.897 355.42C393.833 355.42 394.601 354.736 394.601 353.68C394.601 352.66 393.833 351.988 392.897 351.988C391.973 351.988 391.205 352.66 391.205 353.68C391.205 354.736 391.973 355.42 392.897 355.42ZM392.897 356.62C391.313 356.62 389.981 355.456 389.981 353.68C389.981 351.904 391.313 350.776 392.897 350.776C394.493 350.776 395.837 351.904 395.837 353.68C395.837 355.456 394.493 356.62 392.897 356.62ZM398.444 353.488V356.5H397.208V347.848H398.444V351.748C398.768 351.064 399.632 350.776 400.22 350.776C401.66 350.776 402.488 351.712 402.488 353.308V356.5H401.252V353.38C401.252 352.504 400.712 351.988 400.004 351.988C399.296 351.988 398.444 352.384 398.444 353.488ZM405.381 353.488V356.5H404.145V350.896H405.381V351.736C405.705 351.1 406.485 350.776 407.097 350.776C408.453 350.776 409.233 351.64 409.233 353.236V356.5H407.997V353.38C407.997 352.48 407.541 351.988 406.821 351.988C406.089 351.988 405.381 352.384 405.381 353.488ZM412.971 354.256L412.215 354.076C411.015 353.752 410.583 353.164 410.667 352.252C410.727 351.424 411.651 350.776 412.671 350.776C413.655 350.776 414.651 351.232 414.711 352.432H413.535C413.487 352.012 413.103 351.832 412.719 351.832C412.395 351.832 412.059 351.952 411.927 352.144C411.831 352.3 411.819 352.468 411.879 352.648C411.963 352.876 412.263 352.996 412.563 353.08L413.427 353.296C414.627 353.584 414.891 354.376 414.891 354.928C414.891 356.008 413.943 356.62 412.659 356.62C411.603 356.62 410.547 355.972 410.511 354.784H411.651C411.711 355.264 412.095 355.588 412.755 355.588C413.319 355.588 413.751 355.336 413.751 354.916C413.751 354.544 413.391 354.352 412.971 354.256ZM422.623 351.988C421.807 351.988 421.267 352.576 421.267 353.488V356.5H420.031V353.356C420.019 352.492 419.563 351.988 418.891 351.988C418.171 351.988 417.475 352.384 417.475 353.488V356.5H416.239V350.896H417.475V351.736C417.859 350.968 418.783 350.776 419.239 350.776C420.139 350.776 420.679 351.172 421.003 351.892C421.519 350.92 422.383 350.776 422.887 350.776C424.279 350.776 425.047 351.676 425.047 353.272V356.5H423.811V353.38C423.811 352.504 423.343 351.988 422.623 351.988ZM427.94 350.896V356.5H426.716V350.896H427.94ZM426.5 348.628C426.5 348.184 426.884 347.848 427.328 347.848C427.796 347.848 428.144 348.184 428.144 348.628C428.144 349.072 427.796 349.408 427.328 349.408C426.884 349.408 426.5 349.072 426.5 348.628ZM431.349 348.772V350.896H432.537V351.916H431.349V356.5H430.113V351.916H429.105V350.896H430.113V348.772H431.349ZM434.936 353.488V356.5H433.7V347.848H434.936V351.748C435.26 351.064 436.124 350.776 436.712 350.776C438.152 350.776 438.98 351.712 438.98 353.308V356.5H437.744V353.38C437.744 352.504 437.204 351.988 436.496 351.988C435.788 351.988 434.936 352.384 434.936 353.488ZM446.925 354.94V353.404C446.925 352.54 446.241 351.892 445.413 351.892C444.585 351.892 443.901 352.54 443.901 353.404C443.901 354.22 444.585 354.904 445.413 354.904C445.785 354.904 446.193 354.712 446.541 354.388V355.444C446.217 355.648 445.797 355.804 445.413 355.804C444.081 355.804 443.001 354.748 443.001 353.404C443.001 352.06 444.081 350.992 445.413 350.992C446.049 350.992 446.649 351.232 447.081 351.652C447.525 352.072 447.789 352.636 447.825 353.296V355.024C447.825 355.66 448.269 355.792 448.653 355.792C449.781 355.792 450.021 354.208 450.021 353.26C450.021 350.848 447.969 349.096 445.533 349.096C443.121 349.096 441.249 351.052 441.249 353.464C441.249 355.876 443.121 357.784 445.533 357.784H445.833V358.696H445.533C442.617 358.696 440.349 356.38 440.349 353.464C440.349 350.548 442.617 348.196 445.533 348.196C448.449 348.196 450.945 350.344 450.945 353.26C450.945 354.664 450.345 356.692 448.653 356.692C447.777 356.692 446.925 356.284 446.925 354.94ZM456.618 353.704C456.618 352.588 455.814 351.976 454.89 351.976C453.954 351.976 453.186 352.684 453.186 353.704C453.186 354.76 453.954 355.432 454.89 355.432C455.73 355.432 456.618 354.808 456.618 353.704ZM453.198 357.208C453.498 357.796 454.158 358.144 454.77 358.144C455.91 358.144 456.642 357.508 456.642 355.936V355.648C456.33 356.284 455.502 356.62 454.746 356.62C453.234 356.62 451.914 355.492 451.914 353.716C451.914 351.94 453.234 350.776 454.746 350.776C455.514 350.776 456.294 351.112 456.642 351.724V350.896H457.854V355.672C457.854 358.252 456.654 359.296 454.77 359.296C453.678 359.296 452.706 358.732 452.178 357.724C452.406 357.628 452.97 357.304 453.198 357.208ZM465.971 351.988C465.155 351.988 464.615 352.576 464.615 353.488V356.5H463.379V353.356C463.367 352.492 462.911 351.988 462.239 351.988C461.519 351.988 460.823 352.384 460.823 353.488V356.5H459.587V350.896H460.823V351.736C461.207 350.968 462.131 350.776 462.587 350.776C463.487 350.776 464.027 351.172 464.351 351.892C464.867 350.92 465.731 350.776 466.235 350.776C467.627 350.776 468.395 351.676 468.395 353.272V356.5H467.159V353.38C467.159 352.504 466.691 351.988 465.971 351.988ZM474.431 356.5V355.696C474.047 356.308 473.267 356.62 472.547 356.62C471.047 356.62 469.703 355.48 469.703 353.692C469.703 351.904 471.047 350.776 472.547 350.776C473.219 350.776 474.047 351.052 474.431 351.688V350.896H475.655V356.5H474.431ZM470.975 353.68C470.975 354.712 471.767 355.42 472.691 355.42C473.603 355.42 474.419 354.784 474.419 353.68C474.419 352.588 473.531 351.976 472.691 351.976C471.767 351.976 470.975 352.648 470.975 353.68ZM478.611 350.896V356.5H477.387V350.896H478.611ZM477.171 348.628C477.171 348.184 477.555 347.848 477.999 347.848C478.467 347.848 478.815 348.184 478.815 348.628C478.815 349.072 478.467 349.408 477.999 349.408C477.555 349.408 477.171 349.072 477.171 348.628ZM480.341 356.5V347.848H481.577V356.5H480.341ZM483.197 355.816C483.197 355.348 483.569 355 484.037 355C484.505 355 484.889 355.348 484.889 355.816C484.889 356.284 484.505 356.62 484.037 356.62C483.569 356.62 483.197 356.284 483.197 355.816ZM486.133 353.68C486.133 351.904 487.513 350.776 489.121 350.776C490.021 350.776 490.813 351.124 491.341 351.748L490.381 352.516C490.081 352.168 489.613 351.976 489.121 351.976C488.185 351.976 487.357 352.636 487.357 353.68C487.357 354.724 488.185 355.432 489.121 355.432C489.613 355.432 490.081 355.228 490.381 354.88L491.353 355.636C490.825 356.26 490.033 356.62 489.121 356.62C487.513 356.62 486.133 355.456 486.133 353.68ZM495.096 355.42C496.032 355.42 496.8 354.736 496.8 353.68C496.8 352.66 496.032 351.988 495.096 351.988C494.172 351.988 493.404 352.66 493.404 353.68C493.404 354.736 494.172 355.42 495.096 355.42ZM495.096 356.62C493.512 356.62 492.18 355.456 492.18 353.68C492.18 351.904 493.512 350.776 495.096 350.776C496.692 350.776 498.036 351.904 498.036 353.68C498.036 355.456 496.692 356.62 495.096 356.62ZM505.791 351.988C504.975 351.988 504.435 352.576 504.435 353.488V356.5H503.199V353.356C503.187 352.492 502.731 351.988 502.059 351.988C501.339 351.988 500.643 352.384 500.643 353.488V356.5H499.407V350.896H500.643V351.736C501.027 350.968 501.951 350.776 502.407 350.776C503.307 350.776 503.847 351.172 504.171 351.892C504.687 350.92 505.551 350.776 506.055 350.776C507.447 350.776 508.215 351.676 508.215 353.272V356.5H506.979V353.38C506.979 352.504 506.511 351.988 505.791 351.988Z" fill="#4B5563"/>
<path d="M410.06 366.46H411.52V368.62C413.76 368.94 415.34 370.42 415.34 372.78H412.42C412.42 371.84 411.82 371.22 410.64 371.22C409.62 371.22 408.86 371.78 408.86 372.6C408.86 372.96 408.98 373.62 410.34 374L411.98 374.52C415.32 375.48 415.82 377.38 415.76 378.68C415.7 381.16 413.7 382.46 411.52 382.68V384.98H410.06V382.68C407.44 382.42 405.8 380.76 405.8 378.46H408.74C408.8 379.34 409.46 380.12 410.8 380.12C412 380.12 412.8 379.56 412.82 378.66C412.84 378.04 412.54 377.5 411.16 377.1L409.5 376.64C406.46 375.68 405.94 373.94 405.94 372.68C405.94 370.42 407.72 368.86 410.06 368.6V366.46ZM421.664 376.82H420.284V374.42H421.664C423.024 374.42 422.944 373.08 422.944 373C422.944 372.6 422.604 371.74 421.624 371.74C420.924 371.74 420.484 372.06 420.244 372.46L417.984 371.08C418.764 369.82 420.304 369.04 422.064 369.14C424.364 369.24 426.004 370.96 425.944 372.82C425.944 373.92 425.224 374.84 424.264 375.38C425.704 375.92 426.604 377.54 426.504 378.94C426.284 381.2 423.964 382.82 421.344 382.66C419.524 382.56 417.844 381.44 417.164 379.92L419.624 378.7C419.884 379.34 420.824 379.9 421.564 379.96C422.604 380.02 423.344 379.26 423.444 378.56C423.444 378.3 423.644 376.76 421.664 376.82ZM434.179 374.06C436.019 374.06 438.199 375.46 438.199 378.48C438.199 381 436.299 382.7 433.439 382.7C430.979 382.7 428.959 380.92 428.739 378.14C428.419 374.08 429.119 368.98 434.039 369.14C435.599 369.2 437.099 369.68 438.079 371.68L435.459 372.8C435.079 372.02 434.559 371.76 433.939 371.76C432.019 371.76 431.479 373.78 431.539 375.54C431.699 375.08 432.559 374.06 434.179 374.06ZM435.299 378.32C435.299 377.38 434.519 376.6 433.579 376.6C432.639 376.6 431.859 377.38 431.859 378.32C431.859 379.26 432.639 380.04 433.579 380.04C434.519 380.04 435.299 379.26 435.299 378.32ZM443.458 377.2H445.898V373.12L443.458 377.2ZM450.378 379.56H448.718V382.5H445.898V379.56H439.638L445.758 369.4H448.718V377.2H450.378V379.56ZM452.149 369.4H462.029L456.249 382.5H453.069L457.689 371.98H452.149V369.4ZM462.134 381.02C462.134 380.06 462.914 379.36 463.854 379.36C464.794 379.36 465.594 380.06 465.594 381.02C465.594 382 464.794 382.7 463.854 382.7C462.914 382.7 462.134 382 462.134 381.02ZM467.82 375.94C467.82 372.16 468.9 369.14 472.72 369.14C476.54 369.14 477.58 372.16 477.58 375.94C477.58 379.68 476.54 382.7 472.72 382.7C468.9 382.7 467.82 379.68 467.82 375.94ZM470.62 375.94C470.62 378.14 471.12 379.98 472.72 379.98C474.3 379.98 474.78 378.14 474.78 375.94C474.78 373.72 474.3 371.86 472.72 371.86C471.12 371.86 470.62 373.72 470.62 375.94ZM483.79 377.78C481.95 377.78 479.77 376.38 479.77 373.36C479.77 370.86 481.67 369.14 484.53 369.14C487.03 369.14 488.97 370.92 489.23 373.7C489.55 377.74 488.83 382.86 483.93 382.7C482.39 382.64 480.85 382.18 479.89 380.16L482.51 379.04C482.89 379.82 483.41 380.08 484.03 380.08C485.95 380.08 486.49 378.06 486.43 376.3C486.27 376.76 485.75 377.78 483.79 377.78ZM482.67 373.52C482.67 374.46 483.45 375.24 484.39 375.24C485.33 375.24 486.11 374.46 486.11 373.52C486.11 372.58 485.33 371.8 484.39 371.8C483.45 371.8 482.67 372.58 482.67 373.52Z" fill="black"/>
<path d="M375 406.5C375 404.291 376.791 402.5 379 402.5H517C519.209 402.5 521 404.291 521 406.5V430.5C521 432.709 519.209 434.5 517 434.5H379C376.791 434.5 375 432.709 375 430.5V406.5Z" fill="#22C55E"/>
<path d="M405.228 421.5L404.472 419.496H401.388L400.632 421.5H399L402.096 413.232H403.752L406.848 421.5H405.228ZM402.924 414.996L401.904 418.152H403.968L402.924 414.996ZM409.144 415.896V416.652C409.444 416.088 410.164 415.776 410.896 415.776C412.36 415.776 413.632 416.928 413.632 418.692C413.632 420.48 412.36 421.62 410.896 421.62C410.164 421.62 409.444 421.32 409.144 420.756V424.224H407.68V415.896H409.144ZM409.168 418.716C409.168 419.676 409.888 420.228 410.656 420.228C411.46 420.228 412.132 419.628 412.132 418.716C412.132 417.792 411.46 417.18 410.656 417.18C409.852 417.18 409.168 417.78 409.168 418.716ZM416.409 415.896V416.652C416.709 416.088 417.429 415.776 418.161 415.776C419.625 415.776 420.897 416.928 420.897 418.692C420.897 420.48 419.625 421.62 418.161 421.62C417.429 421.62 416.709 421.32 416.409 420.756V424.224H414.945V415.896H416.409ZM416.433 418.716C416.433 419.676 417.153 420.228 417.921 420.228C418.725 420.228 419.397 419.628 419.397 418.716C419.397 417.792 418.725 417.18 417.921 417.18C417.117 417.18 416.433 417.78 416.433 418.716ZM423.675 419.52V421.5H422.211V415.896H423.675V417.216C423.963 416.196 424.623 415.776 425.259 415.776C425.655 415.776 425.955 415.848 426.183 415.98L425.931 417.3C425.583 417.144 425.223 417.144 425.079 417.144C424.083 417.144 423.675 418.032 423.675 419.52ZM429.595 420.18C430.411 420.18 431.059 419.592 431.059 418.68C431.059 417.78 430.411 417.216 429.595 417.216C428.779 417.216 428.131 417.78 428.131 418.68C428.131 419.592 428.779 420.18 429.595 420.18ZM429.595 421.608C428.011 421.608 426.679 420.444 426.679 418.68C426.679 416.904 428.011 415.776 429.595 415.776C431.179 415.776 432.511 416.904 432.511 418.68C432.511 420.444 431.179 421.608 429.595 421.608ZM435.456 421.5L433.104 415.896H434.664L436.104 419.628L437.544 415.896H439.116L436.752 421.5H435.456ZM445.318 418.68C445.318 418.824 445.306 419.052 445.294 419.184H441.022C441.118 419.94 441.742 420.384 442.57 420.384C443.134 420.384 443.698 420.144 443.974 419.664C444.322 419.856 444.718 420.072 445.09 420.264C444.574 421.224 443.506 421.62 442.474 421.62C440.878 421.62 439.57 420.444 439.57 418.68C439.57 416.904 440.878 415.776 442.474 415.776C444.058 415.776 445.318 416.904 445.318 418.68ZM441.01 418.188H443.89C443.782 417.42 443.206 417 442.486 417C441.718 417 441.118 417.42 441.01 418.188ZM449.731 421.5V413.232H454.843V414.6H451.255V416.748H454.399V418.104H451.255V420.132H454.963V421.5H449.731ZM458.436 419.352L457.668 419.16C456.216 418.776 456.084 418.092 456.084 417.444C456.084 416.532 457.044 415.776 458.148 415.776C459.216 415.776 460.272 416.256 460.332 417.54H458.94C458.904 417.12 458.52 416.964 458.184 416.964C457.812 416.964 457.476 417.096 457.476 417.516C457.476 417.744 457.74 417.9 458.064 417.984L459 418.212C460.296 418.572 460.464 419.436 460.464 419.892C460.464 421.044 459.336 421.62 458.172 421.62C457.068 421.62 455.952 420.936 455.916 419.736H457.284C457.32 420.132 457.776 420.48 458.316 420.444C458.736 420.432 459.048 420.204 459.048 419.88C459.06 419.592 458.856 419.448 458.436 419.352ZM463.682 413.76V415.896H464.87V417.072H463.682V421.5H462.23V417.072H461.21V415.896H462.23V413.76H463.682ZM467.421 415.896V421.5H465.969V415.896H467.421ZM465.753 413.724C465.753 413.232 466.185 412.848 466.701 412.848C467.217 412.848 467.625 413.232 467.625 413.724C467.625 414.24 467.217 414.612 466.701 414.612C466.185 414.612 465.753 414.24 465.753 413.724ZM475.35 417.204C474.678 417.204 474.21 417.648 474.21 418.512V421.5H472.746V418.416C472.734 417.636 472.29 417.204 471.714 417.204C471.114 417.204 470.538 417.552 470.538 418.512V421.5H469.074V415.896H470.538V416.724C470.862 416.04 471.606 415.788 472.146 415.788C473.046 415.836 473.61 416.148 473.934 416.832C474.45 415.896 475.266 415.776 475.698 415.776C477.054 415.776 477.858 416.652 477.858 418.296V421.5H476.406V418.452C476.406 417.636 475.962 417.204 475.35 417.204ZM483.693 421.5V420.78C483.345 421.356 482.493 421.608 481.953 421.608C480.477 421.608 479.097 420.48 479.097 418.692C479.097 416.904 480.477 415.776 481.953 415.776C482.469 415.776 483.273 415.98 483.693 416.592V415.896H485.157V421.5H483.693ZM480.609 418.692C480.609 419.604 481.341 420.204 482.157 420.204C482.961 420.204 483.693 419.652 483.693 418.692C483.693 417.732 482.925 417.18 482.157 417.18C481.341 417.18 480.609 417.78 480.609 418.692ZM488.736 413.76V415.896H489.924V417.072H488.736V421.5H487.284V417.072H486.264V415.896H487.284V413.76H488.736ZM496.353 418.68C496.353 418.824 496.341 419.052 496.329 419.184H492.057C492.153 419.94 492.777 420.384 493.605 420.384C494.169 420.384 494.733 420.144 495.009 419.664C495.357 419.856 495.753 420.072 496.125 420.264C495.609 421.224 494.541 421.62 493.509 421.62C491.913 421.62 490.605 420.444 490.605 418.68C490.605 416.904 491.913 415.776 493.509 415.776C495.093 415.776 496.353 416.904 496.353 418.68ZM492.045 418.188H494.925C494.817 417.42 494.241 417 493.521 417C492.753 417 492.153 417.42 492.045 418.188Z" fill="white"/>
</g>
<defs>
<filter id="filter0_d_1237_1160" x="0" y="0.5" width="516" height="409" filterUnits="userSpaceOnUse" color-interpolation-filters="sRGB">
<feFlood flood-opacity="0" result="BackgroundImageFix"/>
<feColorMatrix in="SourceAlpha" type="matrix" values="0 0 0 0 0 0 0 0 0 0 0 0 0 0 0 0 0 0 127 0" result="hardAlpha"/>
<feOffset dx="-15" dy="15"/>
<feGaussianBlur stdDeviation="15"/>
<feComposite in2="hardAlpha" operator="out"/>
<feColorMatrix type="matrix" values="0 0 0 0 0 0 0 0 0 0 0 0 0 0 0 0 0 0 0.15 0"/>
<feBlend mode="normal" in2="BackgroundImageFix" result="effect1_dropShadow_1237_1160"/>
<feBlend mode="normal" in="SourceGraphic" in2="effect1_dropShadow_1237_1160" result="shape"/>
</filter>
<filter id="filter1_d_1237_1160" x="300" y="185.5" width="266" height="309" filterUnits="userSpaceOnUse" color-interpolation-filters="sRGB">
<feFlood flood-opacity="0" result="BackgroundImageFix"/>
<feColorMatrix in="SourceAlpha" type="matrix" values="0 0 0 0 0 0 0 0 0 0 0 0 0 0 0 0 0 0 127 0" result="hardAlpha"/>
<feOffset dx="-15"/>
<feGaussianBlur stdDeviation="15"/>
<feComposite in2="hardAlpha" operator="out"/>
<feColorMatrix type="matrix" values="0 0 0 0 0.176471 0 0 0 0 0.392157 0 0 0 0 0.839216 0 0 0 0.1 0"/>
<feBlend mode="normal" in2="BackgroundImageFix" result="effect1_dropShadow_1237_1160"/>
<feBlend mode="normal" in="SourceGraphic" in2="effect1_dropShadow_1237_1160" result="shape"/>
</filter>
<clipPath id="clip0_1237_1160">
<path d="M48 26.5C48 22.0817 51.5817 18.5 56 18.5H490C494.418 18.5 498 22.0817 498 26.5V353.5C498 357.918 494.418 361.5 490 361.5H56C51.5817 361.5 48 357.918 48 353.5V26.5Z" fill="white"/>
</clipPath>
<clipPath id="clip1_1237_1160">
<rect width="10" height="10" fill="white" transform="translate(318 101.5)"/>
</clipPath>
<clipPath id="clip2_1237_1160">
<rect width="10" height="10" fill="white" transform="translate(468 101.5)"/>
</clipPath>
</defs>
</svg>
