<svg width="566" height="409" viewBox="0 0 566 409" fill="none" xmlns="http://www.w3.org/2000/svg">
<g filter="url(#filter0_d_1228_2255)">
<g clip-path="url(#clip0_1228_2255)">
<path d="M48 26C48 21.5817 51.5817 18 56 18H540C544.418 18 548 21.5817 548 26V353C548 357.418 544.418 361 540 361H56C51.5817 361 48 357.418 48 353V26Z" fill="white"/>
<mask id="path-3-inside-1_1228_2255" fill="white">
<path d="M48 18H548V61H48V18Z"/>
</mask>
<path d="M548 60H48V62H548V60Z" fill="#F3F4F6" mask="url(#path-3-inside-1_1228_2255)"/>
<path d="M69.84 34.552L71.052 35.44C70.332 36.46 69.132 37.12 67.692 37.12C65.34 37.12 63.528 35.212 63.528 32.884C63.528 30.544 65.34 28.636 67.692 28.636C69.096 28.636 70.296 29.26 71.016 30.268L69.792 31.144C69.312 30.52 68.568 30.088 67.692 30.088C66.192 30.088 65.064 31.348 65.064 32.884C65.064 34.432 66.192 35.668 67.692 35.668C68.592 35.668 69.36 35.224 69.84 34.552ZM73.6123 35.02V37H72.1483V31.396H73.6123V32.716C73.9003 31.696 74.5603 31.276 75.1963 31.276C75.5923 31.276 75.8923 31.348 76.1203 31.48L75.8683 32.8C75.5203 32.644 75.1603 32.644 75.0163 32.644C74.0203 32.644 73.6123 33.532 73.6123 35.02ZM82.3647 34.18C82.3647 34.324 82.3527 34.552 82.3407 34.684H78.0687C78.1647 35.44 78.7887 35.884 79.6167 35.884C80.1807 35.884 80.7447 35.644 81.0207 35.164C81.3687 35.356 81.7647 35.572 82.1367 35.764C81.6207 36.724 80.5527 37.12 79.5207 37.12C77.9247 37.12 76.6167 35.944 76.6167 34.18C76.6167 32.404 77.9247 31.276 79.5207 31.276C81.1047 31.276 82.3647 32.404 82.3647 34.18ZM78.0567 33.688H80.9367C80.8287 32.92 80.2527 32.5 79.5327 32.5C78.7647 32.5 78.1647 32.92 78.0567 33.688ZM87.8455 37V36.28C87.4975 36.856 86.6455 37.108 86.1055 37.108C84.6295 37.108 83.2495 35.98 83.2495 34.192C83.2495 32.404 84.6295 31.276 86.1055 31.276C86.6215 31.276 87.4255 31.48 87.8455 32.092V31.396H89.3095V37H87.8455ZM84.7615 34.192C84.7615 35.104 85.4935 35.704 86.3095 35.704C87.1135 35.704 87.8455 35.152 87.8455 34.192C87.8455 33.232 87.0775 32.68 86.3095 32.68C85.4935 32.68 84.7615 33.28 84.7615 34.192ZM92.8886 29.26V31.396H94.0766V32.572H92.8886V37H91.4366V32.572H90.4166V31.396H91.4366V29.26H92.8886ZM100.505 34.18C100.505 34.324 100.493 34.552 100.481 34.684H96.2093C96.3053 35.44 96.9293 35.884 97.7573 35.884C98.3213 35.884 98.8853 35.644 99.1613 35.164C99.5093 35.356 99.9053 35.572 100.277 35.764C99.7613 36.724 98.6933 37.12 97.6613 37.12C96.0653 37.12 94.7573 35.944 94.7573 34.18C94.7573 32.404 96.0653 31.276 97.6613 31.276C99.2453 31.276 100.505 32.404 100.505 34.18ZM96.1973 33.688H99.0773C98.9693 32.92 98.3933 32.5 97.6733 32.5C96.9053 32.5 96.3053 32.92 96.1973 33.688ZM104.919 37V28.732H110.031V30.1H106.443V32.248H109.587V33.604H106.443V35.632H110.151V37H104.919ZM113.624 34.852L112.856 34.66C111.404 34.276 111.272 33.592 111.272 32.944C111.272 32.032 112.232 31.276 113.336 31.276C114.404 31.276 115.46 31.756 115.52 33.04H114.128C114.092 32.62 113.708 32.464 113.372 32.464C113 32.464 112.664 32.596 112.664 33.016C112.664 33.244 112.928 33.4 113.252 33.484L114.188 33.712C115.484 34.072 115.652 34.936 115.652 35.392C115.652 36.544 114.524 37.12 113.36 37.12C112.256 37.12 111.14 36.436 111.104 35.236H112.472C112.508 35.632 112.964 35.98 113.504 35.944C113.924 35.932 114.236 35.704 114.236 35.38C114.248 35.092 114.044 34.948 113.624 34.852ZM118.869 29.26V31.396H120.057V32.572H118.869V37H117.417V32.572H116.397V31.396H117.417V29.26H118.869ZM122.608 31.396V37H121.156V31.396H122.608ZM120.94 29.224C120.94 28.732 121.372 28.348 121.888 28.348C122.404 28.348 122.812 28.732 122.812 29.224C122.812 29.74 122.404 30.112 121.888 30.112C121.372 30.112 120.94 29.74 120.94 29.224ZM130.538 32.704C129.866 32.704 129.398 33.148 129.398 34.012V37H127.934V33.916C127.922 33.136 127.478 32.704 126.902 32.704C126.302 32.704 125.726 33.052 125.726 34.012V37H124.262V31.396H125.726V32.224C126.05 31.54 126.794 31.288 127.334 31.288C128.234 31.336 128.798 31.648 129.122 32.332C129.638 31.396 130.454 31.276 130.886 31.276C132.242 31.276 133.046 32.152 133.046 33.796V37H131.594V33.952C131.594 33.136 131.15 32.704 130.538 32.704ZM138.881 37V36.28C138.533 36.856 137.681 37.108 137.141 37.108C135.665 37.108 134.285 35.98 134.285 34.192C134.285 32.404 135.665 31.276 137.141 31.276C137.657 31.276 138.461 31.48 138.881 32.092V31.396H140.345V37H138.881ZM135.797 34.192C135.797 35.104 136.529 35.704 137.345 35.704C138.149 35.704 138.881 35.152 138.881 34.192C138.881 33.232 138.113 32.68 137.345 32.68C136.529 32.68 135.797 33.28 135.797 34.192ZM143.924 29.26V31.396H145.112V32.572H143.924V37H142.472V32.572H141.452V31.396H142.472V29.26H143.924ZM151.541 34.18C151.541 34.324 151.529 34.552 151.517 34.684H147.245C147.341 35.44 147.965 35.884 148.793 35.884C149.357 35.884 149.921 35.644 150.197 35.164C150.545 35.356 150.941 35.572 151.312 35.764C150.797 36.724 149.729 37.12 148.697 37.12C147.101 37.12 145.793 35.944 145.793 34.18C145.793 32.404 147.101 31.276 148.697 31.276C150.281 31.276 151.541 32.404 151.541 34.18ZM147.233 33.688H150.113C150.005 32.92 149.429 32.5 148.709 32.5C147.941 32.5 147.341 32.92 147.233 33.688Z" fill="black"/>
<path d="M64.568 44.28V48.216H65.864C66.944 48.216 67.496 47.352 67.496 46.256C67.496 45.168 66.944 44.28 65.864 44.28H64.568ZM65.864 49H63.72V43.488H65.864C67.432 43.488 68.344 44.688 68.344 46.256C68.344 47.824 67.432 49 65.864 49ZM72.1989 49V48.464C71.9429 48.872 71.4229 49.08 70.9429 49.08C69.9429 49.08 69.0469 48.32 69.0469 47.128C69.0469 45.936 69.9429 45.184 70.9429 45.184C71.3909 45.184 71.9429 45.368 72.1989 45.792V45.264H73.0149V49H72.1989ZM69.8949 47.12C69.8949 47.808 70.4229 48.28 71.0389 48.28C71.6469 48.28 72.1909 47.856 72.1909 47.12C72.1909 46.392 71.5989 45.984 71.0389 45.984C70.4229 45.984 69.8949 46.432 69.8949 47.12ZM75.5458 47.504L75.0418 47.384C74.2418 47.168 73.9538 46.776 74.0098 46.168C74.0498 45.616 74.6658 45.184 75.3458 45.184C76.0018 45.184 76.6658 45.488 76.7058 46.288H75.9218C75.8898 46.008 75.6338 45.888 75.3778 45.888C75.1618 45.888 74.9378 45.968 74.8498 46.096C74.7858 46.2 74.7778 46.312 74.8178 46.432C74.8738 46.584 75.0738 46.664 75.2738 46.72L75.8498 46.864C76.6498 47.056 76.8258 47.584 76.8258 47.952C76.8258 48.672 76.1938 49.08 75.3378 49.08C74.6338 49.08 73.9298 48.648 73.9058 47.856H74.6658C74.7058 48.176 74.9618 48.392 75.4018 48.392C75.7778 48.392 76.0658 48.224 76.0658 47.944C76.0658 47.696 75.8258 47.568 75.5458 47.504ZM78.5484 46.992V49H77.7244V43.232H78.5484V45.832C78.7644 45.376 79.3404 45.184 79.7324 45.184C80.6924 45.184 81.2444 45.808 81.2444 46.872V49H80.4204V46.92C80.4204 46.336 80.0604 45.992 79.5884 45.992C79.1164 45.992 78.5484 46.256 78.5484 46.992ZM83.1814 47.12C83.1814 47.848 83.7174 48.28 84.3254 48.28C84.9494 48.28 85.4534 47.808 85.4534 47.12C85.4534 46.432 84.9494 45.984 84.3254 45.984C83.7654 45.984 83.1814 46.392 83.1814 47.12ZM83.1734 49H82.3494V43.232H83.1734V45.8C83.4054 45.392 83.8934 45.184 84.4294 45.184C85.4454 45.184 86.2934 45.936 86.2934 47.136C86.2934 48.312 85.4214 49.08 84.4214 49.08C83.9094 49.08 83.4054 48.864 83.1734 48.456V49ZM88.9206 48.28C89.5446 48.28 90.0566 47.824 90.0566 47.12C90.0566 46.44 89.5446 45.992 88.9206 45.992C88.3046 45.992 87.7926 46.44 87.7926 47.12C87.7926 47.824 88.3046 48.28 88.9206 48.28ZM88.9206 49.08C87.8646 49.08 86.9766 48.304 86.9766 47.12C86.9766 45.936 87.8646 45.184 88.9206 45.184C89.9846 45.184 90.8806 45.936 90.8806 47.12C90.8806 48.304 89.9846 49.08 88.9206 49.08ZM94.7068 49V48.464C94.4508 48.872 93.9308 49.08 93.4508 49.08C92.4508 49.08 91.5548 48.32 91.5548 47.128C91.5548 45.936 92.4508 45.184 93.4508 45.184C93.8988 45.184 94.4508 45.368 94.7068 45.792V45.264H95.5228V49H94.7068ZM92.4028 47.12C92.4028 47.808 92.9308 48.28 93.5468 48.28C94.1548 48.28 94.6988 47.856 94.6988 47.12C94.6988 46.392 94.1068 45.984 93.5468 45.984C92.9308 45.984 92.4028 46.432 92.4028 47.12ZM97.5016 47.656V49H96.6776V45.264H97.5016V46.12C97.6936 45.448 98.0536 45.184 98.5256 45.184C98.7896 45.184 99.0696 45.24 99.1896 45.328L99.0536 46.088C98.8376 45.984 98.6616 45.96 98.5016 45.96C97.7976 45.96 97.5016 46.664 97.5016 47.656ZM102.691 49V48.456C102.459 48.864 101.939 49.08 101.427 49.08C100.419 49.08 99.5628 48.312 99.5628 47.136C99.5628 45.936 100.419 45.184 101.427 45.184C101.963 45.184 102.459 45.392 102.691 45.8V43.232H103.507V49H102.691ZM102.675 47.12C102.675 46.392 102.083 45.984 101.531 45.984C100.915 45.984 100.411 46.432 100.411 47.12C100.411 47.808 100.915 48.28 101.531 48.28C102.139 48.28 102.675 47.848 102.675 47.12Z" fill="#407CEE"/>
<path d="M112.952 43.488H113.768L111.064 49H110.248L112.952 43.488Z" fill="#6B7280"/>
<path d="M120.72 49V43.488H124.04V44.272H121.568V45.904H123.728V46.68H121.568V48.224H124.12V49H120.72ZM126.436 47.504L125.932 47.384C125.132 47.168 124.844 46.776 124.9 46.168C124.94 45.616 125.556 45.184 126.236 45.184C126.892 45.184 127.556 45.488 127.596 46.288H126.812C126.78 46.008 126.524 45.888 126.268 45.888C126.052 45.888 125.828 45.968 125.74 46.096C125.676 46.2 125.668 46.312 125.708 46.432C125.764 46.584 125.964 46.664 126.164 46.72L126.74 46.864C127.54 47.056 127.716 47.584 127.716 47.952C127.716 48.672 127.084 49.08 126.228 49.08C125.524 49.08 124.82 48.648 124.796 47.856H125.556C125.596 48.176 125.852 48.392 126.292 48.392C126.668 48.392 126.956 48.224 126.956 47.944C126.956 47.696 126.716 47.568 126.436 47.504ZM129.735 43.848V45.264H130.527V45.944H129.735V49H128.911V45.944H128.239V45.264H128.911V43.848H129.735ZM132.119 45.264V49H131.303V45.264H132.119ZM131.159 43.752C131.159 43.456 131.415 43.232 131.711 43.232C132.023 43.232 132.255 43.456 132.255 43.752C132.255 44.048 132.023 44.272 131.711 44.272C131.415 44.272 131.159 44.048 131.159 43.752ZM137.527 45.992C136.983 45.992 136.623 46.384 136.623 46.992V49H135.799V46.904C135.791 46.328 135.487 45.992 135.039 45.992C134.559 45.992 134.095 46.256 134.095 46.992V49H133.271V45.264H134.095V45.824C134.351 45.312 134.967 45.184 135.271 45.184C135.871 45.184 136.231 45.448 136.447 45.928C136.791 45.28 137.367 45.184 137.703 45.184C138.631 45.184 139.143 45.784 139.143 46.848V49H138.319V46.92C138.319 46.336 138.007 45.992 137.527 45.992ZM143.168 49V48.464C142.912 48.872 142.392 49.08 141.912 49.08C140.912 49.08 140.016 48.32 140.016 47.128C140.016 45.936 140.912 45.184 141.912 45.184C142.36 45.184 142.912 45.368 143.168 45.792V45.264H143.984V49H143.168ZM140.864 47.12C140.864 47.808 141.392 48.28 142.008 48.28C142.616 48.28 143.16 47.856 143.16 47.12C143.16 46.392 142.568 45.984 142.008 45.984C141.392 45.984 140.864 46.432 140.864 47.12ZM146.259 43.848V45.264H147.051V45.944H146.259V49H145.435V45.944H144.763V45.264H145.435V43.848H146.259ZM151.323 47.12C151.323 47.208 151.323 47.336 151.315 47.424H148.347C148.435 48 148.883 48.36 149.491 48.36C149.907 48.36 150.315 48.168 150.507 47.824L151.179 48.12C150.859 48.784 150.147 49.08 149.451 49.08C148.395 49.08 147.531 48.304 147.531 47.12C147.531 45.936 148.395 45.184 149.451 45.184C150.507 45.184 151.323 45.936 151.323 47.12ZM148.347 46.824H150.515C150.427 46.24 150.019 45.904 149.451 45.904C148.875 45.904 148.435 46.248 148.347 46.824Z" fill="#407CEE"/>
<path d="M159.952 43.488H160.768L158.064 49H157.248L159.952 43.488Z" fill="#6B7280"/>
<path d="M171.648 47.544L172.304 48.064C171.824 48.696 171.064 49.08 170.16 49.08C168.6 49.08 167.376 47.824 167.376 46.256C167.376 44.696 168.6 43.424 170.16 43.424C171.048 43.424 171.8 43.808 172.288 44.416L171.632 44.928C171.272 44.52 170.768 44.24 170.16 44.24C169.064 44.24 168.224 45.144 168.224 46.256C168.224 47.376 169.064 48.264 170.16 48.264C170.768 48.264 171.304 47.992 171.648 47.544ZM173.869 47.656V49H173.045V45.264H173.869V46.12C174.061 45.448 174.421 45.184 174.893 45.184C175.157 45.184 175.437 45.24 175.557 45.328L175.421 46.088C175.205 45.984 175.029 45.96 174.869 45.96C174.165 45.96 173.869 46.664 173.869 47.656ZM179.714 47.12C179.714 47.208 179.714 47.336 179.706 47.424H176.738C176.826 48 177.274 48.36 177.882 48.36C178.298 48.36 178.706 48.168 178.898 47.824L179.57 48.12C179.25 48.784 178.538 49.08 177.842 49.08C176.786 49.08 175.922 48.304 175.922 47.12C175.922 45.936 176.786 45.184 177.842 45.184C178.898 45.184 179.714 45.936 179.714 47.12ZM176.738 46.824H178.906C178.818 46.24 178.41 45.904 177.842 45.904C177.266 45.904 176.826 46.248 176.738 46.824ZM183.496 49V48.464C183.24 48.872 182.72 49.08 182.24 49.08C181.24 49.08 180.344 48.32 180.344 47.128C180.344 45.936 181.24 45.184 182.24 45.184C182.688 45.184 183.24 45.368 183.496 45.792V45.264H184.312V49H183.496ZM181.192 47.12C181.192 47.808 181.72 48.28 182.336 48.28C182.944 48.28 183.488 47.856 183.488 47.12C183.488 46.392 182.896 45.984 182.336 45.984C181.72 45.984 181.192 46.432 181.192 47.12ZM186.587 43.848V45.264H187.379V45.944H186.587V49H185.763V45.944H185.091V45.264H185.763V43.848H186.587ZM191.651 47.12C191.651 47.208 191.651 47.336 191.643 47.424H188.675C188.763 48 189.211 48.36 189.819 48.36C190.235 48.36 190.643 48.168 190.835 47.824L191.507 48.12C191.187 48.784 190.475 49.08 189.779 49.08C188.723 49.08 187.859 48.304 187.859 47.12C187.859 45.936 188.723 45.184 189.779 45.184C190.835 45.184 191.651 45.936 191.651 47.12ZM188.675 46.824H190.843C190.755 46.24 190.347 45.904 189.779 45.904C189.203 45.904 188.763 46.248 188.675 46.824ZM194.697 49V43.488H198.017V44.272H195.545V45.904H197.705V46.68H195.545V48.224H198.097V49H194.697ZM200.413 47.504L199.909 47.384C199.109 47.168 198.821 46.776 198.877 46.168C198.917 45.616 199.533 45.184 200.213 45.184C200.869 45.184 201.533 45.488 201.573 46.288H200.789C200.757 46.008 200.501 45.888 200.245 45.888C200.029 45.888 199.805 45.968 199.717 46.096C199.653 46.2 199.645 46.312 199.685 46.432C199.741 46.584 199.941 46.664 200.141 46.72L200.717 46.864C201.517 47.056 201.693 47.584 201.693 47.952C201.693 48.672 201.061 49.08 200.205 49.08C199.501 49.08 198.797 48.648 198.773 47.856H199.533C199.573 48.176 199.829 48.392 200.269 48.392C200.645 48.392 200.933 48.224 200.933 47.944C200.933 47.696 200.693 47.568 200.413 47.504ZM203.712 43.848V45.264H204.504V45.944H203.712V49H202.888V45.944H202.216V45.264H202.888V43.848H203.712ZM206.095 45.264V49H205.279V45.264H206.095ZM205.135 43.752C205.135 43.456 205.391 43.232 205.687 43.232C205.999 43.232 206.231 43.456 206.231 43.752C206.231 44.048 205.999 44.272 205.687 44.272C205.391 44.272 205.135 44.048 205.135 43.752ZM211.504 45.992C210.96 45.992 210.6 46.384 210.6 46.992V49H209.776V46.904C209.768 46.328 209.464 45.992 209.016 45.992C208.536 45.992 208.072 46.256 208.072 46.992V49H207.248V45.264H208.072V45.824C208.328 45.312 208.944 45.184 209.248 45.184C209.848 45.184 210.208 45.448 210.424 45.928C210.768 45.28 211.344 45.184 211.68 45.184C212.608 45.184 213.12 45.784 213.12 46.848V49H212.296V46.92C212.296 46.336 211.984 45.992 211.504 45.992ZM217.144 49V48.464C216.888 48.872 216.368 49.08 215.888 49.08C214.888 49.08 213.992 48.32 213.992 47.128C213.992 45.936 214.888 45.184 215.888 45.184C216.336 45.184 216.888 45.368 217.144 45.792V45.264H217.96V49H217.144ZM214.84 47.12C214.84 47.808 215.368 48.28 215.984 48.28C216.592 48.28 217.136 47.856 217.136 47.12C217.136 46.392 216.544 45.984 215.984 45.984C215.368 45.984 214.84 46.432 214.84 47.12ZM220.235 43.848V45.264H221.027V45.944H220.235V49H219.411V45.944H218.739V45.264H219.411V43.848H220.235ZM225.3 47.12C225.3 47.208 225.3 47.336 225.292 47.424H222.324C222.412 48 222.86 48.36 223.468 48.36C223.884 48.36 224.292 48.168 224.484 47.824L225.156 48.12C224.836 48.784 224.124 49.08 223.428 49.08C222.372 49.08 221.508 48.304 221.508 47.12C221.508 45.936 222.372 45.184 223.428 45.184C224.484 45.184 225.3 45.936 225.3 47.12ZM222.324 46.824H224.492C224.404 46.24 223.996 45.904 223.428 45.904C222.852 45.904 222.412 46.248 222.324 46.824Z" fill="#6B7280"/>
<path d="M68.81 87.18L69.63 87.83C69.03 88.62 68.08 89.1 66.95 89.1C65 89.1 63.47 87.53 63.47 85.57C63.47 83.62 65 82.03 66.95 82.03C68.06 82.03 69 82.51 69.61 83.27L68.79 83.91C68.34 83.4 67.71 83.05 66.95 83.05C65.58 83.05 64.53 84.18 64.53 85.57C64.53 86.97 65.58 88.08 66.95 88.08C67.71 88.08 68.38 87.74 68.81 87.18ZM73.7059 86.84V84.33H74.7359V89H73.7059V88.32C73.4359 88.85 72.8059 89.1 72.3159 89.1C71.1659 89.1 70.4959 88.38 70.5059 87.05V84.33H71.5359V86.93C71.5359 87.7 71.9459 88.1 72.5059 88.1C73.1059 88.1 73.7059 87.77 73.7059 86.84ZM77.8912 87.13L77.2612 86.98C76.2612 86.71 75.9012 86.22 75.9712 85.46C76.0212 84.77 76.7912 84.23 77.6412 84.23C78.4612 84.23 79.2912 84.61 79.3412 85.61H78.3612C78.3212 85.26 78.0012 85.11 77.6812 85.11C77.4112 85.11 77.1312 85.21 77.0212 85.37C76.9412 85.5 76.9312 85.64 76.9812 85.79C77.0512 85.98 77.3012 86.08 77.5512 86.15L78.2712 86.33C79.2712 86.57 79.4912 87.23 79.4912 87.69C79.4912 88.59 78.7012 89.1 77.6312 89.1C76.7512 89.1 75.8712 88.56 75.8412 87.57H76.7912C76.8412 87.97 77.1612 88.24 77.7112 88.24C78.1812 88.24 78.5412 88.03 78.5412 87.68C78.5412 87.37 78.2412 87.21 77.8912 87.13ZM82.0145 82.56V84.33H83.0045V85.18H82.0145V89H80.9845V85.18H80.1445V84.33H80.9845V82.56H82.0145ZM86.0355 88.1C86.8155 88.1 87.4555 87.53 87.4555 86.65C87.4555 85.8 86.8155 85.24 86.0355 85.24C85.2655 85.24 84.6255 85.8 84.6255 86.65C84.6255 87.53 85.2655 88.1 86.0355 88.1ZM86.0355 89.1C84.7155 89.1 83.6055 88.13 83.6055 86.65C83.6055 85.17 84.7155 84.23 86.0355 84.23C87.3655 84.23 88.4855 85.17 88.4855 86.65C88.4855 88.13 87.3655 89.1 86.0355 89.1ZM94.9482 85.24C94.2682 85.24 93.8182 85.73 93.8182 86.49V89H92.7882V86.38C92.7782 85.66 92.3982 85.24 91.8382 85.24C91.2382 85.24 90.6582 85.57 90.6582 86.49V89H89.6282V84.33H90.6582V85.03C90.9782 84.39 91.7482 84.23 92.1282 84.23C92.8782 84.23 93.3282 84.56 93.5982 85.16C94.0282 84.35 94.7482 84.23 95.1682 84.23C96.3282 84.23 96.9682 84.98 96.9682 86.31V89H95.9382V86.4C95.9382 85.67 95.5482 85.24 94.9482 85.24ZM102.799 86.65C102.799 86.76 102.799 86.92 102.789 87.03H99.0787C99.1887 87.75 99.7487 88.2 100.509 88.2C101.029 88.2 101.539 87.96 101.779 87.53L102.619 87.9C102.219 88.73 101.329 89.1 100.459 89.1C99.1387 89.1 98.0587 88.13 98.0587 86.65C98.0587 85.17 99.1387 84.23 100.459 84.23C101.779 84.23 102.799 85.17 102.799 86.65ZM99.0787 86.28H101.789C101.679 85.55 101.169 85.13 100.459 85.13C99.7387 85.13 99.1887 85.56 99.0787 86.28ZM104.916 87.32V89H103.886V84.33H104.916V85.4C105.156 84.56 105.606 84.23 106.196 84.23C106.526 84.23 106.876 84.3 107.026 84.41L106.856 85.36C106.586 85.23 106.366 85.2 106.166 85.2C105.286 85.2 104.916 86.08 104.916 87.32ZM115.375 82.11V89H114.385L111.425 84.07V89H110.365V82.11H111.385L114.315 87V82.11H115.375ZM120.524 89V88.33C120.204 88.84 119.554 89.1 118.954 89.1C117.704 89.1 116.584 88.15 116.584 86.66C116.584 85.17 117.704 84.23 118.954 84.23C119.514 84.23 120.204 84.46 120.524 84.99V84.33H121.544V89H120.524ZM117.644 86.65C117.644 87.51 118.304 88.1 119.074 88.1C119.834 88.1 120.514 87.57 120.514 86.65C120.514 85.74 119.774 85.23 119.074 85.23C118.304 85.23 117.644 85.79 117.644 86.65ZM128.308 85.24C127.628 85.24 127.178 85.73 127.178 86.49V89H126.148V86.38C126.138 85.66 125.758 85.24 125.198 85.24C124.598 85.24 124.018 85.57 124.018 86.49V89H122.988V84.33H124.018V85.03C124.338 84.39 125.108 84.23 125.488 84.23C126.238 84.23 126.688 84.56 126.958 85.16C127.388 84.35 128.108 84.23 128.528 84.23C129.688 84.23 130.328 84.98 130.328 86.31V89H129.298V86.4C129.298 85.67 128.908 85.24 128.308 85.24ZM136.158 86.65C136.158 86.76 136.158 86.92 136.148 87.03H132.438C132.548 87.75 133.108 88.2 133.868 88.2C134.388 88.2 134.898 87.96 135.138 87.53L135.978 87.9C135.578 88.73 134.688 89.1 133.818 89.1C132.498 89.1 131.418 88.13 131.418 86.65C131.418 85.17 132.498 84.23 133.818 84.23C135.138 84.23 136.158 85.17 136.158 86.65ZM132.438 86.28H135.148C135.038 85.55 134.528 85.13 133.818 85.13C133.098 85.13 132.548 85.56 132.438 86.28Z" fill="black"/>
<path d="M63.5 100C63.5 98.067 65.067 96.5 67 96.5H195.667C197.6 96.5 199.167 98.067 199.167 100V112C199.167 113.933 197.6 115.5 195.667 115.5H67C65.067 115.5 63.5 113.933 63.5 112V100Z" stroke="#E5E7EB"/>
<path d="M235.477 87.18L236.297 87.83C235.697 88.62 234.747 89.1 233.617 89.1C231.667 89.1 230.137 87.53 230.137 85.57C230.137 83.62 231.667 82.03 233.617 82.03C234.727 82.03 235.667 82.51 236.277 83.27L235.457 83.91C235.007 83.4 234.377 83.05 233.617 83.05C232.247 83.05 231.197 84.18 231.197 85.57C231.197 86.97 232.247 88.08 233.617 88.08C234.377 88.08 235.047 87.74 235.477 87.18ZM238.253 87.32V89H237.223V84.33H238.253V85.4C238.493 84.56 238.943 84.23 239.533 84.23C239.863 84.23 240.213 84.3 240.363 84.41L240.193 85.36C239.923 85.23 239.703 85.2 239.503 85.2C238.623 85.2 238.253 86.08 238.253 87.32ZM245.559 86.65C245.559 86.76 245.559 86.92 245.549 87.03H241.839C241.949 87.75 242.509 88.2 243.269 88.2C243.789 88.2 244.299 87.96 244.539 87.53L245.379 87.9C244.979 88.73 244.089 89.1 243.219 89.1C241.899 89.1 240.819 88.13 240.819 86.65C240.819 85.17 241.899 84.23 243.219 84.23C244.539 84.23 245.559 85.17 245.559 86.65ZM241.839 86.28H244.549C244.439 85.55 243.929 85.13 243.219 85.13C242.499 85.13 241.949 85.56 241.839 86.28ZM250.286 89V88.33C249.966 88.84 249.316 89.1 248.716 89.1C247.466 89.1 246.346 88.15 246.346 86.66C246.346 85.17 247.466 84.23 248.716 84.23C249.276 84.23 249.966 84.46 250.286 84.99V84.33H251.306V89H250.286ZM247.406 86.65C247.406 87.51 248.066 88.1 248.836 88.1C249.596 88.1 250.276 87.57 250.276 86.65C250.276 85.74 249.536 85.23 248.836 85.23C248.066 85.23 247.406 85.79 247.406 86.65ZM254.15 82.56V84.33H255.14V85.18H254.15V89H253.12V85.18H252.28V84.33H253.12V82.56H254.15ZM260.481 86.65C260.481 86.76 260.481 86.92 260.471 87.03H256.761C256.871 87.75 257.431 88.2 258.191 88.2C258.711 88.2 259.221 87.96 259.461 87.53L260.301 87.9C259.901 88.73 259.011 89.1 258.141 89.1C256.821 89.1 255.741 88.13 255.741 86.65C255.741 85.17 256.821 84.23 258.141 84.23C259.461 84.23 260.481 85.17 260.481 86.65ZM256.761 86.28H259.471C259.361 85.55 258.851 85.13 258.141 85.13C257.421 85.13 256.871 85.56 256.761 86.28ZM265.347 83.1V88.02H266.967C268.317 88.02 269.007 86.94 269.007 85.57C269.007 84.21 268.317 83.1 266.967 83.1H265.347ZM266.967 89H264.287V82.11H266.967C268.927 82.11 270.067 83.61 270.067 85.57C270.067 87.53 268.927 89 266.967 89ZM274.886 89V88.33C274.566 88.84 273.916 89.1 273.316 89.1C272.066 89.1 270.946 88.15 270.946 86.66C270.946 85.17 272.066 84.23 273.316 84.23C273.876 84.23 274.566 84.46 274.886 84.99V84.33H275.906V89H274.886ZM272.006 86.65C272.006 87.51 272.666 88.1 273.436 88.1C274.196 88.1 274.876 87.57 274.876 86.65C274.876 85.74 274.136 85.23 273.436 85.23C272.666 85.23 272.006 85.79 272.006 86.65ZM278.75 82.56V84.33H279.74V85.18H278.75V89H277.72V85.18H276.88V84.33H277.72V82.56H278.75ZM285.081 86.65C285.081 86.76 285.081 86.92 285.071 87.03H281.361C281.471 87.75 282.031 88.2 282.791 88.2C283.311 88.2 283.821 87.96 284.061 87.53L284.901 87.9C284.501 88.73 283.611 89.1 282.741 89.1C281.421 89.1 280.341 88.13 280.341 86.65C280.341 85.17 281.421 84.23 282.741 84.23C284.061 84.23 285.081 85.17 285.081 86.65ZM281.361 86.28H284.071C283.961 85.55 283.451 85.13 282.741 85.13C282.021 85.13 281.471 85.56 281.361 86.28Z" fill="black"/>
<path d="M230.167 100C230.167 98.067 231.734 96.5 233.667 96.5H362.333C364.266 96.5 365.833 98.067 365.833 100V112C365.833 113.933 364.266 115.5 362.333 115.5H233.667C231.734 115.5 230.167 113.933 230.167 112V100Z" stroke="#E5E7EB"/>
<g clip-path="url(#clip1_1228_2255)">
<path d="M359.25 101.833H358.833V101.417C358.833 101.306 358.789 101.2 358.711 101.122C358.633 101.044 358.527 101 358.417 101C358.306 101 358.2 101.044 358.122 101.122C358.044 101.2 358 101.306 358 101.417V101.833H354.667V101.417C354.667 101.306 354.623 101.2 354.545 101.122C354.467 101.044 354.361 101 354.25 101C354.14 101 354.034 101.044 353.955 101.122C353.877 101.2 353.833 101.306 353.833 101.417V101.833H353.417C352.864 101.834 352.335 102.054 351.944 102.444C351.554 102.835 351.334 103.364 351.333 103.917V108.917C351.334 109.469 351.554 109.999 351.944 110.389C352.335 110.78 352.864 110.999 353.417 111H359.25C359.802 110.999 360.332 110.78 360.722 110.389C361.113 109.999 361.333 109.469 361.333 108.917V103.917C361.333 103.364 361.113 102.835 360.722 102.444C360.332 102.054 359.802 101.834 359.25 101.833ZM352.167 103.917C352.167 103.585 352.298 103.267 352.533 103.033C352.767 102.798 353.085 102.667 353.417 102.667H359.25C359.582 102.667 359.9 102.798 360.134 103.033C360.368 103.267 360.5 103.585 360.5 103.917V104.333H352.167V103.917ZM359.25 110.167H353.417C353.085 110.167 352.767 110.035 352.533 109.801C352.298 109.566 352.167 109.248 352.167 108.917V105.167H360.5V108.917C360.5 109.248 360.368 109.566 360.134 109.801C359.9 110.035 359.582 110.167 359.25 110.167Z" fill="#9CA3AF"/>
<path d="M356.333 107.875C356.679 107.875 356.958 107.595 356.958 107.25C356.958 106.905 356.679 106.625 356.333 106.625C355.988 106.625 355.708 106.905 355.708 107.25C355.708 107.595 355.988 107.875 356.333 107.875Z" fill="#9CA3AF"/>
<path d="M354.25 107.875C354.595 107.875 354.875 107.595 354.875 107.25C354.875 106.905 354.595 106.625 354.25 106.625C353.905 106.625 353.625 106.905 353.625 107.25C353.625 107.595 353.905 107.875 354.25 107.875Z" fill="#9CA3AF"/>
<path d="M358.417 107.875C358.762 107.875 359.042 107.595 359.042 107.25C359.042 106.905 358.762 106.625 358.417 106.625C358.072 106.625 357.792 106.905 357.792 107.25C357.792 107.595 358.072 107.875 358.417 107.875Z" fill="#9CA3AF"/>
</g>
<path d="M398.293 83.1V88.02H399.913C401.263 88.02 401.953 86.94 401.953 85.57C401.953 84.21 401.263 83.1 399.913 83.1H398.293ZM399.913 89H397.233V82.11H399.913C401.873 82.11 403.013 83.61 403.013 85.57C403.013 87.53 401.873 89 399.913 89ZM407.342 86.84V84.33H408.372V89H407.342V88.32C407.072 88.85 406.442 89.1 405.952 89.1C404.802 89.1 404.132 88.38 404.142 87.05V84.33H405.172V86.93C405.172 87.7 405.582 88.1 406.142 88.1C406.742 88.1 407.342 87.77 407.342 86.84ZM414.247 86.65C414.247 86.76 414.247 86.92 414.237 87.03H410.527C410.637 87.75 411.197 88.2 411.957 88.2C412.477 88.2 412.987 87.96 413.227 87.53L414.067 87.9C413.667 88.73 412.777 89.1 411.907 89.1C410.587 89.1 409.507 88.13 409.507 86.65C409.507 85.17 410.587 84.23 411.907 84.23C413.227 84.23 414.247 85.17 414.247 86.65ZM410.527 86.28H413.237C413.127 85.55 412.617 85.13 411.907 85.13C411.187 85.13 410.637 85.56 410.527 86.28ZM419.114 83.1V88.02H420.734C422.084 88.02 422.774 86.94 422.774 85.57C422.774 84.21 422.084 83.1 420.734 83.1H419.114ZM420.734 89H418.054V82.11H420.734C422.694 82.11 423.834 83.61 423.834 85.57C423.834 87.53 422.694 89 420.734 89ZM428.652 89V88.33C428.332 88.84 427.682 89.1 427.082 89.1C425.832 89.1 424.712 88.15 424.712 86.66C424.712 85.17 425.832 84.23 427.082 84.23C427.642 84.23 428.332 84.46 428.652 84.99V84.33H429.672V89H428.652ZM425.772 86.65C425.772 87.51 426.432 88.1 427.202 88.1C427.962 88.1 428.642 87.57 428.642 86.65C428.642 85.74 427.902 85.23 427.202 85.23C426.432 85.23 425.772 85.79 425.772 86.65ZM432.516 82.56V84.33H433.506V85.18H432.516V89H431.486V85.18H430.646V84.33H431.486V82.56H432.516ZM438.847 86.65C438.847 86.76 438.847 86.92 438.837 87.03H435.127C435.237 87.75 435.797 88.2 436.557 88.2C437.077 88.2 437.587 87.96 437.827 87.53L438.667 87.9C438.267 88.73 437.377 89.1 436.507 89.1C435.187 89.1 434.107 88.13 434.107 86.65C434.107 85.17 435.187 84.23 436.507 84.23C437.827 84.23 438.847 85.17 438.847 86.65ZM435.127 86.28H437.837C437.727 85.55 437.217 85.13 436.507 85.13C435.787 85.13 435.237 85.56 435.127 86.28Z" fill="black"/>
<path d="M396.833 100C396.833 98.067 398.4 96.5 400.333 96.5H529C530.933 96.5 532.5 98.067 532.5 100V112C532.5 113.933 530.933 115.5 529 115.5H400.333C398.4 115.5 396.833 113.933 396.833 112V100Z" stroke="#E5E7EB"/>
<g clip-path="url(#clip2_1228_2255)">
<path d="M525.917 101.833H525.5V101.417C525.5 101.306 525.456 101.2 525.378 101.122C525.3 101.044 525.194 101 525.083 101C524.973 101 524.867 101.044 524.789 101.122C524.711 101.2 524.667 101.306 524.667 101.417V101.833H521.333V101.417C521.333 101.306 521.289 101.2 521.211 101.122C521.133 101.044 521.027 101 520.917 101C520.806 101 520.7 101.044 520.622 101.122C520.544 101.2 520.5 101.306 520.5 101.417V101.833H520.083C519.531 101.834 519.001 102.054 518.611 102.444C518.22 102.835 518.001 103.364 518 103.917V108.917C518.001 109.469 518.22 109.999 518.611 110.389C519.001 110.78 519.531 110.999 520.083 111H525.917C526.469 110.999 526.999 110.78 527.389 110.389C527.78 109.999 527.999 109.469 528 108.917V103.917C527.999 103.364 527.78 102.835 527.389 102.444C526.999 102.054 526.469 101.834 525.917 101.833ZM518.833 103.917C518.833 103.585 518.965 103.267 519.199 103.033C519.434 102.798 519.752 102.667 520.083 102.667H525.917C526.248 102.667 526.566 102.798 526.801 103.033C527.035 103.267 527.167 103.585 527.167 103.917V104.333H518.833V103.917ZM525.917 110.167H520.083C519.752 110.167 519.434 110.035 519.199 109.801C518.965 109.566 518.833 109.248 518.833 108.917V105.167H527.167V108.917C527.167 109.248 527.035 109.566 526.801 109.801C526.566 110.035 526.248 110.167 525.917 110.167Z" fill="#9CA3AF"/>
<path d="M523 107.875C523.345 107.875 523.625 107.595 523.625 107.25C523.625 106.905 523.345 106.625 523 106.625C522.655 106.625 522.375 106.905 522.375 107.25C522.375 107.595 522.655 107.875 523 107.875Z" fill="#9CA3AF"/>
<path d="M520.917 107.875C521.262 107.875 521.542 107.595 521.542 107.25C521.542 106.905 521.262 106.625 520.917 106.625C520.571 106.625 520.292 106.905 520.292 107.25C520.292 107.595 520.571 107.875 520.917 107.875Z" fill="#9CA3AF"/>
<path d="M525.083 107.875C525.429 107.875 525.708 107.595 525.708 107.25C525.708 106.905 525.429 106.625 525.083 106.625C524.738 106.625 524.458 106.905 524.458 107.25C524.458 107.595 524.738 107.875 525.083 107.875Z" fill="#9CA3AF"/>
</g>
<path d="M68.81 142.18L69.63 142.83C69.03 143.62 68.08 144.1 66.95 144.1C65 144.1 63.47 142.53 63.47 140.57C63.47 138.62 65 137.03 66.95 137.03C68.06 137.03 69 137.51 69.61 138.27L68.79 138.91C68.34 138.4 67.71 138.05 66.95 138.05C65.58 138.05 64.53 139.18 64.53 140.57C64.53 141.97 65.58 143.08 66.95 143.08C67.71 143.08 68.38 142.74 68.81 142.18ZM73.7059 141.84V139.33H74.7359V144H73.7059V143.32C73.4359 143.85 72.8059 144.1 72.3159 144.1C71.1659 144.1 70.4959 143.38 70.5059 142.05V139.33H71.5359V141.93C71.5359 142.7 71.9459 143.1 72.5059 143.1C73.1059 143.1 73.7059 142.77 73.7059 141.84ZM77.8912 142.13L77.2612 141.98C76.2612 141.71 75.9012 141.22 75.9712 140.46C76.0212 139.77 76.7912 139.23 77.6412 139.23C78.4612 139.23 79.2912 139.61 79.3412 140.61H78.3612C78.3212 140.26 78.0012 140.11 77.6812 140.11C77.4112 140.11 77.1312 140.21 77.0212 140.37C76.9412 140.5 76.9312 140.64 76.9812 140.79C77.0512 140.98 77.3012 141.08 77.5512 141.15L78.2712 141.33C79.2712 141.57 79.4912 142.23 79.4912 142.69C79.4912 143.59 78.7012 144.1 77.6312 144.1C76.7512 144.1 75.8712 143.56 75.8412 142.57H76.7912C76.8412 142.97 77.1612 143.24 77.7112 143.24C78.1812 143.24 78.5412 143.03 78.5412 142.68C78.5412 142.37 78.2412 142.21 77.8912 142.13ZM82.0145 137.56V139.33H83.0045V140.18H82.0145V144H80.9845V140.18H80.1445V139.33H80.9845V137.56H82.0145ZM86.0355 143.1C86.8155 143.1 87.4555 142.53 87.4555 141.65C87.4555 140.8 86.8155 140.24 86.0355 140.24C85.2655 140.24 84.6255 140.8 84.6255 141.65C84.6255 142.53 85.2655 143.1 86.0355 143.1ZM86.0355 144.1C84.7155 144.1 83.6055 143.13 83.6055 141.65C83.6055 140.17 84.7155 139.23 86.0355 139.23C87.3655 139.23 88.4855 140.17 88.4855 141.65C88.4855 143.13 87.3655 144.1 86.0355 144.1ZM94.9482 140.24C94.2682 140.24 93.8182 140.73 93.8182 141.49V144H92.7882V141.38C92.7782 140.66 92.3982 140.24 91.8382 140.24C91.2382 140.24 90.6582 140.57 90.6582 141.49V144H89.6282V139.33H90.6582V140.03C90.9782 139.39 91.7482 139.23 92.1282 139.23C92.8782 139.23 93.3282 139.56 93.5982 140.16C94.0282 139.35 94.7482 139.23 95.1682 139.23C96.3282 139.23 96.9682 139.98 96.9682 141.31V144H95.9382V141.4C95.9382 140.67 95.5482 140.24 94.9482 140.24ZM102.799 141.65C102.799 141.76 102.799 141.92 102.789 142.03H99.0787C99.1887 142.75 99.7487 143.2 100.509 143.2C101.029 143.2 101.539 142.96 101.779 142.53L102.619 142.9C102.219 143.73 101.329 144.1 100.459 144.1C99.1387 144.1 98.0587 143.13 98.0587 141.65C98.0587 140.17 99.1387 139.23 100.459 139.23C101.779 139.23 102.799 140.17 102.799 141.65ZM99.0787 141.28H101.789C101.679 140.55 101.169 140.13 100.459 140.13C99.7387 140.13 99.1887 140.56 99.0787 141.28ZM104.916 142.32V144H103.886V139.33H104.916V140.4C105.156 139.56 105.606 139.23 106.196 139.23C106.526 139.23 106.876 139.3 107.026 139.41L106.856 140.36C106.586 140.23 106.366 140.2 106.166 140.2C105.286 140.2 104.916 141.08 104.916 142.32ZM111.425 138.1V143.02H113.045C114.395 143.02 115.085 141.94 115.085 140.57C115.085 139.21 114.395 138.1 113.045 138.1H111.425ZM113.045 144H110.365V137.11H113.045C115.005 137.11 116.145 138.61 116.145 140.57C116.145 142.53 115.005 144 113.045 144ZM121.764 141.65C121.764 141.76 121.764 141.92 121.754 142.03H118.044C118.154 142.75 118.714 143.2 119.474 143.2C119.994 143.2 120.504 142.96 120.744 142.53L121.584 142.9C121.184 143.73 120.294 144.1 119.424 144.1C118.104 144.1 117.024 143.13 117.024 141.65C117.024 140.17 118.104 139.23 119.424 139.23C120.744 139.23 121.764 140.17 121.764 141.65ZM118.044 141.28H120.754C120.644 140.55 120.134 140.13 119.424 140.13C118.704 140.13 118.154 140.56 118.044 141.28ZM124.251 137.56V139.33H125.241V140.18H124.251V144H123.221V140.18H122.381V139.33H123.221V137.56H124.251ZM129.782 144V143.33C129.462 143.84 128.812 144.1 128.212 144.1C126.962 144.1 125.842 143.15 125.842 141.66C125.842 140.17 126.962 139.23 128.212 139.23C128.772 139.23 129.462 139.46 129.782 139.99V139.33H130.802V144H129.782ZM126.902 141.65C126.902 142.51 127.562 143.1 128.332 143.1C129.092 143.1 129.772 142.57 129.772 141.65C129.772 140.74 129.032 140.23 128.332 140.23C127.562 140.23 126.902 140.79 126.902 141.65ZM133.265 139.33V144H132.245V139.33H133.265ZM132.065 137.44C132.065 137.07 132.385 136.79 132.755 136.79C133.145 136.79 133.435 137.07 133.435 137.44C133.435 137.81 133.145 138.09 132.755 138.09C132.385 138.09 132.065 137.81 132.065 137.44ZM134.706 144V136.79H135.736V144H134.706ZM138.897 142.13L138.267 141.98C137.267 141.71 136.907 141.22 136.977 140.46C137.027 139.77 137.797 139.23 138.647 139.23C139.467 139.23 140.297 139.61 140.347 140.61H139.367C139.327 140.26 139.007 140.11 138.687 140.11C138.417 140.11 138.137 140.21 138.027 140.37C137.947 140.5 137.937 140.64 137.987 140.79C138.057 140.98 138.307 141.08 138.557 141.15L139.277 141.33C140.277 141.57 140.497 142.23 140.497 142.69C140.497 143.59 139.707 144.1 138.637 144.1C137.757 144.1 136.877 143.56 136.847 142.57H137.797C137.847 142.97 138.167 143.24 138.717 143.24C139.187 143.24 139.547 143.03 139.547 142.68C139.547 142.37 139.247 142.21 138.897 142.13Z" fill="black"/>
<path d="M63 155C63 152.791 64.7909 151 67 151H159C161.209 151 163 152.791 163 155V157C163 159.209 161.209 161 159 161H67C64.7909 161 63 159.209 63 157V155Z" fill="#E5E7EB"/>
<path d="M63 169C63 166.791 64.7909 165 67 165H279C281.209 165 283 166.791 283 169V171C283 173.209 281.209 175 279 175H67C64.7909 175 63 173.209 63 171V169Z" fill="#E5E7EB"/>
<path d="M63 183C63 180.791 64.7909 179 67 179H209C211.209 179 213 180.791 213 183V185C213 187.209 211.209 189 209 189H67C64.7909 189 63 187.209 63 185V183Z" fill="#E5E7EB"/>
<path d="M318.45 138.93C318.45 139.47 318.23 140.06 317.56 140.33C318.36 140.52 318.82 141.32 318.82 141.98C318.82 143.07 318.06 144 316.75 144H313.9V137.11H316.54C317.71 137.11 318.45 137.8 318.45 138.93ZM314.97 139.94H316.5C317.06 139.94 317.35 139.49 317.35 138.97C317.35 138.41 317 138.08 316.43 138.08H314.97V139.94ZM316.67 140.85H314.97V143.03H316.7C317.34 143.03 317.71 142.5 317.71 141.97C317.71 141.46 317.33 140.85 316.67 140.85ZM321.029 139.33V144H320.009V139.33H321.029ZM319.829 137.44C319.829 137.07 320.149 136.79 320.519 136.79C320.909 136.79 321.199 137.07 321.199 137.44C321.199 137.81 320.909 138.09 320.519 138.09C320.149 138.09 319.829 137.81 319.829 137.44ZM322.47 144V136.79H323.5V144H322.47ZM324.941 144V136.79H325.971V144H324.941ZM328.431 139.33V144H327.411V139.33H328.431ZM327.231 137.44C327.231 137.07 327.551 136.79 327.921 136.79C328.311 136.79 328.601 137.07 328.601 137.44C328.601 137.81 328.311 138.09 327.921 138.09C327.551 138.09 327.231 137.81 327.231 137.44ZM330.902 141.49V144H329.872V139.33H330.902V140.03C331.172 139.5 331.822 139.23 332.332 139.23C333.462 139.23 334.112 139.95 334.112 141.28V144H333.082V141.4C333.082 140.65 332.702 140.24 332.102 140.24C331.492 140.24 330.902 140.57 330.902 141.49ZM339.137 141.67C339.137 140.74 338.467 140.23 337.697 140.23C336.917 140.23 336.277 140.82 336.277 141.67C336.277 142.55 336.917 143.11 337.697 143.11C338.397 143.11 339.137 142.59 339.137 141.67ZM336.287 144.59C336.537 145.08 337.087 145.37 337.597 145.37C338.547 145.37 339.157 144.84 339.157 143.53V143.29C338.897 143.82 338.207 144.1 337.577 144.1C336.317 144.1 335.217 143.16 335.217 141.68C335.217 140.2 336.317 139.23 337.577 139.23C338.217 139.23 338.867 139.51 339.157 140.02V139.33H340.167V143.31C340.167 145.46 339.167 146.33 337.597 146.33C336.687 146.33 335.877 145.86 335.437 145.02C335.627 144.94 336.097 144.67 336.287 144.59ZM345.39 138.1V143.02H347.01C348.36 143.02 349.05 141.94 349.05 140.57C349.05 139.21 348.36 138.1 347.01 138.1H345.39ZM347.01 144H344.33V137.11H347.01C348.97 137.11 350.11 138.61 350.11 140.57C350.11 142.53 348.97 144 347.01 144ZM355.728 141.65C355.728 141.76 355.728 141.92 355.718 142.03H352.008C352.118 142.75 352.678 143.2 353.438 143.2C353.958 143.2 354.468 142.96 354.708 142.53L355.548 142.9C355.148 143.73 354.258 144.1 353.388 144.1C352.068 144.1 350.988 143.13 350.988 141.65C350.988 140.17 352.068 139.23 353.388 139.23C354.708 139.23 355.728 140.17 355.728 141.65ZM352.008 141.28H354.718C354.608 140.55 354.098 140.13 353.388 140.13C352.668 140.13 352.118 140.56 352.008 141.28ZM358.216 137.56V139.33H359.206V140.18H358.216V144H357.186V140.18H356.346V139.33H357.186V137.56H358.216ZM363.747 144V143.33C363.427 143.84 362.777 144.1 362.177 144.1C360.927 144.1 359.807 143.15 359.807 141.66C359.807 140.17 360.927 139.23 362.177 139.23C362.737 139.23 363.427 139.46 363.747 139.99V139.33H364.767V144H363.747ZM360.867 141.65C360.867 142.51 361.527 143.1 362.297 143.1C363.057 143.1 363.737 142.57 363.737 141.65C363.737 140.74 362.997 140.23 362.297 140.23C361.527 140.23 360.867 140.79 360.867 141.65ZM367.23 139.33V144H366.21V139.33H367.23ZM366.03 137.44C366.03 137.07 366.35 136.79 366.72 136.79C367.11 136.79 367.4 137.07 367.4 137.44C367.4 137.81 367.11 138.09 366.72 138.09C366.35 138.09 366.03 137.81 366.03 137.44ZM368.671 144V136.79H369.701V144H368.671ZM372.862 142.13L372.232 141.98C371.232 141.71 370.872 141.22 370.942 140.46C370.992 139.77 371.762 139.23 372.612 139.23C373.432 139.23 374.262 139.61 374.312 140.61H373.332C373.292 140.26 372.972 140.11 372.652 140.11C372.382 140.11 372.102 140.21 371.992 140.37C371.912 140.5 371.902 140.64 371.952 140.79C372.022 140.98 372.272 141.08 372.522 141.15L373.242 141.33C374.242 141.57 374.462 142.23 374.462 142.69C374.462 143.59 373.672 144.1 372.602 144.1C371.722 144.1 370.842 143.56 370.812 142.57H371.762C371.812 142.97 372.132 143.24 372.682 143.24C373.152 143.24 373.512 143.03 373.512 142.68C373.512 142.37 373.212 142.21 372.862 142.13Z" fill="black"/>
<path d="M313 155C313 152.791 314.791 151 317 151H409C411.209 151 413 152.791 413 155V157C413 159.209 411.209 161 409 161H317C314.791 161 313 159.209 313 157V155Z" fill="#E5E7EB"/>
<path d="M313 169C313 166.791 314.791 165 317 165H529C531.209 165 533 166.791 533 169V171C533 173.209 531.209 175 529 175H317C314.791 175 313 173.209 313 171V169Z" fill="#E5E7EB"/>
<path d="M63.9 217V210.11H64.96V217H63.9ZM67.9325 210.56V212.33H68.9225V213.18H67.9325V217H66.9025V213.18H66.0625V212.33H66.9025V210.56H67.9325ZM74.2635 214.65C74.2635 214.76 74.2635 214.92 74.2535 215.03H70.5435C70.6535 215.75 71.2135 216.2 71.9735 216.2C72.4935 216.2 73.0035 215.96 73.2435 215.53L74.0835 215.9C73.6835 216.73 72.7935 217.1 71.9235 217.1C70.6035 217.1 69.5235 216.13 69.5235 214.65C69.5235 213.17 70.6035 212.23 71.9235 212.23C73.2435 212.23 74.2635 213.17 74.2635 214.65ZM70.5435 214.28H73.2535C73.1435 213.55 72.6335 213.13 71.9235 213.13C71.2035 213.13 70.6535 213.56 70.5435 214.28ZM80.6709 213.24C79.9909 213.24 79.5409 213.73 79.5409 214.49V217H78.5109V214.38C78.5009 213.66 78.1209 213.24 77.5609 213.24C76.9609 213.24 76.3809 213.57 76.3809 214.49V217H75.3509V212.33H76.3809V213.03C76.7009 212.39 77.4709 212.23 77.8509 212.23C78.6009 212.23 79.0509 212.56 79.3209 213.16C79.7509 212.35 80.4709 212.23 80.8909 212.23C82.0509 212.23 82.6909 212.98 82.6909 214.31V217H81.6609V214.4C81.6609 213.67 81.2709 213.24 80.6709 213.24ZM87.8604 211.1V216.02H89.4804C90.8304 216.02 91.5204 214.94 91.5204 213.57C91.5204 212.21 90.8304 211.1 89.4804 211.1H87.8604ZM89.4804 217H86.8004V210.11H89.4804C91.4404 210.11 92.5804 211.61 92.5804 213.57C92.5804 215.53 91.4404 217 89.4804 217ZM98.1991 214.65C98.1991 214.76 98.1991 214.92 98.1891 215.03H94.4791C94.5891 215.75 95.1491 216.2 95.9091 216.2C96.4291 216.2 96.9391 215.96 97.1791 215.53L98.0191 215.9C97.6191 216.73 96.7291 217.1 95.8591 217.1C94.5391 217.1 93.4591 216.13 93.4591 214.65C93.4591 213.17 94.5391 212.23 95.8591 212.23C97.1791 212.23 98.1991 213.17 98.1991 214.65ZM94.4791 214.28H97.1891C97.0791 213.55 96.5691 213.13 95.8591 213.13C95.1391 213.13 94.5891 213.56 94.4791 214.28ZM100.686 210.56V212.33H101.676V213.18H100.686V217H99.6564V213.18H98.8164V212.33H99.6564V210.56H100.686ZM106.217 217V216.33C105.897 216.84 105.247 217.1 104.647 217.1C103.397 217.1 102.277 216.15 102.277 214.66C102.277 213.17 103.397 212.23 104.647 212.23C105.207 212.23 105.897 212.46 106.217 212.99V212.33H107.237V217H106.217ZM103.337 214.65C103.337 215.51 103.997 216.1 104.767 216.1C105.527 216.1 106.207 215.57 106.207 214.65C106.207 213.74 105.467 213.23 104.767 213.23C103.997 213.23 103.337 213.79 103.337 214.65ZM109.701 212.33V217H108.681V212.33H109.701ZM108.501 210.44C108.501 210.07 108.821 209.79 109.191 209.79C109.581 209.79 109.871 210.07 109.871 210.44C109.871 210.81 109.581 211.09 109.191 211.09C108.821 211.09 108.501 210.81 108.501 210.44ZM111.142 217V209.79H112.172V217H111.142ZM115.333 215.13L114.703 214.98C113.703 214.71 113.343 214.22 113.413 213.46C113.463 212.77 114.233 212.23 115.083 212.23C115.903 212.23 116.733 212.61 116.783 213.61H115.803C115.763 213.26 115.443 213.11 115.123 213.11C114.853 213.11 114.573 213.21 114.463 213.37C114.383 213.5 114.373 213.64 114.423 213.79C114.493 213.98 114.743 214.08 114.993 214.15L115.713 214.33C116.713 214.57 116.933 215.23 116.933 215.69C116.933 216.59 116.143 217.1 115.073 217.1C114.193 217.1 113.313 216.56 113.283 215.57H114.233C114.283 215.97 114.603 216.24 115.153 216.24C115.623 216.24 115.983 216.03 115.983 215.68C115.983 215.37 115.683 215.21 115.333 215.13Z" fill="black"/>
<rect width="470" height="22" transform="translate(63 229)" fill="#F3F4F6"/>
<path d="M71.65 237.09H69.97V239.5H71.61C72.37 239.5 72.71 238.89 72.71 238.3C72.71 237.72 72.4 237.09 71.65 237.09ZM68.9 243V236.11H71.67C73.15 236.11 73.77 237.21 73.77 238.3C73.77 239.39 73.15 240.47 71.67 240.47H69.97V243H68.9ZM75.7656 241.32V243H74.7356V238.33H75.7656V239.4C76.0056 238.56 76.4556 238.23 77.0456 238.23C77.3756 238.23 77.7256 238.3 77.8756 238.41L77.7056 239.36C77.4356 239.23 77.2156 239.2 77.0156 239.2C76.1356 239.2 75.7656 240.08 75.7656 241.32ZM80.7621 242.1C81.5421 242.1 82.1821 241.53 82.1821 240.65C82.1821 239.8 81.5421 239.24 80.7621 239.24C79.9921 239.24 79.3521 239.8 79.3521 240.65C79.3521 241.53 79.9921 242.1 80.7621 242.1ZM80.7621 243.1C79.4421 243.1 78.3321 242.13 78.3321 240.65C78.3321 239.17 79.4421 238.23 80.7621 238.23C82.0921 238.23 83.2121 239.17 83.2121 240.65C83.2121 242.13 82.0921 243.1 80.7621 243.1ZM87.9748 243V242.32C87.6848 242.83 87.0348 243.1 86.3948 243.1C85.1348 243.1 84.0648 242.14 84.0648 240.67C84.0648 239.17 85.1348 238.23 86.3948 238.23C87.0648 238.23 87.6848 238.49 87.9748 239V235.79H88.9948V243H87.9748ZM87.9548 240.65C87.9548 239.74 87.2148 239.23 86.5248 239.23C85.7548 239.23 85.1248 239.79 85.1248 240.65C85.1248 241.51 85.7548 242.1 86.5248 242.1C87.2848 242.1 87.9548 241.56 87.9548 240.65ZM93.5888 240.84V238.33H94.6188V243H93.5888V242.32C93.3188 242.85 92.6888 243.1 92.1988 243.1C91.0488 243.1 90.3787 242.38 90.3888 241.05V238.33H91.4188V240.93C91.4188 241.7 91.8288 242.1 92.3888 242.1C92.9888 242.1 93.5888 241.77 93.5888 240.84ZM95.754 240.65C95.754 239.17 96.904 238.23 98.244 238.23C98.994 238.23 99.654 238.52 100.094 239.04L99.294 239.68C99.044 239.39 98.654 239.23 98.244 239.23C97.464 239.23 96.774 239.78 96.774 240.65C96.774 241.52 97.464 242.11 98.244 242.11C98.654 242.11 99.044 241.94 99.294 241.65L100.104 242.28C99.664 242.8 99.004 243.1 98.244 243.1C96.904 243.1 95.754 242.13 95.754 240.65ZM102.591 236.56V238.33H103.581V239.18H102.591V243H101.561V239.18H100.721V238.33H101.561V236.56H102.591ZM107.52 236.11H108.54L105.16 243H104.14L107.52 236.11ZM109.35 241H110.41C110.44 241.56 110.95 242.13 111.78 242.13C112.59 242.13 113.01 241.7 113.08 241.19C113.12 240.55 112.63 240.22 111.99 240.07L111.12 239.85C109.64 239.45 109.41 238.61 109.41 238C109.41 236.82 110.47 236.03 111.68 236.03C112.96 236.03 113.92 236.81 113.92 238.07H112.86C112.86 237.43 112.38 237.03 111.66 237.03C111.02 237.03 110.47 237.42 110.47 237.98C110.47 238.25 110.57 238.67 111.39 238.88L112.27 239.11C113.67 239.48 114.24 240.25 114.13 241.25C114.02 242.33 113.09 243.1 111.78 243.1C110.35 243.1 109.35 242.12 109.35 241ZM119.752 240.65C119.752 240.76 119.752 240.92 119.742 241.03H116.032C116.142 241.75 116.702 242.2 117.462 242.2C117.982 242.2 118.492 241.96 118.732 241.53L119.572 241.9C119.172 242.73 118.282 243.1 117.412 243.1C116.092 243.1 115.012 242.13 115.012 240.65C115.012 239.17 116.092 238.23 117.412 238.23C118.732 238.23 119.752 239.17 119.752 240.65ZM116.032 240.28H118.742C118.632 239.55 118.122 239.13 117.412 239.13C116.692 239.13 116.142 239.56 116.032 240.28ZM121.869 241.32V243H120.839V238.33H121.869V239.4C122.109 238.56 122.559 238.23 123.149 238.23C123.479 238.23 123.829 238.3 123.979 238.41L123.809 239.36C123.539 239.23 123.319 239.2 123.119 239.2C122.239 239.2 121.869 240.08 121.869 241.32ZM126.193 243L124.243 238.33H125.333L126.673 241.69L127.993 238.33H129.093L127.143 243H126.193ZM130.961 238.33V243H129.941V238.33H130.961ZM129.761 236.44C129.761 236.07 130.081 235.79 130.451 235.79C130.841 235.79 131.131 236.07 131.131 236.44C131.131 236.81 130.841 237.09 130.451 237.09C130.081 237.09 129.761 236.81 129.761 236.44ZM132.102 240.65C132.102 239.17 133.252 238.23 134.592 238.23C135.342 238.23 136.002 238.52 136.442 239.04L135.642 239.68C135.392 239.39 135.002 239.23 134.592 239.23C133.812 239.23 133.122 239.78 133.122 240.65C133.122 241.52 133.812 242.11 134.592 242.11C135.002 242.11 135.392 241.94 135.642 241.65L136.452 242.28C136.012 242.8 135.352 243.1 134.592 243.1C133.252 243.1 132.102 242.13 132.102 240.65ZM141.881 240.65C141.881 240.76 141.881 240.92 141.871 241.03H138.161C138.271 241.75 138.831 242.2 139.591 242.2C140.111 242.2 140.621 241.96 140.861 241.53L141.701 241.9C141.301 242.73 140.411 243.1 139.541 243.1C138.221 243.1 137.141 242.13 137.141 240.65C137.141 239.17 138.221 238.23 139.541 238.23C140.861 238.23 141.881 239.17 141.881 240.65ZM138.161 240.28H140.871C140.761 239.55 140.251 239.13 139.541 239.13C138.821 239.13 138.271 239.56 138.161 240.28ZM144.688 241.13L144.058 240.98C143.058 240.71 142.698 240.22 142.768 239.46C142.818 238.77 143.588 238.23 144.438 238.23C145.258 238.23 146.088 238.61 146.138 239.61H145.158C145.118 239.26 144.798 239.11 144.478 239.11C144.208 239.11 143.928 239.21 143.818 239.37C143.738 239.5 143.728 239.64 143.778 239.79C143.848 239.98 144.098 240.08 144.348 240.15L145.068 240.33C146.068 240.57 146.288 241.23 146.288 241.69C146.288 242.59 145.498 243.1 144.428 243.1C143.548 243.1 142.668 242.56 142.638 241.57H143.588C143.638 241.97 143.958 242.24 144.508 242.24C144.978 242.24 145.338 242.03 145.338 241.68C145.338 241.37 145.038 241.21 144.688 241.13Z" fill="black"/>
<path d="M318.87 242.54L319.57 243.67L318.77 244.16L318.01 242.94C317.69 243.05 317.34 243.1 316.96 243.1C315 243.1 313.47 241.53 313.47 239.57C313.47 237.62 315 236.03 316.96 236.03C318.93 236.03 320.47 237.62 320.47 239.57C320.47 240.82 319.84 241.9 318.87 242.54ZM317.56 240.44L318.31 241.65C318.99 241.21 319.4 240.45 319.4 239.57C319.4 238.18 318.35 237.05 316.96 237.05C315.59 237.05 314.53 238.18 314.53 239.57C314.53 240.88 315.46 241.92 316.72 242.03C316.95 242.06 317.19 242.05 317.43 242.01L316.77 240.93L317.56 240.44ZM323.059 236.56V238.33H324.049V239.18H323.059V243H322.029V239.18H321.189V238.33H322.029V236.56H323.059ZM329.239 238.33L326.349 245.28H325.269L326.279 242.78L324.429 238.33H325.529L326.829 241.53L328.139 238.33H329.239Z" fill="black"/>
<path d="M394.723 242.08C395.513 242.08 396.203 241.5 396.203 240.61V236.11H397.273V240.61C397.273 242.13 396.093 243.1 394.723 243.1C393.333 243.1 392.163 242.13 392.163 240.61V236.11H393.243V240.61C393.243 241.5 393.933 242.08 394.723 242.08ZM399.783 240.49V243H398.753V238.33H399.783V239.03C400.053 238.5 400.703 238.23 401.213 238.23C402.343 238.23 402.993 238.95 402.993 240.28V243H401.963V240.4C401.963 239.65 401.583 239.24 400.983 239.24C400.373 239.24 399.783 239.57 399.783 240.49ZM405.407 238.33V243H404.387V238.33H405.407ZM404.207 236.44C404.207 236.07 404.527 235.79 404.897 235.79C405.287 235.79 405.577 236.07 405.577 236.44C405.577 236.81 405.287 237.09 404.897 237.09C404.527 237.09 404.207 236.81 404.207 236.44ZM408.248 236.56V238.33H409.238V239.18H408.248V243H407.218V239.18H406.378V238.33H407.218V236.56H408.248ZM415.481 237.09H413.801V239.5H415.441C416.201 239.5 416.541 238.89 416.541 238.3C416.541 237.72 416.231 237.09 415.481 237.09ZM412.731 243V236.11H415.501C416.981 236.11 417.601 237.21 417.601 238.3C417.601 239.39 416.981 240.47 415.501 240.47H413.801V243H412.731ZM419.597 241.32V243H418.567V238.33H419.597V239.4C419.837 238.56 420.287 238.23 420.877 238.23C421.207 238.23 421.557 238.3 421.707 238.41L421.537 239.36C421.267 239.23 421.047 239.2 420.847 239.2C419.967 239.2 419.597 240.08 419.597 241.32ZM423.581 238.33V243H422.561V238.33H423.581ZM422.381 236.44C422.381 236.07 422.701 235.79 423.071 235.79C423.461 235.79 423.751 236.07 423.751 236.44C423.751 236.81 423.461 237.09 423.071 237.09C422.701 237.09 422.381 236.81 422.381 236.44ZM424.722 240.65C424.722 239.17 425.872 238.23 427.212 238.23C427.962 238.23 428.622 238.52 429.062 239.04L428.262 239.68C428.012 239.39 427.622 239.23 427.212 239.23C426.432 239.23 425.742 239.78 425.742 240.65C425.742 241.52 426.432 242.11 427.212 242.11C427.622 242.11 428.012 241.94 428.262 241.65L429.072 242.28C428.632 242.8 427.972 243.1 427.212 243.1C425.872 243.1 424.722 242.13 424.722 240.65ZM434.501 240.65C434.501 240.76 434.501 240.92 434.491 241.03H430.781C430.891 241.75 431.451 242.2 432.211 242.2C432.731 242.2 433.241 241.96 433.481 241.53L434.321 241.9C433.921 242.73 433.031 243.1 432.161 243.1C430.841 243.1 429.761 242.13 429.761 240.65C429.761 239.17 430.841 238.23 432.161 238.23C433.481 238.23 434.501 239.17 434.501 240.65ZM430.781 240.28H433.491C433.381 239.55 432.871 239.13 432.161 239.13C431.441 239.13 430.891 239.56 430.781 240.28Z" fill="black"/>
<path d="M474.957 243L474.297 241.28H471.517L470.857 243H469.727L472.327 236.11H473.477L476.077 243H474.957ZM472.907 237.44L471.877 240.33H473.937L472.907 237.44ZM482.181 239.24C481.501 239.24 481.051 239.73 481.051 240.49V243H480.021V240.38C480.011 239.66 479.631 239.24 479.071 239.24C478.471 239.24 477.891 239.57 477.891 240.49V243H476.861V238.33H477.891V239.03C478.211 238.39 478.981 238.23 479.361 238.23C480.111 238.23 480.561 238.56 480.831 239.16C481.261 238.35 481.981 238.23 482.401 238.23C483.561 238.23 484.201 238.98 484.201 240.31V243H483.171V240.4C483.171 239.67 482.781 239.24 482.181 239.24ZM487.722 242.1C488.502 242.1 489.142 241.53 489.142 240.65C489.142 239.8 488.502 239.24 487.722 239.24C486.952 239.24 486.312 239.8 486.312 240.65C486.312 241.53 486.952 242.1 487.722 242.1ZM487.722 243.1C486.402 243.1 485.292 242.13 485.292 240.65C485.292 239.17 486.402 238.23 487.722 238.23C489.052 238.23 490.172 239.17 490.172 240.65C490.172 242.13 489.052 243.1 487.722 243.1ZM494.464 240.84V238.33H495.494V243H494.464V242.32C494.194 242.85 493.564 243.1 493.074 243.1C491.924 243.1 491.254 242.38 491.264 241.05V238.33H492.294V240.93C492.294 241.7 492.704 242.1 493.264 242.1C493.864 242.1 494.464 241.77 494.464 240.84ZM497.96 240.49V243H496.93V238.33H497.96V239.03C498.23 238.5 498.88 238.23 499.39 238.23C500.52 238.23 501.17 238.95 501.17 240.28V243H500.14V240.4C500.14 239.65 499.76 239.24 499.16 239.24C498.55 239.24 497.96 239.57 497.96 240.49ZM503.964 236.56V238.33H504.954V239.18H503.964V243H502.934V239.18H502.094V238.33H502.934V236.56H503.964Z" fill="black"/>
<path d="M63 265C63 262.791 64.7909 261 67 261H284C286.209 261 288 262.791 288 265C288 267.209 286.209 269 284 269H67C64.7909 269 63 267.209 63 265Z" fill="#E5E7EB"/>
<path d="M63 281C63 278.791 64.7909 277 67 277H209C211.209 277 213 278.791 213 281C213 283.209 211.209 285 209 285H67C64.7909 285 63 283.209 63 281Z" fill="#E5E7EB"/>
<path d="M318 265C318 262.791 319.791 261 322 261H372.333C374.542 261 376.333 262.791 376.333 265C376.333 267.209 374.542 269 372.333 269H322C319.791 269 318 267.209 318 265Z" fill="#E5E7EB"/>
<path d="M396.333 265C396.333 262.791 398.124 261 400.333 261H450.667C452.876 261 454.667 262.791 454.667 265C454.667 267.209 452.876 269 450.667 269H400.333C398.124 269 396.333 267.209 396.333 265Z" fill="#E5E7EB"/>
<path d="M474.667 265C474.667 262.791 476.457 261 478.667 261H529C531.209 261 533 262.791 533 265C533 267.209 531.209 269 529 269H478.667C476.457 269 474.667 267.209 474.667 265Z" fill="#E5E7EB"/>
<path d="M63.5 319C63.5 317.067 65.067 315.5 67 315.5H286.5C288.433 315.5 290 317.067 290 319V337C290 338.933 288.433 340.5 286.5 340.5H67C65.067 340.5 63.5 338.933 63.5 337V319Z" fill="#F9FAFB"/>
<path d="M63.5 319C63.5 317.067 65.067 315.5 67 315.5H286.5C288.433 315.5 290 317.067 290 319V337C290 338.933 288.433 340.5 286.5 340.5H67C65.067 340.5 63.5 338.933 63.5 337V319Z" stroke="#E5E7EB"/>
<path d="M147.538 329H148.598C148.628 329.56 149.138 330.13 149.968 330.13C150.778 330.13 151.198 329.7 151.268 329.19C151.308 328.55 150.818 328.22 150.178 328.07L149.308 327.85C147.828 327.45 147.598 326.61 147.598 326C147.598 324.82 148.658 324.03 149.868 324.03C151.148 324.03 152.108 324.81 152.108 326.07H151.048C151.048 325.43 150.568 325.03 149.848 325.03C149.208 325.03 148.658 325.42 148.658 325.98C148.658 326.25 148.758 326.67 149.578 326.88L150.458 327.11C151.858 327.48 152.428 328.25 152.318 329.25C152.208 330.33 151.278 331.1 149.968 331.1C148.538 331.1 147.538 330.12 147.538 329ZM157.14 331V330.33C156.82 330.84 156.17 331.1 155.57 331.1C154.32 331.1 153.2 330.15 153.2 328.66C153.2 327.17 154.32 326.23 155.57 326.23C156.13 326.23 156.82 326.46 157.14 326.99V326.33H158.16V331H157.14ZM154.26 328.65C154.26 329.51 154.92 330.1 155.69 330.1C156.45 330.1 157.13 329.57 157.13 328.65C157.13 327.74 156.39 327.23 155.69 327.23C154.92 327.23 154.26 327.79 154.26 328.65ZM160.964 331L159.014 326.33H160.104L161.444 329.69L162.764 326.33H163.864L161.914 331H160.964ZM169.054 328.65C169.054 328.76 169.054 328.92 169.044 329.03H165.334C165.444 329.75 166.004 330.2 166.764 330.2C167.284 330.2 167.794 329.96 168.034 329.53L168.874 329.9C168.474 330.73 167.584 331.1 166.714 331.1C165.394 331.1 164.314 330.13 164.314 328.65C164.314 327.17 165.394 326.23 166.714 326.23C168.034 326.23 169.054 327.17 169.054 328.65ZM165.334 328.28H168.044C167.934 327.55 167.424 327.13 166.714 327.13C165.994 327.13 165.444 327.56 165.334 328.28ZM176.32 331V330.33C176 330.84 175.35 331.1 174.75 331.1C173.5 331.1 172.38 330.15 172.38 328.66C172.38 327.17 173.5 326.23 174.75 326.23C175.31 326.23 176 326.46 176.32 326.99V326.33H177.34V331H176.32ZM173.44 328.65C173.44 329.51 174.1 330.1 174.87 330.1C175.63 330.1 176.31 329.57 176.31 328.65C176.31 327.74 175.57 327.23 174.87 327.23C174.1 327.23 173.44 327.79 173.44 328.65ZM180.503 329.13L179.873 328.98C178.873 328.71 178.513 328.22 178.583 327.46C178.633 326.77 179.403 326.23 180.253 326.23C181.073 326.23 181.903 326.61 181.953 327.61H180.973C180.933 327.26 180.613 327.11 180.293 327.11C180.023 327.11 179.743 327.21 179.633 327.37C179.553 327.5 179.543 327.64 179.593 327.79C179.663 327.98 179.913 328.08 180.163 328.15L180.883 328.33C181.883 328.57 182.103 329.23 182.103 329.69C182.103 330.59 181.313 331.1 180.243 331.1C179.363 331.1 178.483 330.56 178.453 329.57H179.403C179.453 329.97 179.773 330.24 180.323 330.24C180.793 330.24 181.153 330.03 181.153 329.68C181.153 329.37 180.853 329.21 180.503 329.13ZM187.006 325.1V330.02H188.626C189.976 330.02 190.666 328.94 190.666 327.57C190.666 326.21 189.976 325.1 188.626 325.1H187.006ZM188.626 331H185.946V324.11H188.626C190.586 324.11 191.726 325.61 191.726 327.57C191.726 329.53 190.586 331 188.626 331ZM193.925 329.32V331H192.895V326.33H193.925V327.4C194.165 326.56 194.615 326.23 195.205 326.23C195.535 326.23 195.885 326.3 196.035 326.41L195.865 327.36C195.595 327.23 195.375 327.2 195.175 327.2C194.295 327.2 193.925 328.08 193.925 329.32ZM200.431 331V330.33C200.111 330.84 199.461 331.1 198.861 331.1C197.611 331.1 196.491 330.15 196.491 328.66C196.491 327.17 197.611 326.23 198.861 326.23C199.421 326.23 200.111 326.46 200.431 326.99V326.33H201.451V331H200.431ZM197.551 328.65C197.551 329.51 198.211 330.1 198.981 330.1C199.741 330.1 200.421 329.57 200.421 328.65C200.421 327.74 199.681 327.23 198.981 327.23C198.211 327.23 197.551 327.79 197.551 328.65ZM205.695 323.79V324.78H205.185C204.505 324.78 204.355 325.3 204.355 325.9V326.33H205.405V327.18H204.355V331H203.315V327.18H202.425V326.33H203.315V325.9C203.315 324.62 203.905 323.79 205.185 323.79H205.695ZM207.762 324.56V326.33H208.752V327.18H207.762V331H206.732V327.18H205.892V326.33H206.732V324.56H207.762Z" fill="#6B7280"/>
<path d="M305.5 319C305.5 316.791 307.291 315 309.5 315H529C531.209 315 533 316.791 533 319V337C533 339.209 531.209 341 529 341H309.5C307.291 341 305.5 339.209 305.5 337V319Z" fill="#407CEE"/>
<path d="M408.25 329H409.31C409.34 329.56 409.85 330.13 410.68 330.13C411.49 330.13 411.91 329.7 411.98 329.19C412.02 328.55 411.53 328.22 410.89 328.07L410.02 327.85C408.54 327.45 408.31 326.61 408.31 326C408.31 324.82 409.37 324.03 410.58 324.03C411.86 324.03 412.82 324.81 412.82 326.07H411.76C411.76 325.43 411.28 325.03 410.56 325.03C409.92 325.03 409.37 325.42 409.37 325.98C409.37 326.25 409.47 326.67 410.29 326.88L411.17 327.11C412.57 327.48 413.14 328.25 413.03 329.25C412.92 330.33 411.99 331.1 410.68 331.1C409.25 331.1 408.25 330.12 408.25 329ZM417.852 331V330.33C417.532 330.84 416.882 331.1 416.282 331.1C415.032 331.1 413.912 330.15 413.912 328.66C413.912 327.17 415.032 326.23 416.282 326.23C416.842 326.23 417.532 326.46 417.852 326.99V326.33H418.872V331H417.852ZM414.972 328.65C414.972 329.51 415.632 330.1 416.402 330.1C417.162 330.1 417.842 329.57 417.842 328.65C417.842 327.74 417.102 327.23 416.402 327.23C415.632 327.23 414.972 327.79 414.972 328.65ZM421.676 331L419.726 326.33H420.816L422.156 329.69L423.476 326.33H424.576L422.626 331H421.676ZM429.765 328.65C429.765 328.76 429.765 328.92 429.755 329.03H426.045C426.155 329.75 426.715 330.2 427.475 330.2C427.995 330.2 428.505 329.96 428.745 329.53L429.585 329.9C429.185 330.73 428.295 331.1 427.425 331.1C426.105 331.1 425.025 330.13 425.025 328.65C425.025 327.17 426.105 326.23 427.425 326.23C428.745 326.23 429.765 327.17 429.765 328.65ZM426.045 328.28H428.755C428.645 327.55 428.135 327.13 427.425 327.13C426.705 327.13 426.155 327.56 426.045 328.28Z" fill="white"/>
</g>
<path d="M56 16.5C50.7533 16.5 46.5 20.7533 46.5 26V353C46.5 358.247 50.7533 362.5 56 362.5H540C545.247 362.5 549.5 358.247 549.5 353V26C549.5 20.7533 545.247 16.5 540 16.5H56Z" stroke="#F3F4F6" stroke-width="3"/>
</g>
<defs>
<filter id="filter0_d_1228_2255" x="0" y="0" width="566" height="409" filterUnits="userSpaceOnUse" color-interpolation-filters="sRGB">
<feFlood flood-opacity="0" result="BackgroundImageFix"/>
<feColorMatrix in="SourceAlpha" type="matrix" values="0 0 0 0 0 0 0 0 0 0 0 0 0 0 0 0 0 0 127 0" result="hardAlpha"/>
<feOffset dx="-15" dy="15"/>
<feGaussianBlur stdDeviation="15"/>
<feComposite in2="hardAlpha" operator="out"/>
<feColorMatrix type="matrix" values="0 0 0 0 0 0 0 0 0 0 0 0 0 0 0 0 0 0 0.15 0"/>
<feBlend mode="normal" in2="BackgroundImageFix" result="effect1_dropShadow_1228_2255"/>
<feBlend mode="normal" in="SourceGraphic" in2="effect1_dropShadow_1228_2255" result="shape"/>
</filter>
<clipPath id="clip0_1228_2255">
<path d="M48 26C48 21.5817 51.5817 18 56 18H540C544.418 18 548 21.5817 548 26V353C548 357.418 544.418 361 540 361H56C51.5817 361 48 357.418 48 353V26Z" fill="white"/>
</clipPath>
<clipPath id="clip1_1228_2255">
<rect width="10" height="10" fill="white" transform="translate(351.333 101)"/>
</clipPath>
<clipPath id="clip2_1228_2255">
<rect width="10" height="10" fill="white" transform="translate(518 101)"/>
</clipPath>
</defs>
</svg>
