<svg width="566" height="499" viewBox="0 0 566 499" fill="none" xmlns="http://www.w3.org/2000/svg">
<g filter="url(#filter0_d_1228_1881)">
<g clip-path="url(#clip0_1228_1881)">
<path d="M48 26.5C48 22.0817 51.5817 18.5 56 18.5H540C544.418 18.5 548 22.0817 548 26.5V442.5C548 446.918 544.418 450.5 540 450.5H56C51.5817 450.5 48 446.918 48 442.5V26.5Z" fill="white"/>
<mask id="path-3-inside-1_1228_1881" fill="white">
<path d="M48 18.5H548V61.5H48V18.5Z"/>
</mask>
<path d="M548 60.5H48V62.5H548V60.5Z" fill="#F3F4F6" mask="url(#path-3-inside-1_1228_1881)"/>
<path d="M69.84 35.052L71.052 35.94C70.332 36.96 69.132 37.62 67.692 37.62C65.34 37.62 63.528 35.712 63.528 33.384C63.528 31.044 65.34 29.136 67.692 29.136C69.096 29.136 70.296 29.76 71.016 30.768L69.792 31.644C69.312 31.02 68.568 30.588 67.692 30.588C66.192 30.588 65.064 31.848 65.064 33.384C65.064 34.932 66.192 36.168 67.692 36.168C68.592 36.168 69.36 35.724 69.84 35.052ZM73.6123 35.52V37.5H72.1483V31.896H73.6123V33.216C73.9003 32.196 74.5603 31.776 75.1963 31.776C75.5923 31.776 75.8923 31.848 76.1203 31.98L75.8683 33.3C75.5203 33.144 75.1603 33.144 75.0163 33.144C74.0203 33.144 73.6123 34.032 73.6123 35.52ZM82.3647 34.68C82.3647 34.824 82.3527 35.052 82.3407 35.184H78.0687C78.1647 35.94 78.7887 36.384 79.6167 36.384C80.1807 36.384 80.7447 36.144 81.0207 35.664C81.3687 35.856 81.7647 36.072 82.1367 36.264C81.6207 37.224 80.5527 37.62 79.5207 37.62C77.9247 37.62 76.6167 36.444 76.6167 34.68C76.6167 32.904 77.9247 31.776 79.5207 31.776C81.1047 31.776 82.3647 32.904 82.3647 34.68ZM78.0567 34.188H80.9367C80.8287 33.42 80.2527 33 79.5327 33C78.7647 33 78.1647 33.42 78.0567 34.188ZM87.8455 37.5V36.78C87.4975 37.356 86.6455 37.608 86.1055 37.608C84.6295 37.608 83.2495 36.48 83.2495 34.692C83.2495 32.904 84.6295 31.776 86.1055 31.776C86.6215 31.776 87.4255 31.98 87.8455 32.592V31.896H89.3095V37.5H87.8455ZM84.7615 34.692C84.7615 35.604 85.4935 36.204 86.3095 36.204C87.1135 36.204 87.8455 35.652 87.8455 34.692C87.8455 33.732 87.0775 33.18 86.3095 33.18C85.4935 33.18 84.7615 33.78 84.7615 34.692ZM92.8886 29.76V31.896H94.0766V33.072H92.8886V37.5H91.4366V33.072H90.4166V31.896H91.4366V29.76H92.8886ZM100.505 34.68C100.505 34.824 100.493 35.052 100.481 35.184H96.2093C96.3053 35.94 96.9293 36.384 97.7573 36.384C98.3213 36.384 98.8853 36.144 99.1613 35.664C99.5093 35.856 99.9053 36.072 100.277 36.264C99.7613 37.224 98.6933 37.62 97.6613 37.62C96.0653 37.62 94.7573 36.444 94.7573 34.68C94.7573 32.904 96.0653 31.776 97.6613 31.776C99.2453 31.776 100.505 32.904 100.505 34.68ZM96.1973 34.188H99.0773C98.9693 33.42 98.3933 33 97.6733 33C96.9053 33 96.3053 33.42 96.1973 34.188ZM104.919 37.5V29.232H106.443V37.5H104.919ZM109.765 34.512V37.5H108.301V31.896H109.765V32.724C110.089 32.112 110.773 31.776 111.433 31.776C112.741 31.776 113.521 32.592 113.521 34.188V37.5H112.057V34.452C112.057 33.636 111.625 33.204 110.989 33.204C110.317 33.204 109.765 33.54 109.765 34.512ZM116.659 37.5L114.307 31.896H115.867L117.307 35.628L118.747 31.896H120.319L117.955 37.5H116.659ZM123.689 36.18C124.505 36.18 125.153 35.592 125.153 34.68C125.153 33.78 124.505 33.216 123.689 33.216C122.873 33.216 122.225 33.78 122.225 34.68C122.225 35.592 122.873 36.18 123.689 36.18ZM123.689 37.608C122.105 37.608 120.773 36.444 120.773 34.68C120.773 32.904 122.105 31.776 123.689 31.776C125.273 31.776 126.605 32.904 126.605 34.68C126.605 36.444 125.273 37.608 123.689 37.608ZM129.37 31.896V37.5H127.918V31.896H129.37ZM127.702 29.724C127.702 29.232 128.134 28.848 128.65 28.848C129.166 28.848 129.574 29.232 129.574 29.724C129.574 30.24 129.166 30.612 128.65 30.612C128.134 30.612 127.702 30.24 127.702 29.724ZM130.663 34.68C130.663 32.904 132.079 31.776 133.687 31.776C134.635 31.776 135.487 32.16 136.015 32.868L134.851 33.744C134.575 33.372 134.155 33.192 133.687 33.192C132.871 33.192 132.115 33.768 132.115 34.68C132.115 35.592 132.871 36.216 133.687 36.216C134.155 36.216 134.575 36.024 134.851 35.652L136.027 36.516C135.499 37.224 134.647 37.62 133.687 37.62C132.079 37.62 130.663 36.444 130.663 34.68ZM142.576 34.68C142.576 34.824 142.564 35.052 142.552 35.184H138.28C138.376 35.94 139 36.384 139.828 36.384C140.392 36.384 140.956 36.144 141.232 35.664C141.58 35.856 141.976 36.072 142.348 36.264C141.832 37.224 140.764 37.62 139.732 37.62C138.136 37.62 136.828 36.444 136.828 34.68C136.828 32.904 138.136 31.776 139.732 31.776C141.316 31.776 142.576 32.904 142.576 34.68ZM138.268 34.188H141.148C141.04 33.42 140.464 33 139.744 33C138.976 33 138.376 33.42 138.268 34.188Z" fill="black"/>
<path d="M64.568 44.78V48.716H65.864C66.944 48.716 67.496 47.852 67.496 46.756C67.496 45.668 66.944 44.78 65.864 44.78H64.568ZM65.864 49.5H63.72V43.988H65.864C67.432 43.988 68.344 45.188 68.344 46.756C68.344 48.324 67.432 49.5 65.864 49.5ZM72.1989 49.5V48.964C71.9429 49.372 71.4229 49.58 70.9429 49.58C69.9429 49.58 69.0469 48.82 69.0469 47.628C69.0469 46.436 69.9429 45.684 70.9429 45.684C71.3909 45.684 71.9429 45.868 72.1989 46.292V45.764H73.0149V49.5H72.1989ZM69.8949 47.62C69.8949 48.308 70.4229 48.78 71.0389 48.78C71.6469 48.78 72.1909 48.356 72.1909 47.62C72.1909 46.892 71.5989 46.484 71.0389 46.484C70.4229 46.484 69.8949 46.932 69.8949 47.62ZM75.5458 48.004L75.0418 47.884C74.2418 47.668 73.9538 47.276 74.0098 46.668C74.0498 46.116 74.6658 45.684 75.3458 45.684C76.0018 45.684 76.6658 45.988 76.7058 46.788H75.9218C75.8898 46.508 75.6338 46.388 75.3778 46.388C75.1618 46.388 74.9378 46.468 74.8498 46.596C74.7858 46.7 74.7778 46.812 74.8178 46.932C74.8738 47.084 75.0738 47.164 75.2738 47.22L75.8498 47.364C76.6498 47.556 76.8258 48.084 76.8258 48.452C76.8258 49.172 76.1938 49.58 75.3378 49.58C74.6338 49.58 73.9298 49.148 73.9058 48.356H74.6658C74.7058 48.676 74.9618 48.892 75.4018 48.892C75.7778 48.892 76.0658 48.724 76.0658 48.444C76.0658 48.196 75.8258 48.068 75.5458 48.004ZM78.5484 47.492V49.5H77.7244V43.732H78.5484V46.332C78.7644 45.876 79.3404 45.684 79.7324 45.684C80.6924 45.684 81.2444 46.308 81.2444 47.372V49.5H80.4204V47.42C80.4204 46.836 80.0604 46.492 79.5884 46.492C79.1164 46.492 78.5484 46.756 78.5484 47.492ZM83.1814 47.62C83.1814 48.348 83.7174 48.78 84.3254 48.78C84.9494 48.78 85.4534 48.308 85.4534 47.62C85.4534 46.932 84.9494 46.484 84.3254 46.484C83.7654 46.484 83.1814 46.892 83.1814 47.62ZM83.1734 49.5H82.3494V43.732H83.1734V46.3C83.4054 45.892 83.8934 45.684 84.4294 45.684C85.4454 45.684 86.2934 46.436 86.2934 47.636C86.2934 48.812 85.4214 49.58 84.4214 49.58C83.9094 49.58 83.4054 49.364 83.1734 48.956V49.5ZM88.9206 48.78C89.5446 48.78 90.0566 48.324 90.0566 47.62C90.0566 46.94 89.5446 46.492 88.9206 46.492C88.3046 46.492 87.7926 46.94 87.7926 47.62C87.7926 48.324 88.3046 48.78 88.9206 48.78ZM88.9206 49.58C87.8646 49.58 86.9766 48.804 86.9766 47.62C86.9766 46.436 87.8646 45.684 88.9206 45.684C89.9846 45.684 90.8806 46.436 90.8806 47.62C90.8806 48.804 89.9846 49.58 88.9206 49.58ZM94.7068 49.5V48.964C94.4508 49.372 93.9308 49.58 93.4508 49.58C92.4508 49.58 91.5548 48.82 91.5548 47.628C91.5548 46.436 92.4508 45.684 93.4508 45.684C93.8988 45.684 94.4508 45.868 94.7068 46.292V45.764H95.5228V49.5H94.7068ZM92.4028 47.62C92.4028 48.308 92.9308 48.78 93.5468 48.78C94.1548 48.78 94.6988 48.356 94.6988 47.62C94.6988 46.892 94.1068 46.484 93.5468 46.484C92.9308 46.484 92.4028 46.932 92.4028 47.62ZM97.5016 48.156V49.5H96.6776V45.764H97.5016V46.62C97.6936 45.948 98.0536 45.684 98.5256 45.684C98.7896 45.684 99.0696 45.74 99.1896 45.828L99.0536 46.588C98.8376 46.484 98.6616 46.46 98.5016 46.46C97.7976 46.46 97.5016 47.164 97.5016 48.156ZM102.691 49.5V48.956C102.459 49.364 101.939 49.58 101.427 49.58C100.419 49.58 99.5628 48.812 99.5628 47.636C99.5628 46.436 100.419 45.684 101.427 45.684C101.963 45.684 102.459 45.892 102.691 46.3V43.732H103.507V49.5H102.691ZM102.675 47.62C102.675 46.892 102.083 46.484 101.531 46.484C100.915 46.484 100.411 46.932 100.411 47.62C100.411 48.308 100.915 48.78 101.531 48.78C102.139 48.78 102.675 48.348 102.675 47.62Z" fill="#407CEE"/>
<path d="M112.952 43.988H113.768L111.064 49.5H110.248L112.952 43.988Z" fill="#6B7280"/>
<path d="M120.72 49.5V43.988H121.568V49.5H120.72ZM123.689 47.492V49.5H122.865V45.764H123.689V46.324C123.905 45.9 124.425 45.684 124.833 45.684C125.737 45.684 126.257 46.26 126.257 47.324V49.5H125.433V47.42C125.433 46.82 125.129 46.492 124.649 46.492C124.161 46.492 123.689 46.756 123.689 47.492ZM128.406 49.5L126.846 45.764H127.718L128.79 48.452L129.846 45.764H130.726L129.166 49.5H128.406ZM133.03 48.78C133.654 48.78 134.166 48.324 134.166 47.62C134.166 46.94 133.654 46.492 133.03 46.492C132.414 46.492 131.902 46.94 131.902 47.62C131.902 48.324 132.414 48.78 133.03 48.78ZM133.03 49.58C131.974 49.58 131.086 48.804 131.086 47.62C131.086 46.436 131.974 45.684 133.03 45.684C134.094 45.684 134.99 46.436 134.99 47.62C134.99 48.804 134.094 49.58 133.03 49.58ZM136.72 45.764V49.5H135.904V45.764H136.72ZM135.76 44.252C135.76 43.956 136.016 43.732 136.312 43.732C136.624 43.732 136.856 43.956 136.856 44.252C136.856 44.548 136.624 44.772 136.312 44.772C136.016 44.772 135.76 44.548 135.76 44.252ZM137.633 47.62C137.633 46.436 138.553 45.684 139.625 45.684C140.225 45.684 140.753 45.916 141.105 46.332L140.465 46.844C140.265 46.612 139.953 46.484 139.625 46.484C139.001 46.484 138.449 46.924 138.449 47.62C138.449 48.316 139.001 48.788 139.625 48.788C139.953 48.788 140.265 48.652 140.465 48.42L141.113 48.924C140.761 49.34 140.233 49.58 139.625 49.58C138.553 49.58 137.633 48.804 137.633 47.62ZM145.456 47.62C145.456 47.708 145.456 47.836 145.448 47.924H142.48C142.568 48.5 143.016 48.86 143.624 48.86C144.04 48.86 144.448 48.668 144.64 48.324L145.312 48.62C144.992 49.284 144.28 49.58 143.584 49.58C142.528 49.58 141.664 48.804 141.664 47.62C141.664 46.436 142.528 45.684 143.584 45.684C144.64 45.684 145.456 46.436 145.456 47.62ZM142.48 47.324H144.648C144.56 46.74 144.152 46.404 143.584 46.404C143.008 46.404 142.568 46.748 142.48 47.324Z" fill="#407CEE"/>
<path d="M153.952 43.988H154.768L152.064 49.5H151.248L153.952 43.988Z" fill="#6B7280"/>
<path d="M165.648 48.044L166.304 48.564C165.824 49.196 165.064 49.58 164.16 49.58C162.6 49.58 161.376 48.324 161.376 46.756C161.376 45.196 162.6 43.924 164.16 43.924C165.048 43.924 165.8 44.308 166.288 44.916L165.632 45.428C165.272 45.02 164.768 44.74 164.16 44.74C163.064 44.74 162.224 45.644 162.224 46.756C162.224 47.876 163.064 48.764 164.16 48.764C164.768 48.764 165.304 48.492 165.648 48.044ZM167.869 48.156V49.5H167.045V45.764H167.869V46.62C168.061 45.948 168.421 45.684 168.893 45.684C169.157 45.684 169.437 45.74 169.557 45.828L169.421 46.588C169.205 46.484 169.029 46.46 168.869 46.46C168.165 46.46 167.869 47.164 167.869 48.156ZM173.714 47.62C173.714 47.708 173.714 47.836 173.706 47.924H170.738C170.826 48.5 171.274 48.86 171.882 48.86C172.298 48.86 172.706 48.668 172.898 48.324L173.57 48.62C173.25 49.284 172.538 49.58 171.842 49.58C170.786 49.58 169.922 48.804 169.922 47.62C169.922 46.436 170.786 45.684 171.842 45.684C172.898 45.684 173.714 46.436 173.714 47.62ZM170.738 47.324H172.906C172.818 46.74 172.41 46.404 171.842 46.404C171.266 46.404 170.826 46.748 170.738 47.324ZM177.496 49.5V48.964C177.24 49.372 176.72 49.58 176.24 49.58C175.24 49.58 174.344 48.82 174.344 47.628C174.344 46.436 175.24 45.684 176.24 45.684C176.688 45.684 177.24 45.868 177.496 46.292V45.764H178.312V49.5H177.496ZM175.192 47.62C175.192 48.308 175.72 48.78 176.336 48.78C176.944 48.78 177.488 48.356 177.488 47.62C177.488 46.892 176.896 46.484 176.336 46.484C175.72 46.484 175.192 46.932 175.192 47.62ZM180.587 44.348V45.764H181.379V46.444H180.587V49.5H179.763V46.444H179.091V45.764H179.763V44.348H180.587ZM185.651 47.62C185.651 47.708 185.651 47.836 185.643 47.924H182.675C182.763 48.5 183.211 48.86 183.819 48.86C184.235 48.86 184.643 48.668 184.835 48.324L185.507 48.62C185.187 49.284 184.475 49.58 183.779 49.58C182.723 49.58 181.859 48.804 181.859 47.62C181.859 46.436 182.723 45.684 183.779 45.684C184.835 45.684 185.651 46.436 185.651 47.62ZM182.675 47.324H184.843C184.755 46.74 184.347 46.404 183.779 46.404C183.203 46.404 182.763 46.748 182.675 47.324ZM188.697 49.5V43.988H189.545V49.5H188.697ZM191.666 47.492V49.5H190.842V45.764H191.666V46.324C191.882 45.9 192.402 45.684 192.81 45.684C193.714 45.684 194.234 46.26 194.234 47.324V49.5H193.41V47.42C193.41 46.82 193.106 46.492 192.626 46.492C192.138 46.492 191.666 46.756 191.666 47.492ZM196.383 49.5L194.823 45.764H195.695L196.767 48.452L197.823 45.764H198.703L197.143 49.5H196.383ZM201.007 48.78C201.631 48.78 202.143 48.324 202.143 47.62C202.143 46.94 201.631 46.492 201.007 46.492C200.391 46.492 199.879 46.94 199.879 47.62C199.879 48.324 200.391 48.78 201.007 48.78ZM201.007 49.58C199.951 49.58 199.063 48.804 199.063 47.62C199.063 46.436 199.951 45.684 201.007 45.684C202.071 45.684 202.967 46.436 202.967 47.62C202.967 48.804 202.071 49.58 201.007 49.58ZM204.697 45.764V49.5H203.881V45.764H204.697ZM203.737 44.252C203.737 43.956 203.993 43.732 204.289 43.732C204.601 43.732 204.833 43.956 204.833 44.252C204.833 44.548 204.601 44.772 204.289 44.772C203.993 44.772 203.737 44.548 203.737 44.252ZM205.609 47.62C205.609 46.436 206.529 45.684 207.601 45.684C208.201 45.684 208.729 45.916 209.081 46.332L208.441 46.844C208.241 46.612 207.929 46.484 207.601 46.484C206.977 46.484 206.425 46.924 206.425 47.62C206.425 48.316 206.977 48.788 207.601 48.788C207.929 48.788 208.241 48.652 208.441 48.42L209.089 48.924C208.737 49.34 208.209 49.58 207.601 49.58C206.529 49.58 205.609 48.804 205.609 47.62ZM213.433 47.62C213.433 47.708 213.433 47.836 213.425 47.924H210.457C210.545 48.5 210.993 48.86 211.601 48.86C212.017 48.86 212.425 48.668 212.617 48.324L213.289 48.62C212.969 49.284 212.257 49.58 211.561 49.58C210.505 49.58 209.641 48.804 209.641 47.62C209.641 46.436 210.505 45.684 211.561 45.684C212.617 45.684 213.433 46.436 213.433 47.62ZM210.457 47.324H212.625C212.537 46.74 212.129 46.404 211.561 46.404C210.985 46.404 210.545 46.748 210.457 47.324Z" fill="#6B7280"/>
<path d="M68.81 87.68L69.63 88.33C69.03 89.12 68.08 89.6 66.95 89.6C65 89.6 63.47 88.03 63.47 86.07C63.47 84.12 65 82.53 66.95 82.53C68.06 82.53 69 83.01 69.61 83.77L68.79 84.41C68.34 83.9 67.71 83.55 66.95 83.55C65.58 83.55 64.53 84.68 64.53 86.07C64.53 87.47 65.58 88.58 66.95 88.58C67.71 88.58 68.38 88.24 68.81 87.68ZM73.7059 87.34V84.83H74.7359V89.5H73.7059V88.82C73.4359 89.35 72.8059 89.6 72.3159 89.6C71.1659 89.6 70.4959 88.88 70.5059 87.55V84.83H71.5359V87.43C71.5359 88.2 71.9459 88.6 72.5059 88.6C73.1059 88.6 73.7059 88.27 73.7059 87.34ZM77.8912 87.63L77.2612 87.48C76.2612 87.21 75.9012 86.72 75.9712 85.96C76.0212 85.27 76.7912 84.73 77.6412 84.73C78.4612 84.73 79.2912 85.11 79.3412 86.11H78.3612C78.3212 85.76 78.0012 85.61 77.6812 85.61C77.4112 85.61 77.1312 85.71 77.0212 85.87C76.9412 86 76.9312 86.14 76.9812 86.29C77.0512 86.48 77.3012 86.58 77.5512 86.65L78.2712 86.83C79.2712 87.07 79.4912 87.73 79.4912 88.19C79.4912 89.09 78.7012 89.6 77.6312 89.6C76.7512 89.6 75.8712 89.06 75.8412 88.07H76.7912C76.8412 88.47 77.1612 88.74 77.7112 88.74C78.1812 88.74 78.5412 88.53 78.5412 88.18C78.5412 87.87 78.2412 87.71 77.8912 87.63ZM82.0145 83.06V84.83H83.0045V85.68H82.0145V89.5H80.9845V85.68H80.1445V84.83H80.9845V83.06H82.0145ZM86.0355 88.6C86.8155 88.6 87.4555 88.03 87.4555 87.15C87.4555 86.3 86.8155 85.74 86.0355 85.74C85.2655 85.74 84.6255 86.3 84.6255 87.15C84.6255 88.03 85.2655 88.6 86.0355 88.6ZM86.0355 89.6C84.7155 89.6 83.6055 88.63 83.6055 87.15C83.6055 85.67 84.7155 84.73 86.0355 84.73C87.3655 84.73 88.4855 85.67 88.4855 87.15C88.4855 88.63 87.3655 89.6 86.0355 89.6ZM94.9482 85.74C94.2682 85.74 93.8182 86.23 93.8182 86.99V89.5H92.7882V86.88C92.7782 86.16 92.3982 85.74 91.8382 85.74C91.2382 85.74 90.6582 86.07 90.6582 86.99V89.5H89.6282V84.83H90.6582V85.53C90.9782 84.89 91.7482 84.73 92.1282 84.73C92.8782 84.73 93.3282 85.06 93.5982 85.66C94.0282 84.85 94.7482 84.73 95.1682 84.73C96.3282 84.73 96.9682 85.48 96.9682 86.81V89.5H95.9382V86.9C95.9382 86.17 95.5482 85.74 94.9482 85.74ZM102.799 87.15C102.799 87.26 102.799 87.42 102.789 87.53H99.0787C99.1887 88.25 99.7487 88.7 100.509 88.7C101.029 88.7 101.539 88.46 101.779 88.03L102.619 88.4C102.219 89.23 101.329 89.6 100.459 89.6C99.1387 89.6 98.0587 88.63 98.0587 87.15C98.0587 85.67 99.1387 84.73 100.459 84.73C101.779 84.73 102.799 85.67 102.799 87.15ZM99.0787 86.78H101.789C101.679 86.05 101.169 85.63 100.459 85.63C99.7387 85.63 99.1887 86.06 99.0787 86.78ZM104.916 87.82V89.5H103.886V84.83H104.916V85.9C105.156 85.06 105.606 84.73 106.196 84.73C106.526 84.73 106.876 84.8 107.026 84.91L106.856 85.86C106.586 85.73 106.366 85.7 106.166 85.7C105.286 85.7 104.916 86.58 104.916 87.82ZM115.375 82.61V89.5H114.385L111.425 84.57V89.5H110.365V82.61H111.385L114.315 87.5V82.61H115.375ZM120.524 89.5V88.83C120.204 89.34 119.554 89.6 118.954 89.6C117.704 89.6 116.584 88.65 116.584 87.16C116.584 85.67 117.704 84.73 118.954 84.73C119.514 84.73 120.204 84.96 120.524 85.49V84.83H121.544V89.5H120.524ZM117.644 87.15C117.644 88.01 118.304 88.6 119.074 88.6C119.834 88.6 120.514 88.07 120.514 87.15C120.514 86.24 119.774 85.73 119.074 85.73C118.304 85.73 117.644 86.29 117.644 87.15ZM128.308 85.74C127.628 85.74 127.178 86.23 127.178 86.99V89.5H126.148V86.88C126.138 86.16 125.758 85.74 125.198 85.74C124.598 85.74 124.018 86.07 124.018 86.99V89.5H122.988V84.83H124.018V85.53C124.338 84.89 125.108 84.73 125.488 84.73C126.238 84.73 126.688 85.06 126.958 85.66C127.388 84.85 128.108 84.73 128.528 84.73C129.688 84.73 130.328 85.48 130.328 86.81V89.5H129.298V86.9C129.298 86.17 128.908 85.74 128.308 85.74ZM136.158 87.15C136.158 87.26 136.158 87.42 136.148 87.53H132.438C132.548 88.25 133.108 88.7 133.868 88.7C134.388 88.7 134.898 88.46 135.138 88.03L135.978 88.4C135.578 89.23 134.688 89.6 133.818 89.6C132.498 89.6 131.418 88.63 131.418 87.15C131.418 85.67 132.498 84.73 133.818 84.73C135.138 84.73 136.158 85.67 136.158 87.15ZM132.438 86.78H135.148C135.038 86.05 134.528 85.63 133.818 85.63C133.098 85.63 132.548 86.06 132.438 86.78Z" fill="black"/>
<path d="M63.5 100.5C63.5 98.567 65.067 97 67 97H195.667C197.6 97 199.167 98.567 199.167 100.5V112.5C199.167 114.433 197.6 116 195.667 116H67C65.067 116 63.5 114.433 63.5 112.5V100.5Z" stroke="#E5E7EB"/>
<path d="M235.477 87.68L236.297 88.33C235.697 89.12 234.747 89.6 233.617 89.6C231.667 89.6 230.137 88.03 230.137 86.07C230.137 84.12 231.667 82.53 233.617 82.53C234.727 82.53 235.667 83.01 236.277 83.77L235.457 84.41C235.007 83.9 234.377 83.55 233.617 83.55C232.247 83.55 231.197 84.68 231.197 86.07C231.197 87.47 232.247 88.58 233.617 88.58C234.377 88.58 235.047 88.24 235.477 87.68ZM238.253 87.82V89.5H237.223V84.83H238.253V85.9C238.493 85.06 238.943 84.73 239.533 84.73C239.863 84.73 240.213 84.8 240.363 84.91L240.193 85.86C239.923 85.73 239.703 85.7 239.503 85.7C238.623 85.7 238.253 86.58 238.253 87.82ZM245.559 87.15C245.559 87.26 245.559 87.42 245.549 87.53H241.839C241.949 88.25 242.509 88.7 243.269 88.7C243.789 88.7 244.299 88.46 244.539 88.03L245.379 88.4C244.979 89.23 244.089 89.6 243.219 89.6C241.899 89.6 240.819 88.63 240.819 87.15C240.819 85.67 241.899 84.73 243.219 84.73C244.539 84.73 245.559 85.67 245.559 87.15ZM241.839 86.78H244.549C244.439 86.05 243.929 85.63 243.219 85.63C242.499 85.63 241.949 86.06 241.839 86.78ZM250.286 89.5V88.83C249.966 89.34 249.316 89.6 248.716 89.6C247.466 89.6 246.346 88.65 246.346 87.16C246.346 85.67 247.466 84.73 248.716 84.73C249.276 84.73 249.966 84.96 250.286 85.49V84.83H251.306V89.5H250.286ZM247.406 87.15C247.406 88.01 248.066 88.6 248.836 88.6C249.596 88.6 250.276 88.07 250.276 87.15C250.276 86.24 249.536 85.73 248.836 85.73C248.066 85.73 247.406 86.29 247.406 87.15ZM254.15 83.06V84.83H255.14V85.68H254.15V89.5H253.12V85.68H252.28V84.83H253.12V83.06H254.15ZM260.481 87.15C260.481 87.26 260.481 87.42 260.471 87.53H256.761C256.871 88.25 257.431 88.7 258.191 88.7C258.711 88.7 259.221 88.46 259.461 88.03L260.301 88.4C259.901 89.23 259.011 89.6 258.141 89.6C256.821 89.6 255.741 88.63 255.741 87.15C255.741 85.67 256.821 84.73 258.141 84.73C259.461 84.73 260.481 85.67 260.481 87.15ZM256.761 86.78H259.471C259.361 86.05 258.851 85.63 258.141 85.63C257.421 85.63 256.871 86.06 256.761 86.78ZM265.347 83.6V88.52H266.967C268.317 88.52 269.007 87.44 269.007 86.07C269.007 84.71 268.317 83.6 266.967 83.6H265.347ZM266.967 89.5H264.287V82.61H266.967C268.927 82.61 270.067 84.11 270.067 86.07C270.067 88.03 268.927 89.5 266.967 89.5ZM274.886 89.5V88.83C274.566 89.34 273.916 89.6 273.316 89.6C272.066 89.6 270.946 88.65 270.946 87.16C270.946 85.67 272.066 84.73 273.316 84.73C273.876 84.73 274.566 84.96 274.886 85.49V84.83H275.906V89.5H274.886ZM272.006 87.15C272.006 88.01 272.666 88.6 273.436 88.6C274.196 88.6 274.876 88.07 274.876 87.15C274.876 86.24 274.136 85.73 273.436 85.73C272.666 85.73 272.006 86.29 272.006 87.15ZM278.75 83.06V84.83H279.74V85.68H278.75V89.5H277.72V85.68H276.88V84.83H277.72V83.06H278.75ZM285.081 87.15C285.081 87.26 285.081 87.42 285.071 87.53H281.361C281.471 88.25 282.031 88.7 282.791 88.7C283.311 88.7 283.821 88.46 284.061 88.03L284.901 88.4C284.501 89.23 283.611 89.6 282.741 89.6C281.421 89.6 280.341 88.63 280.341 87.15C280.341 85.67 281.421 84.73 282.741 84.73C284.061 84.73 285.081 85.67 285.081 87.15ZM281.361 86.78H284.071C283.961 86.05 283.451 85.63 282.741 85.63C282.021 85.63 281.471 86.06 281.361 86.78Z" fill="black"/>
<path d="M230.167 100.5C230.167 98.567 231.734 97 233.667 97H362.333C364.266 97 365.833 98.567 365.833 100.5V112.5C365.833 114.433 364.266 116 362.333 116H233.667C231.734 116 230.167 114.433 230.167 112.5V100.5Z" stroke="#E5E7EB"/>
<g clip-path="url(#clip1_1228_1881)">
<path d="M359.25 102.333H358.833V101.917C358.833 101.806 358.789 101.7 358.711 101.622C358.633 101.544 358.527 101.5 358.417 101.5C358.306 101.5 358.2 101.544 358.122 101.622C358.044 101.7 358 101.806 358 101.917V102.333H354.667V101.917C354.667 101.806 354.623 101.7 354.545 101.622C354.466 101.544 354.36 101.5 354.25 101.5C354.139 101.5 354.033 101.544 353.955 101.622C353.877 101.7 353.833 101.806 353.833 101.917V102.333H353.417C352.864 102.334 352.335 102.554 351.944 102.944C351.554 103.335 351.334 103.864 351.333 104.417V109.417C351.334 109.969 351.554 110.499 351.944 110.889C352.335 111.28 352.864 111.499 353.417 111.5H359.25C359.802 111.499 360.332 111.28 360.722 110.889C361.113 110.499 361.333 109.969 361.333 109.417V104.417C361.333 103.864 361.113 103.335 360.722 102.944C360.332 102.554 359.802 102.334 359.25 102.333ZM352.167 104.417C352.167 104.085 352.298 103.767 352.533 103.533C352.767 103.298 353.085 103.167 353.417 103.167H359.25C359.581 103.167 359.899 103.298 360.134 103.533C360.368 103.767 360.5 104.085 360.5 104.417V104.833H352.167V104.417ZM359.25 110.667H353.417C353.085 110.667 352.767 110.535 352.533 110.301C352.298 110.066 352.167 109.748 352.167 109.417V105.667H360.5V109.417C360.5 109.748 360.368 110.066 360.134 110.301C359.899 110.535 359.581 110.667 359.25 110.667Z" fill="#9CA3AF"/>
<path d="M356.333 108.375C356.678 108.375 356.958 108.095 356.958 107.75C356.958 107.405 356.678 107.125 356.333 107.125C355.988 107.125 355.708 107.405 355.708 107.75C355.708 108.095 355.988 108.375 356.333 108.375Z" fill="#9CA3AF"/>
<path d="M354.25 108.375C354.595 108.375 354.875 108.095 354.875 107.75C354.875 107.405 354.595 107.125 354.25 107.125C353.905 107.125 353.625 107.405 353.625 107.75C353.625 108.095 353.905 108.375 354.25 108.375Z" fill="#9CA3AF"/>
<path d="M358.417 108.375C358.762 108.375 359.042 108.095 359.042 107.75C359.042 107.405 358.762 107.125 358.417 107.125C358.071 107.125 357.792 107.405 357.792 107.75C357.792 108.095 358.071 108.375 358.417 108.375Z" fill="#9CA3AF"/>
</g>
<path d="M398.293 83.6V88.52H399.913C401.263 88.52 401.953 87.44 401.953 86.07C401.953 84.71 401.263 83.6 399.913 83.6H398.293ZM399.913 89.5H397.233V82.61H399.913C401.873 82.61 403.013 84.11 403.013 86.07C403.013 88.03 401.873 89.5 399.913 89.5ZM407.342 87.34V84.83H408.372V89.5H407.342V88.82C407.072 89.35 406.442 89.6 405.952 89.6C404.802 89.6 404.132 88.88 404.142 87.55V84.83H405.172V87.43C405.172 88.2 405.582 88.6 406.142 88.6C406.742 88.6 407.342 88.27 407.342 87.34ZM414.247 87.15C414.247 87.26 414.247 87.42 414.237 87.53H410.527C410.637 88.25 411.197 88.7 411.957 88.7C412.477 88.7 412.987 88.46 413.227 88.03L414.067 88.4C413.667 89.23 412.777 89.6 411.907 89.6C410.587 89.6 409.507 88.63 409.507 87.15C409.507 85.67 410.587 84.73 411.907 84.73C413.227 84.73 414.247 85.67 414.247 87.15ZM410.527 86.78H413.237C413.127 86.05 412.617 85.63 411.907 85.63C411.187 85.63 410.637 86.06 410.527 86.78ZM419.114 83.6V88.52H420.734C422.084 88.52 422.774 87.44 422.774 86.07C422.774 84.71 422.084 83.6 420.734 83.6H419.114ZM420.734 89.5H418.054V82.61H420.734C422.694 82.61 423.834 84.11 423.834 86.07C423.834 88.03 422.694 89.5 420.734 89.5ZM428.652 89.5V88.83C428.332 89.34 427.682 89.6 427.082 89.6C425.832 89.6 424.712 88.65 424.712 87.16C424.712 85.67 425.832 84.73 427.082 84.73C427.642 84.73 428.332 84.96 428.652 85.49V84.83H429.672V89.5H428.652ZM425.772 87.15C425.772 88.01 426.432 88.6 427.202 88.6C427.962 88.6 428.642 88.07 428.642 87.15C428.642 86.24 427.902 85.73 427.202 85.73C426.432 85.73 425.772 86.29 425.772 87.15ZM432.516 83.06V84.83H433.506V85.68H432.516V89.5H431.486V85.68H430.646V84.83H431.486V83.06H432.516ZM438.847 87.15C438.847 87.26 438.847 87.42 438.837 87.53H435.127C435.237 88.25 435.797 88.7 436.557 88.7C437.077 88.7 437.587 88.46 437.827 88.03L438.667 88.4C438.267 89.23 437.377 89.6 436.507 89.6C435.187 89.6 434.107 88.63 434.107 87.15C434.107 85.67 435.187 84.73 436.507 84.73C437.827 84.73 438.847 85.67 438.847 87.15ZM435.127 86.78H437.837C437.727 86.05 437.217 85.63 436.507 85.63C435.787 85.63 435.237 86.06 435.127 86.78Z" fill="black"/>
<path d="M396.833 100.5C396.833 98.567 398.4 97 400.333 97H529C530.933 97 532.5 98.567 532.5 100.5V112.5C532.5 114.433 530.933 116 529 116H400.333C398.4 116 396.833 114.433 396.833 112.5V100.5Z" stroke="#E5E7EB"/>
<g clip-path="url(#clip2_1228_1881)">
<path d="M525.917 102.333H525.5V101.917C525.5 101.806 525.456 101.7 525.378 101.622C525.3 101.544 525.194 101.5 525.083 101.5C524.973 101.5 524.867 101.544 524.789 101.622C524.71 101.7 524.667 101.806 524.667 101.917V102.333H521.333V101.917C521.333 101.806 521.289 101.7 521.211 101.622C521.133 101.544 521.027 101.5 520.917 101.5C520.806 101.5 520.7 101.544 520.622 101.622C520.544 101.7 520.5 101.806 520.5 101.917V102.333H520.083C519.531 102.334 519.001 102.554 518.611 102.944C518.22 103.335 518.001 103.864 518 104.417V109.417C518.001 109.969 518.22 110.499 518.611 110.889C519.001 111.28 519.531 111.499 520.083 111.5H525.917C526.469 111.499 526.998 111.28 527.389 110.889C527.78 110.499 527.999 109.969 528 109.417V104.417C527.999 103.864 527.78 103.335 527.389 102.944C526.998 102.554 526.469 102.334 525.917 102.333ZM518.833 104.417C518.833 104.085 518.965 103.767 519.199 103.533C519.434 103.298 519.752 103.167 520.083 103.167H525.917C526.248 103.167 526.566 103.298 526.8 103.533C527.035 103.767 527.167 104.085 527.167 104.417V104.833H518.833V104.417ZM525.917 110.667H520.083C519.752 110.667 519.434 110.535 519.199 110.301C518.965 110.066 518.833 109.748 518.833 109.417V105.667H527.167V109.417C527.167 109.748 527.035 110.066 526.8 110.301C526.566 110.535 526.248 110.667 525.917 110.667Z" fill="#9CA3AF"/>
<path d="M523 108.375C523.345 108.375 523.625 108.095 523.625 107.75C523.625 107.405 523.345 107.125 523 107.125C522.655 107.125 522.375 107.405 522.375 107.75C522.375 108.095 522.655 108.375 523 108.375Z" fill="#9CA3AF"/>
<path d="M520.917 108.375C521.262 108.375 521.542 108.095 521.542 107.75C521.542 107.405 521.262 107.125 520.917 107.125C520.571 107.125 520.292 107.405 520.292 107.75C520.292 108.095 520.571 108.375 520.917 108.375Z" fill="#9CA3AF"/>
<path d="M525.083 108.375C525.428 108.375 525.708 108.095 525.708 107.75C525.708 107.405 525.428 107.125 525.083 107.125C524.738 107.125 524.458 107.405 524.458 107.75C524.458 108.095 524.738 108.375 525.083 108.375Z" fill="#9CA3AF"/>
</g>
<path d="M68.81 142.68L69.63 143.33C69.03 144.12 68.08 144.6 66.95 144.6C65 144.6 63.47 143.03 63.47 141.07C63.47 139.12 65 137.53 66.95 137.53C68.06 137.53 69 138.01 69.61 138.77L68.79 139.41C68.34 138.9 67.71 138.55 66.95 138.55C65.58 138.55 64.53 139.68 64.53 141.07C64.53 142.47 65.58 143.58 66.95 143.58C67.71 143.58 68.38 143.24 68.81 142.68ZM73.7059 142.34V139.83H74.7359V144.5H73.7059V143.82C73.4359 144.35 72.8059 144.6 72.3159 144.6C71.1659 144.6 70.4959 143.88 70.5059 142.55V139.83H71.5359V142.43C71.5359 143.2 71.9459 143.6 72.5059 143.6C73.1059 143.6 73.7059 143.27 73.7059 142.34ZM77.8912 142.63L77.2612 142.48C76.2612 142.21 75.9012 141.72 75.9712 140.96C76.0212 140.27 76.7912 139.73 77.6412 139.73C78.4612 139.73 79.2912 140.11 79.3412 141.11H78.3612C78.3212 140.76 78.0012 140.61 77.6812 140.61C77.4112 140.61 77.1312 140.71 77.0212 140.87C76.9412 141 76.9312 141.14 76.9812 141.29C77.0512 141.48 77.3012 141.58 77.5512 141.65L78.2712 141.83C79.2712 142.07 79.4912 142.73 79.4912 143.19C79.4912 144.09 78.7012 144.6 77.6312 144.6C76.7512 144.6 75.8712 144.06 75.8412 143.07H76.7912C76.8412 143.47 77.1612 143.74 77.7112 143.74C78.1812 143.74 78.5412 143.53 78.5412 143.18C78.5412 142.87 78.2412 142.71 77.8912 142.63ZM82.0145 138.06V139.83H83.0045V140.68H82.0145V144.5H80.9845V140.68H80.1445V139.83H80.9845V138.06H82.0145ZM86.0355 143.6C86.8155 143.6 87.4555 143.03 87.4555 142.15C87.4555 141.3 86.8155 140.74 86.0355 140.74C85.2655 140.74 84.6255 141.3 84.6255 142.15C84.6255 143.03 85.2655 143.6 86.0355 143.6ZM86.0355 144.6C84.7155 144.6 83.6055 143.63 83.6055 142.15C83.6055 140.67 84.7155 139.73 86.0355 139.73C87.3655 139.73 88.4855 140.67 88.4855 142.15C88.4855 143.63 87.3655 144.6 86.0355 144.6ZM94.9482 140.74C94.2682 140.74 93.8182 141.23 93.8182 141.99V144.5H92.7882V141.88C92.7782 141.16 92.3982 140.74 91.8382 140.74C91.2382 140.74 90.6582 141.07 90.6582 141.99V144.5H89.6282V139.83H90.6582V140.53C90.9782 139.89 91.7482 139.73 92.1282 139.73C92.8782 139.73 93.3282 140.06 93.5982 140.66C94.0282 139.85 94.7482 139.73 95.1682 139.73C96.3282 139.73 96.9682 140.48 96.9682 141.81V144.5H95.9382V141.9C95.9382 141.17 95.5482 140.74 94.9482 140.74ZM102.799 142.15C102.799 142.26 102.799 142.42 102.789 142.53H99.0787C99.1887 143.25 99.7487 143.7 100.509 143.7C101.029 143.7 101.539 143.46 101.779 143.03L102.619 143.4C102.219 144.23 101.329 144.6 100.459 144.6C99.1387 144.6 98.0587 143.63 98.0587 142.15C98.0587 140.67 99.1387 139.73 100.459 139.73C101.779 139.73 102.799 140.67 102.799 142.15ZM99.0787 141.78H101.789C101.679 141.05 101.169 140.63 100.459 140.63C99.7387 140.63 99.1887 141.06 99.0787 141.78ZM104.916 142.82V144.5H103.886V139.83H104.916V140.9C105.156 140.06 105.606 139.73 106.196 139.73C106.526 139.73 106.876 139.8 107.026 139.91L106.856 140.86C106.586 140.73 106.366 140.7 106.166 140.7C105.286 140.7 104.916 141.58 104.916 142.82ZM111.425 138.6V143.52H113.045C114.395 143.52 115.085 142.44 115.085 141.07C115.085 139.71 114.395 138.6 113.045 138.6H111.425ZM113.045 144.5H110.365V137.61H113.045C115.005 137.61 116.145 139.11 116.145 141.07C116.145 143.03 115.005 144.5 113.045 144.5ZM121.764 142.15C121.764 142.26 121.764 142.42 121.754 142.53H118.044C118.154 143.25 118.714 143.7 119.474 143.7C119.994 143.7 120.504 143.46 120.744 143.03L121.584 143.4C121.184 144.23 120.294 144.6 119.424 144.6C118.104 144.6 117.024 143.63 117.024 142.15C117.024 140.67 118.104 139.73 119.424 139.73C120.744 139.73 121.764 140.67 121.764 142.15ZM118.044 141.78H120.754C120.644 141.05 120.134 140.63 119.424 140.63C118.704 140.63 118.154 141.06 118.044 141.78ZM124.251 138.06V139.83H125.241V140.68H124.251V144.5H123.221V140.68H122.381V139.83H123.221V138.06H124.251ZM129.782 144.5V143.83C129.462 144.34 128.812 144.6 128.212 144.6C126.962 144.6 125.842 143.65 125.842 142.16C125.842 140.67 126.962 139.73 128.212 139.73C128.772 139.73 129.462 139.96 129.782 140.49V139.83H130.802V144.5H129.782ZM126.902 142.15C126.902 143.01 127.562 143.6 128.332 143.6C129.092 143.6 129.772 143.07 129.772 142.15C129.772 141.24 129.032 140.73 128.332 140.73C127.562 140.73 126.902 141.29 126.902 142.15ZM133.265 139.83V144.5H132.245V139.83H133.265ZM132.065 137.94C132.065 137.57 132.385 137.29 132.755 137.29C133.145 137.29 133.435 137.57 133.435 137.94C133.435 138.31 133.145 138.59 132.755 138.59C132.385 138.59 132.065 138.31 132.065 137.94ZM134.706 144.5V137.29H135.736V144.5H134.706ZM138.897 142.63L138.267 142.48C137.267 142.21 136.907 141.72 136.977 140.96C137.027 140.27 137.797 139.73 138.647 139.73C139.467 139.73 140.297 140.11 140.347 141.11H139.367C139.327 140.76 139.007 140.61 138.687 140.61C138.417 140.61 138.137 140.71 138.027 140.87C137.947 141 137.937 141.14 137.987 141.29C138.057 141.48 138.307 141.58 138.557 141.65L139.277 141.83C140.277 142.07 140.497 142.73 140.497 143.19C140.497 144.09 139.707 144.6 138.637 144.6C137.757 144.6 136.877 144.06 136.847 143.07H137.797C137.847 143.47 138.167 143.74 138.717 143.74C139.187 143.74 139.547 143.53 139.547 143.18C139.547 142.87 139.247 142.71 138.897 142.63Z" fill="black"/>
<path d="M63.5 155.5C63.5 153.567 65.067 152 67 152H279C280.933 152 282.5 153.567 282.5 155.5V197.5C282.5 199.433 280.933 201 279 201H67C65.067 201 63.5 199.433 63.5 197.5V155.5Z" stroke="#E5E7EB"/>
<path d="M318.45 139.43C318.45 139.97 318.23 140.56 317.56 140.83C318.36 141.02 318.82 141.82 318.82 142.48C318.82 143.57 318.06 144.5 316.75 144.5H313.9V137.61H316.54C317.71 137.61 318.45 138.3 318.45 139.43ZM314.97 140.44H316.5C317.06 140.44 317.35 139.99 317.35 139.47C317.35 138.91 317 138.58 316.43 138.58H314.97V140.44ZM316.67 141.35H314.97V143.53H316.7C317.34 143.53 317.71 143 317.71 142.47C317.71 141.96 317.33 141.35 316.67 141.35ZM321.029 139.83V144.5H320.009V139.83H321.029ZM319.829 137.94C319.829 137.57 320.149 137.29 320.519 137.29C320.909 137.29 321.199 137.57 321.199 137.94C321.199 138.31 320.909 138.59 320.519 138.59C320.149 138.59 319.829 138.31 319.829 137.94ZM322.47 144.5V137.29H323.5V144.5H322.47ZM324.941 144.5V137.29H325.971V144.5H324.941ZM328.431 139.83V144.5H327.411V139.83H328.431ZM327.231 137.94C327.231 137.57 327.551 137.29 327.921 137.29C328.311 137.29 328.601 137.57 328.601 137.94C328.601 138.31 328.311 138.59 327.921 138.59C327.551 138.59 327.231 138.31 327.231 137.94ZM330.902 141.99V144.5H329.872V139.83H330.902V140.53C331.172 140 331.822 139.73 332.332 139.73C333.462 139.73 334.112 140.45 334.112 141.78V144.5H333.082V141.9C333.082 141.15 332.702 140.74 332.102 140.74C331.492 140.74 330.902 141.07 330.902 141.99ZM339.137 142.17C339.137 141.24 338.467 140.73 337.697 140.73C336.917 140.73 336.277 141.32 336.277 142.17C336.277 143.05 336.917 143.61 337.697 143.61C338.397 143.61 339.137 143.09 339.137 142.17ZM336.287 145.09C336.537 145.58 337.087 145.87 337.597 145.87C338.547 145.87 339.157 145.34 339.157 144.03V143.79C338.897 144.32 338.207 144.6 337.577 144.6C336.317 144.6 335.217 143.66 335.217 142.18C335.217 140.7 336.317 139.73 337.577 139.73C338.217 139.73 338.867 140.01 339.157 140.52V139.83H340.167V143.81C340.167 145.96 339.167 146.83 337.597 146.83C336.687 146.83 335.877 146.36 335.437 145.52C335.627 145.44 336.097 145.17 336.287 145.09ZM345.39 138.6V143.52H347.01C348.36 143.52 349.05 142.44 349.05 141.07C349.05 139.71 348.36 138.6 347.01 138.6H345.39ZM347.01 144.5H344.33V137.61H347.01C348.97 137.61 350.11 139.11 350.11 141.07C350.11 143.03 348.97 144.5 347.01 144.5ZM355.728 142.15C355.728 142.26 355.728 142.42 355.718 142.53H352.008C352.118 143.25 352.678 143.7 353.438 143.7C353.958 143.7 354.468 143.46 354.708 143.03L355.548 143.4C355.148 144.23 354.258 144.6 353.388 144.6C352.068 144.6 350.988 143.63 350.988 142.15C350.988 140.67 352.068 139.73 353.388 139.73C354.708 139.73 355.728 140.67 355.728 142.15ZM352.008 141.78H354.718C354.608 141.05 354.098 140.63 353.388 140.63C352.668 140.63 352.118 141.06 352.008 141.78ZM358.216 138.06V139.83H359.206V140.68H358.216V144.5H357.186V140.68H356.346V139.83H357.186V138.06H358.216ZM363.747 144.5V143.83C363.427 144.34 362.777 144.6 362.177 144.6C360.927 144.6 359.807 143.65 359.807 142.16C359.807 140.67 360.927 139.73 362.177 139.73C362.737 139.73 363.427 139.96 363.747 140.49V139.83H364.767V144.5H363.747ZM360.867 142.15C360.867 143.01 361.527 143.6 362.297 143.6C363.057 143.6 363.737 143.07 363.737 142.15C363.737 141.24 362.997 140.73 362.297 140.73C361.527 140.73 360.867 141.29 360.867 142.15ZM367.23 139.83V144.5H366.21V139.83H367.23ZM366.03 137.94C366.03 137.57 366.35 137.29 366.72 137.29C367.11 137.29 367.4 137.57 367.4 137.94C367.4 138.31 367.11 138.59 366.72 138.59C366.35 138.59 366.03 138.31 366.03 137.94ZM368.671 144.5V137.29H369.701V144.5H368.671ZM372.862 142.63L372.232 142.48C371.232 142.21 370.872 141.72 370.942 140.96C370.992 140.27 371.762 139.73 372.612 139.73C373.432 139.73 374.262 140.11 374.312 141.11H373.332C373.292 140.76 372.972 140.61 372.652 140.61C372.382 140.61 372.102 140.71 371.992 140.87C371.912 141 371.902 141.14 371.952 141.29C372.022 141.48 372.272 141.58 372.522 141.65L373.242 141.83C374.242 142.07 374.462 142.73 374.462 143.19C374.462 144.09 373.672 144.6 372.602 144.6C371.722 144.6 370.842 144.06 370.812 143.07H371.762C371.812 143.47 372.132 143.74 372.682 143.74C373.152 143.74 373.512 143.53 373.512 143.18C373.512 142.87 373.212 142.71 372.862 142.63Z" fill="black"/>
<path d="M313.5 155.5C313.5 153.567 315.067 152 317 152H529C530.933 152 532.5 153.567 532.5 155.5V197.5C532.5 199.433 530.933 201 529 201H317C315.067 201 313.5 199.433 313.5 197.5V155.5Z" stroke="#E5E7EB"/>
<path d="M63.9 229.5V222.61H64.96V229.5H63.9ZM67.9325 223.06V224.83H68.9225V225.68H67.9325V229.5H66.9025V225.68H66.0625V224.83H66.9025V223.06H67.9325ZM74.2635 227.15C74.2635 227.26 74.2635 227.42 74.2535 227.53H70.5435C70.6535 228.25 71.2135 228.7 71.9735 228.7C72.4935 228.7 73.0035 228.46 73.2435 228.03L74.0835 228.4C73.6835 229.23 72.7935 229.6 71.9235 229.6C70.6035 229.6 69.5235 228.63 69.5235 227.15C69.5235 225.67 70.6035 224.73 71.9235 224.73C73.2435 224.73 74.2635 225.67 74.2635 227.15ZM70.5435 226.78H73.2535C73.1435 226.05 72.6335 225.63 71.9235 225.63C71.2035 225.63 70.6535 226.06 70.5435 226.78ZM80.6709 225.74C79.9909 225.74 79.5409 226.23 79.5409 226.99V229.5H78.5109V226.88C78.5009 226.16 78.1209 225.74 77.5609 225.74C76.9609 225.74 76.3809 226.07 76.3809 226.99V229.5H75.3509V224.83H76.3809V225.53C76.7009 224.89 77.4709 224.73 77.8509 224.73C78.6009 224.73 79.0509 225.06 79.3209 225.66C79.7509 224.85 80.4709 224.73 80.8909 224.73C82.0509 224.73 82.6909 225.48 82.6909 226.81V229.5H81.6609V226.9C81.6609 226.17 81.2709 225.74 80.6709 225.74ZM87.8604 223.6V228.52H89.4804C90.8304 228.52 91.5204 227.44 91.5204 226.07C91.5204 224.71 90.8304 223.6 89.4804 223.6H87.8604ZM89.4804 229.5H86.8004V222.61H89.4804C91.4404 222.61 92.5804 224.11 92.5804 226.07C92.5804 228.03 91.4404 229.5 89.4804 229.5ZM98.1991 227.15C98.1991 227.26 98.1991 227.42 98.1891 227.53H94.4791C94.5891 228.25 95.1491 228.7 95.9091 228.7C96.4291 228.7 96.9391 228.46 97.1791 228.03L98.0191 228.4C97.6191 229.23 96.7291 229.6 95.8591 229.6C94.5391 229.6 93.4591 228.63 93.4591 227.15C93.4591 225.67 94.5391 224.73 95.8591 224.73C97.1791 224.73 98.1991 225.67 98.1991 227.15ZM94.4791 226.78H97.1891C97.0791 226.05 96.5691 225.63 95.8591 225.63C95.1391 225.63 94.5891 226.06 94.4791 226.78ZM100.686 223.06V224.83H101.676V225.68H100.686V229.5H99.6564V225.68H98.8164V224.83H99.6564V223.06H100.686ZM106.217 229.5V228.83C105.897 229.34 105.247 229.6 104.647 229.6C103.397 229.6 102.277 228.65 102.277 227.16C102.277 225.67 103.397 224.73 104.647 224.73C105.207 224.73 105.897 224.96 106.217 225.49V224.83H107.237V229.5H106.217ZM103.337 227.15C103.337 228.01 103.997 228.6 104.767 228.6C105.527 228.6 106.207 228.07 106.207 227.15C106.207 226.24 105.467 225.73 104.767 225.73C103.997 225.73 103.337 226.29 103.337 227.15ZM109.701 224.83V229.5H108.681V224.83H109.701ZM108.501 222.94C108.501 222.57 108.821 222.29 109.191 222.29C109.581 222.29 109.871 222.57 109.871 222.94C109.871 223.31 109.581 223.59 109.191 223.59C108.821 223.59 108.501 223.31 108.501 222.94ZM111.142 229.5V222.29H112.172V229.5H111.142ZM115.333 227.63L114.703 227.48C113.703 227.21 113.343 226.72 113.413 225.96C113.463 225.27 114.233 224.73 115.083 224.73C115.903 224.73 116.733 225.11 116.783 226.11H115.803C115.763 225.76 115.443 225.61 115.123 225.61C114.853 225.61 114.573 225.71 114.463 225.87C114.383 226 114.373 226.14 114.423 226.29C114.493 226.48 114.743 226.58 114.993 226.65L115.713 226.83C116.713 227.07 116.933 227.73 116.933 228.19C116.933 229.09 116.143 229.6 115.073 229.6C114.193 229.6 113.313 229.06 113.283 228.07H114.233C114.283 228.47 114.603 228.74 115.153 228.74C115.623 228.74 115.983 228.53 115.983 228.18C115.983 227.87 115.683 227.71 115.333 227.63Z" fill="black"/>
<rect width="470" height="22" transform="translate(63 246.5)" fill="#F3F4F6"/>
<path d="M71.65 254.59H69.97V257H71.61C72.37 257 72.71 256.39 72.71 255.8C72.71 255.22 72.4 254.59 71.65 254.59ZM68.9 260.5V253.61H71.67C73.15 253.61 73.77 254.71 73.77 255.8C73.77 256.89 73.15 257.97 71.67 257.97H69.97V260.5H68.9ZM75.7656 258.82V260.5H74.7356V255.83H75.7656V256.9C76.0056 256.06 76.4556 255.73 77.0456 255.73C77.3756 255.73 77.7256 255.8 77.8756 255.91L77.7056 256.86C77.4356 256.73 77.2156 256.7 77.0156 256.7C76.1356 256.7 75.7656 257.58 75.7656 258.82ZM80.7621 259.6C81.5421 259.6 82.1821 259.03 82.1821 258.15C82.1821 257.3 81.5421 256.74 80.7621 256.74C79.9921 256.74 79.3521 257.3 79.3521 258.15C79.3521 259.03 79.9921 259.6 80.7621 259.6ZM80.7621 260.6C79.4421 260.6 78.3321 259.63 78.3321 258.15C78.3321 256.67 79.4421 255.73 80.7621 255.73C82.0921 255.73 83.2121 256.67 83.2121 258.15C83.2121 259.63 82.0921 260.6 80.7621 260.6ZM87.9748 260.5V259.82C87.6848 260.33 87.0348 260.6 86.3948 260.6C85.1348 260.6 84.0648 259.64 84.0648 258.17C84.0648 256.67 85.1348 255.73 86.3948 255.73C87.0648 255.73 87.6848 255.99 87.9748 256.5V253.29H88.9948V260.5H87.9748ZM87.9548 258.15C87.9548 257.24 87.2148 256.73 86.5248 256.73C85.7548 256.73 85.1248 257.29 85.1248 258.15C85.1248 259.01 85.7548 259.6 86.5248 259.6C87.2848 259.6 87.9548 259.06 87.9548 258.15ZM93.5888 258.34V255.83H94.6188V260.5H93.5888V259.82C93.3188 260.35 92.6888 260.6 92.1988 260.6C91.0488 260.6 90.3787 259.88 90.3888 258.55V255.83H91.4188V258.43C91.4188 259.2 91.8288 259.6 92.3888 259.6C92.9888 259.6 93.5888 259.27 93.5888 258.34ZM95.754 258.15C95.754 256.67 96.904 255.73 98.244 255.73C98.994 255.73 99.654 256.02 100.094 256.54L99.294 257.18C99.044 256.89 98.654 256.73 98.244 256.73C97.464 256.73 96.774 257.28 96.774 258.15C96.774 259.02 97.464 259.61 98.244 259.61C98.654 259.61 99.044 259.44 99.294 259.15L100.104 259.78C99.664 260.3 99.004 260.6 98.244 260.6C96.904 260.6 95.754 259.63 95.754 258.15ZM102.591 254.06V255.83H103.581V256.68H102.591V260.5H101.561V256.68H100.721V255.83H101.561V254.06H102.591ZM107.52 253.61H108.54L105.16 260.5H104.14L107.52 253.61ZM109.35 258.5H110.41C110.44 259.06 110.95 259.63 111.78 259.63C112.59 259.63 113.01 259.2 113.08 258.69C113.12 258.05 112.63 257.72 111.99 257.57L111.12 257.35C109.64 256.95 109.41 256.11 109.41 255.5C109.41 254.32 110.47 253.53 111.68 253.53C112.96 253.53 113.92 254.31 113.92 255.57H112.86C112.86 254.93 112.38 254.53 111.66 254.53C111.02 254.53 110.47 254.92 110.47 255.48C110.47 255.75 110.57 256.17 111.39 256.38L112.27 256.61C113.67 256.98 114.24 257.75 114.13 258.75C114.02 259.83 113.09 260.6 111.78 260.6C110.35 260.6 109.35 259.62 109.35 258.5ZM119.752 258.15C119.752 258.26 119.752 258.42 119.742 258.53H116.032C116.142 259.25 116.702 259.7 117.462 259.7C117.982 259.7 118.492 259.46 118.732 259.03L119.572 259.4C119.172 260.23 118.282 260.6 117.412 260.6C116.092 260.6 115.012 259.63 115.012 258.15C115.012 256.67 116.092 255.73 117.412 255.73C118.732 255.73 119.752 256.67 119.752 258.15ZM116.032 257.78H118.742C118.632 257.05 118.122 256.63 117.412 256.63C116.692 256.63 116.142 257.06 116.032 257.78ZM121.869 258.82V260.5H120.839V255.83H121.869V256.9C122.109 256.06 122.559 255.73 123.149 255.73C123.479 255.73 123.829 255.8 123.979 255.91L123.809 256.86C123.539 256.73 123.319 256.7 123.119 256.7C122.239 256.7 121.869 257.58 121.869 258.82ZM126.193 260.5L124.243 255.83H125.333L126.673 259.19L127.993 255.83H129.093L127.143 260.5H126.193ZM130.961 255.83V260.5H129.941V255.83H130.961ZM129.761 253.94C129.761 253.57 130.081 253.29 130.451 253.29C130.841 253.29 131.131 253.57 131.131 253.94C131.131 254.31 130.841 254.59 130.451 254.59C130.081 254.59 129.761 254.31 129.761 253.94ZM132.102 258.15C132.102 256.67 133.252 255.73 134.592 255.73C135.342 255.73 136.002 256.02 136.442 256.54L135.642 257.18C135.392 256.89 135.002 256.73 134.592 256.73C133.812 256.73 133.122 257.28 133.122 258.15C133.122 259.02 133.812 259.61 134.592 259.61C135.002 259.61 135.392 259.44 135.642 259.15L136.452 259.78C136.012 260.3 135.352 260.6 134.592 260.6C133.252 260.6 132.102 259.63 132.102 258.15ZM141.881 258.15C141.881 258.26 141.881 258.42 141.871 258.53H138.161C138.271 259.25 138.831 259.7 139.591 259.7C140.111 259.7 140.621 259.46 140.861 259.03L141.701 259.4C141.301 260.23 140.411 260.6 139.541 260.6C138.221 260.6 137.141 259.63 137.141 258.15C137.141 256.67 138.221 255.73 139.541 255.73C140.861 255.73 141.881 256.67 141.881 258.15ZM138.161 257.78H140.871C140.761 257.05 140.251 256.63 139.541 256.63C138.821 256.63 138.271 257.06 138.161 257.78ZM144.688 258.63L144.058 258.48C143.058 258.21 142.698 257.72 142.768 256.96C142.818 256.27 143.588 255.73 144.438 255.73C145.258 255.73 146.088 256.11 146.138 257.11H145.158C145.118 256.76 144.798 256.61 144.478 256.61C144.208 256.61 143.928 256.71 143.818 256.87C143.738 257 143.728 257.14 143.778 257.29C143.848 257.48 144.098 257.58 144.348 257.65L145.068 257.83C146.068 258.07 146.288 258.73 146.288 259.19C146.288 260.09 145.498 260.6 144.428 260.6C143.548 260.6 142.668 260.06 142.638 259.07H143.588C143.638 259.47 143.958 259.74 144.508 259.74C144.978 259.74 145.338 259.53 145.338 259.18C145.338 258.87 145.038 258.71 144.688 258.63Z" fill="black"/>
<path d="M318.87 260.04L319.57 261.17L318.77 261.66L318.01 260.44C317.69 260.55 317.34 260.6 316.96 260.6C315 260.6 313.47 259.03 313.47 257.07C313.47 255.12 315 253.53 316.96 253.53C318.93 253.53 320.47 255.12 320.47 257.07C320.47 258.32 319.84 259.4 318.87 260.04ZM317.56 257.94L318.31 259.15C318.99 258.71 319.4 257.95 319.4 257.07C319.4 255.68 318.35 254.55 316.96 254.55C315.59 254.55 314.53 255.68 314.53 257.07C314.53 258.38 315.46 259.42 316.72 259.53C316.95 259.56 317.19 259.55 317.43 259.51L316.77 258.43L317.56 257.94ZM323.059 254.06V255.83H324.049V256.68H323.059V260.5H322.029V256.68H321.189V255.83H322.029V254.06H323.059ZM329.239 255.83L326.349 262.78H325.269L326.279 260.28L324.429 255.83H325.529L326.829 259.03L328.139 255.83H329.239Z" fill="black"/>
<path d="M394.723 259.58C395.513 259.58 396.203 259 396.203 258.11V253.61H397.273V258.11C397.273 259.63 396.093 260.6 394.723 260.6C393.333 260.6 392.163 259.63 392.163 258.11V253.61H393.243V258.11C393.243 259 393.933 259.58 394.723 259.58ZM399.783 257.99V260.5H398.753V255.83H399.783V256.53C400.053 256 400.703 255.73 401.213 255.73C402.343 255.73 402.993 256.45 402.993 257.78V260.5H401.963V257.9C401.963 257.15 401.583 256.74 400.983 256.74C400.373 256.74 399.783 257.07 399.783 257.99ZM405.407 255.83V260.5H404.387V255.83H405.407ZM404.207 253.94C404.207 253.57 404.527 253.29 404.897 253.29C405.287 253.29 405.577 253.57 405.577 253.94C405.577 254.31 405.287 254.59 404.897 254.59C404.527 254.59 404.207 254.31 404.207 253.94ZM408.248 254.06V255.83H409.238V256.68H408.248V260.5H407.218V256.68H406.378V255.83H407.218V254.06H408.248ZM415.481 254.59H413.801V257H415.441C416.201 257 416.541 256.39 416.541 255.8C416.541 255.22 416.231 254.59 415.481 254.59ZM412.731 260.5V253.61H415.501C416.981 253.61 417.601 254.71 417.601 255.8C417.601 256.89 416.981 257.97 415.501 257.97H413.801V260.5H412.731ZM419.597 258.82V260.5H418.567V255.83H419.597V256.9C419.837 256.06 420.287 255.73 420.877 255.73C421.207 255.73 421.557 255.8 421.707 255.91L421.537 256.86C421.267 256.73 421.047 256.7 420.847 256.7C419.967 256.7 419.597 257.58 419.597 258.82ZM423.581 255.83V260.5H422.561V255.83H423.581ZM422.381 253.94C422.381 253.57 422.701 253.29 423.071 253.29C423.461 253.29 423.751 253.57 423.751 253.94C423.751 254.31 423.461 254.59 423.071 254.59C422.701 254.59 422.381 254.31 422.381 253.94ZM424.722 258.15C424.722 256.67 425.872 255.73 427.212 255.73C427.962 255.73 428.622 256.02 429.062 256.54L428.262 257.18C428.012 256.89 427.622 256.73 427.212 256.73C426.432 256.73 425.742 257.28 425.742 258.15C425.742 259.02 426.432 259.61 427.212 259.61C427.622 259.61 428.012 259.44 428.262 259.15L429.072 259.78C428.632 260.3 427.972 260.6 427.212 260.6C425.872 260.6 424.722 259.63 424.722 258.15ZM434.501 258.15C434.501 258.26 434.501 258.42 434.491 258.53H430.781C430.891 259.25 431.451 259.7 432.211 259.7C432.731 259.7 433.241 259.46 433.481 259.03L434.321 259.4C433.921 260.23 433.031 260.6 432.161 260.6C430.841 260.6 429.761 259.63 429.761 258.15C429.761 256.67 430.841 255.73 432.161 255.73C433.481 255.73 434.501 256.67 434.501 258.15ZM430.781 257.78H433.491C433.381 257.05 432.871 256.63 432.161 256.63C431.441 256.63 430.891 257.06 430.781 257.78Z" fill="black"/>
<path d="M474.957 260.5L474.297 258.78H471.517L470.857 260.5H469.727L472.327 253.61H473.477L476.077 260.5H474.957ZM472.907 254.94L471.877 257.83H473.937L472.907 254.94ZM482.181 256.74C481.501 256.74 481.051 257.23 481.051 257.99V260.5H480.021V257.88C480.011 257.16 479.631 256.74 479.071 256.74C478.471 256.74 477.891 257.07 477.891 257.99V260.5H476.861V255.83H477.891V256.53C478.211 255.89 478.981 255.73 479.361 255.73C480.111 255.73 480.561 256.06 480.831 256.66C481.261 255.85 481.981 255.73 482.401 255.73C483.561 255.73 484.201 256.48 484.201 257.81V260.5H483.171V257.9C483.171 257.17 482.781 256.74 482.181 256.74ZM487.722 259.6C488.502 259.6 489.142 259.03 489.142 258.15C489.142 257.3 488.502 256.74 487.722 256.74C486.952 256.74 486.312 257.3 486.312 258.15C486.312 259.03 486.952 259.6 487.722 259.6ZM487.722 260.6C486.402 260.6 485.292 259.63 485.292 258.15C485.292 256.67 486.402 255.73 487.722 255.73C489.052 255.73 490.172 256.67 490.172 258.15C490.172 259.63 489.052 260.6 487.722 260.6ZM494.464 258.34V255.83H495.494V260.5H494.464V259.82C494.194 260.35 493.564 260.6 493.074 260.6C491.924 260.6 491.254 259.88 491.264 258.55V255.83H492.294V258.43C492.294 259.2 492.704 259.6 493.264 259.6C493.864 259.6 494.464 259.27 494.464 258.34ZM497.96 257.99V260.5H496.93V255.83H497.96V256.53C498.23 256 498.88 255.73 499.39 255.73C500.52 255.73 501.17 256.45 501.17 257.78V260.5H500.14V257.9C500.14 257.15 499.76 256.74 499.16 256.74C498.55 256.74 497.96 257.07 497.96 257.99ZM503.964 254.06V255.83H504.954V256.68H503.964V260.5H502.934V256.68H502.094V255.83H502.934V254.06H503.964Z" fill="black"/>
<path d="M63.5 282.5C63.5 280.567 65.067 279 67 279H284C285.933 279 287.5 280.567 287.5 282.5V294.5C287.5 296.433 285.933 298 284 298H67C65.067 298 63.5 296.433 63.5 294.5V282.5Z" stroke="#E5E7EB"/>
<path d="M63.5 312.5C63.5 310.567 65.067 309 67 309H284C285.933 309 287.5 310.567 287.5 312.5V334.5C287.5 336.433 285.933 338 284 338H67C65.067 338 63.5 336.433 63.5 334.5V312.5Z" stroke="#E5E7EB"/>
<path d="M318.5 282.5C318.5 280.567 320.067 279 322 279H372.333C374.266 279 375.833 280.567 375.833 282.5V294.5C375.833 296.433 374.266 298 372.333 298H322C320.067 298 318.5 296.433 318.5 294.5V282.5Z" stroke="#E5E7EB"/>
<path d="M396.833 282.5C396.833 280.567 398.4 279 400.333 279H450.667C452.6 279 454.167 280.567 454.167 282.5V294.5C454.167 296.433 452.6 298 450.667 298H400.333C398.4 298 396.833 296.433 396.833 294.5V282.5Z" stroke="#E5E7EB"/>
<path d="M475.167 282.5C475.167 280.567 476.734 279 478.667 279H529C530.933 279 532.5 280.567 532.5 282.5V294.5C532.5 296.433 530.933 298 529 298H478.667C476.734 298 475.167 296.433 475.167 294.5V282.5Z" stroke="#E5E7EB"/>
<path d="M63.5 352.5C63.5 350.567 65.067 349 67 349H177C178.933 349 180.5 350.567 180.5 352.5V370.5C180.5 372.433 178.933 374 177 374H67C65.067 374 63.5 372.433 63.5 370.5V352.5Z" fill="#E8F0FD"/>
<path d="M63.5 352.5C63.5 350.567 65.067 349 67 349H177C178.933 349 180.5 350.567 180.5 352.5V370.5C180.5 372.433 178.933 374 177 374H67C65.067 374 63.5 372.433 63.5 370.5V352.5Z" stroke="#407CEE"/>
<path d="M88.29 364.5L87.63 362.78H84.85L84.19 364.5H83.06L85.66 357.61H86.81L89.41 364.5H88.29ZM86.24 358.94L85.21 361.83H87.27L86.24 358.94ZM93.7463 364.5V363.82C93.4563 364.33 92.8063 364.6 92.1663 364.6C90.9063 364.6 89.8363 363.64 89.8363 362.17C89.8363 360.67 90.9063 359.73 92.1663 359.73C92.8363 359.73 93.4563 359.99 93.7463 360.5V357.29H94.7663V364.5H93.7463ZM93.7263 362.15C93.7263 361.24 92.9863 360.73 92.2963 360.73C91.5263 360.73 90.8963 361.29 90.8963 362.15C90.8963 363.01 91.5263 363.6 92.2963 363.6C93.0563 363.6 93.7263 363.06 93.7263 362.15ZM99.8302 364.5V363.82C99.5402 364.33 98.8902 364.6 98.2502 364.6C96.9902 364.6 95.9202 363.64 95.9202 362.17C95.9202 360.67 96.9902 359.73 98.2502 359.73C98.9202 359.73 99.5402 359.99 99.8302 360.5V357.29H100.85V364.5H99.8302ZM99.8102 362.15C99.8102 361.24 99.0702 360.73 98.3802 360.73C97.6102 360.73 96.9802 361.29 96.9802 362.15C96.9802 363.01 97.6102 363.6 98.3802 363.6C99.1402 363.6 99.8102 363.06 99.8102 362.15ZM104.613 362.5H105.673C105.703 363.06 106.213 363.63 107.043 363.63C107.853 363.63 108.273 363.2 108.343 362.69C108.383 362.05 107.893 361.72 107.253 361.57L106.383 361.35C104.903 360.95 104.673 360.11 104.673 359.5C104.673 358.32 105.733 357.53 106.943 357.53C108.223 357.53 109.183 358.31 109.183 359.57H108.123C108.123 358.93 107.643 358.53 106.923 358.53C106.283 358.53 105.733 358.92 105.733 359.48C105.733 359.75 105.833 360.17 106.653 360.38L107.533 360.61C108.933 360.98 109.503 361.75 109.393 362.75C109.283 363.83 108.353 364.6 107.043 364.6C105.613 364.6 104.613 363.62 104.613 362.5ZM115.015 362.15C115.015 362.26 115.015 362.42 115.005 362.53H111.295C111.405 363.25 111.965 363.7 112.725 363.7C113.245 363.7 113.755 363.46 113.995 363.03L114.835 363.4C114.435 364.23 113.545 364.6 112.675 364.6C111.355 364.6 110.275 363.63 110.275 362.15C110.275 360.67 111.355 359.73 112.675 359.73C113.995 359.73 115.015 360.67 115.015 362.15ZM111.295 361.78H114.005C113.895 361.05 113.385 360.63 112.675 360.63C111.955 360.63 111.405 361.06 111.295 361.78ZM117.133 362.82V364.5H116.103V359.83H117.133V360.9C117.373 360.06 117.823 359.73 118.413 359.73C118.743 359.73 119.093 359.8 119.243 359.91L119.073 360.86C118.803 360.73 118.583 360.7 118.383 360.7C117.503 360.7 117.133 361.58 117.133 362.82ZM121.457 364.5L119.507 359.83H120.597L121.937 363.19L123.257 359.83H124.357L122.407 364.5H121.457ZM126.224 359.83V364.5H125.204V359.83H126.224ZM125.024 357.94C125.024 357.57 125.344 357.29 125.714 357.29C126.104 357.29 126.394 357.57 126.394 357.94C126.394 358.31 126.104 358.59 125.714 358.59C125.344 358.59 125.024 358.31 125.024 357.94ZM127.365 362.15C127.365 360.67 128.515 359.73 129.855 359.73C130.605 359.73 131.265 360.02 131.705 360.54L130.905 361.18C130.655 360.89 130.265 360.73 129.855 360.73C129.075 360.73 128.385 361.28 128.385 362.15C128.385 363.02 129.075 363.61 129.855 363.61C130.265 363.61 130.655 363.44 130.905 363.15L131.715 363.78C131.275 364.3 130.615 364.6 129.855 364.6C128.515 364.6 127.365 363.63 127.365 362.15ZM137.144 362.15C137.144 362.26 137.144 362.42 137.134 362.53H133.424C133.534 363.25 134.094 363.7 134.854 363.7C135.374 363.7 135.884 363.46 136.124 363.03L136.964 363.4C136.564 364.23 135.674 364.6 134.804 364.6C133.484 364.6 132.404 363.63 132.404 362.15C132.404 360.67 133.484 359.73 134.804 359.73C136.124 359.73 137.144 360.67 137.144 362.15ZM133.424 361.78H136.134C136.024 361.05 135.514 360.63 134.804 360.63C134.084 360.63 133.534 361.06 133.424 361.78ZM140.951 364.5V357.61H142.011V364.5H140.951ZM144.983 358.06V359.83H145.973V360.68H144.983V364.5H143.953V360.68H143.113V359.83H143.953V358.06H144.983ZM151.314 362.15C151.314 362.26 151.314 362.42 151.304 362.53H147.594C147.704 363.25 148.264 363.7 149.024 363.7C149.544 363.7 150.054 363.46 150.294 363.03L151.134 363.4C150.734 364.23 149.844 364.6 148.974 364.6C147.654 364.6 146.574 363.63 146.574 362.15C146.574 360.67 147.654 359.73 148.974 359.73C150.294 359.73 151.314 360.67 151.314 362.15ZM147.594 361.78H150.304C150.194 361.05 149.684 360.63 148.974 360.63C148.254 360.63 147.704 361.06 147.594 361.78ZM157.722 360.74C157.042 360.74 156.592 361.23 156.592 361.99V364.5H155.562V361.88C155.552 361.16 155.172 360.74 154.612 360.74C154.012 360.74 153.432 361.07 153.432 361.99V364.5H152.402V359.83H153.432V360.53C153.752 359.89 154.522 359.73 154.902 359.73C155.652 359.73 156.102 360.06 156.372 360.66C156.802 359.85 157.522 359.73 157.942 359.73C159.102 359.73 159.742 360.48 159.742 361.81V364.5H158.712V361.9C158.712 361.17 158.322 360.74 157.722 360.74Z" fill="#2D64D6"/>
<path d="M63.5 408.5C63.5 406.567 65.067 405 67 405H286.5C288.433 405 290 406.567 290 408.5V426.5C290 428.433 288.433 430 286.5 430H67C65.067 430 63.5 428.433 63.5 426.5V408.5Z" fill="#F9FAFB"/>
<path d="M63.5 408.5C63.5 406.567 65.067 405 67 405H286.5C288.433 405 290 406.567 290 408.5V426.5C290 428.433 288.433 430 286.5 430H67C65.067 430 63.5 428.433 63.5 426.5V408.5Z" stroke="#E5E7EB"/>
<path d="M147.538 418.5H148.598C148.628 419.06 149.138 419.63 149.968 419.63C150.778 419.63 151.198 419.2 151.268 418.69C151.308 418.05 150.818 417.72 150.178 417.57L149.308 417.35C147.828 416.95 147.598 416.11 147.598 415.5C147.598 414.32 148.658 413.53 149.868 413.53C151.148 413.53 152.108 414.31 152.108 415.57H151.048C151.048 414.93 150.568 414.53 149.848 414.53C149.208 414.53 148.658 414.92 148.658 415.48C148.658 415.75 148.758 416.17 149.578 416.38L150.458 416.61C151.858 416.98 152.428 417.75 152.318 418.75C152.208 419.83 151.278 420.6 149.968 420.6C148.538 420.6 147.538 419.62 147.538 418.5ZM157.14 420.5V419.83C156.82 420.34 156.17 420.6 155.57 420.6C154.32 420.6 153.2 419.65 153.2 418.16C153.2 416.67 154.32 415.73 155.57 415.73C156.13 415.73 156.82 415.96 157.14 416.49V415.83H158.16V420.5H157.14ZM154.26 418.15C154.26 419.01 154.92 419.6 155.69 419.6C156.45 419.6 157.13 419.07 157.13 418.15C157.13 417.24 156.39 416.73 155.69 416.73C154.92 416.73 154.26 417.29 154.26 418.15ZM160.964 420.5L159.014 415.83H160.104L161.444 419.19L162.764 415.83H163.864L161.914 420.5H160.964ZM169.054 418.15C169.054 418.26 169.054 418.42 169.044 418.53H165.334C165.444 419.25 166.004 419.7 166.764 419.7C167.284 419.7 167.794 419.46 168.034 419.03L168.874 419.4C168.474 420.23 167.584 420.6 166.714 420.6C165.394 420.6 164.314 419.63 164.314 418.15C164.314 416.67 165.394 415.73 166.714 415.73C168.034 415.73 169.054 416.67 169.054 418.15ZM165.334 417.78H168.044C167.934 417.05 167.424 416.63 166.714 416.63C165.994 416.63 165.444 417.06 165.334 417.78ZM176.32 420.5V419.83C176 420.34 175.35 420.6 174.75 420.6C173.5 420.6 172.38 419.65 172.38 418.16C172.38 416.67 173.5 415.73 174.75 415.73C175.31 415.73 176 415.96 176.32 416.49V415.83H177.34V420.5H176.32ZM173.44 418.15C173.44 419.01 174.1 419.6 174.87 419.6C175.63 419.6 176.31 419.07 176.31 418.15C176.31 417.24 175.57 416.73 174.87 416.73C174.1 416.73 173.44 417.29 173.44 418.15ZM180.503 418.63L179.873 418.48C178.873 418.21 178.513 417.72 178.583 416.96C178.633 416.27 179.403 415.73 180.253 415.73C181.073 415.73 181.903 416.11 181.953 417.11H180.973C180.933 416.76 180.613 416.61 180.293 416.61C180.023 416.61 179.743 416.71 179.633 416.87C179.553 417 179.543 417.14 179.593 417.29C179.663 417.48 179.913 417.58 180.163 417.65L180.883 417.83C181.883 418.07 182.103 418.73 182.103 419.19C182.103 420.09 181.313 420.6 180.243 420.6C179.363 420.6 178.483 420.06 178.453 419.07H179.403C179.453 419.47 179.773 419.74 180.323 419.74C180.793 419.74 181.153 419.53 181.153 419.18C181.153 418.87 180.853 418.71 180.503 418.63ZM187.006 414.6V419.52H188.626C189.976 419.52 190.666 418.44 190.666 417.07C190.666 415.71 189.976 414.6 188.626 414.6H187.006ZM188.626 420.5H185.946V413.61H188.626C190.586 413.61 191.726 415.11 191.726 417.07C191.726 419.03 190.586 420.5 188.626 420.5ZM193.925 418.82V420.5H192.895V415.83H193.925V416.9C194.165 416.06 194.615 415.73 195.205 415.73C195.535 415.73 195.885 415.8 196.035 415.91L195.865 416.86C195.595 416.73 195.375 416.7 195.175 416.7C194.295 416.7 193.925 417.58 193.925 418.82ZM200.431 420.5V419.83C200.111 420.34 199.461 420.6 198.861 420.6C197.611 420.6 196.491 419.65 196.491 418.16C196.491 416.67 197.611 415.73 198.861 415.73C199.421 415.73 200.111 415.96 200.431 416.49V415.83H201.451V420.5H200.431ZM197.551 418.15C197.551 419.01 198.211 419.6 198.981 419.6C199.741 419.6 200.421 419.07 200.421 418.15C200.421 417.24 199.681 416.73 198.981 416.73C198.211 416.73 197.551 417.29 197.551 418.15ZM205.695 413.29V414.28H205.185C204.505 414.28 204.355 414.8 204.355 415.4V415.83H205.405V416.68H204.355V420.5H203.315V416.68H202.425V415.83H203.315V415.4C203.315 414.12 203.905 413.29 205.185 413.29H205.695ZM207.762 414.06V415.83H208.752V416.68H207.762V420.5H206.732V416.68H205.892V415.83H206.732V414.06H207.762Z" fill="#6B7280"/>
<path d="M305.5 408.5C305.5 406.291 307.291 404.5 309.5 404.5H529C531.209 404.5 533 406.291 533 408.5V426.5C533 428.709 531.209 430.5 529 430.5H309.5C307.291 430.5 305.5 428.709 305.5 426.5V408.5Z" fill="#407CEE"/>
<path d="M408.25 418.5H409.31C409.34 419.06 409.85 419.63 410.68 419.63C411.49 419.63 411.91 419.2 411.98 418.69C412.02 418.05 411.53 417.72 410.89 417.57L410.02 417.35C408.54 416.95 408.31 416.11 408.31 415.5C408.31 414.32 409.37 413.53 410.58 413.53C411.86 413.53 412.82 414.31 412.82 415.57H411.76C411.76 414.93 411.28 414.53 410.56 414.53C409.92 414.53 409.37 414.92 409.37 415.48C409.37 415.75 409.47 416.17 410.29 416.38L411.17 416.61C412.57 416.98 413.14 417.75 413.03 418.75C412.92 419.83 411.99 420.6 410.68 420.6C409.25 420.6 408.25 419.62 408.25 418.5ZM417.852 420.5V419.83C417.532 420.34 416.882 420.6 416.282 420.6C415.032 420.6 413.912 419.65 413.912 418.16C413.912 416.67 415.032 415.73 416.282 415.73C416.842 415.73 417.532 415.96 417.852 416.49V415.83H418.872V420.5H417.852ZM414.972 418.15C414.972 419.01 415.632 419.6 416.402 419.6C417.162 419.6 417.842 419.07 417.842 418.15C417.842 417.24 417.102 416.73 416.402 416.73C415.632 416.73 414.972 417.29 414.972 418.15ZM421.676 420.5L419.726 415.83H420.816L422.156 419.19L423.476 415.83H424.576L422.626 420.5H421.676ZM429.765 418.15C429.765 418.26 429.765 418.42 429.755 418.53H426.045C426.155 419.25 426.715 419.7 427.475 419.7C427.995 419.7 428.505 419.46 428.745 419.03L429.585 419.4C429.185 420.23 428.295 420.6 427.425 420.6C426.105 420.6 425.025 419.63 425.025 418.15C425.025 416.67 426.105 415.73 427.425 415.73C428.745 415.73 429.765 416.67 429.765 418.15ZM426.045 417.78H428.755C428.645 417.05 428.135 416.63 427.425 416.63C426.705 416.63 426.155 417.06 426.045 417.78Z" fill="white"/>
</g>
<path d="M56 17C50.7533 17 46.5 21.2533 46.5 26.5V442.5C46.5 447.747 50.7533 452 56 452H540C545.247 452 549.5 447.747 549.5 442.5V26.5C549.5 21.2533 545.247 17 540 17H56Z" stroke="#F3F4F6" stroke-width="3"/>
</g>
<defs>
<filter id="filter0_d_1228_1881" x="0" y="0.5" width="566" height="498" filterUnits="userSpaceOnUse" color-interpolation-filters="sRGB">
<feFlood flood-opacity="0" result="BackgroundImageFix"/>
<feColorMatrix in="SourceAlpha" type="matrix" values="0 0 0 0 0 0 0 0 0 0 0 0 0 0 0 0 0 0 127 0" result="hardAlpha"/>
<feOffset dx="-15" dy="15"/>
<feGaussianBlur stdDeviation="15"/>
<feComposite in2="hardAlpha" operator="out"/>
<feColorMatrix type="matrix" values="0 0 0 0 0 0 0 0 0 0 0 0 0 0 0 0 0 0 0.15 0"/>
<feBlend mode="normal" in2="BackgroundImageFix" result="effect1_dropShadow_1228_1881"/>
<feBlend mode="normal" in="SourceGraphic" in2="effect1_dropShadow_1228_1881" result="shape"/>
</filter>
<clipPath id="clip0_1228_1881">
<path d="M48 26.5C48 22.0817 51.5817 18.5 56 18.5H540C544.418 18.5 548 22.0817 548 26.5V442.5C548 446.918 544.418 450.5 540 450.5H56C51.5817 450.5 48 446.918 48 442.5V26.5Z" fill="white"/>
</clipPath>
<clipPath id="clip1_1228_1881">
<rect width="10" height="10" fill="white" transform="translate(351.333 101.5)"/>
</clipPath>
<clipPath id="clip2_1228_1881">
<rect width="10" height="10" fill="white" transform="translate(518 101.5)"/>
</clipPath>
</defs>
</svg>
