<svg width="566" height="516" viewBox="0 0 566 516" fill="none" xmlns="http://www.w3.org/2000/svg">
<g filter="url(#filter0_d_1228_2133)">
<g clip-path="url(#clip0_1228_2133)">
<path d="M48 26.5C48 22.0817 51.5817 18.5 56 18.5H540C544.418 18.5 548 22.0817 548 26.5V459.5C548 463.918 544.418 467.5 540 467.5H56C51.5817 467.5 48 463.918 48 459.5V26.5Z" fill="white"/>
<mask id="path-3-inside-1_1228_2133" fill="white">
<path d="M48 18.5H548V56.5H48V18.5Z"/>
</mask>
<path d="M548 55.5H48V57.5H548V55.5Z" fill="#F3F4F6" mask="url(#path-3-inside-1_1228_2133)"/>
<path d="M71.848 33.26H73.624L73.224 34.7H71.432L70.632 37.42H72.408L72.008 38.86H70.232L69.4 41.5H67.784L68.584 38.86H66.936L66.12 41.5H64.52L65.32 38.86H63.56L63.96 37.42H65.72L66.504 34.7H64.776L65.16 33.26H66.92L67.736 30.476H69.368L68.568 33.26H70.216L71.032 30.476H72.664L71.848 33.26ZM68.136 34.7L67.336 37.42H68.984L69.8 34.7H68.136ZM81.7555 41.5H75.0675V40.492L79.3395 35.372C79.7075 34.94 79.9795 34.492 79.9795 33.996C79.9795 33.292 79.3715 32.748 78.4755 32.748C77.6275 32.748 76.9715 33.372 76.8435 34.268L75.0195 33.932C75.3235 32.028 76.6995 30.844 78.5555 30.844C80.3955 30.844 81.9315 32.14 81.9315 33.996C81.9315 35.02 81.4675 35.916 80.8115 36.668L78.2195 39.628H81.7555V41.5ZM86.9718 36.844H85.8518V35.1H86.9718C87.9478 35.1 88.1558 34.236 88.1558 33.948C88.1558 33.58 87.9798 32.892 87.2278 32.764C86.6038 32.684 86.0438 32.876 85.6118 33.404L84.0758 32.396C84.6678 31.388 85.8838 30.764 87.2438 30.844C89.0358 30.924 90.2678 32.236 90.2678 33.772C90.2678 34.652 89.7238 35.388 88.9718 35.82C90.0598 36.236 90.8438 37.548 90.7158 38.668C90.5078 40.588 88.7318 41.772 86.6838 41.644C85.2598 41.564 83.9798 40.652 83.4358 39.436C83.5638 39.356 85.0198 38.652 85.1478 38.572C85.4518 39.196 86.1238 39.74 86.8438 39.74C87.8518 39.74 88.6038 39.1 88.6038 38.188C88.6038 37.916 88.3958 36.796 86.9718 36.844ZM94.7781 37.516H97.0981V33.868L94.7781 37.516ZM100.442 39.228H99.0501V41.5H97.0981V39.228H91.9301L97.1461 31.036H99.0501V37.516H100.442V39.228ZM107.732 37.916C107.732 36.7 106.82 36.108 105.716 36.108C104.996 36.108 104.084 36.332 103.316 37.164L102.196 36.492L103.076 31.036H109.028V32.844H104.644L104.276 34.988C104.708 34.604 105.54 34.428 106.212 34.428C108.132 34.428 109.684 35.644 109.684 37.916C109.684 40.14 108.036 41.66 105.508 41.66C104.036 41.66 102.628 40.796 101.876 39.452C102.004 39.356 103.396 38.524 103.524 38.428C103.956 39.196 104.724 39.724 105.508 39.724C106.9 39.724 107.732 38.876 107.732 37.916ZM113.669 37.516H115.989V33.868L113.669 37.516ZM119.333 39.228H117.941V41.5H115.989V39.228H110.821L116.037 31.036H117.941V37.516H119.333V39.228ZM121.055 40.444C121.055 39.74 121.631 39.228 122.319 39.228C123.007 39.228 123.583 39.74 123.583 40.444C123.583 41.148 123.007 41.66 122.319 41.66C121.631 41.66 121.055 41.148 121.055 40.444ZM121.055 35.084C121.055 34.38 121.631 33.868 122.319 33.868C123.007 33.868 123.583 34.38 123.583 35.084C123.583 35.788 123.007 36.3 122.319 36.3C121.631 36.3 121.055 35.788 121.055 35.084ZM136.867 41.5L135.859 38.828H131.747L130.739 41.5H128.562L132.691 30.476H134.899L139.027 41.5H136.867ZM133.795 32.828L132.435 37.036H135.187L133.795 32.828ZM142.071 34.028V41.5H140.135V34.028H142.071ZM139.847 31.132C139.847 30.476 140.423 29.964 141.111 29.964C141.799 29.964 142.343 30.476 142.343 31.132C142.343 31.82 141.799 32.316 141.111 32.316C140.423 32.316 139.847 31.82 139.847 31.132ZM146.228 38.86V41.5H144.276V34.028H146.228V35.788C146.612 34.428 147.492 33.868 148.34 33.868C148.868 33.868 149.268 33.964 149.572 34.14L149.236 35.9C148.772 35.692 148.292 35.692 148.1 35.692C146.772 35.692 146.228 36.876 146.228 38.86ZM162.464 38.236L164.08 39.42C163.12 40.78 161.52 41.66 159.6 41.66C156.464 41.66 154.048 39.116 154.048 36.012C154.048 32.892 156.464 30.348 159.6 30.348C161.472 30.348 163.072 31.18 164.032 32.524L162.4 33.692C161.76 32.86 160.768 32.284 159.6 32.284C157.6 32.284 156.096 33.964 156.096 36.012C156.096 38.076 157.6 39.724 159.6 39.724C160.8 39.724 161.824 39.132 162.464 38.236ZM168.966 39.74C170.054 39.74 170.918 38.956 170.918 37.74C170.918 36.54 170.054 35.788 168.966 35.788C167.878 35.788 167.014 36.54 167.014 37.74C167.014 38.956 167.878 39.74 168.966 39.74ZM168.966 41.644C166.854 41.644 165.078 40.092 165.078 37.74C165.078 35.372 166.854 33.868 168.966 33.868C171.078 33.868 172.854 35.372 172.854 37.74C172.854 40.092 171.078 41.644 168.966 41.644ZM176.556 37.516V41.5H174.604V34.028H176.556V35.132C176.988 34.316 177.9 33.868 178.78 33.868C180.524 33.868 181.564 34.956 181.564 37.084V41.5H179.612V37.436C179.612 36.348 179.036 35.772 178.188 35.772C177.292 35.772 176.556 36.22 176.556 37.516ZM189.234 41.5V40.492C188.802 41.244 187.858 41.66 186.882 41.66C184.914 41.66 183.218 40.14 183.218 37.772C183.218 35.388 184.914 33.868 186.882 33.868C187.89 33.868 188.802 34.268 189.234 35.02V29.964H191.17V41.5H189.234ZM189.202 37.74C189.202 36.46 188.226 35.724 187.202 35.724C186.114 35.724 185.234 36.524 185.234 37.74C185.234 38.972 186.114 39.788 187.202 39.788C188.274 39.788 189.202 38.988 189.202 37.74ZM195.321 34.028V41.5H193.385V34.028H195.321ZM193.097 31.132C193.097 30.476 193.673 29.964 194.361 29.964C195.049 29.964 195.593 30.476 195.593 31.132C195.593 31.82 195.049 32.316 194.361 32.316C193.673 32.316 193.097 31.82 193.097 31.132ZM200.086 31.18V34.028H201.67V35.596H200.086V41.5H198.15V35.596H196.79V34.028H198.15V31.18H200.086ZM205.071 34.028V41.5H203.135V34.028H205.071ZM202.847 31.132C202.847 30.476 203.423 29.964 204.111 29.964C204.799 29.964 205.343 30.476 205.343 31.132C205.343 31.82 204.799 32.316 204.111 32.316C203.423 32.316 202.847 31.82 202.847 31.132ZM210.7 39.74C211.788 39.74 212.652 38.956 212.652 37.74C212.652 36.54 211.788 35.788 210.7 35.788C209.612 35.788 208.748 36.54 208.748 37.74C208.748 38.956 209.612 39.74 210.7 39.74ZM210.7 41.644C208.588 41.644 206.812 40.092 206.812 37.74C206.812 35.372 208.588 33.868 210.7 33.868C212.812 33.868 214.588 35.372 214.588 37.74C214.588 40.092 212.812 41.644 210.7 41.644ZM218.29 37.516V41.5H216.338V34.028H218.29V35.132C218.722 34.316 219.634 33.868 220.514 33.868C222.258 33.868 223.298 34.956 223.298 37.084V41.5H221.346V37.436C221.346 36.348 220.77 35.772 219.922 35.772C219.026 35.772 218.29 36.22 218.29 37.516ZM233.977 32.3H231.705V35.756H233.913C235.001 35.756 235.465 34.86 235.465 34.044C235.465 33.244 235.001 32.3 233.977 32.3ZM234.793 37.5L237.609 41.5H235.145L232.553 37.58H231.705V41.5H229.657V30.476H234.073C236.505 30.476 237.593 32.252 237.593 34.044C237.593 35.612 236.761 37.196 234.793 37.5ZM246.367 37.74C246.367 37.932 246.351 38.236 246.335 38.412H240.639C240.767 39.42 241.599 40.012 242.703 40.012C243.455 40.012 244.207 39.692 244.575 39.052C245.039 39.308 245.567 39.596 246.062 39.852C245.375 41.132 243.951 41.66 242.575 41.66C240.447 41.66 238.703 40.092 238.703 37.74C238.703 35.372 240.447 33.868 242.575 33.868C244.687 33.868 246.367 35.372 246.367 37.74ZM240.623 37.084H244.463C244.319 36.06 243.551 35.5 242.591 35.5C241.567 35.5 240.767 36.06 240.623 37.084ZM249.962 34.028V35.036C250.362 34.284 251.322 33.868 252.298 33.868C254.25 33.868 255.946 35.404 255.946 37.756C255.946 40.14 254.25 41.66 252.298 41.66C251.322 41.66 250.362 41.26 249.962 40.508V45.132H248.01V34.028H249.962ZM249.994 37.788C249.994 39.068 250.954 39.804 251.978 39.804C253.05 39.804 253.946 39.004 253.946 37.788C253.946 36.556 253.05 35.74 251.978 35.74C250.906 35.74 249.994 36.54 249.994 37.788ZM263.362 41.5V40.54C262.898 41.308 261.762 41.644 261.042 41.644C259.074 41.644 257.234 40.14 257.234 37.756C257.234 35.372 259.074 33.868 261.042 33.868C261.73 33.868 262.802 34.14 263.362 34.956V34.028H265.314V41.5H263.362ZM259.25 37.756C259.25 38.972 260.226 39.772 261.314 39.772C262.386 39.772 263.362 39.036 263.362 37.756C263.362 36.476 262.338 35.74 261.314 35.74C260.226 35.74 259.25 36.54 259.25 37.756ZM269.462 34.028V41.5H267.526V34.028H269.462ZM267.238 31.132C267.238 30.476 267.814 29.964 268.502 29.964C269.19 29.964 269.734 30.476 269.734 31.132C269.734 31.82 269.19 32.316 268.502 32.316C267.814 32.316 267.238 31.82 267.238 31.132ZM273.619 38.86V41.5H271.667V34.028H273.619V35.788C274.003 34.428 274.883 33.868 275.731 33.868C276.259 33.868 276.659 33.964 276.963 34.14L276.627 35.9C276.163 35.692 275.683 35.692 275.491 35.692C274.163 35.692 273.619 36.876 273.619 38.86Z" fill="black"/>
<path d="M472 32.5C472 30.2909 473.791 28.5 476 28.5H529C531.209 28.5 533 30.2909 533 32.5V42.5C533 44.7091 531.209 46.5 529 46.5H476C473.791 46.5 472 44.7091 472 42.5V32.5Z" fill="#407CEE"/>
<path d="M483.704 37.916L485.576 33.988H486.336L487.008 39.5H486.16L485.688 35.564L484.072 38.884H483.352L481.728 35.564L481.256 39.5H480.408L481.08 33.988H481.832L483.704 37.916ZM489.639 38.78C490.263 38.78 490.775 38.324 490.775 37.62C490.775 36.94 490.263 36.492 489.639 36.492C489.023 36.492 488.511 36.94 488.511 37.62C488.511 38.324 489.023 38.78 489.639 38.78ZM489.639 39.58C488.583 39.58 487.695 38.804 487.695 37.62C487.695 36.436 488.583 35.684 489.639 35.684C490.703 35.684 491.599 36.436 491.599 37.62C491.599 38.804 490.703 39.58 489.639 39.58ZM493.338 38.156V39.5H492.514V35.764H493.338V36.62C493.53 35.948 493.89 35.684 494.362 35.684C494.626 35.684 494.906 35.74 495.026 35.828L494.89 36.588C494.674 36.484 494.498 36.46 494.338 36.46C493.634 36.46 493.338 37.164 493.338 38.156ZM499.183 37.62C499.183 37.708 499.183 37.836 499.175 37.924H496.207C496.295 38.5 496.743 38.86 497.351 38.86C497.767 38.86 498.175 38.668 498.367 38.324L499.039 38.62C498.719 39.284 498.007 39.58 497.311 39.58C496.255 39.58 495.391 38.804 495.391 37.62C495.391 36.436 496.255 35.684 497.311 35.684C498.367 35.684 499.183 36.436 499.183 37.62ZM496.207 37.324H498.375C498.287 36.74 497.879 36.404 497.311 36.404C496.735 36.404 496.295 36.748 496.207 37.324ZM505.74 39.5L505.212 38.124H502.988L502.46 39.5H501.556L503.636 33.988H504.556L506.636 39.5H505.74ZM504.1 35.052L503.276 37.364H504.924L504.1 35.052ZM506.969 37.62C506.969 36.436 507.889 35.684 508.961 35.684C509.561 35.684 510.089 35.916 510.441 36.332L509.801 36.844C509.601 36.612 509.289 36.484 508.961 36.484C508.337 36.484 507.785 36.924 507.785 37.62C507.785 38.316 508.337 38.788 508.961 38.788C509.289 38.788 509.601 38.652 509.801 38.42L510.449 38.924C510.097 39.34 509.569 39.58 508.961 39.58C507.889 39.58 506.969 38.804 506.969 37.62ZM512.438 34.348V35.764H513.23V36.444H512.438V39.5H511.614V36.444H510.942V35.764H511.614V34.348H512.438ZM514.822 35.764V39.5H514.006V35.764H514.822ZM513.862 34.252C513.862 33.956 514.118 33.732 514.414 33.732C514.726 33.732 514.958 33.956 514.958 34.252C514.958 34.548 514.726 34.772 514.414 34.772C514.118 34.772 513.862 34.548 513.862 34.252ZM517.678 38.78C518.302 38.78 518.814 38.324 518.814 37.62C518.814 36.94 518.302 36.492 517.678 36.492C517.062 36.492 516.55 36.94 516.55 37.62C516.55 38.324 517.062 38.78 517.678 38.78ZM517.678 39.58C516.622 39.58 515.734 38.804 515.734 37.62C515.734 36.436 516.622 35.684 517.678 35.684C518.742 35.684 519.638 36.436 519.638 37.62C519.638 38.804 518.742 39.58 517.678 39.58ZM521.377 37.492V39.5H520.553V35.764H521.377V36.324C521.593 35.9 522.113 35.684 522.521 35.684C523.425 35.684 523.945 36.26 523.945 37.324V39.5H523.121V37.42C523.121 36.82 522.817 36.492 522.337 36.492C521.849 36.492 521.377 36.756 521.377 37.492Z" fill="white"/>
<rect x="63.5" y="72" width="106.5" height="34" rx="17" fill="#2D64D6"/>
<rect x="63.5" y="72" width="106.5" height="34" rx="17" stroke="#2D64D6"/>
<path d="M78 85.5C78 84.3954 78.8954 83.5 80 83.5H126C127.105 83.5 128 84.3954 128 85.5C128 86.6046 127.105 87.5 126 87.5H80C78.8954 87.5 78 86.6046 78 85.5Z" fill="white"/>
<path d="M78 92.5C78 91.3954 78.8954 90.5 80 90.5H106C107.105 90.5 108 91.3954 108 92.5C108 93.6046 107.105 94.5 106 94.5H80C78.8954 94.5 78 93.6046 78 92.5Z" fill="white"/>
<rect x="136" y="72" width="106.5" height="34" rx="17" fill="white"/>
<rect x="136" y="72" width="106.5" height="34" rx="17" stroke="#F3F4F6"/>
<path d="M150.5 85.5C150.5 84.3954 151.395 83.5 152.5 83.5H198.5C199.605 83.5 200.5 84.3954 200.5 85.5C200.5 86.6046 199.605 87.5 198.5 87.5H152.5C151.395 87.5 150.5 86.6046 150.5 85.5Z" fill="#E5E7EB"/>
<path d="M150.5 92.5C150.5 91.3954 151.395 90.5 152.5 90.5H178.5C179.605 90.5 180.5 91.3954 180.5 92.5C180.5 93.6046 179.605 94.5 178.5 94.5H152.5C151.395 94.5 150.5 93.6046 150.5 92.5Z" fill="#E5E7EB"/>
<rect x="208.5" y="72" width="106.5" height="34" rx="17" fill="white"/>
<rect x="208.5" y="72" width="106.5" height="34" rx="17" stroke="#F3F4F6"/>
<path d="M223 85.5C223 84.3954 223.895 83.5 225 83.5H271C272.105 83.5 273 84.3954 273 85.5C273 86.6046 272.105 87.5 271 87.5H225C223.895 87.5 223 86.6046 223 85.5Z" fill="#E5E7EB"/>
<path d="M223 92.5C223 91.3954 223.895 90.5 225 90.5H251C252.105 90.5 253 91.3954 253 92.5C253 93.6046 252.105 94.5 251 94.5H225C223.895 94.5 223 93.6046 223 92.5Z" fill="#E5E7EB"/>
<rect x="281" y="72" width="106.5" height="34" rx="17" fill="white"/>
<rect x="281" y="72" width="106.5" height="34" rx="17" stroke="#F3F4F6"/>
<path d="M295.5 85.5C295.5 84.3954 296.395 83.5 297.5 83.5H343.5C344.605 83.5 345.5 84.3954 345.5 85.5C345.5 86.6046 344.605 87.5 343.5 87.5H297.5C296.395 87.5 295.5 86.6046 295.5 85.5Z" fill="#E5E7EB"/>
<path d="M295.5 92.5C295.5 91.3954 296.395 90.5 297.5 90.5H323.5C324.605 90.5 325.5 91.3954 325.5 92.5C325.5 93.6046 324.605 94.5 323.5 94.5H297.5C296.395 94.5 295.5 93.6046 295.5 92.5Z" fill="#E5E7EB"/>
<rect x="353.5" y="72" width="106.5" height="34" rx="17" fill="white"/>
<rect x="353.5" y="72" width="106.5" height="34" rx="17" stroke="#F3F4F6"/>
<path d="M368 85.5C368 84.3954 368.895 83.5 370 83.5H416C417.105 83.5 418 84.3954 418 85.5C418 86.6046 417.105 87.5 416 87.5H370C368.895 87.5 368 86.6046 368 85.5Z" fill="#E5E7EB"/>
<path d="M368 92.5C368 91.3954 368.895 90.5 370 90.5H396C397.105 90.5 398 91.3954 398 92.5C398 93.6046 397.105 94.5 396 94.5H370C368.895 94.5 368 93.6046 368 92.5Z" fill="#E5E7EB"/>
<rect x="426" y="72" width="106.5" height="34" rx="17" fill="white"/>
<rect x="426" y="72" width="106.5" height="34" rx="17" stroke="#F3F4F6"/>
<path d="M440.5 85.5C440.5 84.3954 441.395 83.5 442.5 83.5H488.5C489.605 83.5 490.5 84.3954 490.5 85.5C490.5 86.6046 489.605 87.5 488.5 87.5H442.5C441.395 87.5 440.5 86.6046 440.5 85.5Z" fill="#E5E7EB"/>
<path d="M440.5 92.5C440.5 91.3954 441.395 90.5 442.5 90.5H468.5C469.605 90.5 470.5 91.3954 470.5 92.5C470.5 93.6046 469.605 94.5 468.5 94.5H442.5C441.395 94.5 440.5 93.6046 440.5 92.5Z" fill="#E5E7EB"/>
<path d="M63.5 125.5C63.5 123.567 65.067 122 67 122H179C180.933 122 182.5 123.567 182.5 125.5V167.5C182.5 169.433 180.933 171 179 171H67C65.067 171 63.5 169.433 63.5 167.5V125.5Z" stroke="#E5E7EB"/>
<path d="M75.56 133.868L76.368 134.46C75.888 135.14 75.088 135.58 74.128 135.58C72.56 135.58 71.352 134.308 71.352 132.756C71.352 131.196 72.56 129.924 74.128 129.924C75.064 129.924 75.864 130.34 76.344 131.012L75.528 131.596C75.208 131.18 74.712 130.892 74.128 130.892C73.128 130.892 72.376 131.732 72.376 132.756C72.376 133.788 73.128 134.612 74.128 134.612C74.728 134.612 75.24 134.316 75.56 133.868ZM79.5549 133.756V131.764H80.5309V135.5H79.5549V134.972C79.3469 135.372 78.8989 135.58 78.5229 135.58C77.6349 135.58 77.0509 135.028 77.0509 133.972V131.764H78.0349V133.796C78.0349 134.404 78.4029 134.628 78.7469 134.628C79.1549 134.628 79.5549 134.404 79.5549 133.756ZM83.0539 134.068L82.5419 133.94C81.5739 133.684 81.4859 133.228 81.4859 132.796C81.4859 132.188 82.1259 131.684 82.8619 131.684C83.5739 131.684 84.2779 132.004 84.3179 132.86H83.3899C83.3659 132.58 83.1099 132.476 82.8859 132.476C82.6379 132.476 82.4139 132.564 82.4139 132.844C82.4139 132.996 82.5899 133.1 82.8059 133.156L83.4299 133.308C84.2939 133.548 84.4059 134.124 84.4059 134.428C84.4059 135.196 83.6539 135.58 82.8779 135.58C82.1419 135.58 81.3979 135.124 81.3739 134.324H82.2859C82.3099 134.588 82.6139 134.82 82.9739 134.796C83.2539 134.788 83.4619 134.636 83.4619 134.42C83.4699 134.228 83.3339 134.132 83.0539 134.068ZM86.5508 130.34V131.764H87.3428V132.548H86.5508V135.5H85.5828V132.548H84.9028V131.764H85.5828V130.34H86.5508ZM89.7406 134.62C90.2846 134.62 90.7166 134.228 90.7166 133.62C90.7166 133.02 90.2846 132.644 89.7406 132.644C89.1966 132.644 88.7646 133.02 88.7646 133.62C88.7646 134.228 89.1966 134.62 89.7406 134.62ZM89.7406 135.572C88.6846 135.572 87.7966 134.796 87.7966 133.62C87.7966 132.436 88.6846 131.684 89.7406 131.684C90.7966 131.684 91.6846 132.436 91.6846 133.62C91.6846 134.796 90.7966 135.572 89.7406 135.572ZM96.7438 132.636C96.2958 132.636 95.9838 132.932 95.9838 133.508V135.5H95.0078V133.444C94.9998 132.924 94.7038 132.636 94.3198 132.636C93.9198 132.636 93.5358 132.868 93.5358 133.508V135.5H92.5598V131.764H93.5358V132.316C93.7518 131.86 94.2478 131.692 94.6078 131.692C95.2078 131.724 95.5838 131.932 95.7998 132.388C96.1438 131.764 96.6878 131.684 96.9758 131.684C97.8798 131.684 98.4158 132.268 98.4158 133.364V135.5H97.4478V133.468C97.4478 132.924 97.1518 132.636 96.7438 132.636ZM103.074 133.62C103.074 133.716 103.066 133.868 103.058 133.956H100.21C100.274 134.46 100.69 134.756 101.242 134.756C101.618 134.756 101.994 134.596 102.178 134.276C102.41 134.404 102.674 134.548 102.922 134.676C102.578 135.316 101.866 135.58 101.178 135.58C100.114 135.58 99.2419 134.796 99.2419 133.62C99.2419 132.436 100.114 131.684 101.178 131.684C102.234 131.684 103.074 132.436 103.074 133.62ZM100.202 133.292H102.122C102.05 132.78 101.666 132.5 101.186 132.5C100.674 132.5 100.274 132.78 100.202 133.292ZM104.872 134.18V135.5H103.896V131.764H104.872V132.644C105.064 131.964 105.504 131.684 105.928 131.684C106.192 131.684 106.392 131.732 106.544 131.82L106.376 132.7C106.144 132.596 105.904 132.596 105.808 132.596C105.144 132.596 104.872 133.188 104.872 134.18ZM110.142 130.924V134.564H111.27C112.246 134.564 112.734 133.748 112.734 132.756C112.734 131.756 112.246 130.924 111.27 130.924H110.142ZM111.27 135.5H109.118V129.988H111.27C112.846 129.988 113.758 131.188 113.758 132.756C113.758 134.324 112.846 135.5 111.27 135.5ZM118.254 133.62C118.254 133.716 118.246 133.868 118.238 133.956H115.39C115.454 134.46 115.87 134.756 116.422 134.756C116.798 134.756 117.174 134.596 117.358 134.276C117.59 134.404 117.854 134.548 118.102 134.676C117.758 135.316 117.046 135.58 116.358 135.58C115.294 135.58 114.422 134.796 114.422 133.62C114.422 132.436 115.294 131.684 116.358 131.684C117.414 131.684 118.254 132.436 118.254 133.62ZM115.382 133.292H117.302C117.23 132.78 116.846 132.5 116.366 132.5C115.854 132.5 115.454 132.78 115.382 133.292ZM120.355 130.34V131.764H121.147V132.548H120.355V135.5H119.387V132.548H118.707V131.764H119.387V130.34H120.355ZM124.665 135.5V135.02C124.433 135.404 123.865 135.572 123.505 135.572C122.521 135.572 121.601 134.82 121.601 133.628C121.601 132.436 122.521 131.684 123.505 131.684C123.849 131.684 124.385 131.82 124.665 132.228V131.764H125.641V135.5H124.665ZM122.609 133.628C122.609 134.236 123.097 134.636 123.641 134.636C124.177 134.636 124.665 134.268 124.665 133.628C124.665 132.988 124.153 132.62 123.641 132.62C123.097 132.62 122.609 133.02 122.609 133.628ZM127.715 131.764V135.5H126.747V131.764H127.715ZM126.603 130.316C126.603 129.988 126.891 129.732 127.235 129.732C127.579 129.732 127.851 129.988 127.851 130.316C127.851 130.66 127.579 130.908 127.235 130.908C126.891 130.908 126.603 130.66 126.603 130.316ZM128.818 135.5V129.732H129.794V135.5H128.818ZM132.312 134.068L131.8 133.94C130.832 133.684 130.744 133.228 130.744 132.796C130.744 132.188 131.384 131.684 132.12 131.684C132.832 131.684 133.536 132.004 133.576 132.86H132.648C132.624 132.58 132.368 132.476 132.144 132.476C131.896 132.476 131.672 132.564 131.672 132.844C131.672 132.996 131.848 133.1 132.064 133.156L132.688 133.308C133.552 133.548 133.664 134.124 133.664 134.428C133.664 135.196 132.912 135.58 132.136 135.58C131.4 135.58 130.656 135.124 130.632 134.324H131.544C131.568 134.588 131.872 134.82 132.232 134.796C132.512 134.788 132.72 134.636 132.72 134.42C132.728 134.228 132.592 134.132 132.312 134.068Z" fill="black"/>
<path d="M71 143C71 141.619 72.1193 140.5 73.5 140.5H128.5C129.881 140.5 131 141.619 131 143C131 144.381 129.881 145.5 128.5 145.5H73.5C72.1193 145.5 71 144.381 71 143Z" fill="#E5E7EB"/>
<path d="M71 152C71 150.619 72.1193 149.5 73.5 149.5H172.5C173.881 149.5 175 150.619 175 152C175 153.381 173.881 154.5 172.5 154.5H73.5C72.1193 154.5 71 153.381 71 152Z" fill="#E5E7EB"/>
<path d="M71 161C71 159.619 72.1193 158.5 73.5 158.5H148.5C149.881 158.5 151 159.619 151 161C151 162.381 149.881 163.5 148.5 163.5H73.5C72.1193 163.5 71 162.381 71 161Z" fill="#E5E7EB"/>
<path d="M63.5 185.5C63.5 183.567 65.067 182 67 182H179C180.933 182 182.5 183.567 182.5 185.5V218.5C182.5 220.433 180.933 222 179 222H67C65.067 222 63.5 220.433 63.5 218.5V185.5Z" stroke="#E5E7EB"/>
<path d="M71.688 195.5V189.988H75.096V190.9H72.704V192.332H74.8V193.236H72.704V194.588H75.176V195.5H71.688ZM77.4914 194.068L76.9794 193.94C76.0114 193.684 75.9234 193.228 75.9234 192.796C75.9234 192.188 76.5634 191.684 77.2994 191.684C78.0114 191.684 78.7154 192.004 78.7554 192.86H77.8274C77.8034 192.58 77.5474 192.476 77.3234 192.476C77.0754 192.476 76.8514 192.564 76.8514 192.844C76.8514 192.996 77.0274 193.1 77.2434 193.156L77.8674 193.308C78.7314 193.548 78.8434 194.124 78.8434 194.428C78.8434 195.196 78.0914 195.58 77.3154 195.58C76.5794 195.58 75.8354 195.124 75.8114 194.324H76.7234C76.7474 194.588 77.0514 194.82 77.4114 194.796C77.6914 194.788 77.8994 194.636 77.8994 194.42C77.9074 194.228 77.7714 194.132 77.4914 194.068ZM80.9883 190.34V191.764H81.7803V192.548H80.9883V195.5H80.0203V192.548H79.3403V191.764H80.0203V190.34H80.9883ZM83.4809 191.764V195.5H82.5129V191.764H83.4809ZM82.3689 190.316C82.3689 189.988 82.6569 189.732 83.0009 189.732C83.3449 189.732 83.6169 189.988 83.6169 190.316C83.6169 190.66 83.3449 190.908 83.0009 190.908C82.6569 190.908 82.3689 190.66 82.3689 190.316ZM88.7673 192.636C88.3193 192.636 88.0073 192.932 88.0073 193.508V195.5H87.0313V193.444C87.0233 192.924 86.7273 192.636 86.3433 192.636C85.9433 192.636 85.5593 192.868 85.5593 193.508V195.5H84.5833V191.764H85.5593V192.316C85.7753 191.86 86.2713 191.692 86.6313 191.692C87.2313 191.724 87.6073 191.932 87.8233 192.388C88.1673 191.764 88.7113 191.684 88.9993 191.684C89.9033 191.684 90.4393 192.268 90.4393 193.364V195.5H89.4713V193.468C89.4713 192.924 89.1753 192.636 88.7673 192.636ZM94.3293 195.5V195.02C94.0973 195.404 93.5293 195.572 93.1693 195.572C92.1853 195.572 91.2653 194.82 91.2653 193.628C91.2653 192.436 92.1853 191.684 93.1693 191.684C93.5133 191.684 94.0493 191.82 94.3293 192.228V191.764H95.3053V195.5H94.3293ZM92.2733 193.628C92.2733 194.236 92.7613 194.636 93.3053 194.636C93.8413 194.636 94.3293 194.268 94.3293 193.628C94.3293 192.988 93.8173 192.62 93.3053 192.62C92.7613 192.62 92.2733 193.02 92.2733 193.628ZM97.6914 190.34V191.764H98.4834V192.548H97.6914V195.5H96.7234V192.548H96.0434V191.764H96.7234V190.34H97.6914ZM102.769 193.62C102.769 193.716 102.761 193.868 102.753 193.956H99.9052C99.9692 194.46 100.385 194.756 100.937 194.756C101.313 194.756 101.689 194.596 101.873 194.276C102.105 194.404 102.369 194.548 102.617 194.676C102.273 195.316 101.561 195.58 100.873 195.58C99.8092 195.58 98.9372 194.796 98.9372 193.62C98.9372 192.436 99.8092 191.684 100.873 191.684C101.929 191.684 102.769 192.436 102.769 193.62ZM99.8972 193.292H101.817C101.745 192.78 101.361 192.5 100.881 192.5C100.369 192.5 99.9692 192.78 99.8972 193.292Z" fill="black"/>
<path d="M71 203C71 201.619 72.1193 200.5 73.5 200.5H168.5C169.881 200.5 171 201.619 171 203C171 204.381 169.881 205.5 168.5 205.5H73.5C72.1193 205.5 71 204.381 71 203Z" fill="#E5E7EB"/>
<path d="M71 212C71 210.619 72.1193 209.5 73.5 209.5H133.5C134.881 209.5 136 210.619 136 212C136 213.381 134.881 214.5 133.5 214.5H73.5C72.1193 214.5 71 213.381 71 212Z" fill="#E5E7EB"/>
<path d="M63.5 236.5C63.5 234.567 65.067 233 67 233H179C180.933 233 182.5 234.567 182.5 236.5V269.5C182.5 271.433 180.933 273 179 273H67C65.067 273 63.5 271.433 63.5 269.5V236.5Z" stroke="#E5E7EB"/>
<path d="M71.688 246.5V240.988H72.704V246.5H71.688ZM74.9186 244.508V246.5H73.9426V242.764H74.9186V243.316C75.1346 242.908 75.5906 242.684 76.0306 242.684C76.9026 242.684 77.4226 243.228 77.4226 244.292V246.5H76.4466V244.468C76.4466 243.924 76.1586 243.636 75.7346 243.636C75.2866 243.636 74.9186 243.86 74.9186 244.508ZM79.515 246.5L77.947 242.764H78.987L79.947 245.252L80.907 242.764H81.955L80.379 246.5H79.515ZM84.2015 245.62C84.7455 245.62 85.1775 245.228 85.1775 244.62C85.1775 244.02 84.7455 243.644 84.2015 243.644C83.6575 243.644 83.2255 244.02 83.2255 244.62C83.2255 245.228 83.6575 245.62 84.2015 245.62ZM84.2015 246.572C83.1455 246.572 82.2575 245.796 82.2575 244.62C82.2575 243.436 83.1455 242.684 84.2015 242.684C85.2575 242.684 86.1455 243.436 86.1455 244.62C86.1455 245.796 85.2575 246.572 84.2015 246.572ZM87.9888 242.764V246.5H87.0208V242.764H87.9888ZM86.8768 241.316C86.8768 240.988 87.1648 240.732 87.5088 240.732C87.8528 240.732 88.1248 240.988 88.1248 241.316C88.1248 241.66 87.8528 241.908 87.5088 241.908C87.1648 241.908 86.8768 241.66 86.8768 241.316ZM88.8511 244.62C88.8511 243.436 89.7951 242.684 90.8671 242.684C91.4991 242.684 92.0671 242.94 92.4191 243.412L91.6431 243.996C91.4591 243.748 91.1791 243.628 90.8671 243.628C90.3231 243.628 89.8191 244.012 89.8191 244.62C89.8191 245.228 90.3231 245.644 90.8671 245.644C91.1791 245.644 91.4591 245.516 91.6431 245.268L92.4271 245.844C92.0751 246.316 91.5071 246.58 90.8671 246.58C89.7951 246.58 88.8511 245.796 88.8511 244.62ZM96.7926 244.62C96.7926 244.716 96.7846 244.868 96.7766 244.956H93.9286C93.9926 245.46 94.4086 245.756 94.9606 245.756C95.3366 245.756 95.7126 245.596 95.8966 245.276C96.1286 245.404 96.3926 245.548 96.6406 245.676C96.2966 246.316 95.5846 246.58 94.8966 246.58C93.8326 246.58 92.9606 245.796 92.9606 244.62C92.9606 243.436 93.8326 242.684 94.8966 242.684C95.9526 242.684 96.7926 243.436 96.7926 244.62ZM93.9206 244.292H95.8406C95.7686 243.78 95.3846 243.5 94.9046 243.5C94.3926 243.5 93.9926 243.78 93.9206 244.292Z" fill="black"/>
<path d="M71 254C71 252.619 72.1193 251.5 73.5 251.5H168.5C169.881 251.5 171 252.619 171 254C171 255.381 169.881 256.5 168.5 256.5H73.5C72.1193 256.5 71 255.381 71 254Z" fill="#E5E7EB"/>
<path d="M71 263C71 261.619 72.1193 260.5 73.5 260.5H133.5C134.881 260.5 136 261.619 136 263C136 264.381 134.881 265.5 133.5 265.5H73.5C72.1193 265.5 71 264.381 71 263Z" fill="#E5E7EB"/>
<path d="M204.712 127.924V131.564H205.84C206.816 131.564 207.304 130.748 207.304 129.756C207.304 128.756 206.816 127.924 205.84 127.924H204.712ZM205.84 132.5H203.688V126.988H205.84C207.416 126.988 208.328 128.188 208.328 129.756C208.328 131.324 207.416 132.5 205.84 132.5ZM212.056 132.5V132.02C211.824 132.404 211.256 132.572 210.896 132.572C209.912 132.572 208.992 131.82 208.992 130.628C208.992 129.436 209.912 128.684 210.896 128.684C211.24 128.684 211.776 128.82 212.056 129.228V128.764H213.032V132.5H212.056ZM210 130.628C210 131.236 210.488 131.636 211.032 131.636C211.568 131.636 212.056 131.268 212.056 130.628C212.056 129.988 211.544 129.62 211.032 129.62C210.488 129.62 210 130.02 210 130.628ZM215.418 127.34V128.764H216.21V129.548H215.418V132.5H214.45V129.548H213.77V128.764H214.45V127.34H215.418ZM220.496 130.62C220.496 130.716 220.488 130.868 220.48 130.956H217.632C217.696 131.46 218.112 131.756 218.664 131.756C219.04 131.756 219.416 131.596 219.6 131.276C219.832 131.404 220.096 131.548 220.344 131.676C220 132.316 219.288 132.58 218.6 132.58C217.536 132.58 216.664 131.796 216.664 130.62C216.664 129.436 217.536 128.684 218.6 128.684C219.656 128.684 220.496 129.436 220.496 130.62ZM217.624 130.292H219.544C219.472 129.78 219.088 129.5 218.608 129.5C218.096 129.5 217.696 129.78 217.624 130.292ZM226.126 129.948H225.126C224.406 129.948 224.158 130.508 224.198 130.86C224.254 131.332 224.582 131.628 225.126 131.628C225.638 131.628 226.126 131.268 226.126 130.5V129.948ZM225.014 132.58C223.95 132.58 223.166 131.876 223.166 130.916C223.166 130.244 223.47 129.74 224.046 129.492C223.702 129.324 223.454 128.94 223.454 128.428C223.454 127.644 224.102 126.988 224.998 126.948C225.638 126.924 226.174 127.228 226.494 127.684L225.67 128.188C225.542 128.02 225.366 127.892 225.118 127.892C224.71 127.892 224.494 128.188 224.494 128.484C224.494 128.636 224.598 129.156 225.158 129.156H226.126V128.5H227.038V129.156H227.702V129.948H227.038V130.86C227.038 131.476 227.15 131.716 227.814 131.716V132.58C227.046 132.572 226.558 132.436 226.366 131.924C226.134 132.34 225.502 132.58 225.014 132.58ZM232.02 127.34V128.764H232.812V129.548H232.02V132.5H231.052V129.548H230.372V128.764H231.052V127.34H232.02ZM234.512 128.764V132.5H233.544V128.764H234.512ZM233.4 127.316C233.4 126.988 233.688 126.732 234.032 126.732C234.376 126.732 234.648 126.988 234.648 127.316C234.648 127.66 234.376 127.908 234.032 127.908C233.688 127.908 233.4 127.66 233.4 127.316ZM239.799 129.636C239.351 129.636 239.039 129.932 239.039 130.508V132.5H238.063V130.444C238.055 129.924 237.759 129.636 237.375 129.636C236.975 129.636 236.591 129.868 236.591 130.508V132.5H235.615V128.764H236.591V129.316C236.807 128.86 237.303 128.692 237.663 128.692C238.263 128.724 238.639 128.932 238.855 129.388C239.199 128.764 239.743 128.684 240.031 128.684C240.935 128.684 241.471 129.268 241.471 130.364V132.5H240.503V130.468C240.503 129.924 240.207 129.636 239.799 129.636ZM246.129 130.62C246.129 130.716 246.121 130.868 246.113 130.956H243.265C243.329 131.46 243.745 131.756 244.297 131.756C244.673 131.756 245.049 131.596 245.233 131.276C245.465 131.404 245.729 131.548 245.977 131.676C245.633 132.316 244.921 132.58 244.233 132.58C243.169 132.58 242.297 131.796 242.297 130.62C242.297 129.436 243.169 128.684 244.233 128.684C245.289 128.684 246.129 129.436 246.129 130.62ZM243.257 130.292H245.177C245.105 129.78 244.721 129.5 244.241 129.5C243.729 129.5 243.329 129.78 243.257 130.292Z" fill="black"/>
<path d="M203 140.5C203 138.843 204.343 137.5 206 137.5H300C301.657 137.5 303 138.843 303 140.5C303 142.157 301.657 143.5 300 143.5H206C204.343 143.5 203 142.157 203 140.5Z" fill="#E5E7EB"/>
<path d="M203 152.5C203 150.843 204.343 149.5 206 149.5H350C351.657 149.5 353 150.843 353 152.5C353 154.157 351.657 155.5 350 155.5H206C204.343 155.5 203 154.157 203 152.5Z" fill="#E5E7EB"/>
<path d="M203 164.5C203 162.843 204.343 161.5 206 161.5H280C281.657 161.5 283 162.843 283 164.5C283 166.157 281.657 167.5 280 167.5H206C204.343 167.5 203 166.157 203 164.5Z" fill="#E5E7EB"/>
<path d="M383.368 130.892H384.392C384.416 131.3 384.752 131.668 385.344 131.668C385.896 131.668 386.232 131.38 386.256 131.004C386.28 130.644 386.024 130.396 385.496 130.252L384.816 130.076C383.616 129.732 383.424 129.02 383.424 128.54C383.424 127.572 384.264 126.924 385.28 126.924C386.32 126.924 387.112 127.564 387.112 128.588H386.088C386.088 128.148 385.776 127.868 385.264 127.868C384.808 127.868 384.44 128.124 384.44 128.516C384.44 128.676 384.504 129.004 385.096 129.148L385.776 129.348C387.016 129.692 387.32 130.38 387.28 131.028C387.24 132.02 386.344 132.588 385.344 132.588C384.168 132.588 383.368 131.836 383.368 130.892ZM391.769 130.62C391.769 130.716 391.761 130.868 391.753 130.956H388.905C388.969 131.46 389.385 131.756 389.937 131.756C390.313 131.756 390.689 131.596 390.873 131.276C391.105 131.404 391.369 131.548 391.617 131.676C391.273 132.316 390.561 132.58 389.873 132.58C388.809 132.58 387.937 131.796 387.937 130.62C387.937 129.436 388.809 128.684 389.873 128.684C390.929 128.684 391.769 129.436 391.769 130.62ZM388.897 130.292H390.817C390.745 129.78 390.361 129.5 389.881 129.5C389.369 129.5 388.969 129.78 388.897 130.292ZM393.567 131.18V132.5H392.591V128.764H393.567V129.644C393.759 128.964 394.199 128.684 394.623 128.684C394.887 128.684 395.087 128.732 395.239 128.82L395.071 129.7C394.839 129.596 394.599 129.596 394.503 129.596C393.839 129.596 393.567 130.188 393.567 131.18ZM396.968 132.5L395.4 128.764H396.44L397.4 131.252L398.36 128.764H399.408L397.832 132.5H396.968ZM400.989 128.764V132.5H400.021V128.764H400.989ZM399.877 127.316C399.877 126.988 400.165 126.732 400.509 126.732C400.853 126.732 401.125 126.988 401.125 127.316C401.125 127.66 400.853 127.908 400.509 127.908C400.165 127.908 399.877 127.66 399.877 127.316ZM401.851 130.62C401.851 129.436 402.795 128.684 403.867 128.684C404.499 128.684 405.067 128.94 405.419 129.412L404.643 129.996C404.459 129.748 404.179 129.628 403.867 129.628C403.323 129.628 402.819 130.012 402.819 130.62C402.819 131.228 403.323 131.644 403.867 131.644C404.179 131.644 404.459 131.516 404.643 131.268L405.427 131.844C405.075 132.316 404.507 132.58 403.867 132.58C402.795 132.58 401.851 131.796 401.851 130.62ZM409.793 130.62C409.793 130.716 409.785 130.868 409.777 130.956H406.929C406.993 131.46 407.409 131.756 407.961 131.756C408.337 131.756 408.713 131.596 408.897 131.276C409.129 131.404 409.393 131.548 409.641 131.676C409.297 132.316 408.585 132.58 407.897 132.58C406.833 132.58 405.961 131.796 405.961 130.62C405.961 129.436 406.833 128.684 407.897 128.684C408.953 128.684 409.793 129.436 409.793 130.62ZM406.921 130.292H408.841C408.769 129.78 408.385 129.5 407.905 129.5C407.393 129.5 406.993 129.78 406.921 130.292ZM412.735 132.5V126.988H413.759V131.588H415.887V132.5H412.735ZM418.311 131.62C418.855 131.62 419.287 131.228 419.287 130.62C419.287 130.02 418.855 129.644 418.311 129.644C417.767 129.644 417.335 130.02 417.335 130.62C417.335 131.228 417.767 131.62 418.311 131.62ZM418.311 132.572C417.255 132.572 416.367 131.796 416.367 130.62C416.367 129.436 417.255 128.684 418.311 128.684C419.367 128.684 420.255 129.436 420.255 130.62C420.255 131.796 419.367 132.572 418.311 132.572ZM420.89 130.62C420.89 129.436 421.834 128.684 422.906 128.684C423.538 128.684 424.106 128.94 424.458 129.412L423.682 129.996C423.498 129.748 423.218 129.628 422.906 129.628C422.362 129.628 421.858 130.012 421.858 130.62C421.858 131.228 422.362 131.644 422.906 131.644C423.218 131.644 423.498 131.516 423.682 131.268L424.466 131.844C424.114 132.316 423.546 132.58 422.906 132.58C421.834 132.58 420.89 131.796 420.89 130.62ZM428.064 132.5V132.02C427.832 132.404 427.264 132.572 426.904 132.572C425.92 132.572 425 131.82 425 130.628C425 129.436 425.92 128.684 426.904 128.684C427.248 128.684 427.784 128.82 428.064 129.228V128.764H429.04V132.5H428.064ZM426.008 130.628C426.008 131.236 426.496 131.636 427.04 131.636C427.576 131.636 428.064 131.268 428.064 130.628C428.064 129.988 427.552 129.62 427.04 129.62C426.496 129.62 426.008 130.02 426.008 130.628ZM431.426 127.34V128.764H432.218V129.548H431.426V132.5H430.458V129.548H429.778V128.764H430.458V127.34H431.426ZM433.918 128.764V132.5H432.95V128.764H433.918ZM432.806 127.316C432.806 126.988 433.094 126.732 433.438 126.732C433.782 126.732 434.054 126.988 434.054 127.316C434.054 127.66 433.782 127.908 433.438 127.908C433.094 127.908 432.806 127.66 432.806 127.316ZM436.733 131.62C437.277 131.62 437.709 131.228 437.709 130.62C437.709 130.02 437.277 129.644 436.733 129.644C436.189 129.644 435.757 130.02 435.757 130.62C435.757 131.228 436.189 131.62 436.733 131.62ZM436.733 132.572C435.677 132.572 434.789 131.796 434.789 130.62C434.789 129.436 435.677 128.684 436.733 128.684C437.789 128.684 438.677 129.436 438.677 130.62C438.677 131.796 437.789 132.572 436.733 132.572ZM440.528 130.508V132.5H439.552V128.764H440.528V129.316C440.744 128.908 441.2 128.684 441.64 128.684C442.512 128.684 443.032 129.228 443.032 130.292V132.5H442.056V130.468C442.056 129.924 441.768 129.636 441.344 129.636C440.896 129.636 440.528 129.86 440.528 130.508Z" fill="black"/>
<path d="M383 140.5C383 138.843 384.343 137.5 386 137.5H480C481.657 137.5 483 138.843 483 140.5C483 142.157 481.657 143.5 480 143.5H386C384.343 143.5 383 142.157 383 140.5Z" fill="#E5E7EB"/>
<path d="M383 152.5C383 150.843 384.343 149.5 386 149.5H530C531.657 149.5 533 150.843 533 152.5C533 154.157 531.657 155.5 530 155.5H386C384.343 155.5 383 154.157 383 152.5Z" fill="#E5E7EB"/>
<path d="M383 164.5C383 162.843 384.343 161.5 386 161.5H460C461.657 161.5 463 162.843 463 164.5C463 166.157 461.657 167.5 460 167.5H386C384.343 167.5 383 166.157 383 164.5Z" fill="#E5E7EB"/>
<path d="M203.688 193.5V187.988H204.704V193.5H203.688ZM207.184 188.34V189.764H207.976V190.548H207.184V193.5H206.216V190.548H205.536V189.764H206.216V188.34H207.184ZM212.261 191.62C212.261 191.716 212.253 191.868 212.245 191.956H209.397C209.461 192.46 209.877 192.756 210.429 192.756C210.805 192.756 211.181 192.596 211.365 192.276C211.597 192.404 211.861 192.548 212.109 192.676C211.765 193.316 211.053 193.58 210.365 193.58C209.301 193.58 208.429 192.796 208.429 191.62C208.429 190.436 209.301 189.684 210.365 189.684C211.421 189.684 212.261 190.436 212.261 191.62ZM209.389 191.292H211.309C211.237 190.78 210.853 190.5 210.373 190.5C209.861 190.5 209.461 190.78 209.389 191.292ZM217.267 190.636C216.819 190.636 216.507 190.932 216.507 191.508V193.5H215.531V191.444C215.523 190.924 215.227 190.636 214.843 190.636C214.443 190.636 214.059 190.868 214.059 191.508V193.5H213.083V189.764H214.059V190.316C214.275 189.86 214.771 189.692 215.131 189.692C215.731 189.724 216.107 189.932 216.323 190.388C216.667 189.764 217.211 189.684 217.499 189.684C218.403 189.684 218.939 190.268 218.939 191.364V193.5H217.971V191.468C217.971 190.924 217.675 190.636 217.267 190.636ZM223.142 188.924V192.564H224.27C225.246 192.564 225.734 191.748 225.734 190.756C225.734 189.756 225.246 188.924 224.27 188.924H223.142ZM224.27 193.5H222.118V187.988H224.27C225.846 187.988 226.758 189.188 226.758 190.756C226.758 192.324 225.846 193.5 224.27 193.5ZM231.254 191.62C231.254 191.716 231.246 191.868 231.238 191.956H228.39C228.454 192.46 228.87 192.756 229.422 192.756C229.798 192.756 230.174 192.596 230.358 192.276C230.59 192.404 230.854 192.548 231.102 192.676C230.758 193.316 230.046 193.58 229.358 193.58C228.294 193.58 227.422 192.796 227.422 191.62C227.422 190.436 228.294 189.684 229.358 189.684C230.414 189.684 231.254 190.436 231.254 191.62ZM228.382 191.292H230.302C230.23 190.78 229.846 190.5 229.366 190.5C228.854 190.5 228.454 190.78 228.382 191.292ZM233.355 188.34V189.764H234.147V190.548H233.355V193.5H232.387V190.548H231.707V189.764H232.387V188.34H233.355ZM237.665 193.5V193.02C237.433 193.404 236.865 193.572 236.505 193.572C235.521 193.572 234.601 192.82 234.601 191.628C234.601 190.436 235.521 189.684 236.505 189.684C236.849 189.684 237.385 189.82 237.665 190.228V189.764H238.641V193.5H237.665ZM235.609 191.628C235.609 192.236 236.097 192.636 236.641 192.636C237.177 192.636 237.665 192.268 237.665 191.628C237.665 190.988 237.153 190.62 236.641 190.62C236.097 190.62 235.609 191.02 235.609 191.628ZM240.715 189.764V193.5H239.747V189.764H240.715ZM239.603 188.316C239.603 187.988 239.891 187.732 240.235 187.732C240.579 187.732 240.851 187.988 240.851 188.316C240.851 188.66 240.579 188.908 240.235 188.908C239.891 188.908 239.603 188.66 239.603 188.316ZM241.818 193.5V187.732H242.794V193.5H241.818ZM245.312 192.068L244.8 191.94C243.832 191.684 243.744 191.228 243.744 190.796C243.744 190.188 244.384 189.684 245.12 189.684C245.832 189.684 246.536 190.004 246.576 190.86H245.648C245.624 190.58 245.368 190.476 245.144 190.476C244.896 190.476 244.672 190.564 244.672 190.844C244.672 190.996 244.848 191.1 245.064 191.156L245.688 191.308C246.552 191.548 246.664 192.124 246.664 192.428C246.664 193.196 245.912 193.58 245.136 193.58C244.4 193.58 243.656 193.124 243.632 192.324H244.544C244.568 192.588 244.872 192.82 245.232 192.796C245.512 192.788 245.72 192.636 245.72 192.42C245.728 192.228 245.592 192.132 245.312 192.068Z" fill="black"/>
<rect x="203" y="198.5" width="330" height="16" rx="4" fill="#F3F4F6"/>
<path d="M210.19 204.954H209.182V206.4H210.166C210.622 206.4 210.826 206.034 210.826 205.68C210.826 205.332 210.64 204.954 210.19 204.954ZM208.54 208.5V204.366H210.202C211.09 204.366 211.462 205.026 211.462 205.68C211.462 206.334 211.09 206.982 210.202 206.982H209.182V208.5H208.54ZM212.659 207.492V208.5H212.041V205.698H212.659V206.34C212.803 205.836 213.073 205.638 213.427 205.638C213.625 205.638 213.835 205.68 213.925 205.746L213.823 206.316C213.661 206.238 213.529 206.22 213.409 206.22C212.881 206.22 212.659 206.748 212.659 207.492ZM215.657 207.96C216.125 207.96 216.509 207.618 216.509 207.09C216.509 206.58 216.125 206.244 215.657 206.244C215.195 206.244 214.811 206.58 214.811 207.09C214.811 207.618 215.195 207.96 215.657 207.96ZM215.657 208.56C214.865 208.56 214.199 207.978 214.199 207.09C214.199 206.202 214.865 205.638 215.657 205.638C216.455 205.638 217.127 206.202 217.127 207.09C217.127 207.978 216.455 208.56 215.657 208.56ZM219.985 208.5V208.092C219.811 208.398 219.421 208.56 219.037 208.56C218.281 208.56 217.639 207.984 217.639 207.102C217.639 206.202 218.281 205.638 219.037 205.638C219.439 205.638 219.811 205.794 219.985 206.1V204.174H220.597V208.5H219.985ZM219.973 207.09C219.973 206.544 219.529 206.238 219.115 206.238C218.653 206.238 218.275 206.574 218.275 207.09C218.275 207.606 218.653 207.96 219.115 207.96C219.571 207.96 219.973 207.636 219.973 207.09ZM223.353 207.204V205.698H223.971V208.5H223.353V208.092C223.191 208.41 222.813 208.56 222.519 208.56C221.829 208.56 221.427 208.128 221.433 207.33V205.698H222.051V207.258C222.051 207.72 222.297 207.96 222.633 207.96C222.993 207.96 223.353 207.762 223.353 207.204ZM224.652 207.09C224.652 206.202 225.342 205.638 226.146 205.638C226.596 205.638 226.992 205.812 227.256 206.124L226.776 206.508C226.626 206.334 226.392 206.238 226.146 206.238C225.678 206.238 225.264 206.568 225.264 207.09C225.264 207.612 225.678 207.966 226.146 207.966C226.392 207.966 226.626 207.864 226.776 207.69L227.262 208.068C226.998 208.38 226.602 208.56 226.146 208.56C225.342 208.56 224.652 207.978 224.652 207.09ZM228.754 204.636V205.698H229.348V206.208H228.754V208.5H228.136V206.208H227.632V205.698H228.136V204.636H228.754ZM231.712 204.366H232.324L230.296 208.5H229.684L231.712 204.366ZM232.81 207.3H233.446C233.464 207.636 233.77 207.978 234.268 207.978C234.754 207.978 235.006 207.72 235.048 207.414C235.072 207.03 234.778 206.832 234.394 206.742L233.872 206.61C232.984 206.37 232.846 205.866 232.846 205.5C232.846 204.792 233.482 204.318 234.208 204.318C234.976 204.318 235.552 204.786 235.552 205.542H234.916C234.916 205.158 234.628 204.918 234.196 204.918C233.812 204.918 233.482 205.152 233.482 205.488C233.482 205.65 233.542 205.902 234.034 206.028L234.562 206.166C235.402 206.388 235.744 206.85 235.678 207.45C235.612 208.098 235.054 208.56 234.268 208.56C233.41 208.56 232.81 207.972 232.81 207.3ZM239.051 207.09C239.051 207.156 239.051 207.252 239.045 207.318H236.819C236.885 207.75 237.221 208.02 237.677 208.02C237.989 208.02 238.295 207.876 238.439 207.618L238.943 207.84C238.703 208.338 238.169 208.56 237.647 208.56C236.855 208.56 236.207 207.978 236.207 207.09C236.207 206.202 236.855 205.638 237.647 205.638C238.439 205.638 239.051 206.202 239.051 207.09ZM236.819 206.868H238.445C238.379 206.43 238.073 206.178 237.647 206.178C237.215 206.178 236.885 206.436 236.819 206.868ZM240.321 207.492V208.5H239.703V205.698H240.321V206.34C240.465 205.836 240.735 205.638 241.089 205.638C241.287 205.638 241.497 205.68 241.587 205.746L241.485 206.316C241.323 206.238 241.191 206.22 241.071 206.22C240.543 206.22 240.321 206.748 240.321 207.492ZM242.916 208.5L241.746 205.698H242.4L243.204 207.714L243.996 205.698H244.656L243.486 208.5H242.916ZM245.776 205.698V208.5H245.164V205.698H245.776ZM245.056 204.564C245.056 204.342 245.248 204.174 245.47 204.174C245.704 204.174 245.878 204.342 245.878 204.564C245.878 204.786 245.704 204.954 245.47 204.954C245.248 204.954 245.056 204.786 245.056 204.564ZM246.461 207.09C246.461 206.202 247.151 205.638 247.955 205.638C248.405 205.638 248.801 205.812 249.065 206.124L248.585 206.508C248.435 206.334 248.201 206.238 247.955 206.238C247.487 206.238 247.073 206.568 247.073 207.09C247.073 207.612 247.487 207.966 247.955 207.966C248.201 207.966 248.435 207.864 248.585 207.69L249.071 208.068C248.807 208.38 248.411 208.56 247.955 208.56C247.151 208.56 246.461 207.978 246.461 207.09ZM252.328 207.09C252.328 207.156 252.328 207.252 252.322 207.318H250.096C250.162 207.75 250.498 208.02 250.954 208.02C251.266 208.02 251.572 207.876 251.716 207.618L252.22 207.84C251.98 208.338 251.446 208.56 250.924 208.56C250.132 208.56 249.484 207.978 249.484 207.09C249.484 206.202 250.132 205.638 250.924 205.638C251.716 205.638 252.328 206.202 252.328 207.09ZM250.096 206.868H251.722C251.656 206.43 251.35 206.178 250.924 206.178C250.492 206.178 250.162 206.436 250.096 206.868ZM254.013 207.378L253.635 207.288C253.035 207.126 252.819 206.832 252.861 206.376C252.891 205.962 253.353 205.638 253.863 205.638C254.355 205.638 254.853 205.866 254.883 206.466H254.295C254.271 206.256 254.079 206.166 253.887 206.166C253.725 206.166 253.557 206.226 253.491 206.322C253.443 206.4 253.437 206.484 253.467 206.574C253.509 206.688 253.659 206.748 253.809 206.79L254.241 206.898C254.841 207.042 254.973 207.438 254.973 207.714C254.973 208.254 254.499 208.56 253.857 208.56C253.329 208.56 252.801 208.236 252.783 207.642H253.353C253.383 207.882 253.575 208.044 253.905 208.044C254.187 208.044 254.403 207.918 254.403 207.708C254.403 207.522 254.223 207.426 254.013 207.378Z" fill="#6B7280"/>
<path d="M386.522 208.224L386.942 208.902L386.462 209.196L386.006 208.464C385.814 208.53 385.604 208.56 385.376 208.56C384.2 208.56 383.282 207.618 383.282 206.442C383.282 205.272 384.2 204.318 385.376 204.318C386.558 204.318 387.482 205.272 387.482 206.442C387.482 207.192 387.104 207.84 386.522 208.224ZM385.736 206.964L386.186 207.69C386.594 207.426 386.84 206.97 386.84 206.442C386.84 205.608 386.21 204.93 385.376 204.93C384.554 204.93 383.918 205.608 383.918 206.442C383.918 207.228 384.476 207.852 385.232 207.918C385.37 207.936 385.514 207.93 385.658 207.906L385.262 207.258L385.736 206.964ZM389.036 204.636V205.698H389.63V206.208H389.036V208.5H388.418V206.208H387.914V205.698H388.418V204.636H389.036ZM392.743 205.698L391.009 209.868H390.361L390.967 208.368L389.857 205.698H390.517L391.297 207.618L392.083 205.698H392.743Z" fill="#6B7280"/>
<path d="M438.034 207.948C438.508 207.948 438.922 207.6 438.922 207.066V204.366H439.564V207.066C439.564 207.978 438.856 208.56 438.034 208.56C437.2 208.56 436.498 207.978 436.498 207.066V204.366H437.146V207.066C437.146 207.6 437.56 207.948 438.034 207.948ZM441.07 206.994V208.5H440.452V205.698H441.07V206.118C441.232 205.8 441.622 205.638 441.928 205.638C442.606 205.638 442.996 206.07 442.996 206.868V208.5H442.378V206.94C442.378 206.49 442.15 206.244 441.79 206.244C441.424 206.244 441.07 206.442 441.07 206.994ZM444.444 205.698V208.5H443.832V205.698H444.444ZM443.724 204.564C443.724 204.342 443.916 204.174 444.138 204.174C444.372 204.174 444.546 204.342 444.546 204.564C444.546 204.786 444.372 204.954 444.138 204.954C443.916 204.954 443.724 204.786 443.724 204.564ZM446.149 204.636V205.698H446.743V206.208H446.149V208.5H445.531V206.208H445.027V205.698H445.531V204.636H446.149ZM450.489 204.954H449.481V206.4H450.465C450.921 206.4 451.125 206.034 451.125 205.68C451.125 205.332 450.939 204.954 450.489 204.954ZM448.839 208.5V204.366H450.501C451.389 204.366 451.761 205.026 451.761 205.68C451.761 206.334 451.389 206.982 450.501 206.982H449.481V208.5H448.839ZM452.958 207.492V208.5H452.34V205.698H452.958V206.34C453.102 205.836 453.372 205.638 453.726 205.638C453.924 205.638 454.134 205.68 454.224 205.746L454.122 206.316C453.96 206.238 453.828 206.22 453.708 206.22C453.18 206.22 452.958 206.748 452.958 207.492ZM455.349 205.698V208.5H454.737V205.698H455.349ZM454.629 204.564C454.629 204.342 454.821 204.174 455.043 204.174C455.277 204.174 455.451 204.342 455.451 204.564C455.451 204.786 455.277 204.954 455.043 204.954C454.821 204.954 454.629 204.786 454.629 204.564ZM456.033 207.09C456.033 206.202 456.723 205.638 457.527 205.638C457.977 205.638 458.373 205.812 458.637 206.124L458.157 206.508C458.007 206.334 457.773 206.238 457.527 206.238C457.059 206.238 456.645 206.568 456.645 207.09C456.645 207.612 457.059 207.966 457.527 207.966C457.773 207.966 458.007 207.864 458.157 207.69L458.643 208.068C458.379 208.38 457.983 208.56 457.527 208.56C456.723 208.56 456.033 207.978 456.033 207.09ZM461.901 207.09C461.901 207.156 461.901 207.252 461.895 207.318H459.669C459.735 207.75 460.071 208.02 460.527 208.02C460.839 208.02 461.145 207.876 461.289 207.618L461.793 207.84C461.553 208.338 461.019 208.56 460.497 208.56C459.705 208.56 459.057 207.978 459.057 207.09C459.057 206.202 459.705 205.638 460.497 205.638C461.289 205.638 461.901 206.202 461.901 207.09ZM459.669 206.868H461.295C461.229 206.43 460.923 206.178 460.497 206.178C460.065 206.178 459.735 206.436 459.669 206.868Z" fill="#6B7280"/>
<path d="M509.174 208.5L508.778 207.468H507.11L506.714 208.5H506.036L507.596 204.366H508.286L509.846 208.5H509.174ZM507.944 205.164L507.326 206.898H508.562L507.944 205.164ZM513.509 206.244C513.101 206.244 512.831 206.538 512.831 206.994V208.5H512.213V206.928C512.207 206.496 511.979 206.244 511.643 206.244C511.283 206.244 510.935 206.442 510.935 206.994V208.5H510.317V205.698H510.935V206.118C511.127 205.734 511.589 205.638 511.817 205.638C512.267 205.638 512.537 205.836 512.699 206.196C512.957 205.71 513.389 205.638 513.641 205.638C514.337 205.638 514.721 206.088 514.721 206.886V208.5H514.103V206.94C514.103 206.502 513.869 206.244 513.509 206.244ZM516.833 207.96C517.301 207.96 517.685 207.618 517.685 207.09C517.685 206.58 517.301 206.244 516.833 206.244C516.371 206.244 515.987 206.58 515.987 207.09C515.987 207.618 516.371 207.96 516.833 207.96ZM516.833 208.56C516.041 208.56 515.375 207.978 515.375 207.09C515.375 206.202 516.041 205.638 516.833 205.638C517.631 205.638 518.303 206.202 518.303 207.09C518.303 207.978 517.631 208.56 516.833 208.56ZM520.879 207.204V205.698H521.497V208.5H520.879V208.092C520.717 208.41 520.339 208.56 520.045 208.56C519.355 208.56 518.953 208.128 518.959 207.33V205.698H519.577V207.258C519.577 207.72 519.823 207.96 520.159 207.96C520.519 207.96 520.879 207.762 520.879 207.204ZM522.976 206.994V208.5H522.358V205.698H522.976V206.118C523.138 205.8 523.528 205.638 523.834 205.638C524.512 205.638 524.902 206.07 524.902 206.868V208.5H524.284V206.94C524.284 206.49 524.056 206.244 523.696 206.244C523.33 206.244 522.976 206.442 522.976 206.994ZM526.579 204.636V205.698H527.173V206.208H526.579V208.5H525.961V206.208H525.457V205.698H525.961V204.636H526.579Z" fill="#6B7280"/>
<path d="M203 227C203 225.619 204.119 224.5 205.5 224.5H350.5C351.881 224.5 353 225.619 353 227C353 228.381 351.881 229.5 350.5 229.5H205.5C204.119 229.5 203 228.381 203 227Z" fill="#E5E7EB"/>
<path d="M203 237C203 235.619 204.119 234.5 205.5 234.5H350.5C351.881 234.5 353 235.619 353 237C353 238.381 351.881 239.5 350.5 239.5H205.5C204.119 239.5 203 238.381 203 237Z" fill="#E5E7EB"/>
<path d="M383 227C383 225.619 384.119 224.5 385.5 224.5H415.5C416.881 224.5 418 225.619 418 227C418 228.381 416.881 229.5 415.5 229.5H385.5C384.119 229.5 383 228.381 383 227Z" fill="#E5E7EB"/>
<path d="M440.5 227C440.5 225.619 441.619 224.5 443 224.5H473C474.381 224.5 475.5 225.619 475.5 227C475.5 228.381 474.381 229.5 473 229.5H443C441.619 229.5 440.5 228.381 440.5 227Z" fill="#E5E7EB"/>
<path d="M498 227C498 225.619 499.119 224.5 500.5 224.5H530.5C531.881 224.5 533 225.619 533 227C533 228.381 531.881 229.5 530.5 229.5H500.5C499.119 229.5 498 228.381 498 227Z" fill="#E5E7EB"/>
<path d="M203.5 253.5C203.5 251.567 205.067 250 207 250H277C278.933 250 280.5 251.567 280.5 253.5V265.5C280.5 267.433 278.933 269 277 269H207C205.067 269 203.5 267.433 203.5 265.5V253.5Z" fill="#E8F0FD"/>
<path d="M203.5 253.5C203.5 251.567 205.067 250 207 250H277C278.933 250 280.5 251.567 280.5 253.5V265.5C280.5 267.433 278.933 269 277 269H207C205.067 269 203.5 267.433 203.5 265.5V253.5Z" stroke="#407CEE"/>
<path d="M215.232 261.5L214.704 260.124H212.48L211.952 261.5H211.048L213.128 255.988H214.048L216.128 261.5H215.232ZM213.592 257.052L212.768 259.364H214.416L213.592 257.052ZM219.597 261.5V260.956C219.365 261.364 218.845 261.58 218.333 261.58C217.325 261.58 216.469 260.812 216.469 259.636C216.469 258.436 217.325 257.684 218.333 257.684C218.869 257.684 219.365 257.892 219.597 258.3V255.732H220.413V261.5H219.597ZM219.581 259.62C219.581 258.892 218.989 258.484 218.437 258.484C217.821 258.484 217.317 258.932 217.317 259.62C217.317 260.308 217.821 260.78 218.437 260.78C219.045 260.78 219.581 260.348 219.581 259.62ZM224.464 261.5V260.956C224.232 261.364 223.712 261.58 223.2 261.58C222.192 261.58 221.336 260.812 221.336 259.636C221.336 258.436 222.192 257.684 223.2 257.684C223.736 257.684 224.232 257.892 224.464 258.3V255.732H225.28V261.5H224.464ZM224.448 259.62C224.448 258.892 223.856 258.484 223.304 258.484C222.688 258.484 222.184 258.932 222.184 259.62C222.184 260.308 222.688 260.78 223.304 260.78C223.912 260.78 224.448 260.348 224.448 259.62ZM228.291 259.9H229.139C229.163 260.348 229.571 260.804 230.235 260.804C230.883 260.804 231.219 260.46 231.275 260.052C231.307 259.54 230.915 259.276 230.403 259.156L229.707 258.98C228.523 258.66 228.339 257.988 228.339 257.5C228.339 256.556 229.187 255.924 230.155 255.924C231.179 255.924 231.947 256.548 231.947 257.556H231.099C231.099 257.044 230.715 256.724 230.139 256.724C229.627 256.724 229.187 257.036 229.187 257.484C229.187 257.7 229.267 258.036 229.923 258.204L230.627 258.388C231.747 258.684 232.203 259.3 232.115 260.1C232.027 260.964 231.283 261.58 230.235 261.58C229.091 261.58 228.291 260.796 228.291 259.9ZM236.612 259.62C236.612 259.708 236.612 259.836 236.604 259.924H233.636C233.724 260.5 234.172 260.86 234.78 260.86C235.196 260.86 235.604 260.668 235.796 260.324L236.468 260.62C236.148 261.284 235.436 261.58 234.74 261.58C233.684 261.58 232.82 260.804 232.82 259.62C232.82 258.436 233.684 257.684 234.74 257.684C235.796 257.684 236.612 258.436 236.612 259.62ZM233.636 259.324H235.804C235.716 258.74 235.308 258.404 234.74 258.404C234.164 258.404 233.724 258.748 233.636 259.324ZM238.306 260.156V261.5H237.482V257.764H238.306V258.62C238.498 257.948 238.858 257.684 239.33 257.684C239.594 257.684 239.874 257.74 239.994 257.828L239.858 258.588C239.642 258.484 239.466 258.46 239.306 258.46C238.602 258.46 238.306 259.164 238.306 260.156ZM241.766 261.5L240.206 257.764H241.078L242.15 260.452L243.206 257.764H244.086L242.526 261.5H241.766ZM245.58 257.764V261.5H244.764V257.764H245.58ZM244.62 256.252C244.62 255.956 244.876 255.732 245.172 255.732C245.484 255.732 245.716 255.956 245.716 256.252C245.716 256.548 245.484 256.772 245.172 256.772C244.876 256.772 244.62 256.548 244.62 256.252ZM246.492 259.62C246.492 258.436 247.412 257.684 248.484 257.684C249.084 257.684 249.612 257.916 249.964 258.332L249.324 258.844C249.124 258.612 248.812 258.484 248.484 258.484C247.86 258.484 247.308 258.924 247.308 259.62C247.308 260.316 247.86 260.788 248.484 260.788C248.812 260.788 249.124 260.652 249.324 260.42L249.972 260.924C249.62 261.34 249.092 261.58 248.484 261.58C247.412 261.58 246.492 260.804 246.492 259.62ZM254.316 259.62C254.316 259.708 254.316 259.836 254.308 259.924H251.34C251.428 260.5 251.876 260.86 252.484 260.86C252.9 260.86 253.308 260.668 253.5 260.324L254.172 260.62C253.852 261.284 253.14 261.58 252.444 261.58C251.388 261.58 250.524 260.804 250.524 259.62C250.524 258.436 251.388 257.684 252.444 257.684C253.5 257.684 254.316 258.436 254.316 259.62ZM251.34 259.324H253.508C253.42 258.74 253.012 258.404 252.444 258.404C251.868 258.404 251.428 258.748 251.34 259.324ZM257.361 261.5V255.988H258.209V261.5H257.361ZM260.587 256.348V257.764H261.379V258.444H260.587V261.5H259.763V258.444H259.091V257.764H259.763V256.348H260.587ZM265.651 259.62C265.651 259.708 265.651 259.836 265.643 259.924H262.675C262.763 260.5 263.211 260.86 263.819 260.86C264.235 260.86 264.643 260.668 264.835 260.324L265.507 260.62C265.187 261.284 264.475 261.58 263.779 261.58C262.723 261.58 261.859 260.804 261.859 259.62C261.859 258.436 262.723 257.684 263.779 257.684C264.835 257.684 265.651 258.436 265.651 259.62ZM262.675 259.324H264.843C264.755 258.74 264.347 258.404 263.779 258.404C263.203 258.404 262.763 258.748 262.675 259.324ZM270.777 258.492C270.233 258.492 269.873 258.884 269.873 259.492V261.5H269.049V259.404C269.041 258.828 268.737 258.492 268.289 258.492C267.809 258.492 267.345 258.756 267.345 259.492V261.5H266.521V257.764H267.345V258.324C267.601 257.812 268.217 257.684 268.521 257.684C269.121 257.684 269.481 257.948 269.697 258.428C270.041 257.78 270.617 257.684 270.953 257.684C271.881 257.684 272.393 258.284 272.393 259.348V261.5H271.569V259.42C271.569 258.836 271.257 258.492 270.777 258.492Z" fill="#2D64D6"/>
<path d="M207.152 295.5L206.648 294.164H204.592L204.088 295.5H203L205.064 289.988H206.168L208.232 295.5H207.152ZM205.616 291.164L204.936 293.268H206.312L205.616 291.164ZM210.202 294.068L209.69 293.94C208.722 293.684 208.634 293.228 208.634 292.796C208.634 292.188 209.274 291.684 210.01 291.684C210.722 291.684 211.426 292.004 211.466 292.86H210.538C210.514 292.58 210.258 292.476 210.034 292.476C209.786 292.476 209.562 292.564 209.562 292.844C209.562 292.996 209.738 293.1 209.954 293.156L210.578 293.308C211.442 293.548 211.554 294.124 211.554 294.428C211.554 295.196 210.802 295.58 210.026 295.58C209.29 295.58 208.546 295.124 208.522 294.324H209.434C209.458 294.588 209.762 294.82 210.122 294.796C210.402 294.788 210.61 294.636 210.61 294.42C210.618 294.228 210.482 294.132 210.202 294.068ZM213.835 294.068L213.323 293.94C212.355 293.684 212.267 293.228 212.267 292.796C212.267 292.188 212.907 291.684 213.643 291.684C214.355 291.684 215.059 292.004 215.099 292.86H214.171C214.147 292.58 213.891 292.476 213.667 292.476C213.419 292.476 213.195 292.564 213.195 292.844C213.195 292.996 213.371 293.1 213.587 293.156L214.211 293.308C215.075 293.548 215.187 294.124 215.187 294.428C215.187 295.196 214.435 295.58 213.659 295.58C212.923 295.58 212.179 295.124 212.155 294.324H213.067C213.091 294.588 213.395 294.82 213.755 294.796C214.035 294.788 214.243 294.636 214.243 294.42C214.251 294.228 214.115 294.132 213.835 294.068ZM217.02 291.764V295.5H216.052V291.764H217.02ZM215.908 290.316C215.908 289.988 216.196 289.732 216.54 289.732C216.884 289.732 217.156 289.988 217.156 290.316C217.156 290.66 216.884 290.908 216.54 290.908C216.196 290.908 215.908 290.66 215.908 290.316ZM220.93 293.628C220.93 292.988 220.45 292.62 219.914 292.62C219.37 292.62 218.906 293.02 218.906 293.628C218.906 294.252 219.37 294.652 219.914 294.652C220.418 294.652 220.93 294.26 220.93 293.628ZM218.826 295.86C218.986 296.236 219.426 296.476 219.818 296.476C220.762 296.476 221.018 295.772 220.954 294.988C220.762 295.364 220.242 295.58 219.762 295.58C218.786 295.58 217.89 294.828 217.89 293.644C217.89 292.444 218.786 291.684 219.762 291.684C220.25 291.684 220.738 291.892 220.954 292.268V291.764H221.906V294.964C221.906 296.628 221.114 297.364 219.818 297.364C219.042 297.364 218.362 296.94 218.034 296.26C218.25 296.156 218.61 295.964 218.826 295.86ZM223.989 293.508V295.5H223.013V291.764H223.989V292.316C224.205 291.908 224.661 291.684 225.101 291.684C225.973 291.684 226.493 292.228 226.493 293.292V295.5H225.517V293.468C225.517 292.924 225.229 292.636 224.805 292.636C224.357 292.636 223.989 292.86 223.989 293.508ZM231.152 293.62C231.152 293.716 231.144 293.868 231.136 293.956H228.288C228.352 294.46 228.768 294.756 229.32 294.756C229.696 294.756 230.072 294.596 230.256 294.276C230.488 294.404 230.752 294.548 231 294.676C230.656 295.316 229.944 295.58 229.256 295.58C228.192 295.58 227.32 294.796 227.32 293.62C227.32 292.436 228.192 291.684 229.256 291.684C230.312 291.684 231.152 292.436 231.152 293.62ZM228.28 293.292H230.2C230.128 292.78 229.744 292.5 229.264 292.5C228.752 292.5 228.352 292.78 228.28 293.292ZM234.75 295.5V294.996C234.534 295.372 234.062 295.58 233.574 295.58C232.59 295.58 231.742 294.82 231.742 293.636C231.742 292.444 232.59 291.684 233.574 291.684C234.078 291.684 234.534 291.884 234.75 292.26V289.732H235.718V295.5H234.75ZM234.734 293.62C234.734 292.98 234.246 292.612 233.734 292.612C233.19 292.612 232.75 293.012 232.75 293.62C232.75 294.236 233.19 294.644 233.734 294.644C234.27 294.644 234.734 294.244 234.734 293.62ZM238.482 290.924V289.988H242.618V290.924H241.066V295.5H240.034V290.924H238.482ZM246.347 293.62C246.347 293.716 246.339 293.868 246.331 293.956H243.483C243.547 294.46 243.963 294.756 244.515 294.756C244.891 294.756 245.267 294.596 245.451 294.276C245.683 294.404 245.947 294.548 246.195 294.676C245.851 295.316 245.139 295.58 244.451 295.58C243.387 295.58 242.515 294.796 242.515 293.62C242.515 292.436 243.387 291.684 244.451 291.684C245.507 291.684 246.347 292.436 246.347 293.62ZM243.475 293.292H245.395C245.323 292.78 244.939 292.5 244.459 292.5C243.947 292.5 243.547 292.78 243.475 293.292ZM250.001 295.5V295.02C249.769 295.404 249.201 295.572 248.841 295.572C247.857 295.572 246.937 294.82 246.937 293.628C246.937 292.436 247.857 291.684 248.841 291.684C249.185 291.684 249.721 291.82 250.001 292.228V291.764H250.977V295.5H250.001ZM247.945 293.628C247.945 294.236 248.433 294.636 248.977 294.636C249.513 294.636 250.001 294.268 250.001 293.628C250.001 292.988 249.489 292.62 248.977 292.62C248.433 292.62 247.945 293.02 247.945 293.628ZM256.267 292.636C255.819 292.636 255.507 292.932 255.507 293.508V295.5H254.531V293.444C254.523 292.924 254.227 292.636 253.843 292.636C253.443 292.636 253.059 292.868 253.059 293.508V295.5H252.083V291.764H253.059V292.316C253.275 291.86 253.771 291.692 254.131 291.692C254.731 291.724 255.107 291.932 255.323 292.388C255.667 291.764 256.211 291.684 256.499 291.684C257.403 291.684 257.939 292.268 257.939 293.364V295.5H256.971V293.468C256.971 292.924 256.675 292.636 256.267 292.636Z" fill="black"/>
<path d="M203 304.5C203 302.291 204.791 300.5 207 300.5H234C236.209 300.5 238 302.291 238 304.5V316.5C238 318.709 236.209 320.5 234 320.5H207C204.791 320.5 203 318.709 203 316.5V304.5Z" fill="#E5E7EB"/>
<path d="M248 304.5C248 302.291 249.791 300.5 252 300.5H319C321.209 300.5 323 302.291 323 304.5V316.5C323 318.709 321.209 320.5 319 320.5H252C249.791 320.5 248 318.709 248 316.5V304.5Z" fill="#F3F4F6"/>
<path d="M333 304.5C333 302.291 334.791 300.5 337 300.5H404C406.209 300.5 408 302.291 408 304.5V316.5C408 318.709 406.209 320.5 404 320.5H337C334.791 320.5 333 318.709 333 316.5V304.5Z" fill="#F3F4F6"/>
<path d="M207.768 340.988V346.5H206.832L204.704 342.876V346.5H203.688V340.988H204.64L206.744 344.572V340.988H207.768ZM210.639 345.62C211.183 345.62 211.615 345.228 211.615 344.62C211.615 344.02 211.183 343.644 210.639 343.644C210.095 343.644 209.663 344.02 209.663 344.62C209.663 345.228 210.095 345.62 210.639 345.62ZM210.639 346.572C209.583 346.572 208.695 345.796 208.695 344.62C208.695 343.436 209.583 342.684 210.639 342.684C211.695 342.684 212.583 343.436 212.583 344.62C212.583 345.796 211.695 346.572 210.639 346.572ZM214.738 341.34V342.764H215.53V343.548H214.738V346.5H213.77V343.548H213.09V342.764H213.77V341.34H214.738ZM219.816 344.62C219.816 344.716 219.808 344.868 219.8 344.956H216.952C217.016 345.46 217.432 345.756 217.984 345.756C218.36 345.756 218.736 345.596 218.92 345.276C219.152 345.404 219.416 345.548 219.664 345.676C219.32 346.316 218.608 346.58 217.92 346.58C216.856 346.58 215.984 345.796 215.984 344.62C215.984 343.436 216.856 342.684 217.92 342.684C218.976 342.684 219.816 343.436 219.816 344.62ZM216.944 344.292H218.864C218.792 343.78 218.408 343.5 217.928 343.5C217.416 343.5 217.016 343.78 216.944 344.292ZM222.054 345.068L221.542 344.94C220.574 344.684 220.486 344.228 220.486 343.796C220.486 343.188 221.126 342.684 221.862 342.684C222.574 342.684 223.278 343.004 223.318 343.86H222.39C222.366 343.58 222.11 343.476 221.886 343.476C221.638 343.476 221.414 343.564 221.414 343.844C221.414 343.996 221.59 344.1 221.806 344.156L222.43 344.308C223.294 344.548 223.406 345.124 223.406 345.428C223.406 346.196 222.654 346.58 221.878 346.58C221.142 346.58 220.398 346.124 220.374 345.324H221.286C221.31 345.588 221.614 345.82 221.974 345.796C222.254 345.788 222.462 345.636 222.462 345.42C222.47 345.228 222.334 345.132 222.054 345.068Z" fill="black"/>
<path d="M203 355.5C203 353.291 204.791 351.5 207 351.5H529C531.209 351.5 533 353.291 533 355.5V397.5C533 399.709 531.209 401.5 529 401.5H207C204.791 401.5 203 399.709 203 397.5V355.5Z" fill="#F3F4F6"/>
<path d="M203 430.5C203 428.291 204.791 426.5 207 426.5H529C531.209 426.5 533 428.291 533 430.5V448.5C533 450.709 531.209 452.5 529 452.5H207C204.791 452.5 203 450.709 203 448.5V430.5Z" fill="#407CEE"/>
<path d="M357 440.5H358.06C358.09 441.06 358.6 441.63 359.43 441.63C360.24 441.63 360.66 441.2 360.73 440.69C360.77 440.05 360.28 439.72 359.64 439.57L358.77 439.35C357.29 438.95 357.06 438.11 357.06 437.5C357.06 436.32 358.12 435.53 359.33 435.53C360.61 435.53 361.57 436.31 361.57 437.57H360.51C360.51 436.93 360.03 436.53 359.31 436.53C358.67 436.53 358.12 436.92 358.12 437.48C358.12 437.75 358.22 438.17 359.04 438.38L359.92 438.61C361.32 438.98 361.89 439.75 361.78 440.75C361.67 441.83 360.74 442.6 359.43 442.6C358 442.6 357 441.62 357 440.5ZM366.602 442.5V441.83C366.282 442.34 365.632 442.6 365.032 442.6C363.782 442.6 362.662 441.65 362.662 440.16C362.662 438.67 363.782 437.73 365.032 437.73C365.592 437.73 366.282 437.96 366.602 438.49V437.83H367.622V442.5H366.602ZM363.722 440.15C363.722 441.01 364.382 441.6 365.152 441.6C365.912 441.6 366.592 441.07 366.592 440.15C366.592 439.24 365.852 438.73 365.152 438.73C364.382 438.73 363.722 439.29 363.722 440.15ZM370.426 442.5L368.476 437.83H369.566L370.906 441.19L372.226 437.83H373.326L371.376 442.5H370.426ZM378.515 440.15C378.515 440.26 378.515 440.42 378.505 440.53H374.795C374.905 441.25 375.465 441.7 376.225 441.7C376.745 441.7 377.255 441.46 377.495 441.03L378.335 441.4C377.935 442.23 377.045 442.6 376.175 442.6C374.855 442.6 373.775 441.63 373.775 440.15C373.775 438.67 374.855 437.73 376.175 437.73C377.495 437.73 378.515 438.67 378.515 440.15ZM374.795 439.78H377.505C377.395 439.05 376.885 438.63 376.175 438.63C375.455 438.63 374.905 439.06 374.795 439.78Z" fill="white"/>
</g>
<path d="M56 17C50.7533 17 46.5 21.2533 46.5 26.5V459.5C46.5 464.747 50.7533 469 56 469H540C545.247 469 549.5 464.747 549.5 459.5V26.5C549.5 21.2533 545.247 17 540 17H56Z" stroke="#F3F4F6" stroke-width="3"/>
</g>
<defs>
<filter id="filter0_d_1228_2133" x="0" y="0.5" width="566" height="515" filterUnits="userSpaceOnUse" color-interpolation-filters="sRGB">
<feFlood flood-opacity="0" result="BackgroundImageFix"/>
<feColorMatrix in="SourceAlpha" type="matrix" values="0 0 0 0 0 0 0 0 0 0 0 0 0 0 0 0 0 0 127 0" result="hardAlpha"/>
<feOffset dx="-15" dy="15"/>
<feGaussianBlur stdDeviation="15"/>
<feComposite in2="hardAlpha" operator="out"/>
<feColorMatrix type="matrix" values="0 0 0 0 0 0 0 0 0 0 0 0 0 0 0 0 0 0 0.15 0"/>
<feBlend mode="normal" in2="BackgroundImageFix" result="effect1_dropShadow_1228_2133"/>
<feBlend mode="normal" in="SourceGraphic" in2="effect1_dropShadow_1228_2133" result="shape"/>
</filter>
<clipPath id="clip0_1228_2133">
<path d="M48 26.5C48 22.0817 51.5817 18.5 56 18.5H540C544.418 18.5 548 22.0817 548 26.5V459.5C548 463.918 544.418 467.5 540 467.5H56C51.5817 467.5 48 463.918 48 459.5V26.5Z" fill="white"/>
</clipPath>
</defs>
</svg>
