<svg width="606" height="521" viewBox="0 0 606 521" fill="none" xmlns="http://www.w3.org/2000/svg">
<g filter="url(#filter0_d_1228_1955)">
<g clip-path="url(#clip0_1228_1955)">
<path d="M53 46C53 41.5817 56.5817 38 61 38H545C549.418 38 553 41.5817 553 46V356C553 360.418 549.418 364 545 364H61C56.5817 364 53 360.418 53 356V46Z" fill="white" shape-rendering="crispEdges"/>
<mask id="path-3-inside-1_1228_1955" fill="white">
<path d="M53 38H553V86H53V38Z"/>
</mask>
<path d="M553 85H53V87H553V85Z" fill="#E5E7EB" mask="url(#path-3-inside-1_1228_1955)"/>
<path d="M74.552 56.65H71.852V60.538H74.48C75.668 60.538 76.226 59.53 76.226 58.612C76.226 57.712 75.704 56.65 74.552 56.65ZM69.548 67V54.598H74.588C77.342 54.598 78.53 56.596 78.53 58.612C78.53 60.628 77.342 62.59 74.588 62.59H71.852V67H69.548ZM82.354 64.03V67H80.158V58.594H82.354V60.574C82.786 59.044 83.776 58.414 84.73 58.414C85.324 58.414 85.774 58.522 86.116 58.72L85.738 60.7C85.216 60.466 84.676 60.466 84.46 60.466C82.966 60.466 82.354 61.798 82.354 64.03ZM89.7364 58.594V67H87.5584V58.594H89.7364ZM87.2344 55.336C87.2344 54.598 87.8824 54.022 88.6564 54.022C89.4304 54.022 90.0424 54.598 90.0424 55.336C90.0424 56.11 89.4304 56.668 88.6564 56.668C87.8824 56.668 87.2344 56.11 87.2344 55.336ZM91.6766 62.77C91.6766 60.106 93.8006 58.414 96.2126 58.414C97.6346 58.414 98.9126 58.99 99.7046 60.052L97.9586 61.366C97.5446 60.808 96.9146 60.538 96.2126 60.538C94.9886 60.538 93.8546 61.402 93.8546 62.77C93.8546 64.138 94.9886 65.074 96.2126 65.074C96.9146 65.074 97.5446 64.786 97.9586 64.228L99.7226 65.524C98.9306 66.586 97.6526 67.18 96.2126 67.18C93.8006 67.18 91.6766 65.416 91.6766 62.77ZM109.545 62.77C109.545 62.986 109.527 63.328 109.509 63.526H103.101C103.245 64.66 104.181 65.326 105.423 65.326C106.269 65.326 107.115 64.966 107.529 64.246C108.051 64.534 108.645 64.858 109.203 65.146C108.429 66.586 106.827 67.18 105.279 67.18C102.885 67.18 100.923 65.416 100.923 62.77C100.923 60.106 102.885 58.414 105.279 58.414C107.655 58.414 109.545 60.106 109.545 62.77ZM103.083 62.032H107.403C107.241 60.88 106.377 60.25 105.297 60.25C104.145 60.25 103.245 60.88 103.083 62.032ZM124.589 57.964C124.589 58.882 124.193 59.89 122.951 60.376C124.481 60.754 125.255 62.176 125.255 63.274C125.255 65.29 123.815 67 121.403 67H116.165V54.598H121.025C123.203 54.598 124.589 55.876 124.589 57.964ZM118.469 59.584H120.863C121.709 59.584 122.195 58.936 122.195 58.09C122.195 57.208 121.709 56.65 120.791 56.65H118.469V59.584ZM121.223 61.51H118.469V64.948H121.277C122.285 64.948 122.843 64.102 122.843 63.238C122.843 62.428 122.285 61.51 121.223 61.51ZM131.119 65.02C132.343 65.02 133.315 64.138 133.315 62.77C133.315 61.42 132.343 60.574 131.119 60.574C129.895 60.574 128.923 61.42 128.923 62.77C128.923 64.138 129.895 65.02 131.119 65.02ZM131.119 67.162C128.743 67.162 126.745 65.416 126.745 62.77C126.745 60.106 128.743 58.414 131.119 58.414C133.495 58.414 135.493 60.106 135.493 62.77C135.493 65.416 133.495 67.162 131.119 67.162ZM141.315 65.02C142.539 65.02 143.511 64.138 143.511 62.77C143.511 61.42 142.539 60.574 141.315 60.574C140.091 60.574 139.119 61.42 139.119 62.77C139.119 64.138 140.091 65.02 141.315 65.02ZM141.315 67.162C138.939 67.162 136.941 65.416 136.941 62.77C136.941 60.106 138.939 58.414 141.315 58.414C143.691 58.414 145.689 60.106 145.689 62.77C145.689 65.416 143.691 67.162 141.315 67.162ZM153.004 67L149.836 63.4V67H147.658V54.022H149.836V61.114L152.158 58.594H155.002L151.474 62.284L155.758 67H153.004Z" fill="black"/>
<path d="M73.81 102.18L74.63 102.83C74.03 103.62 73.08 104.1 71.95 104.1C70 104.1 68.47 102.53 68.47 100.57C68.47 98.62 70 97.03 71.95 97.03C73.06 97.03 74 97.51 74.61 98.27L73.79 98.91C73.34 98.4 72.71 98.05 71.95 98.05C70.58 98.05 69.53 99.18 69.53 100.57C69.53 101.97 70.58 103.08 71.95 103.08C72.71 103.08 73.38 102.74 73.81 102.18ZM79.1959 104V103.33C78.8759 103.84 78.2259 104.1 77.6259 104.1C76.3759 104.1 75.2559 103.15 75.2559 101.66C75.2559 100.17 76.3759 99.23 77.6259 99.23C78.1859 99.23 78.8759 99.46 79.1959 99.99V99.33H80.2159V104H79.1959ZM76.3159 101.65C76.3159 102.51 76.9759 103.1 77.7459 103.1C78.5059 103.1 79.1859 102.57 79.1859 101.65C79.1859 100.74 78.4459 100.23 77.7459 100.23C76.9759 100.23 76.3159 100.79 76.3159 101.65ZM85.2895 101.67C85.2895 100.74 84.6195 100.23 83.8495 100.23C83.0695 100.23 82.4295 100.82 82.4295 101.67C82.4295 102.55 83.0695 103.11 83.8495 103.11C84.5495 103.11 85.2895 102.59 85.2895 101.67ZM82.4395 104.59C82.6895 105.08 83.2395 105.37 83.7495 105.37C84.6995 105.37 85.3095 104.84 85.3095 103.53V103.29C85.0495 103.82 84.3595 104.1 83.7295 104.1C82.4695 104.1 81.3695 103.16 81.3695 101.68C81.3695 100.2 82.4695 99.23 83.7295 99.23C84.3695 99.23 85.0195 99.51 85.3095 100.02V99.33H86.3195V103.31C86.3195 105.46 85.3195 106.33 83.7495 106.33C82.8395 106.33 82.0295 105.86 81.5895 105.02C81.7795 104.94 82.2495 104.67 82.4395 104.59ZM92.203 101.65C92.203 101.76 92.203 101.92 92.193 102.03H88.483C88.593 102.75 89.153 103.2 89.913 103.2C90.433 103.2 90.943 102.96 91.183 102.53L92.023 102.9C91.623 103.73 90.733 104.1 89.863 104.1C88.543 104.1 87.463 103.13 87.463 101.65C87.463 100.17 88.543 99.23 89.863 99.23C91.183 99.23 92.203 100.17 92.203 101.65ZM88.483 101.28H91.193C91.083 100.55 90.573 100.13 89.863 100.13C89.143 100.13 88.593 100.56 88.483 101.28ZM96.9203 101.67C96.9203 100.74 96.2503 100.23 95.4803 100.23C94.7003 100.23 94.0603 100.82 94.0603 101.67C94.0603 102.55 94.7003 103.11 95.4803 103.11C96.1803 103.11 96.9203 102.59 96.9203 101.67ZM94.0703 104.59C94.3203 105.08 94.8703 105.37 95.3803 105.37C96.3303 105.37 96.9403 104.84 96.9403 103.53V103.29C96.6803 103.82 95.9903 104.1 95.3603 104.1C94.1003 104.1 93.0003 103.16 93.0003 101.68C93.0003 100.2 94.1003 99.23 95.3603 99.23C96.0003 99.23 96.6503 99.51 96.9403 100.02V99.33H97.9503V103.31C97.9503 105.46 96.9503 106.33 95.3803 106.33C94.4703 106.33 93.6603 105.86 93.2203 105.02C93.4103 104.94 93.8803 104.67 94.0703 104.59ZM101.524 103.1C102.304 103.1 102.944 102.53 102.944 101.65C102.944 100.8 102.304 100.24 101.524 100.24C100.754 100.24 100.114 100.8 100.114 101.65C100.114 102.53 100.754 103.1 101.524 103.1ZM101.524 104.1C100.204 104.1 99.0938 103.13 99.0938 101.65C99.0938 100.17 100.204 99.23 101.524 99.23C102.854 99.23 103.974 100.17 103.974 101.65C103.974 103.13 102.854 104.1 101.524 104.1ZM106.146 102.32V104H105.116V99.33H106.146V100.4C106.386 99.56 106.836 99.23 107.426 99.23C107.756 99.23 108.106 99.3 108.256 99.41L108.086 100.36C107.816 100.23 107.596 100.2 107.396 100.2C106.516 100.2 106.146 101.08 106.146 102.32ZM113.331 99.33L110.441 106.28H109.361L110.371 103.78L108.521 99.33H109.621L110.921 102.53L112.231 99.33H113.331Z" fill="black"/>
<rect x="68" y="118" width="40" height="4" rx="2" fill="#F0F0F0"/>
<rect x="68" y="125" width="25" height="4" rx="2" fill="#F0F0F0"/>
<rect x="68" y="141" width="40" height="4" rx="2" fill="#F0F0F0"/>
<rect x="68" y="148" width="25" height="4" rx="2" fill="#F0F0F0"/>
<rect x="68" y="164" width="40" height="4" rx="2" fill="#F0F0F0"/>
<rect x="68" y="171" width="25" height="4" rx="2" fill="#F0F0F0"/>
<rect x="68" y="187" width="40" height="4" rx="2" fill="#F0F0F0"/>
<rect x="68" y="194" width="25" height="4" rx="2" fill="#F0F0F0"/>
<rect x="68" y="210" width="40" height="4" rx="2" fill="#F0F0F0"/>
<rect x="68" y="217" width="25" height="4" rx="2" fill="#F0F0F0"/>
<rect x="68" y="233" width="40" height="4" rx="2" fill="#F0F0F0"/>
<rect x="68" y="240" width="25" height="4" rx="2" fill="#F0F0F0"/>
<rect x="68" y="256" width="40" height="4" rx="2" fill="#F0F0F0"/>
<rect x="68" y="263" width="25" height="4" rx="2" fill="#F0F0F0"/>
<rect x="138.5" y="96.5" width="119" height="14" rx="3.5" stroke="#E5E7EB"/>
<path d="M143.4 103.9H144.248C144.272 104.348 144.68 104.804 145.344 104.804C145.992 104.804 146.328 104.46 146.384 104.052C146.416 103.54 146.024 103.276 145.512 103.156L144.816 102.98C143.632 102.66 143.448 101.988 143.448 101.5C143.448 100.556 144.296 99.924 145.264 99.924C146.288 99.924 147.056 100.548 147.056 101.556H146.208C146.208 101.044 145.824 100.724 145.248 100.724C144.736 100.724 144.296 101.036 144.296 101.484C144.296 101.7 144.376 102.036 145.032 102.204L145.736 102.388C146.856 102.684 147.312 103.3 147.224 104.1C147.136 104.964 146.392 105.58 145.344 105.58C144.2 105.58 143.4 104.796 143.4 103.9ZM151.722 103.62C151.722 103.708 151.722 103.836 151.714 103.924H148.746C148.834 104.5 149.282 104.86 149.89 104.86C150.306 104.86 150.714 104.668 150.906 104.324L151.578 104.62C151.258 105.284 150.546 105.58 149.85 105.58C148.794 105.58 147.93 104.804 147.93 103.62C147.93 102.436 148.794 101.684 149.85 101.684C150.906 101.684 151.722 102.436 151.722 103.62ZM148.746 103.324H150.914C150.826 102.74 150.418 102.404 149.85 102.404C149.274 102.404 148.834 102.748 148.746 103.324ZM155.504 105.5V104.964C155.248 105.372 154.728 105.58 154.248 105.58C153.248 105.58 152.352 104.82 152.352 103.628C152.352 102.436 153.248 101.684 154.248 101.684C154.696 101.684 155.248 101.868 155.504 102.292V101.764H156.32V105.5H155.504ZM153.2 103.62C153.2 104.308 153.728 104.78 154.344 104.78C154.952 104.78 155.496 104.356 155.496 103.62C155.496 102.892 154.904 102.484 154.344 102.484C153.728 102.484 153.2 102.932 153.2 103.62ZM158.298 104.156V105.5H157.474V101.764H158.298V102.62C158.49 101.948 158.85 101.684 159.322 101.684C159.586 101.684 159.866 101.74 159.986 101.828L159.85 102.588C159.634 102.484 159.458 102.46 159.298 102.46C158.594 102.46 158.298 103.164 158.298 104.156ZM160.352 103.62C160.352 102.436 161.272 101.684 162.344 101.684C162.944 101.684 163.472 101.916 163.824 102.332L163.184 102.844C162.984 102.612 162.672 102.484 162.344 102.484C161.72 102.484 161.168 102.924 161.168 103.62C161.168 104.316 161.72 104.788 162.344 104.788C162.672 104.788 162.984 104.652 163.184 104.42L163.832 104.924C163.48 105.34 162.952 105.58 162.344 105.58C161.272 105.58 160.352 104.804 160.352 103.62ZM165.525 103.492V105.5H164.701V99.732H165.525V102.332C165.741 101.876 166.317 101.684 166.709 101.684C167.669 101.684 168.221 102.308 168.221 103.372V105.5H167.397V103.42C167.397 102.836 167.037 102.492 166.565 102.492C166.093 102.492 165.525 102.756 165.525 103.492Z" fill="#9CA3AF"/>
<rect x="138" y="119" width="35" height="25" rx="4" fill="#F0F0F0"/>
<rect x="183" y="124" width="355" height="5" rx="2.5" fill="#F0F0F0"/>
<rect x="183" y="134" width="100" height="5" rx="2.5" fill="#F0F0F0"/>
<rect x="138" y="154" width="35" height="25" rx="4" fill="#F0F0F0"/>
<rect x="183" y="159" width="355" height="5" rx="2.5" fill="#F0F0F0"/>
<rect x="183" y="169" width="100" height="5" rx="2.5" fill="#F0F0F0"/>
<rect x="138" y="189" width="35" height="25" rx="4" fill="#F0F0F0"/>
<rect x="183" y="194" width="355" height="5" rx="2.5" fill="#F0F0F0"/>
<rect x="183" y="204" width="100" height="5" rx="2.5" fill="#F0F0F0"/>
<rect x="138" y="224" width="35" height="25" rx="4" fill="#F0F0F0"/>
<rect x="183" y="229" width="355" height="5" rx="2.5" fill="#F0F0F0"/>
<rect x="183" y="239" width="100" height="5" rx="2.5" fill="#F0F0F0"/>
<rect x="138" y="259" width="35" height="25" rx="4" fill="#F0F0F0"/>
<rect x="183" y="264" width="355" height="5" rx="2.5" fill="#F0F0F0"/>
<rect x="183" y="274" width="100" height="5" rx="2.5" fill="#F0F0F0"/>
<rect x="138" y="294" width="35" height="25" rx="4" fill="#F0F0F0"/>
<rect x="183" y="299" width="355" height="5" rx="2.5" fill="#F0F0F0"/>
<rect x="183" y="309" width="100" height="5" rx="2.5" fill="#F0F0F0"/>
<rect x="138" y="329" width="35" height="25" rx="4" fill="#F0F0F0"/>
<rect x="183" y="334" width="355" height="5" rx="2.5" fill="#F0F0F0"/>
<rect x="183" y="344" width="100" height="5" rx="2.5" fill="#F0F0F0"/>
</g>
<path d="M61 36.5C55.7533 36.5 51.5 40.7533 51.5 46V356C51.5 361.247 55.7533 365.5 61 365.5H545C550.247 365.5 554.5 361.247 554.5 356V46C554.5 40.7533 550.247 36.5 545 36.5H61Z" stroke="#E5E7EB" stroke-opacity="0.3" stroke-width="3" shape-rendering="crispEdges"/>
</g>
<g filter="url(#filter1_d_1228_1955)">
<g clip-path="url(#clip1_1228_1955)">
<path d="M333 111C333 106.582 336.582 103 341 103H575C579.418 103 583 106.582 583 111V483C583 487.418 579.418 491 575 491H341C336.582 491 333 487.418 333 483V111Z" fill="white"/>
<mask id="path-45-inside-2_1228_1955" fill="white">
<path d="M333 103H583V135H333V103Z"/>
</mask>
<path d="M583 134H333V136H583V134Z" fill="#F3F4F6" mask="url(#path-45-inside-2_1228_1955)"/>
<path d="M349.228 122L348.472 119.996H345.388L344.632 122H343L346.096 113.732H347.752L350.848 122H349.228ZM346.924 115.496L345.904 118.652H347.968L346.924 115.496ZM355.773 122V121.244C355.449 121.808 354.741 122.12 354.009 122.12C352.533 122.12 351.261 120.98 351.261 119.204C351.261 117.416 352.533 116.276 354.009 116.276C354.765 116.276 355.449 116.576 355.773 117.14V113.348H357.225V122H355.773ZM355.749 119.18C355.749 118.22 355.017 117.668 354.249 117.668C353.433 117.668 352.773 118.268 352.773 119.18C352.773 120.104 353.433 120.716 354.249 120.716C355.053 120.716 355.749 120.116 355.749 119.18ZM363.051 122V121.244C362.727 121.808 362.019 122.12 361.287 122.12C359.811 122.12 358.539 120.98 358.539 119.204C358.539 117.416 359.811 116.276 361.287 116.276C362.043 116.276 362.727 116.576 363.051 117.14V113.348H364.503V122H363.051ZM363.027 119.18C363.027 118.22 362.295 117.668 361.527 117.668C360.711 117.668 360.051 118.268 360.051 119.18C360.051 120.104 360.711 120.716 361.527 120.716C362.331 120.716 363.027 120.116 363.027 119.18ZM368.865 119.588H370.401C370.437 120.2 370.941 120.752 371.829 120.752C372.657 120.752 373.161 120.32 373.197 119.756C373.233 119.216 372.849 118.844 372.057 118.628L371.037 118.364C369.237 117.848 368.949 116.78 368.949 116.06C368.949 114.608 370.209 113.636 371.733 113.636C373.293 113.636 374.48 114.596 374.48 116.132H372.945C372.945 115.472 372.477 115.052 371.709 115.052C371.025 115.052 370.473 115.436 370.473 116.024C370.473 116.264 370.569 116.756 371.457 116.972L372.477 117.272C374.337 117.788 374.793 118.82 374.733 119.792C374.673 121.28 373.329 122.132 371.829 122.132C370.065 122.132 368.865 121.004 368.865 119.588ZM381.466 119.18C381.466 119.324 381.454 119.552 381.442 119.684H377.17C377.266 120.44 377.89 120.884 378.718 120.884C379.282 120.884 379.846 120.644 380.122 120.164C380.47 120.356 380.866 120.572 381.238 120.764C380.722 121.724 379.654 122.12 378.622 122.12C377.026 122.12 375.718 120.944 375.718 119.18C375.718 117.404 377.026 116.276 378.622 116.276C380.206 116.276 381.466 117.404 381.466 119.18ZM377.158 118.688H380.038C379.93 117.92 379.354 117.5 378.634 117.5C377.866 117.5 377.266 117.92 377.158 118.688ZM384.163 120.02V122H382.699V116.396H384.163V117.716C384.451 116.696 385.111 116.276 385.747 116.276C386.143 116.276 386.443 116.348 386.671 116.48L386.419 117.8C386.071 117.644 385.711 117.644 385.567 117.644C384.571 117.644 384.163 118.532 384.163 120.02ZM389.265 122L386.913 116.396H388.473L389.913 120.128L391.353 116.396H392.925L390.561 122H389.265ZM395.296 116.396V122H393.844V116.396H395.296ZM393.628 114.224C393.628 113.732 394.06 113.348 394.576 113.348C395.092 113.348 395.5 113.732 395.5 114.224C395.5 114.74 395.092 115.112 394.576 115.112C394.06 115.112 393.628 114.74 393.628 114.224ZM396.589 119.18C396.589 117.404 398.005 116.276 399.613 116.276C400.561 116.276 401.413 116.66 401.941 117.368L400.777 118.244C400.501 117.872 400.081 117.692 399.613 117.692C398.797 117.692 398.041 118.268 398.041 119.18C398.041 120.092 398.797 120.716 399.613 120.716C400.081 120.716 400.501 120.524 400.777 120.152L401.953 121.016C401.425 121.724 400.573 122.12 399.613 122.12C398.005 122.12 396.589 120.944 396.589 119.18ZM408.501 119.18C408.501 119.324 408.489 119.552 408.477 119.684H404.205C404.301 120.44 404.925 120.884 405.753 120.884C406.317 120.884 406.881 120.644 407.157 120.164C407.505 120.356 407.901 120.572 408.273 120.764C407.757 121.724 406.689 122.12 405.657 122.12C404.061 122.12 402.753 120.944 402.753 119.18C402.753 117.404 404.061 116.276 405.657 116.276C407.241 116.276 408.501 117.404 408.501 119.18ZM404.193 118.688H407.073C406.965 117.92 406.389 117.5 405.669 117.5C404.901 117.5 404.301 117.92 404.193 118.688Z" fill="black"/>
<path d="M348.81 151.18L349.63 151.83C349.03 152.62 348.08 153.1 346.95 153.1C345 153.1 343.47 151.53 343.47 149.57C343.47 147.62 345 146.03 346.95 146.03C348.06 146.03 349 146.51 349.61 147.27L348.79 147.91C348.34 147.4 347.71 147.05 346.95 147.05C345.58 147.05 344.53 148.18 344.53 149.57C344.53 150.97 345.58 152.08 346.95 152.08C347.71 152.08 348.38 151.74 348.81 151.18ZM354.196 153V152.33C353.876 152.84 353.226 153.1 352.626 153.1C351.376 153.1 350.256 152.15 350.256 150.66C350.256 149.17 351.376 148.23 352.626 148.23C353.186 148.23 353.876 148.46 354.196 148.99V148.33H355.216V153H354.196ZM351.316 150.65C351.316 151.51 351.976 152.1 352.746 152.1C353.506 152.1 354.186 151.57 354.186 150.65C354.186 149.74 353.446 149.23 352.746 149.23C351.976 149.23 351.316 149.79 351.316 150.65ZM360.289 150.67C360.289 149.74 359.619 149.23 358.849 149.23C358.069 149.23 357.429 149.82 357.429 150.67C357.429 151.55 358.069 152.11 358.849 152.11C359.549 152.11 360.289 151.59 360.289 150.67ZM357.439 153.59C357.689 154.08 358.239 154.37 358.749 154.37C359.699 154.37 360.309 153.84 360.309 152.53V152.29C360.049 152.82 359.359 153.1 358.729 153.1C357.469 153.1 356.369 152.16 356.369 150.68C356.369 149.2 357.469 148.23 358.729 148.23C359.369 148.23 360.019 148.51 360.309 149.02V148.33H361.319V152.31C361.319 154.46 360.319 155.33 358.749 155.33C357.839 155.33 357.029 154.86 356.589 154.02C356.779 153.94 357.249 153.67 357.439 153.59ZM367.203 150.65C367.203 150.76 367.203 150.92 367.193 151.03H363.483C363.593 151.75 364.153 152.2 364.913 152.2C365.433 152.2 365.943 151.96 366.183 151.53L367.023 151.9C366.623 152.73 365.733 153.1 364.863 153.1C363.543 153.1 362.463 152.13 362.463 150.65C362.463 149.17 363.543 148.23 364.863 148.23C366.183 148.23 367.203 149.17 367.203 150.65ZM363.483 150.28H366.193C366.083 149.55 365.573 149.13 364.863 149.13C364.143 149.13 363.593 149.56 363.483 150.28ZM371.92 150.67C371.92 149.74 371.25 149.23 370.48 149.23C369.7 149.23 369.06 149.82 369.06 150.67C369.06 151.55 369.7 152.11 370.48 152.11C371.18 152.11 371.92 151.59 371.92 150.67ZM369.07 153.59C369.32 154.08 369.87 154.37 370.38 154.37C371.33 154.37 371.94 153.84 371.94 152.53V152.29C371.68 152.82 370.99 153.1 370.36 153.1C369.1 153.1 368 152.16 368 150.68C368 149.2 369.1 148.23 370.36 148.23C371 148.23 371.65 148.51 371.94 149.02V148.33H372.95V152.31C372.95 154.46 371.95 155.33 370.38 155.33C369.47 155.33 368.66 154.86 368.22 154.02C368.41 153.94 368.88 153.67 369.07 153.59ZM376.524 152.1C377.304 152.1 377.944 151.53 377.944 150.65C377.944 149.8 377.304 149.24 376.524 149.24C375.754 149.24 375.114 149.8 375.114 150.65C375.114 151.53 375.754 152.1 376.524 152.1ZM376.524 153.1C375.204 153.1 374.094 152.13 374.094 150.65C374.094 149.17 375.204 148.23 376.524 148.23C377.854 148.23 378.974 149.17 378.974 150.65C378.974 152.13 377.854 153.1 376.524 153.1ZM381.146 151.32V153H380.116V148.33H381.146V149.4C381.386 148.56 381.836 148.23 382.426 148.23C382.756 148.23 383.106 148.3 383.256 148.41L383.086 149.36C382.816 149.23 382.596 149.2 382.396 149.2C381.516 149.2 381.146 150.08 381.146 151.32ZM388.331 148.33L385.441 155.28H384.361L385.371 152.78L383.521 148.33H384.621L385.921 151.53L387.231 148.33H388.331Z" fill="black"/>
<path d="M343.5 164C343.5 162.067 345.067 160.5 347 160.5H569C570.933 160.5 572.5 162.067 572.5 164V176C572.5 177.933 570.933 179.5 569 179.5H347C345.067 179.5 343.5 177.933 343.5 176V164Z" stroke="#E5E7EB"/>
<path d="M343.5 196H344.56C344.59 196.56 345.1 197.13 345.93 197.13C346.74 197.13 347.16 196.7 347.23 196.19C347.27 195.55 346.78 195.22 346.14 195.07L345.27 194.85C343.79 194.45 343.56 193.61 343.56 193C343.56 191.82 344.62 191.03 345.83 191.03C347.11 191.03 348.07 191.81 348.07 193.07H347.01C347.01 192.43 346.53 192.03 345.81 192.03C345.17 192.03 344.62 192.42 344.62 192.98C344.62 193.25 344.72 193.67 345.54 193.88L346.42 194.11C347.82 194.48 348.39 195.25 348.28 196.25C348.17 197.33 347.24 198.1 345.93 198.1C344.5 198.1 343.5 197.12 343.5 196ZM353.902 195.65C353.902 195.76 353.902 195.92 353.892 196.03H350.182C350.292 196.75 350.852 197.2 351.612 197.2C352.132 197.2 352.642 196.96 352.882 196.53L353.722 196.9C353.322 197.73 352.432 198.1 351.562 198.1C350.242 198.1 349.162 197.13 349.162 195.65C349.162 194.17 350.242 193.23 351.562 193.23C352.882 193.23 353.902 194.17 353.902 195.65ZM350.182 195.28H352.892C352.782 194.55 352.272 194.13 351.562 194.13C350.842 194.13 350.292 194.56 350.182 195.28ZM356.02 196.32V198H354.99V193.33H356.02V194.4C356.26 193.56 356.71 193.23 357.3 193.23C357.63 193.23 357.98 193.3 358.13 193.41L357.96 194.36C357.69 194.23 357.47 194.2 357.27 194.2C356.39 194.2 356.02 195.08 356.02 196.32ZM360.344 198L358.394 193.33H359.484L360.824 196.69L362.144 193.33H363.244L361.294 198H360.344ZM365.111 193.33V198H364.091V193.33H365.111ZM363.911 191.44C363.911 191.07 364.231 190.79 364.601 190.79C364.991 190.79 365.281 191.07 365.281 191.44C365.281 191.81 364.991 192.09 364.601 192.09C364.231 192.09 363.911 191.81 363.911 191.44ZM366.252 195.65C366.252 194.17 367.402 193.23 368.742 193.23C369.492 193.23 370.152 193.52 370.592 194.04L369.792 194.68C369.542 194.39 369.152 194.23 368.742 194.23C367.962 194.23 367.272 194.78 367.272 195.65C367.272 196.52 367.962 197.11 368.742 197.11C369.152 197.11 369.542 196.94 369.792 196.65L370.602 197.28C370.162 197.8 369.502 198.1 368.742 198.1C367.402 198.1 366.252 197.13 366.252 195.65ZM376.031 195.65C376.031 195.76 376.031 195.92 376.021 196.03H372.311C372.421 196.75 372.981 197.2 373.741 197.2C374.261 197.2 374.771 196.96 375.011 196.53L375.851 196.9C375.451 197.73 374.561 198.1 373.691 198.1C372.371 198.1 371.291 197.13 371.291 195.65C371.291 194.17 372.371 193.23 373.691 193.23C375.011 193.23 376.031 194.17 376.031 195.65ZM372.311 195.28H375.021C374.911 194.55 374.401 194.13 373.691 194.13C372.971 194.13 372.421 194.56 372.311 195.28ZM384.848 191.11V198H383.858L380.898 193.07V198H379.838V191.11H380.858L383.788 196V191.11H384.848ZM389.997 198V197.33C389.677 197.84 389.027 198.1 388.427 198.1C387.177 198.1 386.057 197.15 386.057 195.66C386.057 194.17 387.177 193.23 388.427 193.23C388.987 193.23 389.677 193.46 389.997 193.99V193.33H391.017V198H389.997ZM387.117 195.65C387.117 196.51 387.777 197.1 388.547 197.1C389.307 197.1 389.987 196.57 389.987 195.65C389.987 194.74 389.247 194.23 388.547 194.23C387.777 194.23 387.117 194.79 387.117 195.65ZM397.78 194.24C397.1 194.24 396.65 194.73 396.65 195.49V198H395.62V195.38C395.61 194.66 395.23 194.24 394.67 194.24C394.07 194.24 393.49 194.57 393.49 195.49V198H392.46V193.33H393.49V194.03C393.81 193.39 394.58 193.23 394.96 193.23C395.71 193.23 396.16 193.56 396.43 194.16C396.86 193.35 397.58 193.23 398 193.23C399.16 193.23 399.8 193.98 399.8 195.31V198H398.77V195.4C398.77 194.67 398.38 194.24 397.78 194.24ZM405.631 195.65C405.631 195.76 405.631 195.92 405.621 196.03H401.911C402.021 196.75 402.581 197.2 403.341 197.2C403.861 197.2 404.371 196.96 404.611 196.53L405.451 196.9C405.051 197.73 404.161 198.1 403.291 198.1C401.971 198.1 400.891 197.13 400.891 195.65C400.891 194.17 401.971 193.23 403.291 193.23C404.611 193.23 405.631 194.17 405.631 195.65ZM401.911 195.28H404.621C404.511 194.55 404.001 194.13 403.291 194.13C402.571 194.13 402.021 194.56 401.911 195.28Z" fill="black"/>
<path d="M343.5 209C343.5 207.067 345.067 205.5 347 205.5H569C570.933 205.5 572.5 207.067 572.5 209V221C572.5 222.933 570.933 224.5 569 224.5H347C345.067 224.5 343.5 222.933 343.5 221V209Z" stroke="#E5E7EB"/>
<path d="M344.96 237.1V242.02H346.58C347.93 242.02 348.62 240.94 348.62 239.57C348.62 238.21 347.93 237.1 346.58 237.1H344.96ZM346.58 243H343.9V236.11H346.58C348.54 236.11 349.68 237.61 349.68 239.57C349.68 241.53 348.54 243 346.58 243ZM355.299 240.65C355.299 240.76 355.299 240.92 355.289 241.03H351.579C351.689 241.75 352.249 242.2 353.009 242.2C353.529 242.2 354.039 241.96 354.279 241.53L355.119 241.9C354.719 242.73 353.829 243.1 352.959 243.1C351.639 243.1 350.559 242.13 350.559 240.65C350.559 239.17 351.639 238.23 352.959 238.23C354.279 238.23 355.299 239.17 355.299 240.65ZM351.579 240.28H354.289C354.179 239.55 353.669 239.13 352.959 239.13C352.239 239.13 351.689 239.56 351.579 240.28ZM358.106 241.13L357.476 240.98C356.476 240.71 356.116 240.22 356.186 239.46C356.236 238.77 357.006 238.23 357.856 238.23C358.676 238.23 359.506 238.61 359.556 239.61H358.576C358.536 239.26 358.216 239.11 357.896 239.11C357.626 239.11 357.346 239.21 357.236 239.37C357.156 239.5 357.146 239.64 357.196 239.79C357.266 239.98 357.516 240.08 357.766 240.15L358.486 240.33C359.486 240.57 359.706 241.23 359.706 241.69C359.706 242.59 358.916 243.1 357.846 243.1C356.966 243.1 356.086 242.56 356.056 241.57H357.006C357.056 241.97 357.376 242.24 357.926 242.24C358.396 242.24 358.756 242.03 358.756 241.68C358.756 241.37 358.456 241.21 358.106 241.13ZM361.859 241.32V243H360.829V238.33H361.859V239.4C362.099 238.56 362.549 238.23 363.139 238.23C363.469 238.23 363.819 238.3 363.969 238.41L363.799 239.36C363.529 239.23 363.309 239.2 363.109 239.2C362.229 239.2 361.859 240.08 361.859 241.32ZM365.844 238.33V243H364.824V238.33H365.844ZM364.644 236.44C364.644 236.07 364.964 235.79 365.334 235.79C365.724 235.79 366.014 236.07 366.014 236.44C366.014 236.81 365.724 237.09 365.334 237.09C364.964 237.09 364.644 236.81 364.644 236.44ZM368.314 238.33V239.02C368.604 238.51 369.234 238.23 369.874 238.23C371.134 238.23 372.194 239.2 372.194 240.67C372.194 242.16 371.134 243.1 369.874 243.1C369.234 243.1 368.604 242.85 368.314 242.33V245.27H367.284V238.33H368.314ZM368.324 240.69C368.324 241.62 369.024 242.11 369.744 242.11C370.514 242.11 371.144 241.55 371.144 240.69C371.144 239.82 370.514 239.23 369.744 239.23C368.984 239.23 368.324 239.78 368.324 240.69ZM374.749 236.56V238.33H375.739V239.18H374.749V243H373.719V239.18H372.879V238.33H373.719V236.56H374.749ZM377.728 238.33V243H376.708V238.33H377.728ZM376.528 236.44C376.528 236.07 376.848 235.79 377.218 235.79C377.608 235.79 377.898 236.07 377.898 236.44C377.898 236.81 377.608 237.09 377.218 237.09C376.848 237.09 376.528 236.81 376.528 236.44ZM381.299 242.1C382.079 242.1 382.719 241.53 382.719 240.65C382.719 239.8 382.079 239.24 381.299 239.24C380.529 239.24 379.889 239.8 379.889 240.65C379.889 241.53 380.529 242.1 381.299 242.1ZM381.299 243.1C379.979 243.1 378.869 242.13 378.869 240.65C378.869 239.17 379.979 238.23 381.299 238.23C382.629 238.23 383.749 239.17 383.749 240.65C383.749 242.13 382.629 243.1 381.299 243.1ZM385.922 240.49V243H384.892V238.33H385.922V239.03C386.192 238.5 386.842 238.23 387.352 238.23C388.482 238.23 389.132 238.95 389.132 240.28V243H388.102V240.4C388.102 239.65 387.722 239.24 387.122 239.24C386.512 239.24 385.922 239.57 385.922 240.49Z" fill="black"/>
<path d="M343.5 254C343.5 252.067 345.067 250.5 347 250.5H569C570.933 250.5 572.5 252.067 572.5 254V296C572.5 297.933 570.933 299.5 569 299.5H347C345.067 299.5 343.5 297.933 343.5 296V254Z" stroke="#E5E7EB"/>
<path d="M346.39 317.08C347.18 317.08 347.87 316.5 347.87 315.61V311.11H348.94V315.61C348.94 317.13 347.76 318.1 346.39 318.1C345 318.1 343.83 317.13 343.83 315.61V311.11H344.91V315.61C344.91 316.5 345.6 317.08 346.39 317.08ZM351.449 313.33V314.02C351.739 313.51 352.369 313.23 353.009 313.23C354.269 313.23 355.329 314.2 355.329 315.67C355.329 317.16 354.269 318.1 353.009 318.1C352.369 318.1 351.739 317.85 351.449 317.33V320.27H350.419V313.33H351.449ZM351.459 315.69C351.459 316.62 352.159 317.11 352.879 317.11C353.649 317.11 354.279 316.55 354.279 315.69C354.279 314.82 353.649 314.23 352.879 314.23C352.119 314.23 351.459 314.78 351.459 315.69ZM356.484 318V310.79H357.514V318H356.484ZM361.084 317.1C361.864 317.1 362.504 316.53 362.504 315.65C362.504 314.8 361.864 314.24 361.084 314.24C360.314 314.24 359.674 314.8 359.674 315.65C359.674 316.53 360.314 317.1 361.084 317.1ZM361.084 318.1C359.764 318.1 358.654 317.13 358.654 315.65C358.654 314.17 359.764 313.23 361.084 313.23C362.414 313.23 363.534 314.17 363.534 315.65C363.534 317.13 362.414 318.1 361.084 318.1ZM368.317 318V317.33C367.997 317.84 367.347 318.1 366.747 318.1C365.497 318.1 364.377 317.15 364.377 315.66C364.377 314.17 365.497 313.23 366.747 313.23C367.307 313.23 367.997 313.46 368.317 313.99V313.33H369.337V318H368.317ZM365.437 315.65C365.437 316.51 366.097 317.1 366.867 317.1C367.627 317.1 368.307 316.57 368.307 315.65C368.307 314.74 367.567 314.23 366.867 314.23C366.097 314.23 365.437 314.79 365.437 315.65ZM374.401 318V317.32C374.111 317.83 373.461 318.1 372.821 318.1C371.561 318.1 370.491 317.14 370.491 315.67C370.491 314.17 371.561 313.23 372.821 313.23C373.491 313.23 374.111 313.49 374.401 314V310.79H375.421V318H374.401ZM374.381 315.65C374.381 314.74 373.641 314.23 372.951 314.23C372.181 314.23 371.551 314.79 371.551 315.65C371.551 316.51 372.181 317.1 372.951 317.1C373.711 317.1 374.381 316.56 374.381 315.65ZM382.334 312.09H380.654V314.5H382.294C383.054 314.5 383.394 313.89 383.394 313.3C383.394 312.72 383.084 312.09 382.334 312.09ZM379.584 318V311.11H382.354C383.834 311.11 384.454 312.21 384.454 313.3C384.454 314.39 383.834 315.47 382.354 315.47H380.654V318H379.584ZM386.508 315.49V318H385.478V310.79H386.508V314.04C386.778 313.47 387.498 313.23 387.988 313.23C389.188 313.23 389.878 314.01 389.878 315.34V318H388.848V315.4C388.848 314.67 388.398 314.24 387.808 314.24C387.218 314.24 386.508 314.57 386.508 315.49ZM393.389 317.1C394.169 317.1 394.809 316.53 394.809 315.65C394.809 314.8 394.169 314.24 393.389 314.24C392.619 314.24 391.979 314.8 391.979 315.65C391.979 316.53 392.619 317.1 393.389 317.1ZM393.389 318.1C392.069 318.1 390.959 317.13 390.959 315.65C390.959 314.17 392.069 313.23 393.389 313.23C394.719 313.23 395.839 314.17 395.839 315.65C395.839 317.13 394.719 318.1 393.389 318.1ZM398.382 311.56V313.33H399.372V314.18H398.382V318H397.352V314.18H396.512V313.33H397.352V311.56H398.382ZM402.403 317.1C403.183 317.1 403.823 316.53 403.823 315.65C403.823 314.8 403.183 314.24 402.403 314.24C401.633 314.24 400.993 314.8 400.993 315.65C400.993 316.53 401.633 317.1 402.403 317.1ZM402.403 318.1C401.083 318.1 399.973 317.13 399.973 315.65C399.973 314.17 401.083 313.23 402.403 313.23C403.733 313.23 404.853 314.17 404.853 315.65C404.853 317.13 403.733 318.1 402.403 318.1Z" fill="black"/>
<path d="M343.5 329C343.5 327.067 345.067 325.5 347 325.5H569C570.933 325.5 572.5 327.067 572.5 329V351C572.5 352.933 570.933 354.5 569 354.5H347C345.067 354.5 343.5 352.933 343.5 351V329Z" stroke="#E5E7EB"/>
<g clip-path="url(#clip2_1228_1955)">
<path d="M413.56 344C412.751 344.001 411.974 343.685 411.396 343.119C410.185 341.862 410.209 339.865 411.449 338.637L413.394 336.692C414.188 335.875 415.464 335.768 416.383 336.443C417.362 337.195 417.546 338.598 416.795 339.577C416.736 339.653 416.672 339.726 416.604 339.794L414.569 341.829C414.34 342.069 414.036 342.223 413.708 342.266C413.262 342.315 412.821 342.141 412.528 341.803C412.079 341.227 412.127 340.407 412.64 339.888L414.192 338.338C414.389 338.141 414.708 338.141 414.904 338.338C415.101 338.535 415.101 338.854 414.904 339.05L413.305 340.65C413.164 340.791 413.165 341.019 413.305 341.16C413.446 341.3 413.674 341.3 413.815 341.159L415.869 339.106C416.29 338.696 416.368 338.047 416.056 337.549C415.687 336.981 414.927 336.819 414.359 337.188C414.287 337.234 414.221 337.288 414.161 337.348L412.134 339.376C411.368 340.12 411.269 341.315 411.901 342.175C412.605 343.092 413.918 343.264 414.834 342.561C414.906 342.506 414.973 342.446 415.037 342.382L416.637 340.783C416.834 340.587 417.153 340.587 417.349 340.783C417.546 340.98 417.546 341.299 417.349 341.496L415.75 343.095C415.169 343.676 414.381 344.002 413.56 344Z" fill="#4B5563"/>
</g>
<path d="M426.056 343.08C425.667 343.08 425.309 343.011 424.984 342.872C424.659 342.733 424.376 342.536 424.136 342.28C423.896 342.019 423.709 341.712 423.576 341.36C423.448 341.008 423.384 340.621 423.384 340.2C423.384 339.8 423.453 339.429 423.592 339.088C423.736 338.741 423.933 338.437 424.184 338.176C424.435 337.915 424.725 337.712 425.056 337.568C425.387 337.424 425.744 337.352 426.128 337.352C426.4 337.352 426.664 337.395 426.92 337.48C427.181 337.56 427.416 337.675 427.624 337.824C427.837 337.968 428.011 338.133 428.144 338.32L427.568 338.92C427.413 338.765 427.256 338.637 427.096 338.536C426.941 338.429 426.781 338.349 426.616 338.296C426.456 338.243 426.293 338.216 426.128 338.216C425.867 338.216 425.621 338.267 425.392 338.368C425.168 338.464 424.971 338.6 424.8 338.776C424.635 338.952 424.504 339.163 424.408 339.408C424.312 339.648 424.264 339.912 424.264 340.2C424.264 340.504 424.309 340.781 424.4 341.032C424.496 341.277 424.629 341.488 424.8 341.664C424.971 341.84 425.173 341.976 425.408 342.072C425.648 342.163 425.912 342.208 426.2 342.208C426.376 342.208 426.549 342.184 426.72 342.136C426.891 342.088 427.051 342.019 427.2 341.928C427.349 341.837 427.485 341.731 427.608 341.608L428.04 342.312C427.917 342.456 427.749 342.587 427.536 342.704C427.328 342.821 427.093 342.915 426.832 342.984C426.576 343.048 426.317 343.08 426.056 343.08ZM429.006 343V337.08H429.83V339.664L429.686 339.76C429.739 339.573 429.843 339.403 429.998 339.248C430.152 339.088 430.336 338.96 430.55 338.864C430.763 338.763 430.982 338.712 431.206 338.712C431.526 338.712 431.792 338.776 432.006 338.904C432.219 339.027 432.379 339.216 432.486 339.472C432.592 339.728 432.646 340.051 432.646 340.44V343H431.822V340.496C431.822 340.256 431.79 340.059 431.726 339.904C431.662 339.744 431.563 339.629 431.43 339.56C431.296 339.485 431.131 339.453 430.934 339.464C430.774 339.464 430.627 339.491 430.494 339.544C430.36 339.592 430.243 339.661 430.142 339.752C430.046 339.843 429.968 339.949 429.91 340.072C429.856 340.189 429.83 340.317 429.83 340.456V343H429.422C429.352 343 429.283 343 429.214 343C429.144 343 429.075 343 429.006 343ZM435.652 343.08C435.241 343.08 434.873 342.987 434.548 342.8C434.228 342.608 433.974 342.349 433.788 342.024C433.601 341.693 433.508 341.317 433.508 340.896C433.508 340.475 433.601 340.101 433.788 339.776C433.974 339.445 434.228 339.187 434.548 339C434.873 338.808 435.241 338.712 435.652 338.712C436.057 338.712 436.42 338.808 436.74 339C437.065 339.187 437.321 339.445 437.508 339.776C437.694 340.101 437.788 340.475 437.788 340.896C437.788 341.317 437.694 341.693 437.508 342.024C437.321 342.349 437.065 342.608 436.74 342.8C436.42 342.987 436.057 343.08 435.652 343.08ZM435.652 342.328C435.902 342.328 436.126 342.267 436.324 342.144C436.521 342.016 436.676 341.845 436.788 341.632C436.9 341.413 436.953 341.168 436.948 340.896C436.953 340.619 436.9 340.373 436.788 340.16C436.676 339.941 436.521 339.771 436.324 339.648C436.126 339.525 435.902 339.464 435.652 339.464C435.401 339.464 435.174 339.528 434.972 339.656C434.774 339.779 434.62 339.949 434.508 340.168C434.396 340.381 434.342 340.624 434.348 340.896C434.342 341.168 434.396 341.413 434.508 341.632C434.62 341.845 434.774 342.016 434.972 342.144C435.174 342.267 435.401 342.328 435.652 342.328ZM440.573 343.08C440.163 343.08 439.795 342.987 439.469 342.8C439.149 342.608 438.896 342.349 438.709 342.024C438.523 341.693 438.429 341.317 438.429 340.896C438.429 340.475 438.523 340.101 438.709 339.776C438.896 339.445 439.149 339.187 439.469 339C439.795 338.808 440.163 338.712 440.573 338.712C440.979 338.712 441.341 338.808 441.661 339C441.987 339.187 442.243 339.445 442.429 339.776C442.616 340.101 442.709 340.475 442.709 340.896C442.709 341.317 442.616 341.693 442.429 342.024C442.243 342.349 441.987 342.608 441.661 342.8C441.341 342.987 440.979 343.08 440.573 343.08ZM440.573 342.328C440.824 342.328 441.048 342.267 441.245 342.144C441.443 342.016 441.597 341.845 441.709 341.632C441.821 341.413 441.875 341.168 441.869 340.896C441.875 340.619 441.821 340.373 441.709 340.16C441.597 339.941 441.443 339.771 441.245 339.648C441.048 339.525 440.824 339.464 440.573 339.464C440.323 339.464 440.096 339.528 439.893 339.656C439.696 339.779 439.541 339.949 439.429 340.168C439.317 340.381 439.264 340.624 439.269 340.896C439.264 341.168 439.317 341.413 439.429 341.632C439.541 341.845 439.696 342.016 439.893 342.144C440.096 342.267 440.323 342.328 440.573 342.328ZM445.007 343.08C444.655 343.08 444.338 343.019 444.055 342.896C443.773 342.773 443.538 342.592 443.351 342.352L443.911 341.872C444.071 342.059 444.245 342.195 444.431 342.28C444.623 342.36 444.839 342.4 445.079 342.4C445.175 342.4 445.263 342.389 445.343 342.368C445.429 342.341 445.501 342.304 445.559 342.256C445.623 342.208 445.671 342.152 445.703 342.088C445.735 342.019 445.751 341.944 445.751 341.864C445.751 341.725 445.701 341.613 445.599 341.528C445.546 341.491 445.461 341.451 445.343 341.408C445.231 341.36 445.085 341.312 444.903 341.264C444.594 341.184 444.341 341.093 444.143 340.992C443.946 340.891 443.794 340.776 443.687 340.648C443.607 340.547 443.549 340.437 443.511 340.32C443.474 340.197 443.455 340.064 443.455 339.92C443.455 339.744 443.493 339.584 443.567 339.44C443.647 339.291 443.754 339.163 443.887 339.056C444.026 338.944 444.186 338.859 444.367 338.8C444.554 338.741 444.751 338.712 444.959 338.712C445.157 338.712 445.351 338.739 445.543 338.792C445.741 338.845 445.922 338.923 446.087 339.024C446.253 339.125 446.391 339.245 446.503 339.384L446.031 339.904C445.93 339.803 445.818 339.715 445.695 339.64C445.578 339.56 445.458 339.499 445.335 339.456C445.213 339.413 445.101 339.392 444.999 339.392C444.887 339.392 444.786 339.403 444.695 339.424C444.605 339.445 444.527 339.477 444.463 339.52C444.405 339.563 444.359 339.616 444.327 339.68C444.295 339.744 444.279 339.816 444.279 339.896C444.285 339.965 444.301 340.032 444.327 340.096C444.359 340.155 444.402 340.205 444.455 340.248C444.514 340.291 444.602 340.336 444.719 340.384C444.837 340.432 444.986 340.477 445.167 340.52C445.434 340.589 445.653 340.667 445.823 340.752C445.999 340.832 446.138 340.925 446.239 341.032C446.346 341.133 446.421 341.251 446.463 341.384C446.506 341.517 446.527 341.667 446.527 341.832C446.527 342.072 446.458 342.288 446.319 342.48C446.186 342.667 446.005 342.813 445.775 342.92C445.546 343.027 445.29 343.08 445.007 343.08ZM449.395 343.08C448.963 343.08 448.579 342.989 448.243 342.808C447.913 342.621 447.651 342.368 447.459 342.048C447.273 341.728 447.179 341.36 447.179 340.944C447.179 340.613 447.233 340.312 447.339 340.04C447.446 339.768 447.593 339.533 447.779 339.336C447.971 339.133 448.198 338.979 448.459 338.872C448.726 338.76 449.014 338.704 449.323 338.704C449.595 338.704 449.849 338.757 450.083 338.864C450.318 338.965 450.521 339.107 450.691 339.288C450.867 339.469 451.001 339.685 451.091 339.936C451.187 340.181 451.233 340.451 451.227 340.744L451.219 341.096H447.787L447.603 340.44H450.507L450.387 340.576V340.384C450.371 340.208 450.313 340.051 450.211 339.912C450.11 339.773 449.982 339.664 449.827 339.584C449.673 339.504 449.505 339.464 449.323 339.464C449.035 339.464 448.793 339.52 448.595 339.632C448.398 339.739 448.249 339.899 448.147 340.112C448.046 340.32 447.995 340.579 447.995 340.888C447.995 341.181 448.057 341.437 448.179 341.656C448.302 341.869 448.475 342.035 448.699 342.152C448.923 342.269 449.182 342.328 449.475 342.328C449.683 342.328 449.875 342.293 450.051 342.224C450.233 342.155 450.427 342.029 450.635 341.848L451.051 342.432C450.923 342.56 450.766 342.672 450.579 342.768C450.398 342.864 450.203 342.941 449.995 343C449.793 343.053 449.593 343.08 449.395 343.08ZM454.821 343V338.328C454.821 338.088 454.874 337.875 454.981 337.688C455.088 337.501 455.234 337.355 455.421 337.248C455.608 337.141 455.824 337.088 456.069 337.088C456.24 337.088 456.4 337.12 456.549 337.184C456.698 337.248 456.818 337.333 456.909 337.44L456.629 338.072C456.56 338.008 456.482 337.957 456.397 337.92C456.317 337.877 456.24 337.856 456.165 337.856C456.053 337.856 455.957 337.875 455.877 337.912C455.802 337.944 455.746 337.997 455.709 338.072C455.672 338.141 455.653 338.227 455.653 338.328V343H455.237C455.168 343 455.098 343 455.029 343C454.96 343 454.89 343 454.821 343ZM454.149 339.632V338.872H456.645V339.632H454.149ZM457.645 343V338.8H458.469V343H457.645ZM458.045 337.872C457.869 337.872 457.733 337.827 457.637 337.736C457.541 337.645 457.493 337.517 457.493 337.352C457.493 337.197 457.541 337.072 457.637 336.976C457.738 336.88 457.874 336.832 458.045 336.832C458.221 336.832 458.357 336.877 458.453 336.968C458.549 337.059 458.597 337.187 458.597 337.352C458.597 337.507 458.546 337.632 458.445 337.728C458.349 337.824 458.216 337.872 458.045 337.872ZM459.748 343V337.08H460.572V343H459.748ZM463.622 343.08C463.19 343.08 462.806 342.989 462.47 342.808C462.139 342.621 461.878 342.368 461.686 342.048C461.499 341.728 461.406 341.36 461.406 340.944C461.406 340.613 461.459 340.312 461.566 340.04C461.673 339.768 461.819 339.533 462.006 339.336C462.198 339.133 462.425 338.979 462.686 338.872C462.953 338.76 463.241 338.704 463.55 338.704C463.822 338.704 464.075 338.757 464.31 338.864C464.545 338.965 464.747 339.107 464.918 339.288C465.094 339.469 465.227 339.685 465.318 339.936C465.414 340.181 465.459 340.451 465.454 340.744L465.446 341.096H462.014L461.83 340.44H464.734L464.614 340.576V340.384C464.598 340.208 464.539 340.051 464.438 339.912C464.337 339.773 464.209 339.664 464.054 339.584C463.899 339.504 463.731 339.464 463.55 339.464C463.262 339.464 463.019 339.52 462.822 339.632C462.625 339.739 462.475 339.899 462.374 340.112C462.273 340.32 462.222 340.579 462.222 340.888C462.222 341.181 462.283 341.437 462.406 341.656C462.529 341.869 462.702 342.035 462.926 342.152C463.15 342.269 463.409 342.328 463.702 342.328C463.91 342.328 464.102 342.293 464.278 342.224C464.459 342.155 464.654 342.029 464.862 341.848L465.278 342.432C465.15 342.56 464.993 342.672 464.806 342.768C464.625 342.864 464.43 342.941 464.222 343C464.019 343.053 463.819 343.08 463.622 343.08ZM469.112 343V337.728H469.936V343H469.112ZM468.24 339.6V338.8H470.912V339.6H468.24ZM473.511 343.08C473.1 343.08 472.732 342.987 472.407 342.8C472.087 342.608 471.834 342.349 471.647 342.024C471.46 341.693 471.367 341.317 471.367 340.896C471.367 340.475 471.46 340.101 471.647 339.776C471.834 339.445 472.087 339.187 472.407 339C472.732 338.808 473.1 338.712 473.511 338.712C473.916 338.712 474.279 338.808 474.599 339C474.924 339.187 475.18 339.445 475.367 339.776C475.554 340.101 475.647 340.475 475.647 340.896C475.647 341.317 475.554 341.693 475.367 342.024C475.18 342.349 474.924 342.608 474.599 342.8C474.279 342.987 473.916 343.08 473.511 343.08ZM473.511 342.328C473.762 342.328 473.986 342.267 474.183 342.144C474.38 342.016 474.535 341.845 474.647 341.632C474.759 341.413 474.812 341.168 474.807 340.896C474.812 340.619 474.759 340.373 474.647 340.16C474.535 339.941 474.38 339.771 474.183 339.648C473.986 339.525 473.762 339.464 473.511 339.464C473.26 339.464 473.034 339.528 472.831 339.656C472.634 339.779 472.479 339.949 472.367 340.168C472.255 340.381 472.202 340.624 472.207 340.896C472.202 341.168 472.255 341.413 472.367 341.632C472.479 341.845 472.634 342.016 472.831 342.144C473.034 342.267 473.26 342.328 473.511 342.328ZM480.259 343.08C479.96 343.08 479.699 343.011 479.475 342.872C479.256 342.733 479.086 342.539 478.963 342.288C478.846 342.037 478.787 341.739 478.787 341.392V338.8H479.611V341.168C479.611 341.413 479.648 341.627 479.723 341.808C479.803 341.984 479.915 342.12 480.059 342.216C480.208 342.312 480.387 342.36 480.595 342.36C480.75 342.36 480.891 342.336 481.019 342.288C481.147 342.235 481.256 342.163 481.347 342.072C481.443 341.981 481.518 341.872 481.571 341.744C481.624 341.616 481.651 341.477 481.651 341.328V338.8H482.475V343H481.651V342.12L481.795 342.024C481.731 342.221 481.622 342.4 481.467 342.56C481.318 342.72 481.139 342.848 480.931 342.944C480.723 343.035 480.499 343.08 480.259 343.08ZM483.631 344.76V338.8H484.463V339.76L484.335 339.688C484.367 339.528 484.457 339.376 484.607 339.232C484.756 339.083 484.937 338.963 485.151 338.872C485.369 338.776 485.593 338.728 485.823 338.728C486.201 338.728 486.537 338.821 486.831 339.008C487.124 339.195 487.356 339.451 487.527 339.776C487.697 340.101 487.783 340.475 487.783 340.896C487.783 341.312 487.697 341.685 487.527 342.016C487.361 342.341 487.132 342.6 486.839 342.792C486.545 342.979 486.215 343.072 485.847 343.072C485.601 343.072 485.364 343.024 485.135 342.928C484.905 342.827 484.711 342.699 484.551 342.544C484.391 342.389 484.292 342.229 484.255 342.064L484.463 341.952V344.76H483.631ZM485.711 342.312C485.956 342.312 486.175 342.251 486.367 342.128C486.559 342.005 486.711 341.837 486.823 341.624C486.935 341.411 486.991 341.168 486.991 340.896C486.991 340.624 486.935 340.384 486.823 340.176C486.716 339.963 486.567 339.795 486.375 339.672C486.183 339.549 485.961 339.488 485.711 339.488C485.46 339.488 485.239 339.549 485.047 339.672C484.855 339.789 484.703 339.955 484.591 340.168C484.479 340.381 484.423 340.624 484.423 340.896C484.423 341.168 484.479 341.411 484.591 341.624C484.703 341.837 484.855 342.005 485.047 342.128C485.239 342.251 485.46 342.312 485.711 342.312ZM488.694 343V337.08H489.518V343H488.694ZM492.495 343.08C492.085 343.08 491.717 342.987 491.391 342.8C491.071 342.608 490.818 342.349 490.631 342.024C490.445 341.693 490.351 341.317 490.351 340.896C490.351 340.475 490.445 340.101 490.631 339.776C490.818 339.445 491.071 339.187 491.391 339C491.717 338.808 492.085 338.712 492.495 338.712C492.901 338.712 493.263 338.808 493.583 339C493.909 339.187 494.165 339.445 494.351 339.776C494.538 340.101 494.631 340.475 494.631 340.896C494.631 341.317 494.538 341.693 494.351 342.024C494.165 342.349 493.909 342.608 493.583 342.8C493.263 342.987 492.901 343.08 492.495 343.08ZM492.495 342.328C492.746 342.328 492.97 342.267 493.167 342.144C493.365 342.016 493.519 341.845 493.631 341.632C493.743 341.413 493.797 341.168 493.791 340.896C493.797 340.619 493.743 340.373 493.631 340.16C493.519 339.941 493.365 339.771 493.167 339.648C492.97 339.525 492.746 339.464 492.495 339.464C492.245 339.464 492.018 339.528 491.815 339.656C491.618 339.779 491.463 339.949 491.351 340.168C491.239 340.381 491.186 340.624 491.191 340.896C491.186 341.168 491.239 341.413 491.351 341.632C491.463 341.845 491.618 342.016 491.815 342.144C492.018 342.267 492.245 342.328 492.495 342.328ZM497.145 343.08C496.798 343.08 496.481 342.984 496.193 342.792C495.91 342.6 495.684 342.339 495.513 342.008C495.342 341.677 495.257 341.304 495.257 340.888C495.257 340.467 495.342 340.093 495.513 339.768C495.689 339.437 495.924 339.179 496.217 338.992C496.516 338.805 496.849 338.712 497.217 338.712C497.436 338.712 497.636 338.744 497.817 338.808C497.998 338.872 498.156 338.963 498.289 339.08C498.428 339.192 498.54 339.323 498.625 339.472C498.716 339.621 498.772 339.781 498.793 339.952L498.609 339.888V338.8H499.441V343H498.609V342L498.801 341.944C498.769 342.088 498.702 342.229 498.601 342.368C498.505 342.501 498.38 342.621 498.225 342.728C498.076 342.835 497.908 342.92 497.721 342.984C497.54 343.048 497.348 343.08 497.145 343.08ZM497.361 342.32C497.612 342.32 497.833 342.259 498.025 342.136C498.217 342.013 498.366 341.845 498.473 341.632C498.585 341.413 498.641 341.165 498.641 340.888C498.641 340.616 498.585 340.373 498.473 340.16C498.366 339.947 498.217 339.779 498.025 339.656C497.833 339.533 497.612 339.472 497.361 339.472C497.116 339.472 496.897 339.533 496.705 339.656C496.518 339.779 496.369 339.947 496.257 340.16C496.15 340.373 496.097 340.616 496.097 340.888C496.097 341.165 496.15 341.413 496.257 341.632C496.369 341.845 496.518 342.013 496.705 342.136C496.897 342.259 497.116 342.32 497.361 342.32ZM502.344 343.08C501.96 343.08 501.616 342.987 501.312 342.8C501.013 342.608 500.776 342.349 500.6 342.024C500.424 341.693 500.336 341.317 500.336 340.896C500.336 340.475 500.421 340.101 500.592 339.776C500.768 339.445 501.005 339.187 501.304 339C501.602 338.808 501.941 338.712 502.32 338.712C502.528 338.712 502.728 338.747 502.92 338.816C503.117 338.88 503.293 338.971 503.448 339.088C503.602 339.2 503.722 339.325 503.808 339.464C503.898 339.597 503.944 339.733 503.944 339.872L503.704 339.888V337.08H504.528V343H503.704V342H503.864C503.864 342.128 503.821 342.256 503.736 342.384C503.65 342.507 503.536 342.621 503.392 342.728C503.253 342.835 503.09 342.92 502.904 342.984C502.722 343.048 502.536 343.08 502.344 343.08ZM502.456 342.368C502.706 342.368 502.928 342.304 503.12 342.176C503.312 342.048 503.461 341.875 503.568 341.656C503.68 341.432 503.736 341.179 503.736 340.896C503.736 340.613 503.68 340.363 503.568 340.144C503.461 339.92 503.312 339.744 503.12 339.616C502.928 339.488 502.706 339.424 502.456 339.424C502.205 339.424 501.984 339.488 501.792 339.616C501.6 339.744 501.448 339.92 501.336 340.144C501.229 340.363 501.176 340.613 501.176 340.896C501.176 341.179 501.229 341.432 501.336 341.656C501.448 341.875 501.6 342.048 501.792 342.176C501.984 342.304 502.205 342.368 502.456 342.368Z" fill="#6B7280"/>
<path d="M346.65 367.09H344.97V369.5H346.61C347.37 369.5 347.71 368.89 347.71 368.3C347.71 367.72 347.4 367.09 346.65 367.09ZM343.9 373V366.11H346.67C348.15 366.11 348.77 367.21 348.77 368.3C348.77 369.39 348.15 370.47 346.67 370.47H344.97V373H343.9ZM350.766 371.32V373H349.736V368.33H350.766V369.4C351.006 368.56 351.456 368.23 352.046 368.23C352.376 368.23 352.726 368.3 352.876 368.41L352.706 369.36C352.436 369.23 352.216 369.2 352.016 369.2C351.136 369.2 350.766 370.08 350.766 371.32ZM354.75 368.33V373H353.73V368.33H354.75ZM353.55 366.44C353.55 366.07 353.87 365.79 354.24 365.79C354.63 365.79 354.92 366.07 354.92 366.44C354.92 366.81 354.63 367.09 354.24 367.09C353.87 367.09 353.55 366.81 353.55 366.44ZM355.891 370.65C355.891 369.17 357.041 368.23 358.381 368.23C359.131 368.23 359.791 368.52 360.231 369.04L359.431 369.68C359.181 369.39 358.791 369.23 358.381 369.23C357.601 369.23 356.911 369.78 356.911 370.65C356.911 371.52 357.601 372.11 358.381 372.11C358.791 372.11 359.181 371.94 359.431 371.65L360.241 372.28C359.801 372.8 359.141 373.1 358.381 373.1C357.041 373.1 355.891 372.13 355.891 370.65ZM365.67 370.65C365.67 370.76 365.67 370.92 365.66 371.03H361.95C362.06 371.75 362.62 372.2 363.38 372.2C363.9 372.2 364.41 371.96 364.65 371.53L365.49 371.9C365.09 372.73 364.2 373.1 363.33 373.1C362.01 373.1 360.93 372.13 360.93 370.65C360.93 369.17 362.01 368.23 363.33 368.23C364.65 368.23 365.67 369.17 365.67 370.65ZM361.95 370.28H364.66C364.55 369.55 364.04 369.13 363.33 369.13C362.61 369.13 362.06 369.56 361.95 370.28Z" fill="black"/>
<path d="M343.5 384C343.5 382.067 345.067 380.5 347 380.5H439C440.933 380.5 442.5 382.067 442.5 384V396C442.5 397.933 440.933 399.5 439 399.5H347C345.067 399.5 343.5 397.933 343.5 396V384Z" stroke="#E5E7EB"/>
<path d="M478.81 371.18L479.63 371.83C479.03 372.62 478.08 373.1 476.95 373.1C475 373.1 473.47 371.53 473.47 369.57C473.47 367.62 475 366.03 476.95 366.03C478.06 366.03 479 366.51 479.61 367.27L478.79 367.91C478.34 367.4 477.71 367.05 476.95 367.05C475.58 367.05 474.53 368.18 474.53 369.57C474.53 370.97 475.58 372.08 476.95 372.08C477.71 372.08 478.38 371.74 478.81 371.18ZM482.686 372.1C483.466 372.1 484.106 371.53 484.106 370.65C484.106 369.8 483.466 369.24 482.686 369.24C481.916 369.24 481.276 369.8 481.276 370.65C481.276 371.53 481.916 372.1 482.686 372.1ZM482.686 373.1C481.366 373.1 480.256 372.13 480.256 370.65C480.256 369.17 481.366 368.23 482.686 368.23C484.016 368.23 485.136 369.17 485.136 370.65C485.136 372.13 484.016 373.1 482.686 373.1ZM487.999 371.13L487.369 370.98C486.369 370.71 486.009 370.22 486.079 369.46C486.129 368.77 486.899 368.23 487.749 368.23C488.569 368.23 489.399 368.61 489.449 369.61H488.469C488.429 369.26 488.109 369.11 487.789 369.11C487.519 369.11 487.239 369.21 487.129 369.37C487.049 369.5 487.039 369.64 487.089 369.79C487.159 369.98 487.409 370.08 487.659 370.15L488.379 370.33C489.379 370.57 489.599 371.23 489.599 371.69C489.599 372.59 488.809 373.1 487.739 373.1C486.859 373.1 485.979 372.56 485.949 371.57H486.899C486.949 371.97 487.269 372.24 487.819 372.24C488.289 372.24 488.649 372.03 488.649 371.68C488.649 371.37 488.349 371.21 487.999 371.13ZM492.122 366.56V368.33H493.112V369.18H492.122V373H491.092V369.18H490.252V368.33H491.092V366.56H492.122Z" fill="black"/>
<path d="M473.5 384C473.5 382.067 475.067 380.5 477 380.5H569C570.933 380.5 572.5 382.067 572.5 384V396C572.5 397.933 570.933 399.5 569 399.5H477C475.067 399.5 473.5 397.933 473.5 396V384Z" stroke="#E5E7EB"/>
<path d="M344.53 414.57C344.53 415.96 345.59 417.06 346.95 417.06C348.32 417.06 349.38 415.96 349.38 414.57C349.38 413.18 348.32 412.07 346.95 412.07C345.59 412.07 344.53 413.18 344.53 414.57ZM343.47 414.57C343.47 412.62 344.99 411.03 346.95 411.03C348.92 411.03 350.45 412.62 350.45 414.57C350.45 416.53 348.92 418.1 346.95 418.1C344.99 418.1 343.47 416.53 343.47 414.57ZM352.611 415.49V418H351.581V413.33H352.611V414.03C352.881 413.5 353.531 413.23 354.041 413.23C355.171 413.23 355.821 413.95 355.821 415.28V418H354.791V415.4C354.791 414.65 354.411 414.24 353.811 414.24C353.201 414.24 352.611 414.57 352.611 415.49ZM357.216 418V410.79H358.246V418H357.216ZM360.707 413.33V418H359.687V413.33H360.707ZM359.507 411.44C359.507 411.07 359.827 410.79 360.197 410.79C360.587 410.79 360.877 411.07 360.877 411.44C360.877 411.81 360.587 412.09 360.197 412.09C359.827 412.09 359.507 411.81 359.507 411.44ZM363.178 415.49V418H362.148V413.33H363.178V414.03C363.448 413.5 364.098 413.23 364.608 413.23C365.738 413.23 366.388 413.95 366.388 415.28V418H365.358V415.4C365.358 414.65 364.978 414.24 364.378 414.24C363.768 414.24 363.178 414.57 363.178 415.49ZM372.223 415.65C372.223 415.76 372.223 415.92 372.213 416.03H368.503C368.613 416.75 369.173 417.2 369.933 417.2C370.453 417.2 370.963 416.96 371.203 416.53L372.043 416.9C371.643 417.73 370.753 418.1 369.883 418.1C368.563 418.1 367.483 417.13 367.483 415.65C367.483 414.17 368.563 413.23 369.883 413.23C371.203 413.23 372.223 414.17 372.223 415.65ZM368.503 415.28H371.213C371.103 414.55 370.593 414.13 369.883 414.13C369.163 414.13 368.613 414.56 368.503 415.28ZM380.579 412.93C380.579 413.47 380.359 414.06 379.689 414.33C380.489 414.52 380.949 415.32 380.949 415.98C380.949 417.07 380.189 418 378.879 418H376.029V411.11H378.669C379.839 411.11 380.579 411.8 380.579 412.93ZM377.099 413.94H378.629C379.189 413.94 379.479 413.49 379.479 412.97C379.479 412.41 379.129 412.08 378.559 412.08H377.099V413.94ZM378.799 414.85H377.099V417.03H378.829C379.469 417.03 379.839 416.5 379.839 415.97C379.839 415.46 379.459 414.85 378.799 414.85ZM384.268 417.1C385.048 417.1 385.688 416.53 385.688 415.65C385.688 414.8 385.048 414.24 384.268 414.24C383.498 414.24 382.858 414.8 382.858 415.65C382.858 416.53 383.498 417.1 384.268 417.1ZM384.268 418.1C382.948 418.1 381.838 417.13 381.838 415.65C381.838 414.17 382.948 413.23 384.268 413.23C385.598 413.23 386.718 414.17 386.718 415.65C386.718 417.13 385.598 418.1 384.268 418.1ZM389.991 417.1C390.771 417.1 391.411 416.53 391.411 415.65C391.411 414.8 390.771 414.24 389.991 414.24C389.221 414.24 388.581 414.8 388.581 415.65C388.581 416.53 389.221 417.1 389.991 417.1ZM389.991 418.1C388.671 418.1 387.561 417.13 387.561 415.65C387.561 414.17 388.671 413.23 389.991 413.23C391.321 413.23 392.441 414.17 392.441 415.65C392.441 417.13 391.321 418.1 389.991 418.1ZM396.593 418L394.603 415.83V418H393.583V410.79H394.603V414.87L396.083 413.33H397.463L395.473 415.36L397.913 418H396.593ZM399.662 413.33V418H398.642V413.33H399.662ZM398.462 411.44C398.462 411.07 398.782 410.79 399.152 410.79C399.542 410.79 399.832 411.07 399.832 411.44C399.832 411.81 399.542 412.09 399.152 412.09C398.782 412.09 398.462 411.81 398.462 411.44ZM402.133 415.49V418H401.103V413.33H402.133V414.03C402.403 413.5 403.053 413.23 403.563 413.23C404.693 413.23 405.343 413.95 405.343 415.28V418H404.313V415.4C404.313 414.65 403.933 414.24 403.333 414.24C402.723 414.24 402.133 414.57 402.133 415.49ZM410.368 415.67C410.368 414.74 409.698 414.23 408.928 414.23C408.148 414.23 407.508 414.82 407.508 415.67C407.508 416.55 408.148 417.11 408.928 417.11C409.628 417.11 410.368 416.59 410.368 415.67ZM407.518 418.59C407.768 419.08 408.318 419.37 408.828 419.37C409.778 419.37 410.388 418.84 410.388 417.53V417.29C410.128 417.82 409.438 418.1 408.808 418.1C407.548 418.1 406.448 417.16 406.448 415.68C406.448 414.2 407.548 413.23 408.808 413.23C409.448 413.23 410.098 413.51 410.388 414.02V413.33H411.398V417.31C411.398 419.46 410.398 420.33 408.828 420.33C407.918 420.33 407.108 419.86 406.668 419.02C406.858 418.94 407.328 418.67 407.518 418.59Z" fill="black"/>
<path d="M343.5 429C343.5 427.067 345.067 425.5 347 425.5H569C570.933 425.5 572.5 427.067 572.5 429V441C572.5 442.933 570.933 444.5 569 444.5H347C345.067 444.5 343.5 442.933 343.5 441V429Z" stroke="#E5E7EB"/>
<path d="M343 459C343 456.791 344.791 455 347 455H569C571.209 455 573 456.791 573 459V477C573 479.209 571.209 481 569 481H347C344.791 481 343 479.209 343 477V459Z" fill="#407CEE"/>
<path d="M447 469H448.06C448.09 469.56 448.6 470.13 449.43 470.13C450.24 470.13 450.66 469.7 450.73 469.19C450.77 468.55 450.28 468.22 449.64 468.07L448.77 467.85C447.29 467.45 447.06 466.61 447.06 466C447.06 464.82 448.12 464.03 449.33 464.03C450.61 464.03 451.57 464.81 451.57 466.07H450.51C450.51 465.43 450.03 465.03 449.31 465.03C448.67 465.03 448.12 465.42 448.12 465.98C448.12 466.25 448.22 466.67 449.04 466.88L449.92 467.11C451.32 467.48 451.89 468.25 451.78 469.25C451.67 470.33 450.74 471.1 449.43 471.1C448 471.1 447 470.12 447 469ZM456.602 471V470.33C456.282 470.84 455.632 471.1 455.032 471.1C453.782 471.1 452.662 470.15 452.662 468.66C452.662 467.17 453.782 466.23 455.032 466.23C455.592 466.23 456.282 466.46 456.602 466.99V466.33H457.622V471H456.602ZM453.722 468.65C453.722 469.51 454.382 470.1 455.152 470.1C455.912 470.1 456.592 469.57 456.592 468.65C456.592 467.74 455.852 467.23 455.152 467.23C454.382 467.23 453.722 467.79 453.722 468.65ZM460.426 471L458.476 466.33H459.566L460.906 469.69L462.226 466.33H463.326L461.376 471H460.426ZM468.515 468.65C468.515 468.76 468.515 468.92 468.505 469.03H464.795C464.905 469.75 465.465 470.2 466.225 470.2C466.745 470.2 467.255 469.96 467.495 469.53L468.335 469.9C467.935 470.73 467.045 471.1 466.175 471.1C464.855 471.1 463.775 470.13 463.775 468.65C463.775 467.17 464.855 466.23 466.175 466.23C467.495 466.23 468.515 467.17 468.515 468.65ZM464.795 468.28H467.505C467.395 467.55 466.885 467.13 466.175 467.13C465.455 467.13 464.905 467.56 464.795 468.28Z" fill="white"/>
</g>
</g>
<defs>
<filter id="filter0_d_1228_1955" x="0" y="0" width="606" height="432" filterUnits="userSpaceOnUse" color-interpolation-filters="sRGB">
<feFlood flood-opacity="0" result="BackgroundImageFix"/>
<feColorMatrix in="SourceAlpha" type="matrix" values="0 0 0 0 0 0 0 0 0 0 0 0 0 0 0 0 0 0 127 0" result="hardAlpha"/>
<feOffset dy="15"/>
<feGaussianBlur stdDeviation="25"/>
<feComposite in2="hardAlpha" operator="out"/>
<feColorMatrix type="matrix" values="0 0 0 0 0 0 0 0 0 0 0 0 0 0 0 0 0 0 0.1 0"/>
<feBlend mode="normal" in2="BackgroundImageFix" result="effect1_dropShadow_1228_1955"/>
<feBlend mode="normal" in="SourceGraphic" in2="effect1_dropShadow_1228_1955" result="shape"/>
</filter>
<filter id="filter1_d_1228_1955" x="288" y="73" width="310" height="448" filterUnits="userSpaceOnUse" color-interpolation-filters="sRGB">
<feFlood flood-opacity="0" result="BackgroundImageFix"/>
<feColorMatrix in="SourceAlpha" type="matrix" values="0 0 0 0 0 0 0 0 0 0 0 0 0 0 0 0 0 0 127 0" result="hardAlpha"/>
<feOffset dx="-15"/>
<feGaussianBlur stdDeviation="15"/>
<feComposite in2="hardAlpha" operator="out"/>
<feColorMatrix type="matrix" values="0 0 0 0 0.176471 0 0 0 0 0.392157 0 0 0 0 0.839216 0 0 0 0.1 0"/>
<feBlend mode="normal" in2="BackgroundImageFix" result="effect1_dropShadow_1228_1955"/>
<feBlend mode="normal" in="SourceGraphic" in2="effect1_dropShadow_1228_1955" result="shape"/>
</filter>
<clipPath id="clip0_1228_1955">
<path d="M53 46C53 41.5817 56.5817 38 61 38H545C549.418 38 553 41.5817 553 46V356C553 360.418 549.418 364 545 364H61C56.5817 364 53 360.418 53 356V46Z" fill="white"/>
</clipPath>
<clipPath id="clip1_1228_1955">
<path d="M333 111C333 106.582 336.582 103 341 103H575C579.418 103 583 106.582 583 111V483C583 487.418 579.418 491 575 491H341C336.582 491 333 487.418 333 483V111Z" fill="white"/>
</clipPath>
<clipPath id="clip2_1228_1955">
<rect width="8" height="8" fill="white" transform="translate(410 336)"/>
</clipPath>
</defs>
</svg>
