<svg width="235" height="35" viewBox="0 0 235 35" fill="none" xmlns="http://www.w3.org/2000/svg">
<path d="M22.0491 24.5983C23.0834 22.2773 24.11 19.9685 25.1397 17.6597C27.4394 12.4976 29.7406 7.33555 32.0417 2.17346C32.5893 0.946053 33.6646 0.800046 34.5346 1.83581C36.2958 3.93472 38.048 6.03971 39.8153 8.13101C40.2183 8.60706 40.3142 9.09984 40.1423 9.69909C37.9567 17.3312 35.7802 24.9664 33.6007 32.5985C33.2296 33.8974 32.317 34.2076 31.225 33.4106C29.0394 31.8136 26.8523 30.2182 24.6758 28.6105C24.5115 28.4889 24.3579 28.2835 24.3093 28.0889C23.9184 26.5055 23.3876 25.6599 22.0476 24.5968L22.0491 24.5983Z" fill="white"/>
<path d="M18.1646 24.612C16.8764 25.4728 16.198 26.7139 15.8695 28.1847C15.8361 28.3368 15.7083 28.498 15.579 28.5923C13.3341 30.2455 11.0846 31.8958 8.82754 33.5338C7.95299 34.1681 6.97046 33.8152 6.67084 32.7673C4.47459 25.085 2.28443 17.3996 0.0851453 9.71886C-0.0852006 9.12569 -0.00915518 8.62531 0.396937 8.14469C2.18709 6.02601 3.95899 3.89364 5.7461 1.77344C6.55372 0.815248 7.64577 0.971908 8.15681 2.1187C11.4451 9.49073 14.7288 16.8643 18.0141 24.2363C18.0658 24.3519 18.1084 24.472 18.1646 24.6104V24.612Z" fill="white"/>
<path d="M9.36743 1.17116H30.8478C30.8021 1.30956 30.7732 1.42818 30.7246 1.53769C29.485 4.31798 28.2378 7.09524 27.0104 9.88009C26.8872 10.1599 26.7458 10.2573 26.4446 10.2573C22.2057 10.2482 17.9669 10.2558 13.7265 10.2406C13.5683 10.2406 13.3295 10.0976 13.2671 9.95766C11.9804 7.11045 10.715 4.25412 9.445 1.40082C9.42067 1.34455 9.40546 1.28523 9.36895 1.17116H9.36743Z" fill="white"/>
<path d="M17.2124 29.4501C17.2337 28.4478 17.4816 27.4774 18.1098 26.6318C19.182 25.1869 20.9159 25.158 22.0444 26.5588C23.3084 28.1284 23.3068 30.9011 22.0399 32.4737C20.925 33.8593 19.217 33.8456 18.1356 32.4326C17.474 31.5672 17.223 30.5634 17.2124 29.4516V29.4501Z" fill="white"/>
<path d="M51.6377 0.307236H59.7017C61.7565 0.307236 63.3733 0.871502 64.4015 1.89966C65.1969 2.69512 65.6091 3.67158 65.6091 4.87921V4.93091C65.6091 7.08762 64.3771 8.24353 63.0417 8.93708C65.1467 9.65649 66.6114 10.8626 66.6114 13.3022V13.3539C66.6114 16.5646 63.9665 18.2848 59.9603 18.2848H51.6407V0.308758L51.6377 0.307236ZM62.4486 5.39177C62.4486 3.97881 61.3185 3.10578 59.2896 3.10578H54.7435V7.88155H59.0584C61.0873 7.88155 62.4486 7.08609 62.4486 5.44195V5.39024V5.39177ZM59.7535 10.5538H54.7465V15.4848H59.9846C62.1413 15.4848 63.4509 14.6376 63.4509 13.0193V12.9676C63.4509 11.4527 62.2432 10.5538 59.7535 10.5538Z" fill="white"/>
<path d="M70.178 0.307236H73.337V15.4072H82.7866V18.2833H70.178V0.307236Z" fill="white"/>
<path d="M85.2764 10.6573V0.308762H88.4354V10.5295C88.4354 13.868 90.1556 15.6399 92.9815 15.6399C95.8074 15.6399 97.5017 13.9714 97.5017 10.6573V0.308762H100.661V10.5037C100.661 15.8711 97.631 18.5677 92.9313 18.5677C88.2316 18.5677 85.2794 15.8711 85.2794 10.6588L85.2764 10.6573Z" fill="white"/>
<path d="M104.999 0.307232H118.327V3.13164H108.158V7.8055H117.171V10.6299H108.158V15.4574H118.454V18.2818H104.999V0.30571V0.307232Z" fill="white"/>
<path d="M126.543 9.34774V9.29602C126.543 4.18564 130.369 0 135.813 0C139.126 0 141.129 1.15592 142.849 2.79854L140.82 5.13471C139.381 3.79932 137.84 2.90045 135.787 2.90045C132.371 2.90045 129.855 5.72484 129.855 9.24279V9.2945C129.855 12.8124 132.347 15.6627 135.787 15.6627C137.995 15.6627 139.408 14.7897 140.949 13.3509L142.978 15.4057C141.103 17.357 139.049 18.5905 135.685 18.5905C130.447 18.5905 126.543 14.5068 126.543 9.34622V9.34774Z" fill="white"/>
<path d="M144.98 9.34774V9.29602C144.98 4.23735 148.882 0 154.404 0C159.925 0 163.777 4.18565 163.777 9.24431V9.29602C163.777 14.3547 159.874 18.592 154.353 18.592C148.832 18.592 144.98 14.4064 144.98 9.34774ZM160.464 9.34774V9.29602C160.464 5.80393 157.923 2.90198 154.353 2.90198C150.784 2.90198 148.292 5.75222 148.292 9.24431V9.29602C148.292 12.7881 150.835 15.6642 154.404 15.6642C157.972 15.6642 160.464 12.8398 160.464 9.34622V9.34774Z" fill="white"/>
<path d="M167.604 0.307236H170.763V15.4072H180.212V18.2833H167.604V0.307236Z" fill="white"/>
<path d="M183.498 0.307236H186.657V15.4072H196.106V18.2833H183.498V0.307236Z" fill="white"/>
<path d="M205.761 0.179474H208.689L216.598 18.2833H213.26L211.436 13.944H202.935L201.086 18.2833H197.851L205.76 0.179474H205.761ZM210.282 11.144L207.174 3.95293L204.093 11.144H210.282Z" fill="white"/>
<path d="M219.679 0.307232H227.692C229.952 0.307232 231.724 0.974938 232.879 2.105C233.83 3.08145 234.369 4.41684 234.369 5.98189V6.0336C234.369 8.98727 232.597 10.7592 230.105 11.4771L234.959 18.2818H231.209L226.793 12.0155H222.838V18.2818H219.679V0.30571V0.307232ZM227.46 9.21845C229.72 9.21845 231.158 8.03669 231.158 6.21308V6.16135C231.158 4.23583 229.771 3.18182 227.435 3.18182H222.838V9.21694H227.46V9.21845Z" fill="white"/>
<path d="M107.224 27.2766H102.136V29.59H106.646V31.0166H102.136V33.4197H107.289V34.8464H100.57V25.8515H107.225V27.2782L107.224 27.2766Z" fill="white"/>
<path d="M121.93 25.85H123.498V34.8449H122.178L117.228 28.4463V34.8449H115.66V25.85H117.122L121.93 32.0692V25.85Z" fill="white"/>
<path d="M139.571 34.1376C139.302 34.3095 139.01 34.4585 138.698 34.5878C138.385 34.7171 138.049 34.8175 137.69 34.8905C137.329 34.9635 136.952 35 136.56 35C135.857 35 135.22 34.8829 134.645 34.6471C134.071 34.4114 133.58 34.0859 133.174 33.6707C132.767 33.2555 132.453 32.7642 132.23 32.1999C132.008 31.6342 131.895 31.0227 131.895 30.3626C131.895 29.7025 132.009 29.1292 132.236 28.5634C132.462 27.9976 132.782 27.5033 133.192 27.0789C133.603 26.6546 134.094 26.3184 134.663 26.0705C135.232 25.8226 135.856 25.6979 136.532 25.6979C136.926 25.6979 137.284 25.7253 137.605 25.7815C137.926 25.8378 138.224 25.9169 138.497 26.0188C138.771 26.1222 139.031 26.2485 139.275 26.3975C139.52 26.5481 139.757 26.7215 139.988 26.9177L138.986 28.1132C138.814 27.9672 138.639 27.8348 138.459 27.7147C138.28 27.5945 138.091 27.4941 137.894 27.412C137.696 27.3314 137.48 27.266 137.244 27.2189C137.008 27.1717 136.75 27.1489 136.467 27.1489C136.056 27.1489 135.673 27.2325 135.317 27.3998C134.961 27.5671 134.652 27.7968 134.392 28.0888C134.131 28.3809 133.925 28.72 133.775 29.1063C133.624 29.4927 133.55 29.9048 133.55 30.3429C133.55 30.8068 133.623 31.2357 133.769 31.6311C133.915 32.0266 134.122 32.3673 134.392 32.6547C134.662 32.9422 134.984 33.1673 135.357 33.3315C135.729 33.4943 136.148 33.5764 136.61 33.5764C137.039 33.5764 137.439 33.514 137.812 33.3893C138.184 33.2646 138.508 33.0988 138.782 32.892V31.1992H136.482V29.8242H140.312V33.6023C140.088 33.7909 139.843 33.9703 139.573 34.1422L139.571 34.1376Z" fill="white"/>
<path d="M150.507 25.85V34.8449H148.939V25.85H150.507Z" fill="white"/>
<path d="M165.675 25.85H167.243V34.8449H165.923L160.974 28.4463V34.8449H159.406V25.85H160.867L165.675 32.0692V25.85Z" fill="white"/>
<path d="M182.693 27.2766H177.605V29.59H182.115V31.0166H177.605V33.4197H182.758V34.8464H176.039V25.8515H182.694V27.2782L182.693 27.2766Z" fill="white"/>
<path d="M89.4454 29.4501H67.8997V31.2463H89.4454V29.4501Z" fill="white"/>
<path d="M218.695 29.4501H197.15V31.2463H218.695V29.4501Z" fill="white"/>
</svg>
